<?xml version="1.0" encoding="utf-8"?>
<!-- Generator: Adobe Illustrator 27.5.0, SVG Export Plug-In . SVG Version: 6.00 Build 0)  -->
<svg version="1.1" xmlns="http://www.w3.org/2000/svg" xmlns:xlink="http://www.w3.org/1999/xlink" x="0px" y="0px"
	 viewBox="0 0 750 500" style="enable-background:new 0 0 750 500;" xml:space="preserve">
<g id="BACKGROUND">
</g>
<g id="OBJECTS">
	<path style="fill:#C5DEFC;" d="M123.544,183.604c-38.013,64.567-34.445,151.263,8.744,212.488
		c15.787,22.38,37.057,41.831,63.017,50.56c30.215,10.161,63.437,4.913,94.056-3.959c30.619-8.872,60.432-21.303,92.024-25.569
		c42.617-5.755,86.084,3.677,128.837-0.959c70.222-7.614,134.501-56.13,161.075-121.573
		c26.574-65.444,14.316-145.038-30.718-199.453c-22.867-27.631-54.575-49.253-90.1-54.184
		c-75.496-10.479-144.543,41.315-218.325,47.572c-26.182,2.221-52.74-0.921-78.7,3.147
		C200.321,100.002,150.441,137.919,123.544,183.604z"/>
	<path style="fill:#EBAA96;" d="M346.114,268.829c0.474-0.316,0.955-0.645,1.295-1.103c0.34-0.458,0.519-1.075,0.319-1.609
		c-0.202-0.541-0.753-0.89-1.318-1.009c-0.565-0.119-1.151-0.046-1.724,0.028c0.828-0.593,0.952-1.949,0.246-2.682
		c-0.706-0.734-2.066-0.66-2.69,0.145c-0.056-0.984-0.764-1.898-1.702-2.2c-0.938-0.302-2.046,0.03-2.665,0.796
		c0.35-0.845-0.351-1.864-1.245-2.059c-0.893-0.194-1.827,0.269-2.44,0.947c-0.613,0.678-0.969,1.544-1.312,2.392
		c-0.912,2.249-1.825,4.498-2.737,6.747c-0.168,0.415-0.34,0.849-0.303,1.295c0.06,0.726,0.645,1.287,1.216,1.74
		c1.125,0.892,2.451,1.856,3.817,2.34c1.223,0.434,2.033-0.317,3.067-0.889C340.72,272.168,343.465,270.594,346.114,268.829z"/>
	<g>
		<g>
			<path style="fill:none;stroke:#FFFFFF;stroke-linecap:round;stroke-linejoin:round;" d="M275.988,192.687
				c0.211,0.397,0.425,0.793,0.641,1.188"/>
			<path style="fill:none;stroke:#FFFFFF;stroke-linecap:round;stroke-linejoin:round;stroke-dasharray:2.6854,4.4756;" d="
				M278.866,197.751c12.882,21.236,33.226,37.527,55.726,48.224c24.257,11.533,50.991,16.983,77.698,19.839
				c15.921,1.703,32.134,2.507,47.848-0.565c15.715-3.072,31.03-10.341,41.362-22.574c10.332-12.232,14.93-29.834,9.413-44.865
				c-6.225-16.961-25.57-27.99-43.328-24.666c-17.759,3.324-31.814,20.642-31.368,38.704c0.445,18.062,15.372,34.682,33.288,37.014
				c15.534,2.022,31.061-5.836,41.96-17.089c10.899-11.252,17.952-25.592,24.615-39.77c6.662-14.178,13.246-28.664,23.454-40.545
				c15-17.458,37.627-28.069,60.615-28.648"/>
			<path style="fill:none;stroke:#FFFFFF;stroke-linecap:round;stroke-linejoin:round;" d="M622.385,122.786
				c0.45,0.002,0.9,0.007,1.35,0.016"/>
			<g>
				<polygon style="fill:#FFFFFF;" points="620.402,126.899 619.723,126.164 623.352,122.825 619.757,119.45 620.443,118.721 
					624.82,122.833 				"/>
			</g>
		</g>
	</g>
	<path style="fill:#85B1EA;" d="M614.956,171.161h95.64c-2.434-5.159-6.87-9.652-12.318-11.345
		c-5.448-1.693-11.593-0.995-16.522,1.876c-2.417-6.204-8.021-11.065-14.504-12.58c-6.483-1.515-13.661,0.357-18.577,4.847
		c-1.702,1.554-3.241,3.457-5.429,4.178c-2.747,0.906-5.682-0.294-8.534-0.777C626.31,155.937,617.031,162.897,614.956,171.161z"/>
	<path style="fill:#85B1EA;" d="M341.659,210.327h88.19c-2.245-6.49-6.335-12.141-11.358-14.271
		c-5.023-2.13-10.69-1.252-15.235,2.359c-2.228-7.804-7.396-13.918-13.374-15.825c-5.978-1.906-12.597,0.45-17.13,6.097
		c-1.569,1.955-2.989,4.348-5.007,5.256c-2.533,1.14-5.239-0.37-7.869-0.978C352.129,191.176,343.573,199.931,341.659,210.327z"/>
	<path style="fill:#85B1EA;" d="M228.828,143.672c-0.066-5.224,2.391-9.944,2.425-15.253c0.037-5.981-1.725-12.045-5.637-16.652
		c-6.361-7.493-18.747-9.736-26.394-3.56c-6.458-7.721-13.108-15.606-21.846-20.604c-8.738-4.998-20.141-6.588-28.751-1.372
		c-4.939,2.992-8.481,7.905-10.812,13.188c-2.331,5.283-3.562,10.973-4.778,16.618c-6.812-2.861-15.147-1.697-20.914,2.922
		c-5.767,4.618-8.724,12.498-7.42,19.77L228.828,143.672z"/>
	<g>
		<g>
			<path style="fill:#DEDEDE;" d="M293.76,162.229v162.89c0,5.5-4.45,9.96-9.95,9.96H69.34c-5.5,0-9.96-4.46-9.96-9.96v-162.89
				c0-5.5,4.46-9.96,9.96-9.96h214.47C289.31,152.269,293.76,156.729,293.76,162.229z"/>
			<path style="fill:#FFFFFF;" d="M69.34,330.079c-2.735,0-4.96-2.225-4.96-4.96v-162.89c0-2.735,2.225-4.96,4.96-4.96h214.47
				c2.729,0,4.95,2.225,4.95,4.96v162.89c0,2.735-2.22,4.96-4.95,4.96H69.34z"/>
			<path style="fill:#1B2147;" d="M293.76,162.229v14.55H59.38v-14.55c0-5.5,4.46-9.96,9.96-9.96h214.47
				C289.31,152.269,293.76,156.729,293.76,162.229z"/>
		</g>
		<g>
			<g>
				<g>
					<path style="fill:#85B1EA;" d="M91.447,308.814h-7.143v-36.765c0-1.972,1.599-3.571,3.571-3.571l0,0
						c1.972,0,3.572,1.599,3.572,3.571V308.814z"/>
					<g>
						
							<text transform="matrix(1 0 0 1 82.6198 262.9529)" style="fill:#85B1EA; font-family:'Montserrat-Bold'; font-size:5.7373px;">10%</text>
					</g>
				</g>
				<g>
					<path style="fill:#DE5D5C;" d="M112.547,308.814h-7.143v-14.286c0-1.972,1.599-3.571,3.571-3.571l0,0
						c1.973,0,3.572,1.599,3.572,3.571V308.814z"/>
					<g>
						
							<text transform="matrix(1 0 0 1 106.0601 288.0018)" style="fill:#85B1EA; font-family:'Montserrat-Bold'; font-size:5.7373px;">5%</text>
					</g>
				</g>
				<g>
					<path style="fill:#DE5D5C;" d="M177.805,308.814h-7.143v-25.525c0-1.972,1.599-3.571,3.572-3.571l0,0
						c1.972,0,3.571,1.599,3.571,3.571V308.814z"/>
					<g>
						
							<text transform="matrix(1 0 0 1 171.1089 276.4481)" style="fill:#85B1EA; font-family:'Montserrat-Bold'; font-size:5.7373px;">5%</text>
					</g>
				</g>
				<g>
					<path style="fill:#85B1EA;" d="M220.502,308.814h-7.143v-58.572c0-1.595,1.599-2.888,3.572-2.888l0,0
						c1.972,0,3.571,1.293,3.571,2.888V308.814z"/>
					<g>
						
							<text transform="matrix(1 0 0 1 212.356 239.9402)" style="fill:#85B1EA; font-family:'Montserrat-Bold'; font-size:5.7373px;">30%</text>
					</g>
				</g>
				<g>
					<path style="fill:#C5DEFC;" d="M134.402,308.814h-7.143v-48.652c0-1.972,1.599-3.571,3.572-3.571l0,0
						c1.972,0,3.571,1.599,3.571,3.571V308.814z"/>
					<g>
						
							<text transform="matrix(1 0 0 1 125.4847 252.2381)" style="fill:#85B1EA; font-family:'Montserrat-Bold'; font-size:5.7373px;">30%</text>
					</g>
				</g>
				<g>
					<path style="fill:#85B1EA;" d="M241.82,308.814h-7.143v-45.693c0-1.972,1.599-3.571,3.571-3.571l0,0
						c1.973,0,3.572,1.599,3.572,3.571V308.814z"/>
					<g>
						
							<text transform="matrix(1 0 0 1 234.0739 255.4383)" style="fill:#85B1EA; font-family:'Montserrat-Bold'; font-size:5.7373px;">30%</text>
					</g>
				</g>
				<g>
					<path style="fill:#C5DEFC;" d="M155.989,308.814h-7.143v-69.488c0-1.595,1.599-2.888,3.571-2.888l0,0
						c1.972,0,3.571,1.293,3.571,2.888V308.814z"/>
					<g>
						
							<text transform="matrix(1 0 0 1 147.2111 232.5164)" style="fill:#85B1EA; font-family:'Montserrat-Bold'; font-size:5.7373px;">20%</text>
					</g>
				</g>
				<g>
					<path style="fill:#C5DEFC;" d="M198.774,308.814h-7.143v-54.517c0-1.973,1.599-3.571,3.571-3.571l0,0
						c1.973,0,3.571,1.599,3.571,3.571V308.814z"/>
					<g>
						
							<text transform="matrix(1 0 0 1 190.6467 247.2957)" style="fill:#85B1EA; font-family:'Montserrat-Bold'; font-size:5.7373px;">20%</text>
					</g>
				</g>
			</g>
			<g>
				<g>
					<rect x="79.775" y="207.592" style="fill:none;" width="147.01" height="19.825"/>
					<text transform="matrix(1 0 0 1 79.775 210.6726)"><tspan x="0" y="0" style="fill:#85B1EA; font-family:'Montserrat-Regular'; font-size:4.1526px;">Lorem ipsum dolor sit amet, consectetuer adipiscing elit, sed diam </tspan><tspan x="0" y="6.229" style="fill:#85B1EA; font-family:'Montserrat-Regular'; font-size:4.1526px;">nonummy nibh euismod tincidunt ut laoreet dolore magna aliquam </tspan><tspan x="0" y="12.458" style="fill:#85B1EA; font-family:'Montserrat-Regular'; font-size:4.1526px;">erat volutpat. </tspan></text>
				</g>
				<g>
					<text transform="matrix(1 0 0 1 79.6197 199.5437)" style="fill:#85B1EA; font-family:'Montserrat-Bold'; font-size:7.674px;">LOREM IPSUM </text>
				</g>
			</g>
		</g>
	</g>
	<g>
		<polygon style="fill:#EBAA96;" points="444.989,343 441.493,355.574 423.088,357.525 428.212,342.017 		"/>
		<path style="fill:#1B2147;" d="M464.776,276.874c-0.505-3.673-0.242-7.262,0.274-10.832c0.081-4.953,0.383-9.876,0.84-14.791
			l-27.099,4.234l-18.195,91.9l27.504-2.621l16.823-68.104l0.341,0.419c-0.212-3.703-0.274-7.379-0.214-11.037
			C464.534,269.612,464.271,273.202,464.776,276.874z"/>
	</g>
	<g>
		<path style="fill:#EBAA96;" d="M508.913,324.438l-4.365-17.89l-17.203,5.3l3.057,13.696
			C496.831,329.847,502.999,329.434,508.913,324.438z"/>
		<path style="fill:#1B2147;" d="M484.926,316.463l-7.727-30.482l-23.114,4.021l-7.973-10.141c3.206-3.958,5.684-8.412,8.553-12.555
			c2.449-2.719,4.999-5.368,7.676-7.934l20.932-2.932c13.597-1.532,16.471,10.475,16.471,10.475l9.116,43.702L484.926,316.463z"/>
	</g>
	<circle style="fill:#1B2147;" cx="473.627" cy="196.923" r="11.991"/>
	<circle style="fill:#1B2147;" cx="457.353" cy="189.357" r="8.494"/>
	<path style="fill:#EBAA96;" d="M462.062,216.081l4.681-9.27c0,0,4.79-3.661,4.792-3.663c-0.24,0.185-1.473-0.35-1.7-0.443
		c-0.912-0.371-1.733-0.945-2.091-1.898c-0.226-0.601-0.259-1.266-0.15-1.899c0.223-1.293,1.076-2.483,2.271-3.024
		c1.116-0.505,2.493-0.392,3.49,0.327c1.022,0.738,1.575,2.017,1.989,3.167c0,0,4.377-3.577,6.006-7.858
		c0,0,3.444-0.528,4.626,5.314c0,0,0.043,1.887,1.994,2.701c0,0,1.239,0.749-0.775,1.838c0,0,1.056,5.318-2.306,7.62
		c0,0-2.795,2.494-7.085,1.191l-4.284,10.543l-13.4,0.112L462.062,216.081z"/>
	<path style="fill:#1B2147;" d="M483.817,198.098c0,0.546-0.196,0.989-0.439,0.989c-0.242,0-0.439-0.443-0.439-0.989
		c0-0.546,0.197-0.989,0.439-0.989C483.621,197.108,483.817,197.551,483.817,198.098z"/>
	<path style="fill:none;stroke:#EBAA96;stroke-width:0.5;stroke-linecap:round;stroke-linejoin:round;stroke-miterlimit:10;" d="
		M487.102,203.311c-0.533,0.368-1.184,0.562-1.832,0.547c-0.648-0.015-1.289-0.239-1.805-0.631"/>
	<path style="fill:#85B1EA;" d="M462.262,215.566c0,0,1.861,6.452,12.279,2.747c0,0,6.293,2.489,4.673,13.53l-4.173,25.743
		l-34.873,5.808C440.168,263.395,441.683,220.127,462.262,215.566z"/>
	<g>
		<path style="fill:#1B2147;" d="M456.8,363.065c-0.02,0-0.06,0.03-0.08,0.03h-38.64c0.13-0.85,0.29-1.68,0.5-2.49
			c0.48-1.93,1.23-3.75,2.47-5.38c0.69-0.91,1.7-1.66,2.85-1.68c5.95,2.27,12.87,1.9,18.54-1c3.19,0.52,6.44,1.05,9.18,2.75
			c2.02,1.26,3.74,3.13,4.61,5.31C456.54,361.385,456.74,362.215,456.8,363.065z"/>
		<path style="fill:#FFFFFF;" d="M456.8,363.065c-0.02,0-0.06,0.03-0.08,0.03h-38.64c0.13-0.85,0.29-1.68,0.5-2.49h37.65
			C456.54,361.385,456.74,362.215,456.8,363.065z"/>
		<g>
			
				<line style="fill:none;stroke:#FFFFFF;stroke-linecap:round;stroke-linejoin:round;stroke-miterlimit:10;" x1="441.53" y1="354.651" x2="443.7" y2="353.395"/>
			
				<line style="fill:none;stroke:#FFFFFF;stroke-linecap:round;stroke-linejoin:round;stroke-miterlimit:10;" x1="444.147" y1="355.055" x2="446.317" y2="353.8"/>
			
				<line style="fill:none;stroke:#FFFFFF;stroke-linecap:round;stroke-linejoin:round;stroke-miterlimit:10;" x1="446.785" y1="355.587" x2="448.956" y2="354.332"/>
		</g>
	</g>
	<g>
		<path style="fill:#1B2147;" d="M523.332,334.959c-0.02,0-0.06,0.03-0.08,0.03h-38.64c0.13-0.85,0.29-1.68,0.5-2.49
			c0.48-1.93,1.23-3.75,2.47-5.38c0.69-0.91,1.7-1.66,2.85-1.68c5.95,2.27,12.87,1.9,18.54-1c3.19,0.52,6.44,1.05,9.18,2.75
			c2.02,1.26,3.74,3.13,4.61,5.31C523.072,333.279,523.272,334.109,523.332,334.959z"/>
		<path style="fill:#FFFFFF;" d="M523.332,334.959c-0.02,0-0.06,0.03-0.08,0.03h-38.64c0.13-0.85,0.29-1.68,0.5-2.49h37.65
			C523.072,333.279,523.272,334.109,523.332,334.959z"/>
		<g>
			
				<line style="fill:none;stroke:#FFFFFF;stroke-linecap:round;stroke-linejoin:round;stroke-miterlimit:10;" x1="508.062" y1="326.544" x2="510.232" y2="325.289"/>
			
				<line style="fill:none;stroke:#FFFFFF;stroke-linecap:round;stroke-linejoin:round;stroke-miterlimit:10;" x1="510.679" y1="326.949" x2="512.849" y2="325.693"/>
			
				<line style="fill:none;stroke:#FFFFFF;stroke-linecap:round;stroke-linejoin:round;stroke-miterlimit:10;" x1="513.317" y1="327.48" x2="515.488" y2="326.225"/>
		</g>
	</g>
	<g>
		<g>
			<path style="fill:#EBAA96;" d="M441.171,233.943l-6.832,17.251c-2.234,5.642,0.543,12.025,6.194,14.237l15.447,6.045l5.234-5.745
				l-11.998-7.023c-2.144-1.255-3.082-3.866-2.226-6.198l6.436-17.545L441.171,233.943z"/>
		</g>
		<path style="fill:none;stroke:#EBAA96;stroke-width:0.5;stroke-linecap:round;stroke-linejoin:round;stroke-miterlimit:10;" d="
			M436.767,256.768c-0.265,0.6-0.224,1.326,0.106,1.892c0.33,0.566,0.942,0.959,1.595,1.023"/>
		<g>
			<path style="fill:#EBAA96;" d="M470.414,275.221c-0.296-0.827-0.772-1.577-1.282-2.292c-1.771-2.483-4.009-4.629-6.556-6.305
				c0.001,0,0.002,0,0.003,0c0.759-0.08,1.501-0.337,2.147-0.744c0.369-0.233,0.74-0.589,0.71-1.025
				c-0.012-0.159-0.08-0.308-0.181-0.431c-0.018-0.024-0.038-0.049-0.06-0.07c-0.07-0.075-0.153-0.139-0.242-0.192
				c-0.004-0.003-0.009-0.005-0.013-0.008c-0.196-0.113-0.418-0.172-0.643-0.215l-0.006-0.001l-0.026-0.003
				c-0.061-0.011-0.118-0.021-0.177-0.03c-0.325-0.052-0.649-0.093-0.974-0.123l-0.018-0.003c-0.009-0.002-0.02-0.001-0.029-0.004
				c-1.424-0.135-3.67-0.102-5.277,0.119c-1.814-1.11-3.629-2.22-5.444-3.33c-0.671-0.411-1.445-0.837-2.203-0.625
				c-0.834,0.234-1.267,1.13-1.588,1.934c-0.332,0.832-0.66,1.695-0.64,2.59c0.02,0.896,0.47,1.841,1.299,2.181
				c0.579,0.237,1.245,0.151,1.84,0.346c0.693,0.227,1.215,0.815,1.565,1.455c0.351,0.64,0.562,1.346,0.853,2.015
				c0.634,1.459,1.634,2.723,2.623,3.969c1.008,1.27,2.016,2.539,3.024,3.809c1.107,1.394,2.214,2.788,3.32,4.182
				c0.267,0.337,0.571,0.696,0.993,0.776c0.458,0.087,0.871-0.212,1.101-0.628c0.06,0.099,0.11,0.203,0.183,0.293
				c0.27,0.337,0.662,0.602,1.093,0.619c0.677,0.027,1.256-0.582,1.393-1.246c0.057-0.274,0.043-0.552,0-0.827
				c0.46,0.413,1.23,0.34,1.698-0.066c0.472-0.41,0.666-1.07,0.652-1.695c-0.005-0.243-0.043-0.482-0.093-0.719
				c0.238-0.001,0.479-0.107,0.656-0.271c0.24-0.222,0.379-0.533,0.466-0.847C470.817,276.962,470.71,276.048,470.414,275.221z
				 M468.498,277.616c0.002,0.016,0.006,0.032,0.008,0.048l-0.077-0.019C468.452,277.636,468.475,277.626,468.498,277.616z
				 M461.238,266.127 M460.202,265.401l0.377,0.264c-0.151-0.103-0.303-0.204-0.456-0.305l0.06,0.028
				C460.189,265.393,460.196,265.397,460.202,265.401z"/>
			<path style="fill:none;stroke:#EBAA96;stroke-width:0.5;stroke-linecap:round;stroke-linejoin:round;stroke-miterlimit:10;" d="
				M468.882,277.972c-0.868-1.939-2.294-3.624-4.061-4.802"/>
			<path style="fill:none;stroke:#EBAA96;stroke-width:0.5;stroke-linecap:round;stroke-linejoin:round;stroke-miterlimit:10;" d="
				M466.724,280.229c-0.949-1.842-2.266-3.493-3.85-4.828"/>
			<path style="fill:none;stroke:#EBAA96;stroke-width:0.5;stroke-linecap:round;stroke-linejoin:round;stroke-miterlimit:10;" d="
				M464.433,281.635c-0.796-1.845-1.882-3.564-3.206-5.075"/>
		</g>
	</g>
	<g>
		<g>
			<g>
				<path style="fill:#DEDEDE;" d="M382.207,122.91V285.8c0,5.5-4.45,9.96-9.95,9.96h-214.47c-5.5,0-9.96-4.46-9.96-9.96V122.91
					c0-5.5,4.46-9.96,9.96-9.96h214.47C377.757,112.95,382.207,117.41,382.207,122.91z"/>
				<path style="fill:#FFFFFF;" d="M157.787,290.76c-2.735,0-4.96-2.225-4.96-4.96V122.91c0-2.735,2.225-4.96,4.96-4.96h214.47
					c2.729,0,4.95,2.225,4.95,4.96V285.8c0,2.735-2.22,4.96-4.95,4.96H157.787z"/>
				<path style="fill:#1B2147;" d="M382.207,122.91v14.55h-234.38v-14.55c0-5.5,4.46-9.96,9.96-9.96h214.47
					C377.757,112.95,382.207,117.41,382.207,122.91z"/>
			</g>
			<g>
				<circle style="fill:#B9CCF0;" cx="325.868" cy="126.352" r="4.173"/>
				<path style="fill:#B9CCF0;" d="M347.361,126.352c0,2.305-1.868,4.173-4.173,4.173c-2.305,0-4.173-1.868-4.173-4.173
					c0-2.305,1.868-4.173,4.173-4.173C345.492,122.179,347.361,124.047,347.361,126.352z"/>
				<circle style="fill:#DF5B5D;" cx="360.507" cy="126.352" r="4.173"/>
			</g>
		</g>
		<g>
			<g>
				
					<text transform="matrix(1 0 0 1 300.568 171.0872)" style="fill:#85B1EA; font-family:'Montserrat-Black'; font-size:7.4321px;">LOREM IPSUM</text>
			</g>
			<g>
				<g>
					<g>
						<g>
							
								<line style="fill:none;stroke:#809DDF;stroke-width:0.7711;stroke-miterlimit:10;" x1="184.305" y1="252.365" x2="357.583" y2="252.365"/>
							<g>
								
									<line style="fill:none;stroke:#819FE0;stroke-width:0.7965;stroke-miterlimit:10;" x1="184.305" y1="244.842" x2="357.583" y2="244.842"/>
							</g>
							<g>
								
									<line style="fill:none;stroke:#81A1E1;stroke-width:0.822;stroke-miterlimit:10;" x1="184.305" y1="237.32" x2="357.583" y2="237.32"/>
							</g>
							<g>
								
									<line style="fill:none;stroke:#82A4E3;stroke-width:0.8474;stroke-miterlimit:10;" x1="184.305" y1="229.797" x2="357.583" y2="229.797"/>
							</g>
							<g>
								
									<line style="fill:none;stroke:#82A6E4;stroke-width:0.8728;stroke-miterlimit:10;" x1="184.305" y1="222.274" x2="357.583" y2="222.274"/>
							</g>
							<g>
								
									<line style="fill:none;stroke:#83A8E5;stroke-width:0.8983;stroke-miterlimit:10;" x1="184.305" y1="214.752" x2="357.583" y2="214.752"/>
							</g>
							<g>
								
									<line style="fill:none;stroke:#83AAE6;stroke-width:0.9237;stroke-miterlimit:10;" x1="184.305" y1="207.229" x2="357.583" y2="207.229"/>
							</g>
							<g>
								
									<line style="fill:none;stroke:#84ADE8;stroke-width:0.9491;stroke-miterlimit:10;" x1="184.305" y1="199.706" x2="357.583" y2="199.706"/>
							</g>
							<g>
								
									<line style="fill:none;stroke:#84AFE9;stroke-width:0.9746;stroke-miterlimit:10;" x1="184.305" y1="192.184" x2="357.583" y2="192.184"/>
							</g>
							<g>
								<line style="fill:none;stroke:#85B1EA;stroke-miterlimit:10;" x1="184.305" y1="184.661" x2="357.583" y2="184.661"/>
							</g>
						</g>
						<g>
							<polyline style="fill:none;stroke:#85B1EA;stroke-miterlimit:10;" points="357.849,263.194 184.305,263.194 184.305,172.466 
															"/>
						</g>
					</g>
				</g>
				<g>
					<g>
						<g>
							
								<text transform="matrix(1 0 0 1 175.3359 262.6557)" style="fill:#85B1EA; font-family:'Montserrat-Bold'; font-size:4.7069px;">0</text>
						</g>
						<g>
							
								<text transform="matrix(1 0 0 1 172.6474 241.9877)" style="fill:#85B1EA; font-family:'Montserrat-Bold'; font-size:4.7069px;">20</text>
						</g>
						<g>
							
								<text transform="matrix(1 0 0 1 172.1855 221.3217)" style="fill:#85B1EA; font-family:'Montserrat-Bold'; font-size:4.7069px;">40</text>
						</g>
						<g>
							
								<text transform="matrix(1 0 0 1 172.4311 200.6547)" style="fill:#85B1EA; font-family:'Montserrat-Bold'; font-size:4.7069px;">60</text>
						</g>
						<g>
							
								<text transform="matrix(1 0 0 1 174.0117 180.1615)" style="fill:#85B1EA; font-family:'Montserrat-Bold'; font-size:5.2952px;">%</text>
						</g>
					</g>
				</g>
				<g>
					<defs>
						<rect id="SVGID_1_" x="204.905" y="171.76" width="127.252" height="91.705"/>
					</defs>
					<clipPath id="SVGID_00000091003780277518045770000011283093003993615254_">
						<use xlink:href="#SVGID_1_"  style="overflow:visible;opacity:0.5;"/>
					</clipPath>
					<g style="clip-path:url(#SVGID_00000091003780277518045770000011283093003993615254_);">
						<defs>
							
								<rect id="SVGID_00000079464013749945157730000017744086039892793993_" x="187.768" y="168.374" width="147.009" height="116.979"/>
						</defs>
						<clipPath id="SVGID_00000060716676596298145860000008500216764914130107_">
							<use xlink:href="#SVGID_00000079464013749945157730000017744086039892793993_"  style="overflow:visible;opacity:0.5;"/>
						</clipPath>
						<path style="clip-path:url(#SVGID_00000060716676596298145860000008500216764914130107_);fill:#C5DEFC;" d="M316.779,245.475
							c-1.042-0.467-2.081-0.932-3.112-1.409c-6.135-2.84-12.531-6.821-16.365-15.421c-3.337-7.487-4.181-17.249-6.342-25.887
							s-6.833-17.087-12.311-15.712c-9.94,2.496-10.827,32.398-20.833,33.966c-7.333,1.149-12.244-14.804-19.597-15.477
							c-7.127-0.653-11.451,12.516-15.011,22.999c-9.847,29.001-26.95,50.656-46.154,58.44c12.879-5.134,25.751-5.147,38.839-7.184
							c13.785-2.145,27.624-3.289,41.467-3.434c13.505-0.141,27.014,0.672,40.481,2.44c10.167,1.336,22.686,12.156,32.859,10.514
							c10.957-1.768,10.46,0,10.46,0S331.538,252.09,316.779,245.475z"/>
						<path style="clip-path:url(#SVGID_00000060716676596298145860000008500216764914130107_);fill:#85B1EA;" d="M204.36,264.602
							c3.585-0.178,6.72-0.764,10.002-6.598c3.081-5.477,5.137-12.445,8.303-17.783c6.96-11.736,19.177-12.959,26.905-2.694
							c2.302,3.058,4.207,6.945,6.628,9.728c2.421,2.783,5.665,4.325,8.27,2.066c3.521-3.055,4.098-10.937,5.705-17.061
							c2.183-8.32,7.077-14.416,12.415-15.463c7.265-1.426,12.371,5.208,15.396,15.353c2.954,9.909,8.567,17.557,14.982,19.981
							c4.129,1.56,8.774,1.294,12.069,5.79c5.729,7.817,4.156,23.604,12.219,27.734c-44.319-6.346-89.028-7.553-133.428-2.887
							c-8.079,0.819-35.879,7.477-20.988-8.703c4.849-5.269,10.613-7.9,16.288-9.017
							C201.001,264.679,202.727,264.683,204.36,264.602z"/>
						<path style="clip-path:url(#SVGID_00000060716676596298145860000008500216764914130107_);fill:#DE5D5C;" d="M222.095,272.846
							c1.938-1.394,3.618-3.276,4.894-5.712c3.034-5.794,3.6-13.705,9.001-17.009c14.188-8.68,19.568,15.903,28.36,20.631
							c4.779,2.57,10.736,2.476,15.442-0.243c3.092-1.787,5.593-4.579,8.688-6.36c8.765-5.043,19.74-0.781,27.92,5.275
							c7.166,5.305,15.592,10.484,22.318,16.145c7.806,6.57-2.469,4.48-8.189,4.48c-8.79-0.067-17.582-0.23-26.372-0.092
							c-22.938,0.359-45.875,0.718-68.814,1.078c-18.343,0.287-36.685,0.594-55.032,0.862c-10.9,0.158-11.253-5.595-3.449-12.704
							c8.865-8.076,16.834-7.758,26.835-4.425C209.813,276.809,216.887,276.59,222.095,272.846z"/>
					</g>
				</g>
			</g>
		</g>
	</g>
	<path style="fill:#85B1EA;" d="M438.293,235.833c0,0,4.368-13.271,15.861-16.261c4.818-1.253,9.668,2.118,10,7.085
		c0.186,2.787-0.287,6.579-1.967,11.736L438.293,235.833z"/>
	<path style="fill:#EBAA96;" d="M482.213,240.711l14.299,6.683c6.882,3.216,15.067,0.226,18.255-6.669l6.497-14.713l-6.223-5.777
		l-7.626,13.932c-1.382,2.065-4.044,2.844-6.321,1.85l-17.127-7.479L482.213,240.711z"/>
	<path style="fill:#85B1EA;" d="M484.437,248.123c0,0-12.985-5.157-15.279-16.809c-0.962-4.885,2.695-9.523,7.673-9.556
		c2.793-0.019,6.549,0.682,11.596,2.668L484.437,248.123z"/>
	<path style="fill:#5AAF89;" d="M628.977,351.553c3.57-7.014,6.732-14.362,7.852-22.153c1.12-7.79,0.029-16.131-4.351-22.67
		c-4.38-6.539-12.395-10.879-20.168-9.644c-6.483,1.03-11.963,5.678-15.412,11.263c-3.449,5.586-5.136,12.063-6.5,18.484
		c-3.938,18.543-5.555,37.576-4.828,56.518c0.199,5.187-1.545,21.822,7.576,16.943c7.151-3.825,13.929-14.884,18.714-21.269
		C618.339,370.38,624.077,361.181,628.977,351.553z"/>
	<g>
		<path style="fill:#76C6A6;" d="M677.469,331.588c5.297-10.323,9.358-23.292,3.055-33.033
			c-7.108-10.985-24.189-11.105-34.996-3.729c-10.807,7.376-16.851,19.778-22.425,31.615c-6.881,14.611-13.762,29.222-20.643,43.834
			c-3.322,7.054-6.644,14.107-9.966,21.161c-2.421,5.141-9.123,14.494-8.023,20.171c8.091,0.754,21.011-8.049,28.053-12.121
			c9.291-5.372,18.063-11.642,26.165-18.678C654.382,367.179,668.298,350.328,677.469,331.588z"/>
		<path style="fill:none;stroke:#1B2147;stroke-miterlimit:10;" d="M586.499,402.234c28.115-25.152,51.255-55.843,67.7-89.793"/>
	</g>
	<g>
		<path style="fill:#5AAF89;" d="M613.441,410.839c1.92-0.231,3.935-0.594,5.409-1.846c1.474-1.251,2.118-3.675,0.862-5.145
			c-1.963-2.296-6.208-0.404-8.488-2.385c-1.633-1.419-1.233-4.304,0.425-5.693c1.658-1.389,4.089-1.497,6.166-0.893
			c2.077,0.605,3.912,1.818,5.793,2.887c7.073,4.017,15.223,6.115,23.356,6.012c3.419-0.043,7.059-0.564,9.641-2.805
			c2.582-2.241,3.456-6.69,0.989-9.057c-1.605-1.54-4.008-1.771-6.149-2.37s-4.458-2.103-4.428-4.327
			c0.024-1.809,1.701-3.242,3.463-3.652c1.761-0.41,3.598-0.052,5.384,0.23c10.365,1.638,21.135,0.641,31.024-2.872
			c9.842-3.496,19.493-10.462,21.731-20.663c1.748-7.963-1.722-16.726-8.219-21.649c-6.498-4.923-15.632-5.946-23.214-2.95
			c-7.582,2.996-13.459,9.785-15.738,17.612c-0.781,2.682-1.223,5.591-2.986,7.757c-1.763,2.166-5.509,3.037-7.251,0.855
			c-1.266-1.586-0.869-3.919-0.1-5.797c0.769-1.878,1.864-3.728,1.814-5.757c-0.106-4.268-5.683-6.761-9.605-5.074
			c-3.922,1.688-6.057,6.046-6.702,10.266c-0.645,4.22-0.135,8.532-0.47,12.788c-0.198,2.523-0.75,5.144-2.381,7.079
			c-1.631,1.936-4.599,2.927-6.79,1.659c-3.199-1.852-2.708-6.56-4.216-9.935c-1.172-2.622-3.811-4.529-6.669-4.818
			c-2.858-0.289-5.825,1.051-7.498,3.385c-1.839,2.565-2.05,5.963-1.663,9.095c0.387,3.132,1.3,6.196,1.461,9.347
			c0.161,3.152-0.571,6.565-2.915,8.678c-2.344,2.113-6.568,2.21-8.349-0.395c-0.946-1.384-1.041-3.158-1.517-4.765
			c-0.476-1.608-1.688-3.287-3.364-3.239c-1.858,0.053-2.928,2.104-3.46,3.885c-1.154,3.862-1.657,7.915-1.514,11.942
			c0.097,2.722,0.081,8.329,2.067,10.47c2.078,2.24,8.062,2.136,10.912,2.373C604.639,411.443,609.067,411.366,613.441,410.839z"/>
		<path style="fill:none;stroke:#1B2147;stroke-miterlimit:10;" d="M682.138,357.711c-2.238,5.173-7.12,8.778-12.293,11.014
			c-5.173,2.237-10.754,3.335-16.133,5.02c-6.057,1.897-11.85,4.535-17.626,7.167c-4.904,2.234-9.808,4.469-14.712,6.703
			c-5.892,2.684-11.826,5.393-17.088,9.166c-5.864,4.205-11.138,9.84-18.185,11.387"/>
	</g>
	<g>
		<path style="fill:#5AAF89;" d="M149.776,389.278c-0.235-1.919-0.602-3.933-1.856-5.405c-1.254-1.472-3.679-2.111-5.147-0.852
			c-2.292,1.967-0.392,6.209-2.369,8.493c-1.416,1.636-4.301,1.241-5.694-0.414c-1.393-1.655-1.505-4.086-0.904-6.164
			c0.601-2.078,1.811-3.915,2.876-5.798c4.004-7.08,6.086-15.234,5.968-23.367c-0.05-3.418-0.577-7.058-2.823-9.635
			c-2.246-2.577-6.696-3.444-9.059-0.972c-1.537,1.608-1.763,4.011-2.358,6.154c-0.595,2.143-2.094,4.462-4.318,4.436
			c-1.809-0.021-3.245-1.695-3.659-3.456c-0.414-1.761-0.059-3.598,0.22-5.385c1.618-10.368,0.601-21.137-2.93-31.018
			c-3.514-9.835-10.498-19.473-20.704-21.693c-7.966-1.733-16.723,1.753-21.634,8.26c-4.911,6.507-5.917,15.643-2.906,23.219
			c3.01,7.576,9.81,13.441,17.642,15.705c2.683,0.776,5.593,1.213,7.763,2.972c2.169,1.759,3.048,5.503,0.868,7.249
			c-1.584,1.269-3.917,0.876-5.797,0.11c-1.88-0.765-3.732-1.857-5.761-1.803c-4.268,0.114-6.751,5.696-5.056,9.614
			c1.695,3.918,6.057,6.046,10.278,6.683c4.221,0.637,8.532,0.12,12.789,0.446c2.524,0.193,5.145,0.74,7.084,2.367
			c1.939,1.627,2.936,4.594,1.672,6.787c-1.846,3.203-6.555,2.72-9.927,4.235c-2.62,1.177-4.521,3.82-4.805,6.678
			s1.062,5.823,3.399,7.492c2.568,1.834,5.967,2.039,9.098,1.646c3.131-0.393,6.193-1.312,9.345-1.479
			c3.151-0.167,6.566,0.559,8.684,2.899c2.117,2.34,2.223,6.564-0.38,8.349c-1.383,0.949-3.156,1.047-4.763,1.526
			c-1.607,0.479-3.284,1.694-3.232,3.37c0.057,1.858,2.11,2.924,3.892,3.453c3.864,1.147,7.918,1.642,11.945,1.492
			c2.722-0.102,8.329-0.097,10.466-2.087c2.236-2.082,2.121-8.066,2.353-10.916C150.396,398.079,150.311,393.652,149.776,389.278z"
			/>
		<path style="fill:none;stroke:#1B2147;stroke-miterlimit:10;" d="M96.519,320.681c5.177,2.229,8.791,7.103,11.037,12.273
			c2.246,5.169,3.355,10.748,5.05,16.124c1.908,6.053,4.557,11.842,7.2,17.612c2.243,4.9,4.487,9.8,6.731,14.699
			c2.695,5.887,5.415,11.816,9.198,17.071c4.216,5.856,9.861,11.119,11.421,18.164"/>
	</g>
	<g>
		<path style="fill:#5AAF89;" d="M373.061,393.165c1.196-3.183,2.201-6.491,2.308-9.89c0.107-3.399-0.762-6.928-2.957-9.526
			c-2.195-2.598-5.845-4.076-9.124-3.173c-2.735,0.754-4.864,3.013-6.077,5.577c-1.213,2.564-1.626,5.426-1.903,8.249
			c-0.801,8.152-0.581,16.402,0.641,24.501c0.335,2.218,0.385,9.445,4.067,6.912c2.887-1.986,5.266-7.061,7.014-10.032
			C369.397,401.761,371.419,397.534,373.061,393.165z"/>
		<g>
			<path style="fill:#76C6A6;" d="M359.454,405.622c-0.003-0.862-0.059-1.772-0.537-2.489c-0.477-0.717-1.517-1.128-2.232-0.648
				c-1.118,0.75-0.5,2.727-1.495,3.633c-0.712,0.649-1.968,0.323-2.498-0.483c-0.529-0.806-0.451-1.887-0.076-2.775
				c0.375-0.888,1.007-1.637,1.578-2.414c2.144-2.922,3.495-6.42,3.87-10.025c0.158-1.515,0.116-3.153-0.742-4.412
				c-0.858-1.259-2.782-1.876-3.957-0.907c-0.764,0.63-0.991,1.682-1.367,2.599c-0.376,0.917-1.161,1.864-2.144,1.736
				c-0.799-0.105-1.347-0.921-1.437-1.722c-0.09-0.801,0.163-1.595,0.381-2.371c1.262-4.502,1.378-9.32,0.336-13.879
				c-1.037-4.537-3.62-9.169-8.019-10.688c-3.434-1.186-7.492-0.104-10.007,2.516c-2.516,2.621-3.441,6.61-2.508,10.121
				c0.933,3.511,3.633,6.464,6.979,7.878c1.146,0.484,2.411,0.831,3.278,1.723c0.867,0.892,1.059,2.595,0.003,3.253
				c-0.768,0.478-1.779,0.181-2.571-0.256c-0.791-0.438-1.553-1.018-2.454-1.101c-1.894-0.174-3.287,2.165-2.743,3.988
				s2.362,2.994,4.196,3.498c1.834,0.504,3.769,0.502,5.635,0.87c1.107,0.218,2.238,0.598,3.01,1.42
				c0.772,0.822,1.057,2.187,0.383,3.091c-0.985,1.32-3.043,0.859-4.615,1.352c-1.221,0.383-2.202,1.452-2.478,2.702
				c-0.276,1.25,0.163,2.632,1.11,3.494c1.04,0.947,2.533,1.216,3.939,1.207c1.406-0.009,2.809-0.254,4.212-0.163
				c1.403,0.092,2.876,0.593,3.69,1.74c0.814,1.147,0.638,3.021-0.607,3.674c-0.662,0.347-1.451,0.297-2.188,0.425
				c-0.736,0.128-1.542,0.577-1.608,1.321c-0.073,0.825,0.78,1.405,1.54,1.733c1.649,0.711,3.417,1.143,5.207,1.289
				c1.21,0.098,3.69,0.396,4.741-0.372c1.099-0.804,1.363-3.457,1.616-4.706C359.265,409.549,359.46,407.586,359.454,405.622z"/>
			<path style="fill:none;stroke:#1B2147;stroke-width:0.4456;stroke-miterlimit:10;" d="M339.5,372.468
				c2.173,1.258,3.516,3.606,4.238,6.011c0.722,2.405,0.919,4.932,1.386,7.4c0.526,2.779,1.393,5.479,2.259,8.172
				c0.735,2.286,1.47,4.572,2.204,6.858c0.883,2.747,1.774,5.513,3.172,8.037c1.557,2.813,3.778,5.439,4.097,8.638"/>
		</g>
		<g>
			<path style="fill:#76C6A6;" d="M364.846,401.361c1.203-2.774,2.425-5.582,4.286-7.965c1.861-2.383,4.461-4.335,7.453-4.777
				c2.991-0.442,6.339,0.918,7.65,3.643c1.205,2.505,0.494,5.594-1.079,7.886c-1.573,2.292-3.885,3.954-6.148,5.567
				c-2.725,1.943-5.45,3.885-8.175,5.828c-1.629,1.161-5.135,4.865-7.248,4.251C356.171,414.219,365.329,404.059,364.846,401.361z"
				/>
			<path style="fill:none;stroke:#1B2147;stroke-width:0.4674;stroke-miterlimit:10;" d="M360.691,413.356
				c3.562-1.119,6.239-4.08,8.275-7.21c2.035-3.13,3.626-6.563,5.999-9.445"/>
		</g>
	</g>
	<g>
		<path style="fill:#76C6A6;" d="M108.551,409.799c-6.225-1.76-12.527-3.552-18.111-6.818c-5.584-3.266-10.463-8.225-12.251-14.442
			c-1.789-6.217,0.141-13.703,5.545-17.259c4.968-3.269,11.72-2.641,17.028,0.041c5.308,2.683,9.49,7.111,13.556,11.451
			c4.895,5.225,9.79,10.449,14.686,15.674c2.926,3.123,11.779,9.503,11.078,14.158C138.286,424.531,114.134,408.006,108.551,409.799
			z"/>
		<path style="fill:none;stroke:#1B2147;stroke-miterlimit:10;" d="M135.169,415.192c-3.387-7.234-10.428-12.067-17.644-15.491
			s-14.95-5.819-21.736-10.031"/>
	</g>
	<g>
		<rect x="549.166" y="276.608" style="fill:#EAB23D;" width="43.767" height="134.809"/>
		<rect x="582.517" y="276.606" style="opacity:0.4;fill:#EAB23D;" width="10.421" height="134.81"/>
	</g>
	<g>
		<rect x="482.199" y="334.992" style="fill:#DE5D5C;" width="43.767" height="76.424"/>
		<rect x="515.55" y="334.991" style="opacity:0.4;fill:#EAB23D;" width="10.421" height="76.425"/>
	</g>
	<g>
		<rect x="415.232" y="363.162" style="fill:#85B1EA;" width="43.767" height="48.255"/>
		<rect x="448.583" y="363.161" style="opacity:0.5;fill:#85B1EA;" width="10.421" height="48.255"/>
	</g>
	<g>
		<g>
			<rect x="588.317" y="195.757" style="fill:#FFFFFF;" width="53.447" height="34.723"/>
			<polygon style="fill:#FFFFFF;" points="615.041,239.432 621.7,227.897 608.381,227.897 615.041,239.432 621.7,227.897 
				608.381,227.897 			"/>
		</g>
		<g>
			<rect x="595.041" y="202.225" style="fill:#C5DEFC;" width="40" height="2.043"/>
			<rect x="595.041" y="208.693" style="fill:#C5DEFC;" width="40" height="2.043"/>
			<rect x="595.041" y="215.161" style="fill:#C5DEFC;" width="40" height="2.043"/>
			<rect x="595.041" y="221.63" style="fill:#C5DEFC;" width="40" height="2.043"/>
		</g>
	</g>
	<g>
		<g>
			<rect x="530.293" y="127.046" style="fill:#FFFFFF;" width="7.677" height="15.362"/>
			<path style="fill:#FFFFFF;" d="M539.97,127.046c0,0,3.445-4.313,7.953-14.092c0.674-1.461,4.141-0.208,2.359,5.988
				c-1.374,4.778-1.905,5.625-1.905,5.625h9.75c0.629,0,1.172,0.418,1.313,1.031c0.707,3.061,2.165,12.156-4.156,16.561
				c-0.235,0.164-0.53,0.25-0.817,0.25H539.97V127.046z"/>
		</g>
	</g>
	<g>
		<polygon style="fill:#85B1EA;" points="210.785,354.329 165.509,354.329 165.509,383.745 183.769,383.745 188.147,391.328 
			192.525,383.745 210.785,383.745 		"/>
		<g>
			<g>
				<rect x="179.32" y="367.432" style="fill:#FFFFFF;" width="4.82" height="9.644"/>
				<path style="fill:#FFFFFF;" d="M185.395,367.432c0,0,2.163-2.708,4.993-8.847c0.423-0.917,2.599-0.131,1.481,3.759
					c-0.863,3-1.196,3.531-1.196,3.531h6.121c0.395,0,0.736,0.262,0.824,0.647c0.444,1.921,1.359,7.631-2.609,10.397
					c-0.148,0.103-0.333,0.157-0.513,0.157h-9.101V367.432z"/>
			</g>
		</g>
	</g>
	<g>
		<circle style="fill:#85B1EA;" cx="446.541" cy="120.225" r="27.574"/>
		<path style="fill:#FFFFFF;" d="M446.54,144.8c-13.55,0-24.574-11.024-24.574-24.575c0-13.55,11.025-24.574,24.574-24.574
			c13.551,0,24.575,11.024,24.575,24.574C471.116,133.776,460.091,144.8,446.54,144.8z"/>
		<g>
			<rect x="443.839" y="111.246" style="fill:#1B2147;" width="1.872" height="13.957"/>
			
				<rect x="451.605" y="115.566" transform="matrix(-1.836970e-16 1 -1 -1.836970e-16 576.8086 -328.2731)" style="fill:#1B2147;" width="1.872" height="17.404"/>
		</g>
	</g>
	<g>
		<path style="fill:#EBAA96;" d="M335.76,296.965l-4.01,2.48c-1.26,0.83-2.8,1.26-4.33,1.19c-1.17-0.05-2.3-0.38-3.45-0.61
			c-2.539-0.508-5.183,0.258-7.634,0.881c-2.999,0.763-5.976,1.602-8.962,2.414c-1.121,0.305-2.243,0.61-3.364,0.915
			c-5.86,1.59-11.89-1.89-13.46-7.75l-4.78-17.93l10.45-6.47c0,0,5.28,17.92,5.28,17.92c0.349,1.183,1.12,2.214,2.16,2.878
			c0.515,0.329,1.089,0.565,1.686,0.694c0.71,0.153,1.352,0.113,2.066,0.026c3.419-0.416,6.869-0.591,10.263-1.204
			c0.356-0.064,0.711-0.133,1.065-0.208c0.477-0.1,0.957-0.213,1.392-0.431c0.978-0.492,1.351-1.514,1.629-2.507
			c0.4-1.43,0.81-2.86,1.21-4.29c0.29-1,0.57-2.02,0.52-3.06c-0.05-0.87-0.29-1.88,0.31-2.51c0.47-0.5,1.31-0.5,1.91-0.16
			c0.6,0.34,0.99,0.95,1.29,1.58c0.89,1.9,0.99,4.15,0.27,6.11c0.88,0.08,1.78,0.03,2.65-0.16c0.99-0.21,1.95-0.6,2.96-0.62
			c1.02-0.02,2.15,0.45,2.48,1.41c0.23,0.67,0.02,1.41-0.33,2.03c-0.29,0.51-0.68,0.96-1.13,1.33c0.14,0.26,0.23,0.55,0.32,0.83
			C334.73,293.485,335.24,295.225,335.76,296.965z"/>
	</g>
	<path style="fill:none;stroke:#EBAA96;stroke-width:0.5;stroke-linecap:round;stroke-linejoin:round;stroke-miterlimit:10;" d="
		M469.543,197.518c0.213-0.24,0.522-0.376,0.835-0.451c0.719-0.172,1.504-0.046,2.133,0.341c0.629,0.388,1.094,1.033,1.263,1.752"/>
	<path style="fill:none;stroke:#EBAA96;stroke-width:0.5;stroke-linecap:round;stroke-linejoin:round;stroke-miterlimit:10;" d="
		M484.854,196.549c-0.372-0.404-0.957-0.599-1.497-0.5c-0.54,0.099-1.018,0.489-1.223,0.998"/>
	<circle style="fill:#1B2147;" cx="289.286" cy="243.902" r="11.991"/>
	<path style="fill:#EBAA96;" d="M277.721,263.059l4.681-9.27c1.588-1.214,3.174-2.432,4.769-3.637
		c-1.092-0.129-2.186-0.518-2.978-1.282c-0.916-0.885-1.216-2.168-0.867-3.38c0.685-2.379,3.532-3.857,5.689-2.3
		c1.022,0.738,1.575,2.017,1.989,3.167c0,0,4.377-3.577,6.006-7.858c0,0,3.444-0.528,4.626,5.314c0,0,0.043,1.887,1.994,2.701
		c0,0,1.239,0.749-0.775,1.838c0,0,1.056,5.318-2.306,7.62c0,0-2.795,2.494-7.085,1.191l-4.284,10.543l-13.4,0.112L277.721,263.059z
		"/>
	<path style="fill:#1B2147;" d="M299.477,245.076c0,0.546-0.196,0.989-0.439,0.989s-0.439-0.443-0.439-0.989
		c0-0.546,0.196-0.989,0.439-0.989S299.477,244.53,299.477,245.076z"/>
	<g>
		<g>
			<polygon style="fill:#EBAA96;" points="260.648,389.978 257.153,402.553 238.748,404.503 243.872,388.996 			"/>
			<path style="fill:#1B2147;" d="M280.436,323.853c-0.505-3.673-0.242-7.262,0.274-10.832c0.081-4.953,0.383-9.876,0.84-14.791
				l-27.099,4.234l-18.195,91.9l27.504-2.621l16.823-68.104l0.341,0.419c-0.212-3.703-0.274-7.379-0.214-11.037
				C280.193,316.591,279.931,320.18,280.436,323.853z"/>
		</g>
		<g>
			<path style="fill:#EAB23D;" d="M272.46,410.044c-0.02,0-0.06,0.03-0.08,0.03h-38.64c0.13-0.85,0.29-1.68,0.5-2.49
				c0.48-1.93,1.23-3.75,2.47-5.38c0.69-0.91,1.7-1.66,2.85-1.68c5.95,2.27,12.87,1.9,18.54-1c3.19,0.52,6.44,1.05,9.18,2.75
				c2.02,1.26,3.74,3.13,4.61,5.31C272.2,408.364,272.4,409.194,272.46,410.044z"/>
			<path style="fill:#FFFFFF;" d="M272.46,410.044c-0.02,0-0.06,0.03-0.08,0.03h-38.64c0.13-0.85,0.29-1.68,0.5-2.49h37.65
				C272.2,408.364,272.4,409.194,272.46,410.044z"/>
			<g>
				
					<line style="fill:none;stroke:#FFFFFF;stroke-linecap:round;stroke-linejoin:round;stroke-miterlimit:10;" x1="257.19" y1="401.629" x2="259.36" y2="400.374"/>
				
					<line style="fill:none;stroke:#FFFFFF;stroke-linecap:round;stroke-linejoin:round;stroke-miterlimit:10;" x1="259.807" y1="402.034" x2="261.977" y2="400.778"/>
				
					<line style="fill:none;stroke:#FFFFFF;stroke-linecap:round;stroke-linejoin:round;stroke-miterlimit:10;" x1="262.445" y1="402.566" x2="264.615" y2="401.31"/>
			</g>
		</g>
	</g>
	<g>
		<g>
			<polygon style="fill:#EBAA96;" points="298.555,382.224 299.692,395.225 283.14,403.507 282.5,387.188 			"/>
			<path style="fill:#1B2147;" d="M290.7,304.566c-1.661-4.667-3.455-10.83-4.75-15.593l-23.892,13.47l15.366,48.847l-0.172,43.597
				l24.837-6.576l0.994-40.34c0,0-12.155-43.229-12.732-44.851C291.119,306.643,291.469,308.09,290.7,304.566z"/>
		</g>
		<g>
			<path style="fill:#EAB23D;" d="M316.654,396.872c-0.019,0.007-0.046,0.049-0.064,0.056l-36.185,13.552
				c-0.176-0.842-0.318-1.675-0.405-2.507c-0.227-1.976-0.163-3.943,0.426-5.905c0.327-1.094,1.01-2.151,2.08-2.573
				c6.368,0.039,12.719-2.735,17.011-7.439c3.17-0.632,6.399-1.275,9.561-0.644c2.334,0.471,4.6,1.619,6.18,3.356
				C315.821,395.389,316.299,396.097,316.654,396.872z"/>
			<path style="fill:#FFFFFF;" d="M316.654,396.872c-0.019,0.007-0.046,0.049-0.064,0.056l-36.185,13.552
				c-0.176-0.842-0.318-1.675-0.405-2.507l35.258-13.205C315.821,395.389,316.299,396.097,316.654,396.872z"/>
			<g>
				
					<line style="fill:none;stroke:#FFFFFF;stroke-linecap:round;stroke-linejoin:round;stroke-miterlimit:10;" x1="299.403" y1="394.348" x2="300.995" y2="392.411"/>
				
					<line style="fill:none;stroke:#FFFFFF;stroke-linecap:round;stroke-linejoin:round;stroke-miterlimit:10;" x1="301.995" y1="393.808" x2="303.587" y2="391.871"/>
				
					<line style="fill:none;stroke:#FFFFFF;stroke-linecap:round;stroke-linejoin:round;stroke-miterlimit:10;" x1="304.652" y1="393.381" x2="306.245" y2="391.444"/>
			</g>
		</g>
	</g>
	<path style="fill:none;stroke:#EBAA96;stroke-width:0.5;stroke-linecap:round;stroke-linejoin:round;stroke-miterlimit:10;" d="
		M302.762,250.29c-0.533,0.368-1.184,0.562-1.832,0.547s-1.289-0.239-1.805-0.631"/>
	<path style="fill:#DE5D5C;" d="M277.921,262.545c0,0,1.861,6.452,12.279,2.747c0,0,6.293,2.489,4.673,13.53l-4.173,25.743
		l-34.873,5.808C255.827,310.374,257.343,267.106,277.921,262.545z"/>
	<path style="fill:#EBAA96;" d="M256.83,280.921l-6.832,17.251c-2.234,5.642,0.543,12.025,6.194,14.237l15.855,5.848l4.827-5.548
		l-11.998-7.023c-2.144-1.255-3.082-3.866-2.226-6.198l6.436-17.545L256.83,280.921z"/>
	<path style="fill:#DE5D5C;" d="M253.953,282.811c0,0,4.368-13.271,15.861-16.261c4.818-1.253,9.668,2.118,10,7.085
		c0.186,2.787-0.288,6.578-1.967,11.736L253.953,282.811z"/>
	<path style="fill:#DE5D5C;" d="M281.475,290.395c0,0-2.853-13.677,5.607-22.013c3.546-3.494,9.432-2.999,12.203,1.137
		c1.555,2.32,3.04,5.841,4.164,11.147L281.475,290.395z"/>
	<path style="fill:none;stroke:#EBAA96;stroke-width:0.5;stroke-linecap:round;stroke-linejoin:round;stroke-miterlimit:10;" d="
		M300.513,243.528c-0.372-0.404-0.957-0.599-1.497-0.5c-0.54,0.099-1.018,0.489-1.223,0.998"/>
	<path style="fill:#1B2147;" d="M284.236,259.364c-1.797,0.757-4.125,0.672-5.288,2.237c-0.74,0.996-0.784,2.443-1.704,3.276
		c-0.606,0.548-1.465,0.703-2.278,0.783c-2.802,0.275-5.714-0.098-8.207-1.406c-2.493-1.309-4.52-3.615-5.164-6.356
		c-0.644-2.74,0.246-5.868,2.453-7.616c1.054-0.835,2.34-1.335,3.4-2.163c2.515-1.965,3.319-5.353,4.906-8.123
		c3.116-5.439,9.87-8.527,16.023-7.326c2.367,0.462,4.77,1.64,5.88,3.782c1.11,2.142,0.309,5.304-1.991,6.033
		c-1.684,0.534-3.512-0.314-5.262-0.078c-1.954,0.264-3.593,2.04-3.7,4.009c-0.176,3.248,3.185,3.514,4.036,6.013
		C288.224,255.02,286.743,258.309,284.236,259.364z"/>
	<g>
		<path style="fill:#FFFFFF;" d="M258.658,322.161l31.652-8.715c0.778-0.214,1.618,0.034,2.127,0.661
			c0.737,0.906,1.55,2.45,1.205,4.645c-0.127,0.806-0.72,1.467-1.508,1.678l-31.519,8.454
			C260.615,328.885,255.764,326.161,258.658,322.161z"/>
		<path style="fill:#DEDEDE;" d="M261.514,324.895c0.636,1.83,0.348,3.592-0.642,3.936c-0.991,0.344-2.309-0.86-2.945-2.69
			s-0.348-3.592,0.643-3.936C259.56,321.861,260.879,323.065,261.514,324.895z"/>
	</g>
	<path style="fill:#EBAA96;" d="M275.005,323.093c0.058,0.532,0.039,1.099-0.232,1.561c-0.271,0.462-0.889,0.323-1.358,0.581
		c-0.631,0.348,0.32,1.459,0.987,1.733c0.667,0.274,1.469,0.102,2.033-0.346c0.564-0.449,0.902-1.141,1.016-1.853
		c-0.068,0.832,0.734,1.623,1.564,1.543c0.831-0.08,1.467-1.01,1.241-1.813c0.171,0.808,1.089,1.372,1.887,1.159
		c0.798-0.213,1.313-1.159,1.059-1.944c0.151,0.537,0.864,0.771,1.37,0.538c0.506-0.234,0.792-0.804,0.831-1.36
		c0.039-0.556-0.127-1.105-0.312-1.631c-0.539-1.536-1.252-3.01-2.122-4.386c-0.823-1.303-1.801-2.531-3.039-3.449
		c-1.237-0.918-2.757-1.511-4.296-1.452c-1.54,0.059-3.083,0.831-3.884,2.147c-0.844,1.386-0.727,3.363,0.513,4.458
		C273.683,319.83,274.791,321.12,275.005,323.093z"/>
	<g>
		<polygon style="fill:#FFFFFF;" points="383.551,317.734 338.275,317.734 338.275,347.149 356.535,347.149 360.913,354.732 
			365.291,347.149 383.551,347.149 		"/>
		<path style="fill:#DE5D5C;" d="M368.738,330.107l-0.003,0c-0.001-2.31-1.822-4.182-4.069-4.182c-1.946,0-3.571,1.406-3.972,3.284
			c-0.401-1.878-2.026-3.284-3.972-3.284c-2.247,0-4.068,1.872-4.069,4.182h0c-0.205,4.987,5.828,8.141,7.752,9.013
			c0.114,0.053,0.211,0.094,0.29,0.129l0.29-0.129C362.91,338.248,368.937,335.094,368.738,330.107z"/>
	</g>
	<rect x="77.509" y="411.161" style="fill:#1B2147;" width="566.043" height="9.957"/>
	<path style="fill:none;stroke:#EBAA96;stroke-width:0.5;stroke-linecap:round;stroke-linejoin:round;stroke-miterlimit:10;" d="
		M501.362,245.314c0.546,0.724,1.45,1.164,2.357,1.148c0.907-0.016,1.794-0.489,2.314-1.233"/>
	<path style="fill:none;stroke:#EBAA96;stroke-width:0.5;stroke-linecap:round;stroke-linejoin:round;stroke-miterlimit:10;" d="
		M276.59,320.441c0.747,0.89,1.028,2.151,0.731,3.274"/>
	<path style="fill:none;stroke:#EBAA96;stroke-width:0.5;stroke-linecap:round;stroke-linejoin:round;stroke-miterlimit:10;" d="
		M279.744,321.565c0.308,0.836,0.47,1.726,0.477,2.617"/>
	<path style="fill:none;stroke:#EBAA96;stroke-width:0.5;stroke-linecap:round;stroke-linejoin:round;stroke-miterlimit:10;" d="
		M282.389,321.151c0.452,0.554,0.723,1.254,0.763,1.967"/>
	<path style="fill:none;stroke:#EBAA96;stroke-width:0.5;stroke-linecap:round;stroke-linejoin:round;stroke-miterlimit:10;" d="
		M251.079,303.354c-0.123,1.312,0.253,2.665,1.035,3.725"/>
	<path style="fill:none;stroke:#EBAA96;stroke-width:0.5;stroke-linecap:round;stroke-linejoin:round;stroke-miterlimit:10;" d="
		M246.721,396.99c0.099,0.481,0.201,0.969,0.432,1.401c0.231,0.433,0.613,0.811,1.091,0.92c0.478,0.109,0.987-0.066,1.381-0.358
		c0.394-0.292,0.694-0.691,0.983-1.088"/>
	<path style="fill:none;stroke:#EBAA96;stroke-width:0.5;stroke-linecap:round;stroke-linejoin:round;stroke-miterlimit:10;" d="
		M429.364,350.99c0.065,1.07,0.967,2.029,2.031,2.159c1.064,0.131,2.171-0.581,2.493-1.603"/>
	<path style="fill:none;stroke:#1B2147;stroke-width:0.75;stroke-linecap:round;stroke-linejoin:round;stroke-miterlimit:10;" d="
		M276.32,270.698c-0.156,4.851-1.664,9.652-4.31,13.72c-0.183,0.281-0.396,0.578-0.716,0.677c-0.276,0.085-0.574,0.004-0.852-0.075
		c-3.871-1.093-7.888-1.665-11.91-1.695"/>
	<path style="fill:none;stroke:#1B2147;stroke-width:0.75;stroke-linecap:round;stroke-linejoin:round;stroke-miterlimit:10;" d="
		M460.296,222.232c1.015,4.899,0.839,10.04-0.508,14.858c-0.098,0.35-0.239,0.742-0.576,0.88c-0.188,0.077-0.4,0.056-0.602,0.033
		c-4.054-0.449-8.109-0.899-12.163-1.348"/>
	<circle style="fill:none;stroke:#FFFFFF;stroke-miterlimit:10;" cx="555.466" cy="252.863" r="3.574"/>
	<path style="fill:none;stroke:#FFFFFF;stroke-miterlimit:10;" d="M416.062,163.332c0,1.974-1.6,3.574-3.574,3.574
		c-1.974,0-3.575-1.6-3.575-3.574c0-1.974,1.6-3.575,3.575-3.575C414.462,159.757,416.062,161.357,416.062,163.332z"/>
	<path style="fill:none;stroke:#FFFFFF;stroke-miterlimit:10;" d="M592.403,92.183c0,1.974-1.6,3.574-3.575,3.574
		c-1.974,0-3.574-1.6-3.574-3.574c0-1.974,1.6-3.575,3.574-3.575C590.802,88.608,592.403,90.209,592.403,92.183z"/>
	<g>
		
			<line style="fill:none;stroke:#FFFFFF;stroke-linecap:round;stroke-linejoin:round;stroke-miterlimit:10;" x1="579.466" y1="173.459" x2="579.466" y2="179.459"/>
		
			<line style="fill:none;stroke:#FFFFFF;stroke-linecap:round;stroke-linejoin:round;stroke-miterlimit:10;" x1="582.466" y1="176.459" x2="576.466" y2="176.459"/>
	</g>
	<g>
		
			<line style="fill:none;stroke:#FFFFFF;stroke-linecap:round;stroke-linejoin:round;stroke-miterlimit:10;" x1="498.105" y1="141.8" x2="498.105" y2="147.8"/>
		
			<line style="fill:none;stroke:#FFFFFF;stroke-linecap:round;stroke-linejoin:round;stroke-miterlimit:10;" x1="501.105" y1="144.8" x2="495.105" y2="144.8"/>
	</g>
	<g>
		
			<line style="fill:none;stroke:#FFFFFF;stroke-linecap:round;stroke-linejoin:round;stroke-miterlimit:10;" x1="404.488" y1="293.629" x2="404.488" y2="299.629"/>
		
			<line style="fill:none;stroke:#FFFFFF;stroke-linecap:round;stroke-linejoin:round;stroke-miterlimit:10;" x1="407.488" y1="296.629" x2="401.488" y2="296.629"/>
	</g>
	<path style="fill:#EBAA96;" d="M513.398,223.526c0.924-0.99,1.911-2.155,1.789-3.494c-0.064-0.695-0.425-1.322-0.779-1.924
		c-0.754-1.284-1.508-2.568-2.261-3.852c-0.525-0.894-1.064-1.806-1.851-2.485c-0.66-0.57-1.556-1.093-1.6-1.962
		c-0.034-0.683,0.543-1.29,1.205-1.487c0.662-0.197,1.377-0.063,2.03,0.156c1.992,0.669,3.687,2.153,4.601,4.03
		c0.672-0.581,1.253-1.264,1.719-2.018c0.532-0.861,0.919-1.822,1.604-2.569c0.685-0.747,1.808-1.239,2.728-0.817
		c0.645,0.296,1.034,0.966,1.237,1.641c0.589,1.961-0.189,4.256-1.855,5.476"/>
	<path style="fill:#EBAA96;" d="M528.675,217.933c-0.271,1.493-1.03,2.897-2.134,3.951c-0.847,0.808-1.873,1.4-2.832,2.074
		c-0.959,0.673-1.884,1.465-2.39,2.516c-0.134,0.279-0.239,0.575-0.413,0.831c-0.174,0.257-0.438,0.477-0.749,0.504
		c-0.344,0.031-0.658-0.174-0.939-0.37c-1.959-1.362-3.943-2.34-5.902-3.702c2.375-4.395,5.359-8.866,8.802-12.503
		c0.325-0.343,0.683-0.699,1.146-0.797c0.536-0.114,1.073,0.144,1.558,0.395c1.612,0.833,3.225,1.666,4.838,2.499"/>
	<g>
		
			<rect x="515.034" y="178.108" transform="matrix(0.6641 -0.7476 0.7476 0.6641 18.6453 455.122)" style="fill:#85B1EA;" width="1.598" height="57.404"/>
		<polygon style="fill:#DE5D5C;" points="522.477,177.924 494.909,187.206 516.514,206.396 522.477,177.924 494.909,187.206 
			516.514,206.396 		"/>
	</g>
	<path style="opacity:0.35;fill:#EBAA96;" d="M518.251,213.948c-0.027,1.424,0.342,2.874,1.168,4.035
		c0.826,1.16,2.127,2.004,3.543,2.15c1.3,0.133,2.595-0.308,3.763-0.895c0.863-0.433,1.684-0.948,2.45-1.537
		c0.392-0.301,0.775-0.628,1.044-1.044c0.501-0.775,0.53-1.83,0.072-2.632c-0.503-0.881-1.471-1.372-2.384-1.814
		c-1.566-0.758-3.133-1.516-4.699-2.274c-0.596-0.288-1.21-0.582-1.87-0.63C519.097,209.146,518.284,212.225,518.251,213.948z"/>
	<path style="fill:#EBAA96;" d="M523.527,208.754c0.525-0.839,1.814-0.967,2.635-0.416c0.821,0.551,1.196,1.591,1.184,2.575
		c-0.013,0.985-0.357,1.934-0.717,2.854c-0.307,0.784-0.73,1.655-1.544,1.887c-0.605,0.172-1.279-0.091-1.696-0.555
		c-0.417-0.464-0.604-1.097-0.637-1.72c-0.033-0.622,0.074-1.243,0.181-1.858"/>
	<path style="fill:#EBAA96;" d="M526.699,211.005c0.404-0.586,1.242-0.792,1.914-0.554c0.672,0.237,1.164,0.852,1.358,1.533
		c0.194,0.681,0.117,1.417-0.099,2.092c-0.216,0.676-0.566,1.302-0.923,1.917c-0.423,0.727-0.996,1.531-1.839,1.572
		c-0.7,0.034-1.318-0.516-1.585-1.157c-0.267-0.641-0.26-1.359-0.248-2.053"/>
	<path style="fill:#EBAA96;" d="M529.435,212.952c0.968-0.114,1.865,0.707,2.08,1.648c0.216,0.941-0.115,1.933-0.618,2.763
		c-0.355,0.586-0.891,1.168-1.579,1.182c-0.519,0.01-0.995-0.322-1.291-0.744c-0.296-0.422-0.444-0.926-0.587-1.421"/>
	<g>
		<path style="fill:#EBAA96;" d="M518.933,210.01c-0.315,1.088-0.318,2.264-0.009,3.353c0.151,0.533,0.442,1.106,0.977,1.251
			c0.519,0.142,1.047-0.181,1.454-0.533c0.776-0.673,1.403-1.516,1.823-2.453c0.301-0.672,0.498-1.404,0.454-2.139
			c-0.044-0.735-0.351-1.472-0.919-1.94c-0.514-0.423-1.324-0.622-1.957-0.35c-0.573,0.247-1.044,1.084-1.328,1.608
			C519.22,209.19,519.054,209.594,518.933,210.01z"/>
	</g>
	<path style="fill:none;stroke:#EBAA96;stroke-width:0.5;stroke-linecap:round;stroke-linejoin:round;stroke-miterlimit:10;" d="
		M523.631,208.602c-0.106,1.24-0.37,2.467-0.782,3.642"/>
	<path style="fill:none;stroke:#EBAA96;stroke-width:0.5;stroke-linecap:round;stroke-linejoin:round;stroke-miterlimit:10;" d="
		M527.165,210.649c-0.038,1.378-0.492,2.741-1.286,3.867"/>
	<path style="fill:none;stroke:#EBAA96;stroke-width:0.5;stroke-linecap:round;stroke-linejoin:round;stroke-miterlimit:10;" d="
		M529.975,213.267c-0.03,0.811-0.316,1.61-0.808,2.255"/>
	<g>
		<g>
			<g>
				<path style="fill:#EAB23D;" d="M328.628,273.056l0.888,14.142l-5.799,0.364c-1.966,0.124-3.663-1.373-3.787-3.349l-0.439-6.996
					c-0.124-1.976,1.372-3.673,3.339-3.797L328.628,273.056z"/>
				
					<rect x="329.019" y="272.658" transform="matrix(0.998 -0.0627 0.0627 0.998 -16.8764 21.5624)" style="fill:#1B2147;" width="12.32" height="14.13"/>
			</g>
			<path style="fill:#DE5D5C;" d="M355.47,278.191c0.205,3.26-2.272,6.069-5.533,6.274c-3.26,0.205-6.069-2.272-6.274-5.533
				c-0.205-3.26,2.272-6.069,5.533-6.274C352.457,272.454,355.266,274.931,355.47,278.191z"/>
			<path style="fill:#1B2147;" d="M351.228,266.894l1.454,23.146c0.051,0.806-0.791,1.365-1.514,1.005l-22.232-11.049l20.834-13.833
				C350.375,265.756,351.183,266.166,351.228,266.894z"/>
			<path style="fill:#DE5D5C;" d="M330.135,272.961l1.471,23.414c0.053,0.838-0.583,1.57-1.431,1.623
				c-0.838,0.053-1.57-0.593-1.623-1.431l-1.471-23.414L330.135,272.961z"/>
		</g>
	</g>
	<path style="opacity:0.35;fill:#EBAA96;" d="M327.419,289.158c-1.047,0.965-1.839,2.236-2.105,3.634
		c-0.267,1.399,0.024,2.922,0.899,4.046c0.803,1.031,2.017,1.66,3.249,2.098c0.91,0.324,1.85,0.56,2.804,0.706
		c0.489,0.075,0.99,0.125,1.476,0.032c0.906-0.174,1.688-0.883,1.95-1.768c0.288-0.973-0.026-2.011-0.339-2.976
		c-0.536-1.655-1.072-3.311-1.608-4.966c-0.204-0.63-0.417-1.276-0.839-1.786C331.471,286.447,328.686,287.99,327.419,289.158z"/>
	<path style="fill:#EBAA96;" d="M334.82,289.375c0.969-0.201,1.953,0.641,2.124,1.615c0.17,0.974-0.321,1.964-1.041,2.636
		c-0.72,0.672-1.644,1.081-2.557,1.456c-0.778,0.32-1.7,0.618-2.431,0.19c-0.543-0.318-0.819-0.987-0.772-1.609
		c0.047-0.622,0.375-1.195,0.801-1.65c0.426-0.454,0.949-0.806,1.467-1.154"/>
	<path style="fill:#EBAA96;" d="M335.388,293.223c0.703-0.113,1.431,0.349,1.724,0.999c0.293,0.649,0.19,1.43-0.168,2.041
		c-0.357,0.611-0.942,1.065-1.58,1.376c-0.638,0.311-1.332,0.492-2.023,0.659c-0.817,0.198-1.794,0.34-2.407-0.241
		c-0.509-0.482-0.539-1.309-0.261-1.945c0.278-0.637,0.802-1.127,1.311-1.6"/>
	<path style="fill:#EBAA96;" d="M335.874,296.545c0.752,0.62,0.779,1.835,0.249,2.642c-0.531,0.807-1.475,1.255-2.423,1.466
		c-0.669,0.149-1.46,0.165-1.946-0.323c-0.367-0.368-0.456-0.941-0.356-1.447c0.1-0.506,0.362-0.961,0.62-1.407"/>
	<g>
		<path style="fill:#EBAA96;" d="M330.734,286.927c-1.004,0.525-1.855,1.336-2.428,2.313c-0.28,0.478-0.493,1.084-0.228,1.571
			c0.257,0.473,0.855,0.632,1.391,0.681c1.022,0.095,2.065-0.036,3.032-0.381c0.693-0.247,1.359-0.612,1.858-1.152
			c0.5-0.54,0.82-1.271,0.765-2.005c-0.05-0.664-0.467-1.387-1.101-1.656c-0.575-0.243-1.505-0.004-2.08,0.154
			C331.525,286.567,331.118,286.726,330.734,286.927z"/>
	</g>
	<path style="fill:none;stroke:#EBAA96;stroke-width:0.5;stroke-linecap:round;stroke-linejoin:round;stroke-miterlimit:10;" d="
		M335.001,289.345c-0.969,0.781-2.037,1.44-3.171,1.954"/>
	<path style="fill:none;stroke:#EBAA96;stroke-width:0.5;stroke-linecap:round;stroke-linejoin:round;stroke-miterlimit:10;" d="
		M335.968,293.313c-1.021,0.926-2.32,1.541-3.683,1.746"/>
	<path style="fill:none;stroke:#EBAA96;stroke-width:0.5;stroke-linecap:round;stroke-linejoin:round;stroke-miterlimit:10;" d="
		M336.021,297.153c-0.606,0.539-1.381,0.885-2.187,0.976"/>
	<path style="fill:none;stroke:#EBAA96;stroke-width:0.5;stroke-linecap:round;stroke-linejoin:round;stroke-miterlimit:10;" d="
		M285.101,244.879c-0.467,0.352-0.69,0.975-0.626,1.557s0.389,1.115,0.827,1.504c0.438,0.388,0.982,0.64,1.543,0.806"/>
</g>
</svg>
