<?xml version="1.0" encoding="utf-8"?>
<!-- Generator: Adobe Illustrator 27.5.0, SVG Export Plug-In . SVG Version: 6.00 Build 0)  -->
<svg version="1.1" xmlns="http://www.w3.org/2000/svg" xmlns:xlink="http://www.w3.org/1999/xlink" x="0px" y="0px"
	 viewBox="0 0 500 500" style="enable-background:new 0 0 500 500;" xml:space="preserve">
<g id="Background_Simple">
	<g>
		<g>
			<path style="fill:#C6FF00;" d="M287.858,111.622V90.019c-16.569,4.117-31.781,11.382-46.697,21.604H287.858z"/>
			<rect x="294.372" y="119.412" style="fill:#C6FF00;" width="114.356" height="141.942"/>
			<path style="fill:#C6FF00;" d="M287.858,119.412h-57.406c-12.828,9.597-25.989,19.316-41.368,24.862
				c-5.144,1.855-10.345,3.486-15.582,5.003v112.077h114.356V119.412z"/>
			<path style="fill:#C6FF00;" d="M431.351,142.123c-4.373-7.92-9.836-14.957-16.11-21.15v140.381h11.765
				C445.08,225.178,451.037,177.774,431.351,142.123z"/>
			<path style="fill:#C6FF00;" d="M166.988,151.104c-6.232,1.704-12.503,3.313-18.784,4.993
				c-49.18,13.154-79.71,57.371-74.066,105.257h92.85V151.104z"/>
			<path style="fill:#C6FF00;" d="M415.241,269.144v11.689c1.448-1.937,2.833-3.934,4.148-5.992
				c1.182-1.851,2.322-3.759,3.436-5.697H415.241z"/>
			<path style="fill:#C6FF00;" d="M408.727,269.144H294.372v59.876c9.507,0.116,18.943,0.88,28.554-0.167
				c31.584-3.441,63.943-16.359,85.802-40.18V269.144z"/>
			<path style="fill:#C6FF00;" d="M294.372,111.622h109.943c-22.295-16.591-51.249-24.88-78.628-25.545
				c-11.086-0.269-21.454,0.576-31.315,2.495V111.622z"/>
			<path style="fill:#C6FF00;" d="M287.858,269.144H173.502v85.194c19.824,0.346,39.746-5.355,58.55-11.734
				c14.941-5.068,30.035-10.306,45.776-12.668c3.366-0.505,6.705-0.751,10.029-0.858V269.144z"/>
			<path style="fill:#C6FF00;" d="M166.988,269.144H75.381c7.214,35.036,35.078,66.904,70.115,80.051
				c7.094,2.662,14.277,4.175,21.491,4.809V269.144z"/>
		</g>
		<g style="opacity:0.7;">
			<path style="fill:#FFFFFF;" d="M287.858,111.622V90.019c-16.569,4.117-31.781,11.382-46.697,21.604H287.858z"/>
			<rect x="294.372" y="119.412" style="fill:#FFFFFF;" width="114.356" height="141.942"/>
			<path style="fill:#FFFFFF;" d="M287.858,119.412h-57.406c-12.828,9.597-25.989,19.316-41.368,24.862
				c-5.144,1.855-10.345,3.486-15.582,5.003v112.077h114.356V119.412z"/>
			<path style="fill:#FFFFFF;" d="M431.351,142.123c-4.373-7.92-9.836-14.957-16.11-21.15v140.381h11.765
				C445.08,225.178,451.037,177.774,431.351,142.123z"/>
			<path style="fill:#FFFFFF;" d="M166.988,151.104c-6.232,1.704-12.503,3.313-18.784,4.993
				c-49.18,13.154-79.71,57.371-74.066,105.257h92.85V151.104z"/>
			<path style="fill:#FFFFFF;" d="M415.241,269.144v11.689c1.448-1.937,2.833-3.934,4.148-5.992
				c1.182-1.851,2.322-3.759,3.436-5.697H415.241z"/>
			<path style="fill:#FFFFFF;" d="M408.727,269.144H294.372v59.876c9.507,0.116,18.943,0.88,28.554-0.167
				c31.584-3.441,63.943-16.359,85.802-40.18V269.144z"/>
			<path style="fill:#FFFFFF;" d="M294.372,111.622h109.943c-22.295-16.591-51.249-24.88-78.628-25.545
				c-11.086-0.269-21.454,0.576-31.315,2.495V111.622z"/>
			<path style="fill:#FFFFFF;" d="M287.858,269.144H173.502v85.194c19.824,0.346,39.746-5.355,58.55-11.734
				c14.941-5.068,30.035-10.306,45.776-12.668c3.366-0.505,6.705-0.751,10.029-0.858V269.144z"/>
			<path style="fill:#FFFFFF;" d="M166.988,269.144H75.381c7.214,35.036,35.078,66.904,70.115,80.051
				c7.094,2.662,14.277,4.175,21.491,4.809V269.144z"/>
		</g>
	</g>
</g>
<g id="Desk">
	<g>
		<polygon style="fill:#C6FF00;" points="431.169,293.023 426.93,293.023 235.46,293.023 231.221,293.023 231.221,301.501 
			235.46,301.501 235.46,387.698 426.93,387.698 426.93,301.501 431.169,301.501 		"/>
		<polygon style="opacity:0.5;fill:#FFFFFF;" points="431.169,293.023 426.93,293.023 235.46,293.023 231.221,293.023 
			231.221,301.501 235.46,301.501 235.46,387.698 426.93,387.698 426.93,301.501 431.169,301.501 		"/>
		<g>
			<path style="fill:#FFFFFF;" d="M240.582,338.065h52.223v-27.908h-52.223V338.065z M241.642,311.217h50.103v25.788h-50.103
				V311.217z"/>
			<path style="fill:#FFFFFF;" d="M305.437,338.065h52.223v-27.908h-52.223V338.065z M306.497,311.217H356.6v25.788h-50.103V311.217
				z"/>
			<path style="fill:#FFFFFF;" d="M370.292,310.157v27.908h52.223v-27.908H370.292z M421.455,337.005h-50.103v-25.788h50.103
				V337.005z"/>
			<path style="fill:#FFFFFF;" d="M240.582,375.51h52.223v-27.908h-52.223V375.51z M241.642,348.663h50.103v25.788h-50.103V348.663z
				"/>
			<path style="fill:#FFFFFF;" d="M305.437,375.51h52.223v-27.908h-52.223V375.51z M306.497,348.663H356.6v25.788h-50.103V348.663z"
				/>
			<path style="fill:#FFFFFF;" d="M370.292,375.51h52.223v-27.908h-52.223V375.51z M371.352,348.663h50.103v25.788h-50.103V348.663z
				"/>
			<ellipse style="fill:#FFFFFF;" cx="267.254" cy="324.464" rx="8.478" ry="3.179"/>
			<ellipse style="fill:#FFFFFF;" cx="331.795" cy="324.464" rx="8.478" ry="3.179"/>
			<ellipse style="fill:#FFFFFF;" cx="398.209" cy="324.464" rx="8.478" ry="3.179"/>
			<path style="fill:#FFFFFF;" d="M267.254,358.731c-4.682,0-8.478,1.423-8.478,3.179c0,1.756,3.796,3.179,8.478,3.179
				c4.682,0,8.478-1.423,8.478-3.179C275.732,360.154,271.936,358.731,267.254,358.731z"/>
			<path style="fill:#FFFFFF;" d="M331.795,358.731c-4.682,0-8.478,1.423-8.478,3.179c0,1.756,3.796,3.179,8.478,3.179
				c4.683,0,8.478-1.423,8.478-3.179C340.273,360.154,336.477,358.731,331.795,358.731z"/>
			<path style="fill:#FFFFFF;" d="M398.209,358.731c-4.682,0-8.478,1.423-8.478,3.179c0,1.756,3.796,3.179,8.478,3.179
				c4.682,0,8.478-1.423,8.478-3.179C406.688,360.154,402.891,358.731,398.209,358.731z"/>
		</g>
	</g>
</g>
<g id="Plants">
	<g>
		<path style="fill:#C6FF00;" d="M158.364,285.616c-3.866,5.728-9.245,13.178-12.117,19.157c1.096-3.942,2.159-7.668,3.137-11.033
			c1.469-2.885,5.404-10.178,9.946-15.04c5.77-6.176,8.236-10.144,5.13-10.488c-2.152-0.239-8.453,8.152-12.399,16.485
			c0.861-2.848,1.537-5.022,1.948-6.294c0.186-0.577,0.37-1.211,0.551-1.881c2.038-2.836,6.737-9.633,11.14-17.862
			c5.829-10.896,7.707-21.175,3.82-16.753c-3.579,4.072-9.809,24.304-14.755,33.831c0.417-1.639,0.811-3.455,1.167-5.244
			c0.699-1.733,1.616-3.491,2.141-5.089c0.807-2.455,1.518-4.944,2.09-7.465c0.893-3.939,1.472-7.98,1.421-12.026
			c-0.061-4.8-1.054-9.425-3.724-13.44c-0.671-1.01-4.764-7.126-6.024-3.979c-0.202,0.504-0.153,1.069-0.091,1.608
			c0.596,5.211,2.487,9.997,3.655,15.07c1.749,7.59,0.587,20.334-0.034,25.753c-0.225,0.855-0.507,1.923-0.836,3.153
			c0.816-9.444-3.276-20.635-7.068-22.59c-4.691-2.419-0.088,7.08,3.529,15.373c2.34,5.365,2.515,9.434,2.348,11.64
			c-0.74,2.724-1.587,5.789-2.468,8.89c-0.174,0.426-0.339,0.849-0.496,1.268c0.369-2.033,0.616-4.227,0.492-6.147
			c-0.349-5.42-6.489-16.271-10.563-14.739c-4.074,1.532,2.825,7.255,6.519,13.911c2.53,4.559,2.438,9.37,2.128,11.95
			c-0.043,0.246-0.08,0.487-0.111,0.724c-0.424,1.412-0.844,2.78-1.252,4.072c-0.956,3.027-1.847,5.88-2.699,8.661
			c0.813-3.355,1.643-8.023,1.365-12.353c-0.511-7.949-5.166-15.449-9.041-16.47c-3.875-1.02,3.489,11.93,5.952,19.208
			c1.86,5.495,1.126,10.845,0.655,13.138c-1.185,3.942-2.312,7.826-3.458,11.943c0.407-4.52,0.144-10.38-0.346-16.15
			c-0.75-8.84-6.011-14.488-9.624-14.255c-3.613,0.232,0.156,5.251,5.382,15.98c3.746,7.692,3.817,14.78,3.557,18.177
			c-0.471,1.735-0.949,3.517-1.439,5.379c-0.557,2.116-1.016,4.421-1.396,6.784c-0.524-2.104-1.306-5.186-2.215-8.584
			c-1.017-3.797-1.87-7.575-2.297-11.479c-0.493-4.507-1.679-10.132-6.098-12.477c-1.496-0.794-2.916-0.499-3.709,1.002
			c-0.487,0.925-0.429,2.032-0.264,3.059c0.487,3.02,1.654,5.96,3.004,8.826c-0.951,1.525-1.209,3.77-1.147,5.41
			c0.027,0.707,0.065,1.406,0.109,2.1c-0.385-0.714-0.756-1.376-1.107-1.961c-0.677-1.129-1.483-2.09-2.323-2.861
			c0.216-1.675,0.359-3.355,0.341-5.044c-0.023-2.194-2.57-7.78-4.887-3.639c-0.926,1.656-0.747,4.909-0.839,7.072
			c-0.637,0.594-0.823,1.813-0.291,3.74c-0.366,4.996-0.427,10.115,0.778,14.97c-0.265-0.464-0.53-0.93-0.796-1.398
			c-0.329-1.604-1.746-8.953-2.004-17.538c-0.292-9.724,1.262-17.711-1.389-20.704c-2.651-2.994-4.128,7.551-3.015,19.044
			c0.618,6.384,2.548,11.698,4.141,15.164c-2.598-4.67-5.168-9.431-7.599-14.027c-1.039-2.456-3.484-9.081-2.873-15.802
			c0.77-8.475,1.331-15.407-1.885-20.177c-3.217-4.77-3.892-1.676-2.313,8.265c1.084,6.825,2.236,15.941,4.217,22.272
			c-1.889-3.63-3.654-7.079-5.236-10.205c-0.895-3.111-2.996-11.127-2.994-17.781c0.003-8.452-0.903-13.035-3.408-11.167
			c-1.736,1.294-0.614,11.728,2.188,20.511c-1.315-2.669-2.304-4.719-2.872-5.93c-0.258-0.549-0.555-1.137-0.881-1.751
			c-0.446-3.464-1.65-11.639-4.048-20.658c-3.176-11.943-8.818-20.738-8.641-14.852c0.163,5.418,9.417,24.458,12.304,34.798
			c-0.814-1.483-1.765-3.079-2.727-4.63c-0.671-1.744-1.201-3.654-1.908-5.181c-1.086-2.345-2.264-4.65-3.567-6.882
			c-2.035-3.488-4.37-6.837-7.168-9.76c-3.32-3.467-7.202-6.17-11.894-7.282c-1.18-0.28-8.345-1.958-7.119,1.203
			c0.196,0.506,0.618,0.886,1.031,1.238c3.992,3.402,8.641,5.61,12.957,8.52c6.459,4.355,14.306,14.462,17.55,18.847
			c0.419,0.779,0.941,1.752,1.541,2.875c-5.849-7.46-16.477-12.846-20.583-11.688c-5.08,1.433,4.767,5.236,13.071,8.828
			c5.372,2.324,8.277,5.179,9.66,6.906c1.318,2.497,2.791,5.314,4.263,8.183c0.164,0.43,0.331,0.852,0.503,1.266
			c-1.118-1.738-2.435-3.51-3.836-4.829c-3.953-3.723-15.848-7.465-17.779-3.565c-1.932,3.9,7.017,3.375,14.258,5.72
			c4.96,1.606,8.176,5.185,9.711,7.282c0.136,0.209,0.274,0.41,0.413,0.605c0.654,1.321,1.281,2.608,1.864,3.83
			c1.367,2.866,2.663,5.558,3.938,8.173c-1.695-3.008-4.274-6.986-7.433-9.961c-5.798-5.461-14.319-7.767-17.848-5.868
			c-3.529,1.898,10.691,6.339,17.46,9.978c5.11,2.747,8.225,7.158,9.445,9.156c1.824,3.69,3.651,7.298,5.623,11.09
			c-2.786-3.582-6.979-7.686-11.274-11.569c-6.581-5.95-14.281-6.487-16.763-3.852c-2.482,2.636,3.698,3.731,14.839,8.007
			c7.988,3.065,12.877,8.198,15.005,10.858c0.84,1.59,1.707,3.218,2.619,4.914c1.037,1.927,2.274,3.924,3.609,5.911
			c-1.819-1.181-4.493-2.9-7.478-4.762c-3.335-2.081-6.536-4.26-9.513-6.822c-3.436-2.958-8.141-6.26-12.972-4.958
			c-1.635,0.441-2.472,1.625-2.027,3.263c0.275,1.008,1.073,1.778,1.895,2.416c4.559,3.537,10.688,5.236,15.995,7.324
			c6.549,2.577,12.263,4.111,14.937,4.765c1.254,1.809,2.573,3.594,3.885,5.298c-0.374,0.011-1.071,0.032-2.382,0.071
			c-2.815,0.084-15.538-5.681-21.996-7.536c-6.459-1.855-12.501,1.655-5.732,5.294c6.768,3.639,25.185,2.831,25.185,2.831
			l5.312-0.159c1.244,1.601,2.471,3.116,3.623,4.503H101.41v6.996h4.982l4.049,24.888h33.531l4.049-24.888h4.982v-6.996h-16.727
			c-0.121-2.373-0.096-5.367,0.247-9.063c0.41-0.462,1.397-1.405,3.684-2.986c7.339-5.071,19.786-5.492,23.092-15.253
			c0.799-2.359-0.105-5.376-2.922-5.246c-2.021,0.093-4.169,1.87-5.429,3.326c-4.198,4.851-7.36,9.876-12.818,13.552
			c-0.247,0.167-3.691,2.908-5.397,4.606c0.185-1.588,0.425-3.29,0.733-5.112c1.322-2.332,2.834-4.591,4.508-6.671
			c4.465-5.546,11.262-8.799,16.097-14.086c1.48-1.619,3.431-7.441-1.089-5.994c-2.014,0.645-4.383,3.686-5.949,5.082
			c-4.447,3.964-8.974,8.261-11.902,13.522c0.123-0.52,0.247-1.042,0.372-1.564c0.855-1.397,4.834-7.735,10.504-14.186
			c6.423-7.307,13.009-12.084,13.115-16.082c0.105-3.998-8.171,2.703-15.2,11.862c-3.905,5.088-6.122,10.29-7.322,13.91
			c1.288-5.187,2.659-10.42,4.019-15.439c0.917-2.504,3.651-9.016,8.684-13.511c6.347-5.669,11.488-10.353,12.392-16.035
			C166.6,275.472,163.995,277.272,158.364,285.616z M122.846,349.935c-0.949-1.287-1.935-2.695-2.953-4.236
			c-0.626-2.607-1.062-5.29-1.258-7.953c-0.169-2.296,0.007-4.583,0.316-6.869c1.657,2.089,3.587,4.189,5.431,6.066
			c-0.059,1.947-0.266,3.915-0.734,5.942C123.581,343.176,122.935,347.529,122.846,349.935z M128.288,356.522
			c-1.286-1.371-2.698-3.003-4.229-4.98c-0.016-0.618,0.062-1.981,0.655-4.697c0.508-2.324,1.508-4.655,2.619-7.001
			c2.365,2.248,4.11,3.742,4.11,3.742l3.991,3.509c-0.317,3.492-0.499,6.769-0.604,9.428H128.288z M135.494,346.464
			c-0.281-0.247-0.804-0.707-1.79-1.573c-1.022-0.899-2.805-4.378-4.763-8.383c0.825-1.721,1.614-3.452,2.223-5.198
			c2.112,3.93,4.026,6.98,5.106,8.63C135.952,342.119,135.697,344.323,135.494,346.464z"/>
		<path style="opacity:0.5;fill:#FFFFFF;" d="M158.364,285.616c-3.866,5.728-9.245,13.178-12.117,19.157
			c1.096-3.942,2.159-7.668,3.137-11.033c1.469-2.885,5.404-10.178,9.946-15.04c5.77-6.176,8.236-10.144,5.13-10.488
			c-2.152-0.239-8.453,8.152-12.399,16.485c0.861-2.848,1.537-5.022,1.948-6.294c0.186-0.577,0.37-1.211,0.551-1.881
			c2.038-2.836,6.737-9.633,11.14-17.862c5.829-10.896,7.707-21.175,3.82-16.753c-3.579,4.072-9.809,24.304-14.755,33.831
			c0.417-1.639,0.811-3.455,1.167-5.244c0.699-1.733,1.616-3.491,2.141-5.089c0.807-2.455,1.518-4.944,2.09-7.465
			c0.893-3.939,1.472-7.98,1.421-12.026c-0.061-4.8-1.054-9.425-3.724-13.44c-0.671-1.01-4.764-7.126-6.024-3.979
			c-0.202,0.504-0.153,1.069-0.091,1.608c0.596,5.211,2.487,9.997,3.655,15.07c1.749,7.59,0.587,20.334-0.034,25.753
			c-0.225,0.855-0.507,1.923-0.836,3.153c0.816-9.444-3.276-20.635-7.068-22.59c-4.691-2.419-0.088,7.08,3.529,15.373
			c2.34,5.365,2.515,9.434,2.348,11.64c-0.74,2.724-1.587,5.789-2.468,8.89c-0.174,0.426-0.339,0.849-0.496,1.268
			c0.369-2.033,0.616-4.227,0.492-6.147c-0.349-5.42-6.489-16.271-10.563-14.739c-4.074,1.532,2.825,7.255,6.519,13.911
			c2.53,4.559,2.438,9.37,2.128,11.95c-0.043,0.246-0.08,0.487-0.111,0.724c-0.424,1.412-0.844,2.78-1.252,4.072
			c-0.956,3.027-1.847,5.88-2.699,8.661c0.813-3.355,1.643-8.023,1.365-12.353c-0.511-7.949-5.166-15.449-9.041-16.47
			c-3.875-1.02,3.489,11.93,5.952,19.208c1.86,5.495,1.126,10.845,0.655,13.138c-1.185,3.942-2.312,7.826-3.458,11.943
			c0.407-4.52,0.144-10.38-0.346-16.15c-0.75-8.84-6.011-14.488-9.624-14.255c-3.613,0.232,0.156,5.251,5.382,15.98
			c3.746,7.692,3.817,14.78,3.557,18.177c-0.471,1.735-0.949,3.517-1.439,5.379c-0.557,2.116-1.016,4.421-1.396,6.784
			c-0.524-2.104-1.306-5.186-2.215-8.584c-1.017-3.797-1.87-7.575-2.297-11.479c-0.493-4.507-1.679-10.132-6.098-12.477
			c-1.496-0.794-2.916-0.499-3.709,1.002c-0.487,0.925-0.429,2.032-0.264,3.059c0.487,3.02,1.654,5.96,3.004,8.826
			c-0.951,1.525-1.209,3.77-1.147,5.41c0.027,0.707,0.065,1.406,0.109,2.1c-0.385-0.714-0.756-1.376-1.107-1.961
			c-0.677-1.129-1.483-2.09-2.323-2.861c0.216-1.675,0.359-3.355,0.341-5.044c-0.023-2.194-2.57-7.78-4.887-3.639
			c-0.926,1.656-0.747,4.909-0.839,7.072c-0.637,0.594-0.823,1.813-0.291,3.74c-0.366,4.996-0.427,10.115,0.778,14.97
			c-0.265-0.464-0.53-0.93-0.796-1.398c-0.329-1.604-1.746-8.953-2.004-17.538c-0.292-9.724,1.262-17.711-1.389-20.704
			c-2.651-2.994-4.128,7.551-3.015,19.044c0.618,6.384,2.548,11.698,4.141,15.164c-2.598-4.67-5.168-9.431-7.599-14.027
			c-1.039-2.456-3.484-9.081-2.873-15.802c0.77-8.475,1.331-15.407-1.885-20.177c-3.217-4.77-3.892-1.676-2.313,8.265
			c1.084,6.825,2.236,15.941,4.217,22.272c-1.889-3.63-3.654-7.079-5.236-10.205c-0.895-3.111-2.996-11.127-2.994-17.781
			c0.003-8.452-0.903-13.035-3.408-11.167c-1.736,1.294-0.614,11.728,2.188,20.511c-1.315-2.669-2.304-4.719-2.872-5.93
			c-0.258-0.549-0.555-1.137-0.881-1.751c-0.446-3.464-1.65-11.639-4.048-20.658c-3.176-11.943-8.818-20.738-8.641-14.852
			c0.163,5.418,9.417,24.458,12.304,34.798c-0.814-1.483-1.765-3.079-2.727-4.63c-0.671-1.744-1.201-3.654-1.908-5.181
			c-1.086-2.345-2.264-4.65-3.567-6.882c-2.035-3.488-4.37-6.837-7.168-9.76c-3.32-3.467-7.202-6.17-11.894-7.282
			c-1.18-0.28-8.345-1.958-7.119,1.203c0.196,0.506,0.618,0.886,1.031,1.238c3.992,3.402,8.641,5.61,12.957,8.52
			c6.459,4.355,14.306,14.462,17.55,18.847c0.419,0.779,0.941,1.752,1.541,2.875c-5.849-7.46-16.477-12.846-20.583-11.688
			c-5.08,1.433,4.767,5.236,13.071,8.828c5.372,2.324,8.277,5.179,9.66,6.906c1.318,2.497,2.791,5.314,4.263,8.183
			c0.164,0.43,0.331,0.852,0.503,1.266c-1.118-1.738-2.435-3.51-3.836-4.829c-3.953-3.723-15.848-7.465-17.779-3.565
			c-1.932,3.9,7.017,3.375,14.258,5.72c4.96,1.606,8.176,5.185,9.711,7.282c0.136,0.209,0.274,0.41,0.413,0.605
			c0.654,1.321,1.281,2.608,1.864,3.83c1.367,2.866,2.663,5.558,3.938,8.173c-1.695-3.008-4.274-6.986-7.433-9.961
			c-5.798-5.461-14.319-7.767-17.848-5.868c-3.529,1.898,10.691,6.339,17.46,9.978c5.11,2.747,8.225,7.158,9.445,9.156
			c1.824,3.69,3.651,7.298,5.623,11.09c-2.786-3.582-6.979-7.686-11.274-11.569c-6.581-5.95-14.281-6.487-16.763-3.852
			c-2.482,2.636,3.698,3.731,14.839,8.007c7.988,3.065,12.877,8.198,15.005,10.858c0.84,1.59,1.707,3.218,2.619,4.914
			c1.037,1.927,2.274,3.924,3.609,5.911c-1.819-1.181-4.493-2.9-7.478-4.762c-3.335-2.081-6.536-4.26-9.513-6.822
			c-3.436-2.958-8.141-6.26-12.972-4.958c-1.635,0.441-2.472,1.625-2.027,3.263c0.275,1.008,1.073,1.778,1.895,2.416
			c4.559,3.537,10.688,5.236,15.995,7.324c6.549,2.577,12.263,4.111,14.937,4.765c1.254,1.809,2.573,3.594,3.885,5.298
			c-0.374,0.011-1.071,0.032-2.382,0.071c-2.815,0.084-15.538-5.681-21.996-7.536c-6.459-1.855-12.501,1.655-5.732,5.294
			c6.768,3.639,25.185,2.831,25.185,2.831l5.312-0.159c1.244,1.601,2.471,3.116,3.623,4.503H101.41v6.996h4.982l4.049,24.888h33.531
			l4.049-24.888h4.982v-6.996h-16.727c-0.121-2.373-0.096-5.367,0.247-9.063c0.41-0.462,1.397-1.405,3.684-2.986
			c7.339-5.071,19.786-5.492,23.092-15.253c0.799-2.359-0.105-5.376-2.922-5.246c-2.021,0.093-4.169,1.87-5.429,3.326
			c-4.198,4.851-7.36,9.876-12.818,13.552c-0.247,0.167-3.691,2.908-5.397,4.606c0.185-1.588,0.425-3.29,0.733-5.112
			c1.322-2.332,2.834-4.591,4.508-6.671c4.465-5.546,11.262-8.799,16.097-14.086c1.48-1.619,3.431-7.441-1.089-5.994
			c-2.014,0.645-4.383,3.686-5.949,5.082c-4.447,3.964-8.974,8.261-11.902,13.522c0.123-0.52,0.247-1.042,0.372-1.564
			c0.855-1.397,4.834-7.735,10.504-14.186c6.423-7.307,13.009-12.084,13.115-16.082c0.105-3.998-8.171,2.703-15.2,11.862
			c-3.905,5.088-6.122,10.29-7.322,13.91c1.288-5.187,2.659-10.42,4.019-15.439c0.917-2.504,3.651-9.016,8.684-13.511
			c6.347-5.669,11.488-10.353,12.392-16.035C166.6,275.472,163.995,277.272,158.364,285.616z M122.846,349.935
			c-0.949-1.287-1.935-2.695-2.953-4.236c-0.626-2.607-1.062-5.29-1.258-7.953c-0.169-2.296,0.007-4.583,0.316-6.869
			c1.657,2.089,3.587,4.189,5.431,6.066c-0.059,1.947-0.266,3.915-0.734,5.942C123.581,343.176,122.935,347.529,122.846,349.935z
			 M128.288,356.522c-1.286-1.371-2.698-3.003-4.229-4.98c-0.016-0.618,0.062-1.981,0.655-4.697
			c0.508-2.324,1.508-4.655,2.619-7.001c2.365,2.248,4.11,3.742,4.11,3.742l3.991,3.509c-0.317,3.492-0.499,6.769-0.604,9.428
			H128.288z M135.494,346.464c-0.281-0.247-0.804-0.707-1.79-1.573c-1.022-0.899-2.805-4.378-4.763-8.383
			c0.825-1.721,1.614-3.452,2.223-5.198c2.112,3.93,4.026,6.98,5.106,8.63C135.952,342.119,135.697,344.323,135.494,346.464z"/>
	</g>
</g>
<g id="Characters">
	<g>
		<g>
			<ellipse style="fill:#C6FF00;" cx="163.985" cy="404.595" rx="41.977" ry="9.088"/>
			<ellipse style="opacity:0.5;fill:#FFFFFF;" cx="163.985" cy="404.595" rx="41.977" ry="9.088"/>
		</g>
		<g>
			<ellipse style="fill:#C6FF00;" cx="316.314" cy="404.595" rx="41.977" ry="9.088"/>
			<ellipse style="opacity:0.5;fill:#FFFFFF;" cx="316.314" cy="404.595" rx="41.977" ry="9.088"/>
		</g>
		<g>
			<g>
				
					<path id="XMLID_122_" style="fill:#FFFFFF;stroke:#263238;stroke-width:0.75;stroke-linecap:round;stroke-linejoin:round;stroke-miterlimit:10;" d="
					M245.852,238.634c0,0,2.98,1.834,4.241,4.126c1.261,2.292,6.533,3.783,6.533,3.783h1.949l0.802,9.17c0,0-4.929,0.229-5.96,0.573
					c-1.032,0.344-3.553,0.458-3.553,0.458s-6.19-7.794-7.221-9.284s-1.146-4.585-0.688-5.158
					C242.414,241.729,245.852,238.634,245.852,238.634z"/>
				
					<path id="XMLID_121_" style="fill:#FFFFFF;stroke:#263238;stroke-width:0.75;stroke-linecap:round;stroke-linejoin:round;stroke-miterlimit:10;" d="
					M237.6,254.223c0,0-3.439,1.146-1.949,2.063c1.49,0.917,4.012,0,4.585-0.917C240.809,254.452,238.975,253.764,237.6,254.223z"/>
				<g>
					
						<path id="XMLID_120_" style="fill:#FFFFFF;stroke:#263238;stroke-width:0.75;stroke-linecap:round;stroke-linejoin:round;stroke-miterlimit:10;" d="
						M233.817,243.677c0,0,10.201-3.668,10.66-3.324c0.458,0.344,1.261,3.439,1.261,3.439s7.106,4.241,7.68,5.846
						c0.573,1.605,0.344,6.992,0,7.565c-0.344,0.573-2.292,1.261-2.98,1.49c-0.688,0.229-1.834,0.115-2.178,0
						c-0.344-0.115-5.846-4.012-5.846-4.012s-5.617,0.573-6.877,0.573c-1.261,0-2.522-0.115-2.522-0.115L233.817,243.677z"/>
					
						<path id="XMLID_119_" style="fill:none;stroke:#263238;stroke-width:0.75;stroke-linecap:round;stroke-linejoin:round;stroke-miterlimit:10;" d="
						M246.54,248.033c0,0,3.783,2.063,4.585,3.209c0.802,1.146,1.605,6.075,1.605,6.075"/>
					
						<path id="XMLID_118_" style="fill:none;stroke:#263238;stroke-width:0.75;stroke-linecap:round;stroke-linejoin:round;stroke-miterlimit:10;" d="
						M244.936,250.096c0,0,4.47,2.407,4.929,3.553c0.458,1.146,1.032,4.47,1.032,4.47"/>
				</g>
				
					<path id="XMLID_117_" style="fill:#FFFFFF;stroke:#263238;stroke-width:0.75;stroke-linecap:round;stroke-linejoin:round;stroke-miterlimit:10;" d="
					M247.228,240.812c0,0-4.929,5.502-6.075,6.075c-1.146,0.573-1.375-0.115-1.949-0.573c-0.573-0.459,3.668-6.648,3.553-7.107
					c0,0,2.178-1.605,4.126,0.115"/>
				<g>
					
						<path id="XMLID_116_" style="fill:#FFFFFF;stroke:#263238;stroke-width:0.75;stroke-linecap:round;stroke-linejoin:round;stroke-miterlimit:10;" d="
						M240.007,252.962c0,0-0.072,0.247-0.173,0.619c-0.283,1.039-0.798,3.055-0.629,3.393c0.229,0.458,1.605,0.917,2.063,0.229
						c0.458-0.688,1.376-4.126,1.146-4.585C242.185,252.159,241.268,250.211,240.007,252.962z"/>
					
						<path id="XMLID_115_" style="fill:#FFFFFF;stroke:#263238;stroke-width:0.75;stroke-linecap:round;stroke-linejoin:round;stroke-miterlimit:10;" d="
						M244.362,252.503c-0.364,0.442-1.949,5.387-1.605,5.96c0.344,0.573,2.063,0.802,2.522,0.115
						c0.459-0.688,2.063-5.043,1.605-5.96C246.426,251.701,245.967,250.555,244.362,252.503z"/>
					
						<path id="XMLID_114_" style="fill:#FFFFFF;stroke:#263238;stroke-width:0.75;stroke-linecap:round;stroke-linejoin:round;stroke-miterlimit:10;" d="
						M247.228,253.535c0,0-0.063,0.145-0.165,0.39c-0.499,1.199-1.936,4.789-1.555,5.456c0.458,0.802,2.636,1.031,3.095-0.115
						s2.063-5.387,1.032-6.419C248.603,251.816,247.343,252.503,247.228,253.535z"/>
				</g>
			</g>
			<g>
				
					<path id="XMLID_113_" style="fill:#FFFFFF;stroke:#263238;stroke-width:0.75;stroke-linecap:round;stroke-linejoin:round;stroke-miterlimit:10;" d="
					M168.34,157.138c0,0,0.602,3.696-0.086,5.158c-0.688,1.461-1.719,4.556-1.719,4.556l15.216,13.497c0,0,4.642-5.846,5.502-6.963
					c0.86-1.118,1.977-2.665,1.977-2.665s-7.479-4.728-9.026-8.167c-1.547-3.439-0.774-7.823-4.04-8.511
					C172.896,153.356,169.285,155.075,168.34,157.138z"/>
				<g>
					
						<path id="XMLID_112_" style="fill:#263238;stroke:#263238;stroke-width:0.75;stroke-linecap:round;stroke-linejoin:round;stroke-miterlimit:10;" d="
						M197.31,134.357c0,0,6.362-0.086,5.072-6.189c-1.29-6.104-16.162-7.393-18.912-4.556c-2.751,2.837-2.321,4.04-2.321,4.04
						s-12.809-0.344-16.076,6.619c-3.267,6.963-1.805,15.99,0.344,20.718c2.149,4.728,5.76,5.244,7.651,4.642
						c1.891-0.602,3.267-1.719,3.267-3.439s1.204-5.846,2.665-4.814c1.461,1.032,3.009,1.376,5.588-1.117
						c2.579-2.493,6.275-5.588,4.9-8.081c-1.375-2.493-3.697-2.579-2.407-3.697c1.289-1.117,8.597-1.977,9.284-2.751
						S197.31,134.357,197.31,134.357z"/>
					
						<path style="fill:none;stroke:#FFFFFF;stroke-width:0.75;stroke-linecap:round;stroke-linejoin:round;stroke-miterlimit:10;" d="
						M197.022,130.704c0,0,0.901,1.802-7.66,4.055c-8.561,2.253-22.979,2.703-23.43,8.11"/>
					
						<path style="fill:none;stroke:#FFFFFF;stroke-width:0.75;stroke-linecap:round;stroke-linejoin:round;stroke-miterlimit:10;" d="
						M180.35,141.067c0,0-10.363,3.154-12.616,6.758c-2.253,3.605,0.901,6.759,0.901,6.759"/>
				</g>
				<g>
					
						<path id="XMLID_111_" style="fill:#FFFFFF;stroke:#263238;stroke-width:0.75;stroke-linecap:round;stroke-linejoin:round;stroke-miterlimit:10;" d="
						M197.31,134.357c0,0,2.407,8.167,2.407,9.8c0,1.633-1.719,3.267-0.946,5.072c0.774,1.805,3.353,5.33,3.353,6.447
						c0,1.118-3.783,2.235-3.783,2.235s-3.181,11.949-3.868,13.497c-0.688,1.547-3.009,1.719-5.76,1.032s-10.058-4.556-12.035-7.565
						s-0.516-8.081-0.516-8.081s-4.04-1.805-4.814-5.588c-0.774-3.783,2.149-6.275,4.728-5.416c2.579,0.86,3.353,2.837,3.353,2.837
						s0.258,0.946,1.032,0.688c0.774-0.258,1.461-1.805,2.149-1.891c0.688-0.086,5.588-1.805,4.986-3.697
						c-0.602-1.891-6.705-1.977-6.276-4.126C181.75,137.452,197.31,134.357,197.31,134.357z"/>
					
						<line id="XMLID_110_" style="fill:#FFFFFF;stroke:#263238;stroke-width:0.75;stroke-linecap:round;stroke-linejoin:round;stroke-miterlimit:10;" x1="189.659" y1="156.193" x2="187.166" y2="157.912"/>
					
						<path id="XMLID_109_" style="fill:#FFFFFF;stroke:#263238;stroke-width:0.75;stroke-linecap:round;stroke-linejoin:round;stroke-miterlimit:10;" d="
						M188.714,157.31c0,0,0.774,2.063,4.04,2.751"/>
					<path id="XMLID_108_" d="M188.8,157.912c0,0-1.461,4.04,0.344,4.9c1.805,0.86,2.579-2.837,2.579-2.837L188.8,157.912z"/>
					
						<path id="XMLID_107_" style="fill:#FFFFFF;stroke:#263238;stroke-width:0.75;stroke-linecap:round;stroke-linejoin:round;stroke-miterlimit:10;" d="
						M198.513,149.881c-0.105,2.086-0.633,3.755-1.178,3.728c-0.545-0.028-0.902-1.741-0.796-3.828
						c0.106-2.086,0.633-3.755,1.178-3.728C198.261,146.081,198.618,147.795,198.513,149.881z"/>
					
						<line id="XMLID_106_" style="fill:#FFFFFF;stroke:#263238;stroke-width:0.75;stroke-linecap:round;stroke-linejoin:round;stroke-miterlimit:10;" x1="196.537" y1="147.768" x2="179" y2="147.768"/>
					
						<path id="XMLID_105_" style="fill:#FFFFFF;stroke:#263238;stroke-width:0.75;stroke-linecap:round;stroke-linejoin:round;stroke-miterlimit:10;" d="
						M195.333,145.447c0,0,0.43-1.633,1.891-2.063c1.461-0.43,1.719,0.344,1.719,0.344"/>
				</g>
			</g>
			<g>
				
					<path id="XMLID_104_" style="fill:#FFFFFF;stroke:#263238;stroke-width:0.75;stroke-linecap:round;stroke-linejoin:round;stroke-miterlimit:10;" d="
					M135.701,291.131L189,289.526c0,0,3.324,36.908,2.522,37.71c-0.802,0.802-53.643,2.98-53.643,2.98s-4.093,0.297-4.666-1.537
					C132.64,326.845,135.701,291.131,135.701,291.131z"/>
				
					<path id="XMLID_103_" style="fill:#FFFFFF;stroke:#263238;stroke-width:0.75;stroke-linecap:round;stroke-linejoin:round;stroke-miterlimit:10;" d="
					M135.701,291.131c0,0-5.043,36.564-4.126,37.596c0.917,1.032,4.949,1.792,6.304,1.49
					C139.084,329.948,135.701,291.131,135.701,291.131z"/>
			</g>
			<g>
				<g>
					
						<path id="XMLID_102_" style="fill:#C6FF00;stroke:#263238;stroke-width:0.75;stroke-linecap:round;stroke-linejoin:round;stroke-miterlimit:10;" d="
						M151.404,391.31c-2.938,1.791-4.356,4.814-3.668,7.221c0.688,2.407,0.917,2.636,2.751,2.98
						c1.834,0.344,10.087-0.917,19.027-2.407c8.94-1.49,10.201-1.834,11.004-3.095c0.802-1.261,2.178-2.522-6.648-4.012
						c-8.826-1.49-9.628-3.095-9.628-3.095S156.104,388.444,151.404,391.31z"/>
					
						<path style="fill:#263238;stroke:#263238;stroke-width:0.75;stroke-linecap:round;stroke-linejoin:round;stroke-miterlimit:10;" d="
						M180.247,393.688c-0.596,1.23-2.474,3.445-8.388,4.154c-6.251,0.75-17.565,1.875-23.533,2.391
						c0.412,0.847,0.915,1.045,2.161,1.278c1.834,0.344,10.087-0.917,19.027-2.407c8.94-1.49,10.201-1.834,11.004-3.095
						C181,395.252,181.686,394.495,180.247,393.688z"/>
				</g>
				<g>
					
						<path id="XMLID_101_" style="fill:#C6FF00;stroke:#263238;stroke-width:0.75;stroke-linecap:round;stroke-linejoin:round;stroke-miterlimit:10;" d="
						M167.222,394.405c0,0,9.17,4.356,14.213,5.387c5.043,1.032,6.304,1.146,5.731,2.751c-0.573,1.605-0.688,2.063-8.367,3.897
						c-7.68,1.834-16.047-0.229-19.715-0.917c-3.668-0.688-4.814,0.344-6.419-0.344c-1.605-0.688-1.146-4.126-1.146-4.126
						L167.222,394.405z"/>
					
						<path style="fill:#263238;stroke:#263238;stroke-width:0.75;stroke-linecap:round;stroke-linejoin:round;stroke-miterlimit:10;" d="
						M178.799,406.44c6.453-1.541,7.562-2.113,8.093-3.208c-6.986,3.017-16.286,1.76-23.365,0.943
						c-4.551-0.525-8.906-0.957-12.028-1.25c0.093,0.927,0.384,1.918,1.167,2.253c1.605,0.688,2.751-0.344,6.419,0.344
						C162.752,406.211,171.119,408.274,178.799,406.44z"/>
				</g>
				<g>
					
						<path id="XMLID_100_" style="fill:#263238;stroke:#263238;stroke-width:0.75;stroke-linecap:round;stroke-linejoin:round;stroke-miterlimit:10;" d="
						M156.906,310.158c0,0-1.605,13.067-4.814,18.683c-3.209,5.617-7.565,9.514-8.253,17.652
						c-0.688,8.138,1.605,41.378,1.834,44.244c0.229,2.866-1.032,3.783,0.229,5.616c1.261,1.834,2.522,3.209,2.522,3.209
						l3.783-3.324c0,0,2.751-8.826,2.063-25.675c-0.688-16.849-0.573-28.197,2.407-39.43c2.98-11.233,3.553-14.213,2.178-18.569
						C157.479,308.209,156.906,310.158,156.906,310.158z"/>
					
						<path id="XMLID_99_" style="fill:#263238;stroke:#263238;stroke-width:0.75;stroke-linecap:round;stroke-linejoin:round;stroke-miterlimit:10;" d="
						M149.685,283.078c0,0,3.783,7.135,4.642,9.027c0.86,1.891,2.837,23.555,1.289,30.776c-1.547,7.221-7.536,19.486-6.963,30.26
						c0.573,10.774,1.032,39.315,1.032,39.659c0,0.344-0.573,2.063,0,5.158c0.573,3.095,2.293,4.012,2.293,4.012
						s3.439-1.719,9.055-3.324c5.616-1.605,7.221-3.897,7.221-3.897s-0.917-2.751-1.719-4.356c-0.802-1.605-2.178-4.126-1.949-4.929
						c0.229-0.802,1.719-27.165,4.7-35.877c2.98-8.711,4.699-17.881,7.221-25.904c2.522-8.023,8.482-29.572,8.482-35.074
						s0-6.763,0-6.763l-35.762-0.688L149.685,283.078z"/>
					<g>
						
							<path style="fill:none;stroke:#FFFFFF;stroke-width:0.75;stroke-linecap:round;stroke-linejoin:round;stroke-miterlimit:10;" d="
							M152.637,334.442c-0.999,3.067-2.104,6.503-2.944,9.233c-2,6.5,0,43,0,43s0.385,4.663,0.189,7.973
							c-0.197,3.31-0.004,4.623,0.817,5.514"/>
						
							<path style="fill:none;stroke:#FFFFFF;stroke-width:0.75;stroke-linecap:round;stroke-linejoin:round;stroke-miterlimit:10;" d="
							M155.193,326.676c0,0-0.739,2.218-1.733,5.247"/>
					</g>
				</g>
			</g>
			
				<path id="XMLID_98_" style="fill:#FFFFFF;stroke:#263238;stroke-width:0.75;stroke-linecap:round;stroke-linejoin:round;stroke-miterlimit:10;" d="
				M165.417,163.758c0,0,4.04,1.376,9.972,6.619c5.932,5.244,12.121,10.23,10.832,12.035c-1.289,1.805-3.696,7.995-3.696,7.995
				s-2.235-3.697-8.855-9.026c-6.619-5.33-11.691-10.058-11.691-10.058S164.729,164.875,165.417,163.758z"/>
			<g>
				
					<path id="XMLID_97_" style="fill:#C6FF00;stroke:#263238;stroke-width:0.75;stroke-linecap:round;stroke-linejoin:round;stroke-miterlimit:10;" d="
					M160.087,172.182c0,0-12.809,9.112-14.958,17.881c-2.149,8.769-3.095,13.067-2.923,29.83s1.203,27.337,1.203,28.111
					c0,0.774-3.439,31.893-3.439,32.237c0,0.344,6.018,5.846,22.781,6.19c16.763,0.344,33.957-2.665,33.957-2.665l-7.307-60.348
					c0,0-2.837-25.704-5.76-30.518C180.719,188.086,160.087,172.182,160.087,172.182z"/>
				
					<path id="XMLID_96_" style="fill:none;stroke:#263238;stroke-width:0.75;stroke-linecap:round;stroke-linejoin:round;stroke-miterlimit:10;" d="
					M167.48,255.827c0,0,10.66,2.149,17.967-0.516"/>
				
					<path id="XMLID_95_" style="fill:none;stroke:#263238;stroke-width:0.75;stroke-linecap:round;stroke-linejoin:round;stroke-miterlimit:10;" d="
					M167.48,258.981c0,0,10.66,2.149,17.967-0.516"/>
			</g>
			
				<polygon id="XMLID_94_" style="fill:#FFFFFF;stroke:#263238;stroke-width:0.75;stroke-linecap:round;stroke-linejoin:round;stroke-miterlimit:10;" points="
				231.983,241.958 234.62,243.219 233.015,255.14 230.379,254.681 			"/>
			
				<path id="XMLID_93_" style="fill:#C6FF00;stroke:#263238;stroke-width:0.75;stroke-linecap:round;stroke-linejoin:round;stroke-miterlimit:10;" d="
				M171.463,187.857c0,0-2.178,0.573-3.897,2.522c-1.719,1.949-11.004,13.525-10.316,18.569
				c0.688,5.043,12.723,23.497,16.735,29.229c4.012,5.731,10.201,12.15,20.288,15.818c10.087,3.668,36.335,1.834,36.335,1.834
				l1.375-14.213c0,0-14.328-4.585-24.185-7.565c-9.857-2.98-16.047-5.96-16.047-5.96s-2.292-5.616-3.897-6.533
				c-1.605-0.917-1.834-1.49-1.834-1.49s-3.095-16.849-4.699-22.351c-1.605-5.502-3.783-6.877-3.783-6.877"/>
			<g>
				<g>
					
						<path id="XMLID_92_" style="fill:#C6FF00;stroke:#263238;stroke-width:0.75;stroke-linecap:round;stroke-linejoin:round;stroke-miterlimit:10;" d="
						M305.458,388.652c0,0-6.877,4.012-12.723,6.19c-5.846,2.178-7.221,2.98-6.075,4.241c1.146,1.261,11.118,2.178,16.735,1.032
						c5.616-1.146,7.794-1.949,10.316-1.834c2.522,0.115,5.96,0.802,7.221-0.917c1.261-1.719,1.719-2.063,0.802-4.929
						C320.817,389.569,305.458,388.652,305.458,388.652z"/>
					
						<path style="fill:#263238;stroke:#263238;stroke-width:0.75;stroke-linecap:round;stroke-linejoin:round;stroke-miterlimit:10;" d="
						M303.395,400.115c5.616-1.146,7.794-1.949,10.316-1.834c2.522,0.115,5.96,0.802,7.221-0.917
						c0.902-1.231,1.39-1.761,1.261-3.011c-4.084-0.339-11.955,0.951-21.333,2.989c-6.802,1.479-11.663,1.207-14.514,0.739
						c-0.124,0.325-0.01,0.645,0.314,1.002C287.806,400.344,297.778,401.261,303.395,400.115z"/>
				</g>
				<g>
					
						<path id="XMLID_91_" style="fill:#C6FF00;stroke:#263238;stroke-width:0.75;stroke-linecap:round;stroke-linejoin:round;stroke-miterlimit:10;" d="
						M327.121,396.217c0,0-3.553,3.897-7.336,6.992c-3.783,3.095-10.316,7.336-9.628,9.17c0.688,1.834,5.387,3.553,15.245,1.032
						c9.857-2.522,17.652-8.253,17.652-8.253s1.949-0.344,2.751-1.719c0.802-1.375-0.115-3.553-0.115-3.553L327.121,396.217z"/>
					
						<path style="fill:#263238;stroke:#263238;stroke-width:0.75;stroke-linecap:round;stroke-linejoin:round;stroke-miterlimit:10;" d="
						M325.402,413.411c9.857-2.522,17.652-8.253,17.652-8.253s1.948-0.344,2.751-1.719c0.641-1.099,0.189-2.694-0.021-3.296
						c-14.265,10.787-27.602,13.003-34.668,13.318C313.014,414.739,317.578,415.412,325.402,413.411z"/>
				</g>
				<g>
					
						<path id="XMLID_90_" style="fill:#263238;stroke:#263238;stroke-width:0.75;stroke-linecap:round;stroke-linejoin:round;stroke-miterlimit:10;" d="
						M310.043,262.684c0,0-6.075,0.802-10.43-0.802s-8.482-2.866-8.482-2.866s-2.407,31.292,0.229,43.9
						c2.636,12.608,9.628,27.968,9.743,31.521c0.115,3.553,0.688,9.399,1.49,12.608c0.802,3.209,4.699,27.968,4.929,30.719
						c0.229,2.751,0,4.126,0,4.126s-2.751,0.917-2.751,1.719c0,0.802,0,5.846,0,5.846s2.866,1.605,7.107,2.866
						c4.241,1.261,10.201,2.292,10.201,2.292s1.146-5.387,1.146-6.992c0-1.605-1.032-5.846-1.032-8.138
						c0-2.292,0.573-29.801,0.573-29.801s5.616,23.497,5.616,31.292c0,7.794-0.115,10.316-0.115,10.316s-2.522-0.802-2.522,0.917
						s-0.115,5.846-0.115,5.846s8.941,2.292,13.182,3.553c4.241,1.261,7.794,0.458,7.794,0.458s2.292-8.711,2.063-11.577
						c-0.229-2.865-3.095-5.273-3.095-6.877s1.49-17.422-0.688-31.177c-2.178-13.755-7.909-20.059-8.138-26.821
						c-0.229-6.763,1.032-31.062,1.146-34.96c0.115-3.897,4.126-12.15,4.699-15.818c0.573-3.668,0.115-14.557,0.115-14.557
						S317.035,263.944,310.043,262.684z"/>
					<g>
						
							<line id="XMLID_89_" style="fill:none;stroke:#FFFFFF;stroke-width:0.75;stroke-linecap:round;stroke-linejoin:round;stroke-miterlimit:10;" x1="299.039" y1="278.387" x2="305.229" y2="282.398"/>
						
							<path id="XMLID_88_" style="fill:none;stroke:#FFFFFF;stroke-width:0.75;stroke-linecap:round;stroke-linejoin:round;stroke-miterlimit:10;" d="
							M321.376,346.165c0.867,2.225,1.39,3.517,1.39,3.517"/>
						
							<path id="XMLID_87_" style="fill:none;stroke:#FFFFFF;stroke-width:0.75;stroke-linecap:round;stroke-linejoin:round;stroke-miterlimit:10;" d="
							M303.166,281.367c0,0,4.126,24.185,9.055,39.315c2.529,7.763,5.239,15.194,7.278,20.59"/>
					</g>
				</g>
			</g>
			
				<path id="XMLID_86_" style="fill:#263238;stroke:#263238;stroke-width:0.75;stroke-linecap:round;stroke-linejoin:round;stroke-miterlimit:10;" d="
				M256.627,244.938c0.115,0.344,0.688,12.838,0.688,12.838l32.899-3.001l-0.688-16.162L256.627,244.938z"/>
			
				<path id="XMLID_85_" style="fill:#FFFFFF;stroke:#263238;stroke-width:0.75;stroke-linecap:round;stroke-linejoin:round;stroke-miterlimit:10;" d="
				M321.161,179.468c0,0-7.45,2.636-8.94,4.47c-1.49,1.834-10.316,32.896-13.181,42.066c-2.866,9.17-3.783,36.908-3.783,36.908
				s2.407,0.917,4.929,1.375s5.043,0.344,5.043,0.344s9.628-32.438,14.328-43.556c4.7-11.118,12.608-27.051,15.589-33.24
				c2.98-6.189,5.617-7.336,5.273-10.316c-0.344-2.98-1.719-4.126-3.439-4.356C335.26,172.935,321.161,179.468,321.161,179.468z"/>
			
				<path id="XMLID_84_" style="fill:#C6FF00;stroke:#263238;stroke-width:0.75;stroke-linecap:round;stroke-linejoin:round;stroke-miterlimit:10;" d="
				M322.092,178.556c0,0-7.45,2.636-8.94,4.47c-1.49,1.834-10.316,32.896-13.182,42.066c-2.865,9.17-3.783,36.908-3.783,36.908
				s2.407,0.917,4.929,1.375c2.522,0.458,5.043,0.344,5.043,0.344s9.628-32.438,14.328-43.556
				c4.699-11.118,12.608-27.051,15.589-33.24c2.98-6.19,5.616-7.336,5.273-10.316c-0.344-2.98-1.719-4.126-3.439-4.356
				C336.19,172.023,322.092,178.556,322.092,178.556z"/>
			<g>
				
					<path id="XMLID_83_" style="fill:#263238;stroke:#263238;stroke-width:0.75;stroke-linecap:round;stroke-linejoin:round;stroke-miterlimit:10;" d="
					M332.165,182.334c0,0-7.565,12.723-12.264,24.873c-4.699,12.15-8.482,23.039-13.296,39.201
					c-4.814,16.162-2.865,30.833-2.865,30.833s2.292,3.897,15.818,4.356c13.525,0.458,30.489-3.897,30.489-3.897
					s-2.292-13.755-2.522-21.893c-0.229-8.138,6.304-36.679,9.055-44.129c2.751-7.45,8.711-14.901,2.98-22.122
					c-5.731-7.221-19.371-15.359-19.371-15.359S333.655,179.812,332.165,182.334z"/>
				
					<path id="XMLID_82_" style="fill:#263238;stroke:#263238;stroke-width:0.75;stroke-linecap:round;stroke-linejoin:round;stroke-miterlimit:10;" d="
					M316.691,182.219c0,0-3.553,4.47-6.763,13.984c-3.209,9.514-9.17,34.845-11.921,45.619c-2.751,10.774-4.126,34.73-4.126,34.73
					s-1.49-0.115-4.585-0.115c-3.095,0-5.846-1.49-5.846-1.49s2.178-23.497,4.126-34.501c1.949-11.004,7.68-30.604,8.711-38.284
					c1.032-7.68,1.375-9.628,2.751-10.66c1.375-1.032,12.15-7.565,14.328-9.055C315.545,180.958,316.691,182.219,316.691,182.219z"
					/>
				<g>
					
						<path id="XMLID_81_" style="fill:none;stroke:#FFFFFF;stroke-width:0.75;stroke-linecap:round;stroke-linejoin:round;stroke-miterlimit:10;" d="
						M343.742,176.717c0,0-6.533,12.952-8.253,15.359c-1.719,2.407-2.636,4.356-2.636,4.356l-5.731,2.178l2.292,3.668
						c0,0-11.577,20.747-14.557,27.624c-2.98,6.877-5.96,14.328-5.96,14.328"/>
					
						<path id="XMLID_80_" style="fill:none;stroke:#FFFFFF;stroke-width:0.75;stroke-linecap:round;stroke-linejoin:round;stroke-miterlimit:10;" d="
						M296.654,235.066c-0.215,2.298-0.251,3.203-0.251,3.203"/>
					
						<path id="XMLID_79_" style="fill:none;stroke:#FFFFFF;stroke-width:0.75;stroke-linecap:round;stroke-linejoin:round;stroke-miterlimit:10;" d="
						M310.845,186.231l-6.419,9.857l1.49,2.292l-3.553,4.356c0,0-3.783,15.703-4.814,24.185c-0.201,1.652-0.367,3.09-0.504,4.336"/>
				</g>
			</g>
			<g>
				
					<polygon id="XMLID_78_" style="fill:#FFFFFF;stroke:#263238;stroke-width:0.75;stroke-linecap:round;stroke-linejoin:round;stroke-miterlimit:10;" points="
					312.106,181.99 310.845,188.065 317.379,183.709 				"/>
				
					<path id="XMLID_77_" style="fill:#FFFFFF;stroke:#263238;stroke-width:0.75;stroke-linecap:round;stroke-linejoin:round;stroke-miterlimit:10;" d="
					M317.608,177.176c-0.115,0.344-5.502,4.814-5.502,4.814l6.075,2.522l1.261-4.929L317.608,177.176z"/>
			</g>
			<g>
				
					<path id="XMLID_76_" style="fill:#FFFFFF;stroke:#263238;stroke-width:0.75;stroke-linecap:round;stroke-linejoin:round;stroke-miterlimit:10;" d="
					M315.43,131.442c0,0-3.783,2.063-5.846,6.763c-2.063,4.699-3.668,6.648-3.209,8.138c0.458,1.49,0.688,2.751,0.688,3.095
					c0,0.344-4.814,4.929-4.929,6.304c-0.115,1.376,3.095,3.897,3.095,3.897s0.344,7.909,0.344,8.597
					c0,0.688,0.229,4.241,3.553,5.158c3.324,0.917,6.877-0.115,6.877-0.115l2.178,11.233c0,0,15.245-9.399,16.849-10.201
					c1.605-0.802,3.553-1.834,3.668-3.095c0.115-1.261-0.917-8.253-0.917-8.253s8.138-7.45,8.023-16.162
					c-0.115-8.711-4.814-14.213-13.296-16.849C324.027,127.316,315.43,131.442,315.43,131.442z"/>
				
					<path id="XMLID_75_" style="fill:#263238;stroke:#263238;stroke-width:0.75;stroke-linecap:round;stroke-linejoin:round;stroke-miterlimit:10;" d="
					M345.805,146.801c-0.115-8.711-4.814-14.213-13.296-16.849c-8.482-2.636-17.079,1.49-17.079,1.49s-0.811,0.447-1.884,1.385
					c2.804-0.495,7.412-0.848,10.71,1.251c5.043,3.209,1.834,6.419,0.115,8.138c-1.719,1.719-2.063,2.407-0.802,4.012
					c1.261,1.605,3.668,1.605,3.095,3.095c-0.573,1.49-2.292,3.553-0.917,4.126c1.375,0.573,2.636-0.688,3.21-2.407
					c0.573-1.719,3.439-1.719,4.585,1.834c1.146,3.553-0.917,6.304-2.407,7.451c-1.49,1.146-3.209,0.917-3.209,0.917
					s3.897,1.948,6.19,2.292c1.089,0.163,2.512-0.036,3.709-0.29c-0.026-0.178-0.041-0.283-0.041-0.283
					S345.919,155.512,345.805,146.801z"/>
				<path id="XMLID_74_" d="M312.45,151.271c0,0.886-0.282,1.605-0.63,1.605c-0.348,0-0.63-0.718-0.63-1.605s0.282-1.605,0.63-1.605
					C312.168,149.667,312.45,150.385,312.45,151.271z"/>
				
					<path id="XMLID_73_" style="fill:#FFFFFF;stroke:#263238;stroke-width:0.75;stroke-linecap:round;stroke-linejoin:round;stroke-miterlimit:10;" d="
					M309.47,146.457c0,0,0.458-1.605,2.98-1.49c2.522,0.115,2.636,1.949,2.636,1.949"/>
				
					<path id="XMLID_72_" style="fill:#FFFFFF;stroke:#263238;stroke-width:0.75;stroke-linecap:round;stroke-linejoin:round;stroke-miterlimit:10;" d="
					M305.229,159.639c0,0,2.407,0.917,4.241-0.573c1.834-1.49,0.344-2.751,0.344-2.751"/>
				
					<path id="XMLID_71_" style="fill:#263238;stroke:#263238;stroke-width:0.75;stroke-linecap:round;stroke-linejoin:round;stroke-miterlimit:10;" d="
					M305.687,161.473c0,0,6.075-2.98,8.826-3.095c2.751-0.115,5.616,4.585,4.47,8.597c-1.146,4.012-2.407,5.96-6.304,7.565
					c-3.897,1.605-7.565,1.261-8.253-1.375c-0.688-2.636,2.407-6.419,3.897-7.107c1.49-0.688,2.636-0.802,2.407,0.458
					c-0.229,1.261-0.917,2.178,1.949,1.605c2.866-0.573,4.47-1.375,4.585-4.47s-1.032-4.241-4.012-3.783
					c-2.98,0.458-7.45,2.865-7.45,2.865L305.687,161.473z"/>
				
					<path id="XMLID_70_" style="fill:#FFFFFF;stroke:#263238;stroke-width:0.75;stroke-linecap:round;stroke-linejoin:round;stroke-miterlimit:10;" d="
					M308.094,163.88c0,0,4.814-0.229,6.533-2.178"/>
				
					<path id="XMLID_69_" style="fill:#FFFFFF;stroke:#263238;stroke-width:0.75;stroke-linecap:round;stroke-linejoin:round;stroke-miterlimit:10;" d="
					M327.465,161.129c0,0,0.229,2.751-2.292,4.929"/>
			</g>
			
				<path id="XMLID_68_" style="fill:#FFFFFF;stroke:#263238;stroke-width:0.75;stroke-linecap:round;stroke-linejoin:round;stroke-miterlimit:10;" d="
				M318.181,184.512l3.324,7.68c0,0,12.608-9.399,15.703-13.067c3.095-3.668,5.502-5.502,3.783-8.023s-4.241-0.458-4.699-0.229
				C335.833,171.101,318.181,184.512,318.181,184.512z"/>
			
				<path id="XMLID_67_" style="fill:#FFFFFF;stroke:#263238;stroke-width:0.75;stroke-linecap:round;stroke-linejoin:round;stroke-miterlimit:10;" d="
				M292.964,252.253c0,0-2.462-7.928-3.439-14.156c-0.688-4.384-1.032-8.854-1.032-8.854s-8.367-0.602-15.932-4.27
				c-7.565-3.668-9.17-5.043-9.17-5.043s10.201,33.24,12.264,40.232c2.063,6.992,2.522,8.482,2.522,8.482s5.158,2.636,10.316,3.553
				c5.158,0.917,8.597,0.917,8.597,0.917L292.964,252.253z"/>
			
				<path id="XMLID_66_" style="fill:#FFFFFF;stroke:#263238;stroke-width:0.75;stroke-linecap:round;stroke-linejoin:round;stroke-miterlimit:10;" d="
				M304.426,252.253c-0.344,0-5.158-1.146-6.992-2.293c-1.834-1.146-4.929-1.949-5.387-1.949s-0.458,0-0.458,0l1.375,4.241
				c0,0-2.407,0.573-5.158,0.573c-2.751,0-8.482-0.917-8.711-0.573c-0.229,0.344-0.229,1.719-0.229,2.522
				c0,0.802,4.126,5.731,6.533,7.45c2.407,1.719,4.585,2.866,6.763,2.866s13.869-1.605,13.869-1.605L304.426,252.253z"/>
			<g>
				
					<path id="XMLID_65_" style="fill:#263238;stroke:#263238;stroke-width:0.75;stroke-linecap:round;stroke-linejoin:round;stroke-miterlimit:10;" d="
					M337.781,207.551c0,0,0.573,12.838,0.917,22.122c0.344,9.284,0.917,10.087,0.917,10.087s-25.675,9.628-29.572,10.431
					c-3.897,0.802-6.877,1.719-6.877,1.719l1.719,12.494c0,0,12.494,1.375,24.987-2.292c12.494-3.668,31.75-7.336,32.094-9.055
					c0.344-1.719,0-6.877,0-8.023s-0.344-25.79-0.344-36.794c0-11.004,0.802-13.525-0.573-15.818
					c-1.375-2.292-8.367-3.439-12.379-1.146"/>
				
					<polyline style="fill:none;stroke:#FFFFFF;stroke-width:0.75;stroke-linecap:round;stroke-linejoin:round;stroke-miterlimit:10;" points="
					318.386,247.133 339.615,239.759 337.736,211.47 				"/>
				
					<path style="fill:none;stroke:#FFFFFF;stroke-width:0.75;stroke-linecap:round;stroke-linejoin:round;stroke-miterlimit:10;" d="
					M318.386,247.133"/>
				
					<path style="fill:none;stroke:#FFFFFF;stroke-width:0.75;stroke-linecap:round;stroke-linejoin:round;stroke-miterlimit:10;" d="
					M315.499,248.136"/>
				
					<line style="fill:none;stroke:#FFFFFF;stroke-width:0.75;stroke-linecap:round;stroke-linejoin:round;stroke-miterlimit:10;" x1="312.427" y1="249.202" x2="315.499" y2="248.136"/>
				
					<path style="fill:none;stroke:#FFFFFF;stroke-width:0.75;stroke-linecap:round;stroke-linejoin:round;stroke-miterlimit:10;" d="
					M345.098,197.205c0,0,7.975-10.03,15.951-4.785"/>
			</g>
			
				<path id="XMLID_64_" style="fill:none;stroke:#263238;stroke-width:0.75;stroke-linecap:round;stroke-linejoin:round;stroke-miterlimit:10;" d="
				M279.324,253.399c0,0,5.273,3.553,8.826,4.126"/>
			
				<path id="XMLID_63_" style="fill:none;stroke:#263238;stroke-width:0.75;stroke-linecap:round;stroke-linejoin:round;stroke-miterlimit:10;" d="
				M280.241,256.838c0,0,2.866,2.522,5.272,3.209c2.407,0.688,2.407,0.688,2.407,0.688"/>
			
				<path id="XMLID_62_" style="fill:none;stroke:#263238;stroke-width:0.75;stroke-linecap:round;stroke-linejoin:round;stroke-miterlimit:10;" d="
				M285.972,262.569c0,0,2.522,0.917,4.241,0.917"/>
			
				<path style="fill:#C6FF00;stroke:#263238;stroke-width:0.75;stroke-linecap:round;stroke-linejoin:round;stroke-miterlimit:10;" d="
				M188.664,219.647c0,0-1.588-16.148-3.441-27.532c-1.024-6.287-4.811-11.649-8.789-16.445c-3.292-3.969-8.262-7.657-11.016-11.913
				c-0.945-1.461-5.929,9.106-5.932,9.114c-1.047,2.247,10.844,9.376,12.441,10.974c2.109,2.109,3.96,4.589,5.918,6.84
				c0.863,0.993,3.159,4.809,4.466,5.136c0.001,0,2.118,0.529,2.118,0.529l-1.588,4.765L188.664,219.647z"/>
		</g>
	</g>
</g>
</svg>
