<?xml version="1.0" encoding="utf-8"?>
<!-- Generator: Adobe Illustrator 27.5.0, SVG Export Plug-In . SVG Version: 6.00 Build 0)  -->
<svg version="1.1" id="Ñëîé_1" xmlns="http://www.w3.org/2000/svg" xmlns:xlink="http://www.w3.org/1999/xlink" x="0px" y="0px"
	 viewBox="0 0 2328.899 2200" style="enable-background:new 0 0 2328.899 2200;" xml:space="preserve">
<rect x="0" y="0" style="fill:#FFFFFF;" width="2328.899" height="2200"/>
<g>
	<path style="fill:#322A28;" d="M521.987,302.414c-2.123-2.58-4.727-4.564-7.816-5.947c-3.091-1.384-6.663-2.077-10.72-2.077
		c-4.059,0-7.816,0.785-11.274,2.353c-3.458,1.57-6.457,3.758-8.992,6.572c-2.538,2.813-4.52,6.155-5.949,10.029
		c-1.431,3.872-2.144,8.07-2.144,12.588c0,4.613,0.714,8.832,2.144,12.657c1.429,3.828,3.389,7.148,5.879,9.959
		c2.489,2.813,5.417,5.004,8.784,6.57c3.365,1.57,6.985,2.353,10.859,2.353c4.426,0,8.345-0.92,11.758-2.767
		c3.411-1.843,6.224-4.425,8.438-7.746l17.983,13.419c-4.15,5.81-9.406,10.096-15.769,12.863c-6.363,2.767-12.913,4.15-19.643,4.15
		c-7.655,0-14.711-1.199-21.165-3.596c-6.456-2.397-12.034-5.831-16.737-10.305c-4.704-4.474-8.37-9.892-10.998-16.255
		c-2.628-6.363-3.942-13.463-3.942-21.302c0-7.838,1.314-14.94,3.942-21.303c2.628-6.363,6.294-11.78,10.998-16.253
		c4.703-4.472,10.281-7.906,16.737-10.307c6.454-2.397,13.509-3.596,21.165-3.596c2.767,0,5.648,0.255,8.645,0.762
		c2.995,0.507,5.949,1.313,8.854,2.42c2.905,1.107,5.693,2.584,8.369,4.427c2.673,1.845,5.07,4.103,7.193,6.778L521.987,302.414z"/>
	<path style="fill:#322A28;" d="M547.578,341.286c0-5.347,0.968-10.189,2.905-14.526c1.936-4.333,4.586-8.045,7.954-11.136
		c3.365-3.089,7.331-5.463,11.896-7.123c4.565-1.66,9.428-2.491,14.594-2.491c5.164,0,10.029,0.831,14.594,2.491
		c4.565,1.66,8.529,4.034,11.896,7.123c3.365,3.091,6.017,6.803,7.954,11.136c1.936,4.337,2.905,9.179,2.905,14.526
		c0,5.349-0.969,10.191-2.905,14.524c-1.937,4.337-4.589,8.047-7.954,11.136c-3.368,3.091-7.331,5.465-11.896,7.125
		c-4.565,1.658-9.43,2.489-14.594,2.489c-5.166,0-10.029-0.831-14.594-2.489c-4.564-1.66-8.531-4.034-11.896-7.125
		c-3.368-3.089-6.018-6.799-7.954-11.136C548.546,351.477,547.578,346.635,547.578,341.286z M568.327,341.286
		c0,5.071,1.453,9.177,4.358,12.31c2.905,3.137,6.985,4.703,12.242,4.703c5.256,0,9.338-1.566,12.243-4.703
		c2.905-3.133,4.357-7.239,4.357-12.31c0-5.071-1.452-9.177-4.357-12.312c-2.905-3.133-6.986-4.703-12.243-4.703
		c-5.257,0-9.337,1.57-12.242,4.703C569.78,332.11,568.327,336.215,568.327,341.286z"/>
	<path style="fill:#322A28;" d="M634.446,307.671h19.92v9.13h0.277c0.644-1.29,1.567-2.58,2.766-3.874
		c1.197-1.29,2.628-2.441,4.288-3.457c1.66-1.014,3.549-1.843,5.672-2.489c2.12-0.644,4.426-0.97,6.916-0.97
		c5.256,0,9.498,0.81,12.727,2.422c3.227,1.614,5.741,3.851,7.539,6.708c1.798,2.86,3.019,6.224,3.666,10.098
		c0.644,3.874,0.968,8.072,0.968,12.588V374.9h-20.749v-32.923c0-1.936-0.07-3.941-0.208-6.016
		c-0.138-2.075-0.553-3.988-1.245-5.741c-0.691-1.751-1.753-3.182-3.182-4.289c-1.431-1.107-3.482-1.66-6.156-1.66
		c-2.675,0-4.841,0.484-6.501,1.452c-1.66,0.968-2.929,2.262-3.803,3.874c-0.878,1.614-1.453,3.436-1.73,5.463
		c-0.277,2.03-0.415,4.151-0.415,6.363V374.9h-20.75V307.671z"/>
	<path style="fill:#322A28;" d="M759.634,324.271h-18.26v22.408c0,1.847,0.091,3.529,0.277,5.05
		c0.183,1.521,0.599,2.837,1.245,3.941c0.644,1.107,1.636,1.961,2.974,2.561c1.335,0.6,3.112,0.899,5.326,0.899
		c1.107,0,2.559-0.116,4.357-0.345c1.798-0.229,3.159-0.762,4.081-1.591v17.291c-2.306,0.829-4.703,1.383-7.193,1.66
		c-2.49,0.276-4.934,0.415-7.331,0.415c-3.506,0-6.732-0.37-9.684-1.107c-2.952-0.737-5.533-1.913-7.746-3.527
		c-2.214-1.614-3.942-3.712-5.188-6.294c-1.245-2.582-1.867-5.717-1.867-9.408v-31.953h-13.28v-16.6h13.28v-19.919h20.749v19.919
		h18.26V324.271z"/>
	<path style="fill:#322A28;" d="M833.778,363.28c-3.32,4.242-7.517,7.518-12.588,9.821c-5.073,2.304-10.33,3.459-15.769,3.459
		c-5.166,0-10.029-0.831-14.594-2.489c-4.565-1.66-8.532-4.034-11.896-7.125c-3.368-3.089-6.017-6.799-7.954-11.136
		c-1.937-4.333-2.905-9.175-2.905-14.524c0-5.347,0.968-10.189,2.905-14.526c1.937-4.333,4.586-8.045,7.954-11.136
		c3.365-3.089,7.331-5.463,11.896-7.123c4.565-1.66,9.428-2.491,14.594-2.491c4.794,0,9.151,0.831,13.072,2.491
		c3.919,1.66,7.239,4.034,9.959,7.123c2.72,3.091,4.818,6.803,6.295,11.136c1.473,4.337,2.213,9.179,2.213,14.526v6.5H788.82
		c0.83,3.966,2.629,7.125,5.395,9.475c2.767,2.353,6.177,3.529,10.236,3.529c3.411,0,6.294-0.762,8.646-2.283
		c2.352-1.521,4.402-3.48,6.155-5.879L833.778,363.28z M816.21,333.677c0.091-3.504-1.062-6.502-3.458-8.991
		c-2.4-2.489-5.488-3.735-9.268-3.735c-2.306,0-4.336,0.37-6.086,1.107c-1.753,0.738-3.251,1.683-4.496,2.836
		s-2.214,2.489-2.905,4.011s-1.085,3.112-1.176,4.772H816.21z"/>
	<path style="fill:#322A28;" d="M849.546,307.671h19.92v9.13h0.277c0.644-1.29,1.567-2.58,2.766-3.874
		c1.198-1.29,2.628-2.441,4.289-3.457c1.66-1.014,3.549-1.843,5.672-2.489c2.12-0.644,4.426-0.97,6.916-0.97
		c5.256,0,9.498,0.81,12.727,2.422c3.227,1.614,5.74,3.851,7.539,6.708c1.798,2.86,3.019,6.224,3.666,10.098
		c0.644,3.874,0.968,8.072,0.968,12.588V374.9h-20.749v-32.923c0-1.936-0.069-3.941-0.208-6.016
		c-0.138-2.075-0.553-3.988-1.245-5.741c-0.691-1.751-1.753-3.182-3.182-4.289c-1.431-1.107-3.482-1.66-6.156-1.66
		c-2.675,0-4.841,0.484-6.501,1.452c-1.66,0.968-2.929,2.262-3.804,3.874c-0.878,1.614-1.453,3.436-1.73,5.463
		c-0.277,2.03-0.414,4.151-0.414,6.363V374.9h-20.75V307.671z"/>
	<path style="fill:#322A28;" d="M974.734,324.271h-18.26v22.408c0,1.847,0.091,3.529,0.277,5.05
		c0.183,1.521,0.599,2.837,1.245,3.941c0.644,1.107,1.636,1.961,2.974,2.561c1.335,0.6,3.112,0.899,5.326,0.899
		c1.107,0,2.559-0.116,4.357-0.345c1.798-0.229,3.159-0.762,4.081-1.591v17.291c-2.306,0.829-4.703,1.383-7.193,1.66
		c-2.49,0.276-4.935,0.415-7.331,0.415c-3.506,0-6.732-0.37-9.684-1.107c-2.952-0.737-5.533-1.913-7.746-3.527
		c-2.214-1.614-3.942-3.712-5.188-6.294c-1.245-2.582-1.867-5.717-1.867-9.408v-31.953h-13.28v-16.6h13.28v-19.919h20.749v19.919
		h18.26V324.271z"/>
	<path style="fill:#322A28;" d="M1028.819,276.961h32.647l22.547,63.909h0.277l22.686-63.909h32.508V374.9h-21.579v-75.114h-0.277
		l-25.73,75.114h-16.461l-24.762-75.114h-0.276V374.9h-21.58V276.961z"/>
	<path style="fill:#322A28;" d="M1198.963,366.462h-0.277c-2.306,3.596-5.373,6.18-9.199,7.746
		c-3.828,1.568-7.862,2.352-12.104,2.352c-3.136,0-6.156-0.44-9.061-1.315c-2.905-0.875-5.464-2.189-7.676-3.941
		c-2.214-1.751-3.967-3.918-5.257-6.502c-1.292-2.58-1.936-5.578-1.936-8.992c0-3.874,0.713-7.146,2.144-9.821
		c1.429-2.674,3.365-4.888,5.81-6.641c2.442-1.751,5.232-3.112,8.369-4.08c3.134-0.968,6.385-1.681,9.752-2.144
		c3.366-0.461,6.731-0.737,10.098-0.829c3.365-0.091,6.478-0.139,9.337-0.139c0-3.687-1.314-6.616-3.942-8.783
		c-2.628-2.167-5.74-3.251-9.337-3.251c-3.413,0-6.525,0.715-9.338,2.144c-2.814,1.431-5.326,3.388-7.539,5.879l-11.066-11.344
		c3.873-3.596,8.39-6.294,13.556-8.093c5.164-1.797,10.513-2.698,16.046-2.698c6.087,0,11.089,0.762,15.01,2.283
		c3.918,1.521,7.055,3.758,9.406,6.708c2.351,2.954,3.988,6.572,4.91,10.86c0.921,4.289,1.384,9.246,1.384,14.871V374.9h-19.09
		V366.462z M1193.845,345.436c-1.57,0-3.528,0.069-5.879,0.206c-2.351,0.139-4.612,0.532-6.778,1.176
		c-2.168,0.646-4.012,1.614-5.533,2.906c-1.522,1.292-2.283,3.091-2.283,5.393c0,2.491,1.06,4.337,3.182,5.534
		c2.121,1.199,4.334,1.799,6.64,1.799c2.027,0,3.988-0.278,5.879-0.831c1.889-0.553,3.573-1.336,5.049-2.351
		c1.474-1.014,2.65-2.304,3.527-3.874c0.875-1.568,1.314-3.411,1.314-5.534v-4.425H1193.845z"/>
	<path style="fill:#322A28;" d="M1231.054,307.671h19.92v9.13h0.277c0.644-1.29,1.567-2.58,2.766-3.874
		c1.197-1.29,2.628-2.441,4.288-3.457c1.66-1.014,3.549-1.843,5.672-2.489c2.12-0.644,4.426-0.97,6.916-0.97
		c5.256,0,9.498,0.81,12.726,2.422c3.227,1.614,5.741,3.851,7.54,6.708c1.798,2.86,3.019,6.224,3.666,10.098
		c0.644,3.874,0.968,8.072,0.968,12.588V374.9h-20.749v-32.923c0-1.936-0.07-3.941-0.208-6.016
		c-0.138-2.075-0.553-3.988-1.245-5.741c-0.691-1.751-1.753-3.182-3.182-4.289c-1.431-1.107-3.481-1.66-6.156-1.66
		c-2.676,0-4.841,0.484-6.501,1.452c-1.66,0.968-2.929,2.262-3.803,3.874c-0.878,1.614-1.453,3.436-1.73,5.463
		c-0.277,2.03-0.415,4.151-0.415,6.363V374.9h-20.75V307.671z"/>
	<path style="fill:#322A28;" d="M1352.644,366.462h-0.277c-2.306,3.596-5.373,6.18-9.199,7.746
		c-3.828,1.568-7.863,2.352-12.104,2.352c-3.136,0-6.156-0.44-9.061-1.315c-2.905-0.875-5.464-2.189-7.677-3.941
		c-2.214-1.751-3.966-3.918-5.257-6.502c-1.292-2.58-1.936-5.578-1.936-8.992c0-3.874,0.714-7.146,2.144-9.821
		c1.429-2.674,3.365-4.888,5.81-6.641c2.442-1.751,5.232-3.112,8.369-4.08c3.134-0.968,6.385-1.681,9.752-2.144
		c3.366-0.461,6.731-0.737,10.098-0.829c3.365-0.091,6.478-0.139,9.337-0.139c0-3.687-1.314-6.616-3.942-8.783
		c-2.628-2.167-5.741-3.251-9.337-3.251c-3.413,0-6.525,0.715-9.338,2.144c-2.814,1.431-5.326,3.388-7.539,5.879l-11.066-11.344
		c3.873-3.596,8.39-6.294,13.556-8.093c5.164-1.797,10.513-2.698,16.046-2.698c6.087,0,11.089,0.762,15.01,2.283
		c3.918,1.521,7.055,3.758,9.406,6.708c2.351,2.954,3.988,6.572,4.91,10.86c0.921,4.289,1.384,9.246,1.384,14.871V374.9h-19.09
		V366.462z M1347.527,345.436c-1.57,0-3.528,0.069-5.879,0.206c-2.351,0.139-4.612,0.532-6.778,1.176
		c-2.168,0.646-4.012,1.614-5.533,2.906c-1.522,1.292-2.283,3.091-2.283,5.393c0,2.491,1.06,4.337,3.182,5.534
		c2.121,1.199,4.334,1.799,6.64,1.799c2.027,0,3.988-0.278,5.879-0.831c1.889-0.553,3.573-1.336,5.049-2.351
		c1.474-1.014,2.649-2.304,3.527-3.874c0.875-1.568,1.314-3.411,1.314-5.534v-4.425H1347.527z"/>
	<path style="fill:#322A28;" d="M1455.283,369.229c0,12.727-3.206,22.385-9.614,28.98c-6.411,6.593-16.163,9.89-29.257,9.89
		c-5.996,0-11.896-0.669-17.706-2.005c-5.81-1.338-11.159-3.943-16.046-7.815l11.482-17.154c3.227,2.674,6.616,4.794,10.167,6.363
		c3.549,1.568,7.446,2.352,11.689,2.352c6.363,0,11.042-1.546,14.041-4.636c2.996-3.089,4.496-7.032,4.496-11.826v-6.502h-0.277
		c-2.4,3.23-5.373,5.513-8.923,6.847c-3.551,1.336-6.895,2.005-10.029,2.005c-4.98,0-9.499-0.85-13.556-2.559
		c-4.059-1.705-7.54-4.101-10.444-7.192c-2.905-3.089-5.142-6.755-6.708-10.997c-1.57-4.24-2.352-8.899-2.352-13.972
		c0-4.425,0.712-8.76,2.144-13.002c1.428-4.24,3.457-7.975,6.086-11.205c2.629-3.226,5.832-5.831,9.614-7.815
		c3.78-1.982,8.069-2.975,12.865-2.975c2.95,0,5.648,0.326,8.093,0.97c2.442,0.646,4.634,1.475,6.571,2.489
		c1.936,1.016,3.596,2.144,4.98,3.388c1.384,1.246,2.49,2.47,3.32,3.668h0.277v-8.855h19.09V369.229z M1402.994,340.87
		c0,2.214,0.415,4.314,1.245,6.296c0.83,1.984,2.006,3.733,3.528,5.257c1.521,1.521,3.272,2.744,5.256,3.666
		c1.982,0.922,4.172,1.383,6.57,1.383c2.304,0,4.473-0.461,6.502-1.383c2.027-0.922,3.804-2.144,5.325-3.666
		c1.522-1.523,2.698-3.272,3.528-5.257c0.83-1.982,1.245-4.082,1.245-6.296c0-2.212-0.415-4.31-1.245-6.294
		c-0.83-1.982-2.005-3.735-3.528-5.257c-1.521-1.521-3.298-2.742-5.325-3.666c-2.029-0.92-4.198-1.383-6.502-1.383
		c-2.399,0-4.588,0.463-6.57,1.383c-1.984,0.924-3.735,2.144-5.256,3.666c-1.521,1.521-2.698,3.274-3.528,5.257
		C1403.409,336.56,1402.994,338.658,1402.994,340.87z"/>
	<path style="fill:#322A28;" d="M1535.514,363.28c-3.32,4.242-7.517,7.518-12.588,9.821c-5.073,2.304-10.33,3.459-15.769,3.459
		c-5.166,0-10.029-0.831-14.594-2.489c-4.565-1.66-8.532-4.034-11.896-7.125c-3.368-3.089-6.017-6.799-7.954-11.136
		c-1.937-4.333-2.905-9.175-2.905-14.524c0-5.347,0.968-10.189,2.905-14.526c1.937-4.333,4.586-8.045,7.954-11.136
		c3.365-3.089,7.331-5.463,11.896-7.123c4.565-1.66,9.428-2.491,14.594-2.491c4.794,0,9.151,0.831,13.072,2.491
		c3.919,1.66,7.239,4.034,9.959,7.123c2.72,3.091,4.818,6.803,6.295,11.136c1.473,4.337,2.213,9.179,2.213,14.526v6.5h-48.139
		c0.83,3.966,2.629,7.125,5.395,9.475c2.767,2.353,6.177,3.529,10.236,3.529c3.411,0,6.294-0.762,8.646-2.283
		c2.352-1.521,4.402-3.48,6.155-5.879L1535.514,363.28z M1517.946,333.677c0.091-3.504-1.062-6.502-3.458-8.991
		c-2.4-2.489-5.488-3.735-9.268-3.735c-2.306,0-4.336,0.37-6.087,1.107c-1.753,0.738-3.251,1.683-4.496,2.836
		c-1.245,1.153-2.214,2.489-2.905,4.011s-1.085,3.112-1.176,4.772H1517.946z"/>
	<path style="fill:#322A28;" d="M1551.281,307.671h19.92v9.13h0.277c0.644-1.29,1.567-2.58,2.766-3.874
		c1.198-1.29,2.628-2.441,4.289-3.457c1.66-1.014,3.549-1.843,5.672-2.489c2.12-0.644,4.426-0.97,6.916-0.97
		c4.704,0,8.875,0.97,12.519,2.906c3.641,1.936,6.385,4.981,8.231,9.13c2.397-4.335,5.302-7.424,8.715-9.269
		c3.41-1.843,7.608-2.767,12.588-2.767c4.517,0,8.321,0.762,11.412,2.283c3.088,1.521,5.533,3.596,7.331,6.224
		c1.798,2.628,3.089,5.719,3.873,9.269c0.783,3.55,1.176,7.354,1.176,11.411V374.9h-20.749v-39.148c0-3.133-0.67-5.831-2.006-8.093
		c-1.338-2.258-3.713-3.388-7.124-3.388c-2.399,0-4.405,0.393-6.017,1.176c-1.615,0.785-2.905,1.866-3.873,3.251
		c-0.969,1.383-1.66,2.996-2.076,4.84c-0.415,1.847-0.622,3.783-0.622,5.81V374.9h-20.75v-35.552c0-1.197-0.047-2.673-0.138-4.425
		c-0.093-1.751-0.416-3.411-0.968-4.981c-0.553-1.568-1.453-2.904-2.698-4.011c-1.246-1.107-3.067-1.66-5.465-1.66
		c-2.675,0-4.841,0.484-6.501,1.452c-1.66,0.968-2.929,2.262-3.803,3.874c-0.878,1.614-1.453,3.436-1.73,5.463
		c-0.277,2.03-0.415,4.151-0.415,6.363V374.9h-20.75V307.671z"/>
	<path style="fill:#322A28;" d="M1735.26,363.28c-3.32,4.242-7.517,7.518-12.588,9.821c-5.073,2.304-10.33,3.459-15.769,3.459
		c-5.166,0-10.029-0.831-14.594-2.489c-4.565-1.66-8.532-4.034-11.896-7.125c-3.368-3.089-6.017-6.799-7.954-11.136
		c-1.937-4.333-2.905-9.175-2.905-14.524c0-5.347,0.968-10.189,2.905-14.526c1.937-4.333,4.586-8.045,7.954-11.136
		c3.365-3.089,7.331-5.463,11.896-7.123c4.565-1.66,9.428-2.491,14.594-2.491c4.794,0,9.151,0.831,13.072,2.491
		c3.919,1.66,7.239,4.034,9.96,7.123c2.72,3.091,4.818,6.803,6.295,11.136c1.473,4.337,2.213,9.179,2.213,14.526v6.5h-48.139
		c0.83,3.966,2.629,7.125,5.395,9.475c2.767,2.353,6.177,3.529,10.236,3.529c3.411,0,6.294-0.762,8.646-2.283
		c2.352-1.521,4.402-3.48,6.155-5.879L1735.26,363.28z M1717.692,333.677c0.091-3.504-1.061-6.502-3.458-8.991
		c-2.4-2.489-5.488-3.735-9.268-3.735c-2.306,0-4.336,0.37-6.087,1.107c-1.753,0.738-3.251,1.683-4.496,2.836
		c-1.245,1.153-2.214,2.489-2.905,4.011c-0.691,1.521-1.085,3.112-1.176,4.772H1717.692z"/>
	<path style="fill:#322A28;" d="M1751.028,307.671h19.92v9.13h0.277c0.644-1.29,1.567-2.58,2.766-3.874
		c1.197-1.29,2.628-2.441,4.288-3.457c1.66-1.014,3.549-1.843,5.672-2.489c2.12-0.644,4.426-0.97,6.916-0.97
		c5.257,0,9.498,0.81,12.727,2.422c3.227,1.614,5.74,3.851,7.539,6.708c1.798,2.86,3.019,6.224,3.666,10.098
		c0.644,3.874,0.968,8.072,0.968,12.588V374.9h-20.749v-32.923c0-1.936-0.069-3.941-0.208-6.016
		c-0.138-2.075-0.553-3.988-1.245-5.741c-0.691-1.751-1.753-3.182-3.182-4.289c-1.431-1.107-3.481-1.66-6.156-1.66
		c-2.676,0-4.841,0.484-6.501,1.452c-1.66,0.968-2.929,2.262-3.803,3.874c-0.878,1.614-1.453,3.436-1.73,5.463
		c-0.277,2.03-0.415,4.151-0.415,6.363V374.9h-20.75V307.671z"/>
	<path style="fill:#322A28;" d="M1876.216,324.271h-18.26v22.408c0,1.847,0.091,3.529,0.277,5.05
		c0.183,1.521,0.599,2.837,1.245,3.941c0.644,1.107,1.636,1.961,2.974,2.561c1.335,0.6,3.112,0.899,5.326,0.899
		c1.107,0,2.559-0.116,4.357-0.345c1.798-0.229,3.159-0.762,4.081-1.591v17.291c-2.306,0.829-4.703,1.383-7.193,1.66
		c-2.49,0.276-4.934,0.415-7.331,0.415c-3.506,0-6.733-0.37-9.684-1.107c-2.952-0.737-5.533-1.913-7.746-3.527
		c-2.214-1.614-3.942-3.712-5.188-6.294c-1.245-2.582-1.867-5.717-1.867-9.408v-31.953h-13.28v-16.6h13.28v-19.919h20.749v19.919
		h18.26V324.271z"/>
</g>
<g>
	<path style="fill:#E5F0F8;" d="M386.244,1991.465c0,0-592.709-1566.537,494.977-1460.499
		c465.863,45.417,378.895,320.95,584.646,578.753c133.365,167.106,389.867,30.403,485.989,176.425s-16.837,562.385-56.461,705.321
		H386.244z"/>
	<g>
		<path style="fill:#40A87B;" d="M391.142,1984.716c0,0-33.457-133.456-116.855-174.643s-172.41,15.201-149.808,74.495
			c19.49,51.128,99.632-11.739,161.986,12.984s72.184,87.165,72.184,87.165H391.142z"/>
		<path style="fill:none;stroke:#6ADB6A;stroke-width:3.758;stroke-miterlimit:10;" d="M140.6,1849.01
			c0,0,89.508-51.01,155.917-3.85c66.409,47.16,87.426,139.556,87.426,139.556"/>
		
			<line style="fill:none;stroke:#6ADB6A;stroke-width:3.758;stroke-miterlimit:10;" x1="155.037" y1="1825.154" x2="175.862" y2="1834.232"/>
		
			<line style="fill:none;stroke:#6ADB6A;stroke-width:3.758;stroke-miterlimit:10;" x1="185.114" y1="1805.7" x2="226.593" y2="1825.154"/>
		
			<line style="fill:none;stroke:#6ADB6A;stroke-width:3.758;stroke-miterlimit:10;" x1="247.433" y1="1805.7" x2="269.012" y2="1831.191"/>
		
			<line style="fill:none;stroke:#6ADB6A;stroke-width:3.758;stroke-miterlimit:10;" x1="288.337" y1="1822.783" x2="298.037" y2="1846.259"/>
		
			<line style="fill:none;stroke:#6ADB6A;stroke-width:3.758;stroke-miterlimit:10;" x1="165.45" y1="1881.493" x2="197.419" y2="1828.604"/>
		
			<line style="fill:none;stroke:#6ADB6A;stroke-width:3.758;stroke-miterlimit:10;" x1="221.928" y1="1873.913" x2="251.248" y2="1826.824"/>
		
			<line style="fill:none;stroke:#6ADB6A;stroke-width:3.758;stroke-miterlimit:10;" x1="271.734" y1="1866.695" x2="315.815" y2="1861.217"/>
		
			<line style="fill:none;stroke:#6ADB6A;stroke-width:3.758;stroke-miterlimit:10;" x1="323.052" y1="1893.403" x2="348.319" y2="1901.699"/>
	</g>
	<g>
		<path style="fill:#40A87B;" d="M1937.757,1984.716c0,0,33.457-133.456,116.855-174.643s172.41,15.201,149.808,74.495
			c-19.49,51.128-99.631-11.739-161.986,12.984c-62.355,24.722-72.184,87.165-72.184,87.165H1937.757z"/>
		<path style="fill:none;stroke:#6ADB6A;stroke-width:3.758;stroke-miterlimit:10;" d="M2188.299,1849.01
			c0,0-89.508-51.01-155.917-3.85c-66.409,47.16-87.426,139.556-87.426,139.556"/>
		
			<line style="fill:none;stroke:#6ADB6A;stroke-width:3.758;stroke-miterlimit:10;" x1="2173.862" y1="1825.154" x2="2153.037" y2="1834.232"/>
		
			<line style="fill:none;stroke:#6ADB6A;stroke-width:3.758;stroke-miterlimit:10;" x1="2143.785" y1="1805.7" x2="2102.306" y2="1825.154"/>
		
			<line style="fill:none;stroke:#6ADB6A;stroke-width:3.758;stroke-miterlimit:10;" x1="2081.466" y1="1805.7" x2="2059.887" y2="1831.191"/>
		
			<line style="fill:none;stroke:#6ADB6A;stroke-width:3.758;stroke-miterlimit:10;" x1="2040.562" y1="1822.783" x2="2030.862" y2="1846.259"/>
		
			<line style="fill:none;stroke:#6ADB6A;stroke-width:3.758;stroke-miterlimit:10;" x1="2163.449" y1="1881.493" x2="2131.48" y2="1828.604"/>
		
			<line style="fill:none;stroke:#6ADB6A;stroke-width:3.758;stroke-miterlimit:10;" x1="2106.971" y1="1873.913" x2="2077.65" y2="1826.824"/>
		
			<line style="fill:none;stroke:#6ADB6A;stroke-width:3.758;stroke-miterlimit:10;" x1="2057.165" y1="1866.695" x2="2013.084" y2="1861.217"/>
		
			<line style="fill:none;stroke:#6ADB6A;stroke-width:3.758;stroke-miterlimit:10;" x1="2005.847" y1="1893.403" x2="1980.58" y2="1901.699"/>
	</g>
	<g>
		<path style="fill:#6ADB6A;" d="M1883.114,1985.105c0,0-23.608-447.339,190.057-389.692
			c213.665,57.646-166.67,298.741-166.347,389.692H1883.114z"/>
		<path style="fill:none;stroke:#40A87B;stroke-width:3.758;stroke-miterlimit:10;" d="M1891.749,1985.105
			c0,0,7.46-233.72,159.767-349.286"/>
		
			<line style="fill:none;stroke:#40A87B;stroke-width:3.758;stroke-miterlimit:10;" x1="1984.714" y1="1703.587" x2="1988.52" y2="1622.993"/>
		
			<line style="fill:none;stroke:#40A87B;stroke-width:3.758;stroke-miterlimit:10;" x1="2104.21" y1="1670.193" x2="2001.264" y2="1683.611"/>
		
			<line style="fill:none;stroke:#40A87B;stroke-width:3.758;stroke-miterlimit:10;" x1="2064.175" y1="1738.977" x2="1955.328" y2="1751.659"/>
		
			<line style="fill:none;stroke:#40A87B;stroke-width:3.758;stroke-miterlimit:10;" x1="2009.751" y1="1807.142" x2="1925.68" y2="1819.023"/>
		
			<line style="fill:none;stroke:#40A87B;stroke-width:3.758;stroke-miterlimit:10;" x1="1917.615" y1="1743.451" x2="1936.884" y2="1790.268"/>
		
			<line style="fill:none;stroke:#40A87B;stroke-width:3.758;stroke-miterlimit:10;" x1="1949.279" y1="1667.468" x2="1965.707" y2="1733.381"/>
		
			<line style="fill:none;stroke:#40A87B;stroke-width:3.758;stroke-miterlimit:10;" x1="1899.626" y1="1821.608" x2="1914.978" y2="1852.208"/>
		
			<line style="fill:none;stroke:#40A87B;stroke-width:3.758;stroke-miterlimit:10;" x1="1965.707" y1="1870.332" x2="1905.463" y2="1889.326"/>
	</g>
	<g>
		<path style="fill:#6ADB6A;" d="M428.902,1985.105c0,0,23.607-447.339-190.057-389.692
			c-213.664,57.646,166.67,298.741,166.347,389.692H428.902z"/>
		<path style="fill:none;stroke:#40A87B;stroke-width:3.758;stroke-miterlimit:10;" d="M420.267,1985.105
			c0,0-7.46-233.72-159.767-349.286"/>
		
			<line style="fill:none;stroke:#40A87B;stroke-width:3.758;stroke-miterlimit:10;" x1="327.302" y1="1703.587" x2="323.496" y2="1622.993"/>
		
			<line style="fill:none;stroke:#40A87B;stroke-width:3.758;stroke-miterlimit:10;" x1="207.806" y1="1670.193" x2="310.752" y2="1683.611"/>
		
			<line style="fill:none;stroke:#40A87B;stroke-width:3.758;stroke-miterlimit:10;" x1="247.841" y1="1738.977" x2="356.688" y2="1751.659"/>
		
			<line style="fill:none;stroke:#40A87B;stroke-width:3.758;stroke-miterlimit:10;" x1="302.265" y1="1807.142" x2="386.336" y2="1819.023"/>
		
			<line style="fill:none;stroke:#40A87B;stroke-width:3.758;stroke-miterlimit:10;" x1="394.401" y1="1743.451" x2="375.132" y2="1790.268"/>
		
			<line style="fill:none;stroke:#40A87B;stroke-width:3.758;stroke-miterlimit:10;" x1="362.737" y1="1667.468" x2="346.309" y2="1733.381"/>
		
			<line style="fill:none;stroke:#40A87B;stroke-width:3.758;stroke-miterlimit:10;" x1="412.39" y1="1821.608" x2="397.038" y2="1852.208"/>
		
			<line style="fill:none;stroke:#40A87B;stroke-width:3.758;stroke-miterlimit:10;" x1="346.309" y1="1870.332" x2="406.553" y2="1889.326"/>
	</g>
	<g>
		<path style="fill:#FFFFFF;" d="M1097.126,694.068c3.151,0,5.997,1.283,8.08,3.354c2.071,2.071,3.354,4.942,3.354,8.08
			c0,6.289-5.146,11.435-11.434,11.435c6.289,0,11.434,5.146,11.434,11.435c0,6.289-5.146,11.434-11.434,11.434H994.038l0-91.476
			h12.184c5.247-3.862,13.366-10.139,20.595-16.936c11.828-11.13,5.489-29.819,12.54-30.683c7.064-0.864,16.085,8.144,17.914,20.633
			c1.575,10.774-9.16,23.644-12.159,26.985h52.014c6.289,0,11.434,5.146,11.434,11.435s-5.146,11.434-11.434,11.434
			c6.289,0,11.434,5.146,11.434,11.435C1108.561,688.922,1103.415,694.068,1097.126,694.068z"/>
		<path style="fill:#FFFFFF;" d="M994.038,642.918l0,102.046c0,5.794-4.739,10.52-10.52,10.52h-20.239
			c-5.793,0-10.52-4.726-10.52-10.52V642.918c0-5.781,4.726-10.52,10.52-10.52h20.239
			C989.299,632.398,994.038,637.137,994.038,642.918z"/>
		<line style="fill:#FFFFFF;" x1="994.038" y1="648.33" x2="994.038" y2="690.632"/>
		<line style="fill:#FFFFFF;" x1="1097.126" y1="671.199" x2="1064.61" y2="671.266"/>
		<line style="fill:#FFFFFF;" x1="1097.126" y1="694.068" x2="1066.49" y2="694.089"/>
		<line style="fill:#FFFFFF;" x1="1097.126" y1="716.937" x2="1065.527" y2="716.408"/>
	</g>
	<g>
		<rect x="420.609" y="795.882" style="fill:#BBDBF3;" width="1444.695" height="1056.866"/>
		<rect x="434.028" y="809.274" style="fill:#FFFFFF;" width="1417.885" height="1030.057"/>
		<rect x="434.014" y="809.285" style="fill:#BBDBF3;" width="1417.887" height="97.076"/>
		<g>
			
				<line style="fill:none;stroke:#FFFFFF;stroke-width:8.9556;stroke-linecap:round;stroke-linejoin:round;stroke-miterlimit:10;" x1="1762.273" y1="885.746" x2="1818.12" y2="829.899"/>
			
				<line style="fill:none;stroke:#FFFFFF;stroke-width:8.9556;stroke-linecap:round;stroke-linejoin:round;stroke-miterlimit:10;" x1="1818.12" y1="885.746" x2="1762.273" y2="829.899"/>
		</g>
		<g>
			<g>
				<polyline style="fill:none;stroke:#BBDBF3;stroke-width:3.1818;stroke-linecap:round;stroke-linejoin:round;" points="
					1142.957,1172.308 1142.957,1181.853 1133.412,1181.853 				"/>
				
					<line style="fill:none;stroke:#BBDBF3;stroke-width:3.1818;stroke-linecap:round;stroke-linejoin:round;stroke-dasharray:19.2983,19.2983;" x1="1114.113" y1="1181.853" x2="506.216" y2="1181.853"/>
				<polyline style="fill:none;stroke:#BBDBF3;stroke-width:3.1818;stroke-linecap:round;stroke-linejoin:round;" points="
					496.567,1181.853 487.022,1181.853 487.022,1172.308 				"/>
				
					<line style="fill:none;stroke:#BBDBF3;stroke-width:3.1818;stroke-linecap:round;stroke-linejoin:round;stroke-dasharray:21.1329,21.1329;" x1="487.022" y1="1151.175" x2="487.022" y2="1119.476"/>
				<polyline style="fill:none;stroke:#BBDBF3;stroke-width:3.1818;stroke-linecap:round;stroke-linejoin:round;" points="
					487.022,1108.91 487.022,1099.364 496.567,1099.364 				"/>
				
					<line style="fill:none;stroke:#BBDBF3;stroke-width:3.1818;stroke-linecap:round;stroke-linejoin:round;stroke-dasharray:19.2983,19.2983;" x1="515.866" y1="1099.364" x2="1123.763" y2="1099.364"/>
				<polyline style="fill:none;stroke:#BBDBF3;stroke-width:3.1818;stroke-linecap:round;stroke-linejoin:round;" points="
					1133.412,1099.364 1142.957,1099.364 1142.957,1108.91 				"/>
				
					<line style="fill:none;stroke:#BBDBF3;stroke-width:3.1818;stroke-linecap:round;stroke-linejoin:round;stroke-dasharray:21.1329,21.1329;" x1="1142.957" y1="1130.042" x2="1142.957" y2="1161.742"/>
			</g>
		</g>
		<rect x="487.022" y="954.969" style="fill:#E5F0F8;" width="154.944" height="23.337"/>
		<rect x="693.721" y="954.969" style="fill:#E5F0F8;" width="154.944" height="23.337"/>
		<rect x="900.419" y="954.969" style="fill:#E5F0F8;" width="154.944" height="23.337"/>
		<rect x="1107.118" y="954.969" style="fill:#E5F0F8;" width="154.944" height="23.337"/>
		<rect x="1313.817" y="954.969" style="fill:#E5F0F8;" width="154.944" height="23.337"/>
		<rect x="1655.04" y="936.737" style="fill:#BBDBF3;" width="143.772" height="59.801"/>
		<g>
			
				<rect x="1255.758" y="1037.95" transform="matrix(-1.836970e-16 1 -1 -1.836970e-16 2836.7622 -156.3941)" style="fill:#E5F0F8;" width="481.64" height="604.469"/>
			<rect x="1217.321" y="1123.653" style="fill:#FFFFFF;" width="558.518" height="433.062"/>
			<polygon style="fill:#E5F0F8;" points="1217.321,1556.715 1375.218,1365.047 1486.143,1502.384 1642.653,1238.274 
				1775.839,1556.715 			"/>
			
				<ellipse transform="matrix(0.2326 -0.9726 0.9726 0.2326 -45.6645 2397.8489)" style="fill:#E5F0F8;" cx="1496.58" cy="1227.86" rx="28.267" ry="28.267"/>
		</g>
		<g>
			<rect x="487.035" y="1679.261" style="fill:#E5F0F8;" width="263.425" height="160.07"/>
			<rect x="497.049" y="1689.831" style="fill:#FFFFFF;" width="243.397" height="149.5"/>
			<polygon style="fill:#E5F0F8;" points="565.849,1795.041 601.64,1839.331 529.347,1839.331 			"/>
			<polygon style="fill:#E5F0F8;" points="724.034,1839.331 623.399,1839.331 682.401,1739.778 			"/>
			<circle style="fill:#E5F0F8;" cx="618.735" cy="1735.246" r="12.319"/>
		</g>
		<g>
			<rect x="1535.389" y="1679.261" style="fill:#E5F0F8;" width="263.425" height="160.07"/>
			<rect x="1545.403" y="1689.831" style="fill:#FFFFFF;" width="243.397" height="149.5"/>
			<polygon style="fill:#E5F0F8;" points="1614.203,1795.041 1649.994,1839.331 1577.701,1839.331 			"/>
			<polygon style="fill:#E5F0F8;" points="1772.388,1839.331 1671.754,1839.331 1730.756,1739.778 			"/>
			<circle style="fill:#E5F0F8;" cx="1667.101" cy="1735.246" r="12.319"/>
		</g>
		<g>
			<rect x="1185.948" y="1679.261" style="fill:#E5F0F8;" width="263.395" height="160.07"/>
			<rect x="1195.931" y="1689.831" style="fill:#FFFFFF;" width="243.428" height="149.5"/>
			<polygon style="fill:#E5F0F8;" points="1264.762,1795.041 1300.553,1839.331 1228.26,1839.331 			"/>
			<polygon style="fill:#E5F0F8;" points="1422.948,1839.331 1322.312,1839.331 1381.315,1739.778 			"/>
			<circle style="fill:#E5F0F8;" cx="1317.646" cy="1735.246" r="12.319"/>
		</g>
		<g>
			<rect x="836.476" y="1679.261" style="fill:#E5F0F8;" width="263.425" height="160.07"/>
			<rect x="846.49" y="1689.831" style="fill:#FFFFFF;" width="243.397" height="149.5"/>
			<polygon style="fill:#E5F0F8;" points="915.29,1795.041 951.081,1839.331 878.788,1839.331 			"/>
			<polygon style="fill:#E5F0F8;" points="1073.475,1839.331 972.84,1839.331 1031.843,1739.778 			"/>
			<circle style="fill:#E5F0F8;" cx="968.19" cy="1735.246" r="12.319"/>
		</g>
		<rect x="487.022" y="1256.995" style="fill:#E5F0F8;" width="309.968" height="38.339"/>
		<rect x="823.502" y="1256.995" style="fill:#E5F0F8;" width="142.682" height="38.339"/>
		<rect x="487.022" y="1324.315" style="fill:#E5F0F8;" width="200.518" height="38.339"/>
		<rect x="714.066" y="1324.315" style="fill:#E5F0F8;" width="327.129" height="38.339"/>
		<g>
			<rect x="487.022" y="1401.63" style="fill:#E5F0F8;" width="53.727" height="16.935"/>
			<rect x="548.291" y="1401.63" style="fill:#E5F0F8;" width="212.226" height="16.935"/>
			<rect x="768.948" y="1401.63" style="fill:#E5F0F8;" width="183.812" height="16.935"/>
			<rect x="960.307" y="1401.631" style="fill:#E5F0F8;" width="190.905" height="16.935"/>
			<rect x="487.022" y="1433.961" style="fill:#E5F0F8;" width="111.444" height="16.935"/>
			<rect x="607.115" y="1433.962" style="fill:#E5F0F8;" width="199.132" height="16.935"/>
			<rect x="814.896" y="1433.962" style="fill:#E5F0F8;" width="336.315" height="16.935"/>
			<rect x="487.022" y="1466.293" style="fill:#E5F0F8;" width="170.931" height="16.935"/>
			<rect x="665.057" y="1466.293" style="fill:#E5F0F8;" width="241.973" height="16.935"/>
			<rect x="916.353" y="1466.293" style="fill:#E5F0F8;" width="234.858" height="16.935"/>
			<rect x="487.022" y="1498.624" style="fill:#E5F0F8;" width="209.415" height="16.935"/>
		</g>
		<rect x="1574.169" y="1633.894" style="fill:#E5F0F8;" width="185.862" height="16.982"/>
		<rect x="1224.714" y="1633.894" style="fill:#E5F0F8;" width="185.862" height="16.982"/>
		<rect x="875.258" y="1633.894" style="fill:#E5F0F8;" width="185.862" height="16.982"/>
		<rect x="525.803" y="1633.894" style="fill:#E5F0F8;" width="185.862" height="16.982"/>
	</g>
	<g>
		<path style="fill:#BBDBF3;" d="M1655.128,1098.837h-63.826c-5.268,0-9.578-4.31-9.578-9.578v-26.488
			c0-5.268,4.31-9.578,9.578-9.578h63.826c5.268,0,9.578,4.31,9.578,9.578v26.488
			C1664.706,1094.526,1660.396,1098.837,1655.128,1098.837z"/>
		<path style="fill:#BBDBF3;" d="M1752.825,1098.837H1689c-5.268,0-9.578-4.31-9.578-9.578v-26.488c0-5.268,4.31-9.578,9.578-9.578
			h63.826c5.268,0,9.578,4.31,9.578,9.578v26.488C1762.404,1094.526,1758.093,1098.837,1752.825,1098.837z"/>
		<path style="fill:#BBDBF3;" d="M1871.785,1098.837h-76.913c-6.813,0-12.386-5.574-12.386-12.386v-37.517
			c0-6.813,5.574-12.386,12.386-12.386h76.913c6.813,0,12.386,5.574,12.386,12.386v37.517
			C1884.171,1093.263,1878.598,1098.837,1871.785,1098.837z"/>
		<path style="fill:#93ACBF;" d="M2156.363,1098.837h-54.69c-4.928,0-8.96-4.032-8.96-8.96v-27.725c0-4.928,4.032-8.96,8.96-8.96
			h54.69c4.928,0,8.96,4.032,8.96,8.96v27.725C2165.323,1094.805,2161.291,1098.837,2156.363,1098.837z"/>
		<polygon style="fill:#586773;" points="2081.737,1076.014 1904.253,1076.014 1909.922,1018.455 2076.068,1018.455 		"/>
		<polygon style="fill:#BBDBF3;" points="1913.119,1067.98 1917.204,1026.49 2068.785,1026.49 2072.871,1067.98 		"/>
		<path style="fill:#586773;" d="M2176.072,1083.364v341.807c0,5.096-4.108,9.204-9.204,9.204h-610.694
			c-5.096,0-9.243-4.108-9.243-9.204v-341.807c0-5.096,4.147-9.243,9.243-9.243h610.694
			C2171.963,1074.12,2176.072,1078.268,2176.072,1083.364z"/>
		<path style="fill:#BBDBF3;" d="M1596.149,1074.12v360.254h-39.976c-5.096,0-9.243-4.108-9.243-9.204v-341.807
			c0-5.096,4.147-9.243,9.243-9.243H1596.149z"/>
		<path style="fill:#93ACBF;" d="M2176.072,1083.364v64.98h-629.141v-64.98c0-5.096,4.147-9.243,9.243-9.243h610.694
			C2171.963,1074.12,2176.072,1078.268,2176.072,1083.364z"/>
		
			<ellipse transform="matrix(0.7071 -0.7071 0.7071 0.7071 -318.8292 1738.7935)" style="fill:#E5F0F8;" cx="1939.495" cy="1254.258" rx="180.135" ry="180.135"/>
		
			<ellipse transform="matrix(0.7071 -0.7071 0.7071 0.7071 -318.8292 1738.7935)" style="fill:#BBDBF3;" cx="1939.495" cy="1254.258" rx="165.714" ry="165.714"/>
		
			<ellipse transform="matrix(0.7071 -0.7071 0.7071 0.7071 -318.8292 1738.7935)" style="fill:#93ACBF;" cx="1939.495" cy="1254.258" rx="130.868" ry="130.868"/>
		<circle style="fill:#403534;" cx="1939.495" cy="1254.258" r="85.517"/>
		
			<ellipse transform="matrix(0.7071 -0.7071 0.7071 0.7071 -318.8292 1738.7935)" style="fill:#586773;" cx="1939.495" cy="1254.258" rx="75.868" ry="75.868"/>
		<circle style="fill:#586773;" cx="2136.387" cy="1113.258" r="14.421"/>
		<circle style="fill:#586773;" cx="1596.145" cy="1113.258" r="14.421"/>
		
			<ellipse transform="matrix(0.5789 -0.8154 0.8154 0.5789 -189.6658 2064.9788)" style="fill:#BBDBF3;" cx="1904.385" cy="1216.115" rx="18.589" ry="8.187"/>
		<path style="fill:#BBDBF3;" d="M1891.659,1247.492c0,3.251-1.907,5.887-4.26,5.887c-2.353,0-4.26-2.636-4.26-5.887
			s1.907-5.887,4.26-5.887C1889.752,1241.605,1891.659,1244.241,1891.659,1247.492z"/>
	</g>
	<g>
		<path style="fill:#C43A3B;" d="M451.407,526.467c140.052,0,253.631,113.54,253.631,253.631c0,4.196-0.117,8.393-0.313,12.55
			l-24.512-4.118l-17.649,17.531l-14.55-2.314l-54.946-8.707l-55.025-8.707l-55.496-8.824l-13.413-2.118l-1.216-3.53l-24.12-8.942
			l2.824,14.04l15.805,14.119l5.804-14.707l14.393,2.392l55.3,9.217l54.907,9.177l54.829,9.138l14.471,2.432l10.982,22.316
			l25.846,4.314c-2.197,9.883-4.941,19.531-8.275,28.904l-54.672-12.628l-54.907-12.707l-56.005-12.943l-1.843-0.431l-0.941-3.608
			l-23.453-10.589l1.843,14.197l13.766,14.158c1.099-1.137,2.158-2.314,3.216-3.53v-0.039l4.628-9.648l2.118,0.509l56.005,13.414
			l54.829,13.138l54.593,13.06c-35.336,97.46-128.797,167.074-238.453,167.074c-140.052,0-253.591-113.54-253.591-253.592
			C197.816,640.007,311.356,526.467,451.407,526.467z"/>
		<path style="fill:#F74242;" d="M468.779,526.467c140.052,0,253.631,113.54,253.631,253.631c0,4.196-0.117,8.393-0.313,12.55
			l-24.512-4.118l-17.649,17.531l-14.55-2.314l-54.946-8.707l-55.025-8.707l-55.496-8.824l-13.413-2.118l-1.216-3.53l-24.12-8.942
			l2.824,14.04L479.8,791.08l5.804-14.707l14.393,2.392l55.3,9.217l54.907,9.177l54.829,9.138l14.471,2.432l10.982,22.316
			l25.846,4.314c-2.196,9.883-4.941,19.531-8.275,28.904l-54.672-12.628l-54.907-12.707l-56.005-12.943l-1.843-0.431l-0.941-3.608
			l-23.453-10.589l1.843,14.197l13.766,14.158c1.099-1.137,2.158-2.314,3.216-3.53v-0.039l4.628-9.648l2.118,0.509l56.005,13.414
			l54.829,13.138l54.593,13.06c-35.336,97.46-128.797,167.074-238.453,167.074c-140.052,0-253.592-113.54-253.592-253.592
			C215.188,640.007,328.728,526.467,468.779,526.467z"/>
		<path style="fill:#FFFFFF;" d="M272.051,802.953c10.227,90.814,83.423,163.871,174.258,173.919
			c92.706,10.255,174.516-43.881,206.332-123.315l-54.828-13.138l-56.005-13.413l-2.118-0.51l-4.628,9.648v0.039
			c-1.059,1.216-2.118,2.392-3.216,3.53l-13.766-14.158l-1.843-14.197l23.453,10.589l0.941,3.608l1.843,0.431l56.005,12.943
			l54.907,12.707c5.608-14.394,9.569-29.572,11.648-45.338l-54.828-9.138l-54.907-9.177l-55.3-9.216l-14.393-2.392L479.8,791.08
			l-15.805-14.119l-2.824-14.04l24.12,8.942l1.216,3.53l13.413,2.118l55.496,8.824l55.025,8.707l54.946,8.707
			c0.057-0.471,0.112-0.943,0.166-1.415c12.204-107.389-69.119-208.595-176.672-219.255
			C363.028,570.606,257.844,676.804,272.051,802.953z"/>
		<path style="fill:#F74242;" d="M326.336,780.099c0,78.517,63.927,142.444,142.444,142.444c57.025,0,106.285-33.65,129.032-82.125
			l-56.005-13.413l-2.118-0.51l-4.628,9.648v0.039c-1.059,1.216-2.118,2.392-3.216,3.53l-13.766-14.158l-1.843-14.197l23.453,10.589
			l0.941,3.608l1.843,0.431l56.005,12.943c5.922-12.982,9.962-27.022,11.727-41.769l-54.907-9.177l-55.3-9.216l-14.393-2.392
			L479.8,791.08l-15.805-14.119l-2.824-14.04l24.12,8.942l1.216,3.53l13.413,2.118l55.496,8.824l55.025,8.707
			c0.509-4.902,0.784-9.883,0.784-14.943c0-78.556-63.888-142.445-142.445-142.445C390.262,637.654,326.336,701.542,326.336,780.099
			z"/>
		<path style="fill:#FFFFFF;" d="M539.688,826.495l-4.628,9.648c2.47-2.863,4.706-5.922,6.746-9.138L539.688,826.495z"/>
		<path style="fill:#FFFFFF;" d="M381.909,780.099c0,47.887,38.984,86.831,86.87,86.831c24.826,0,47.22-10.471,63.065-27.218
			l-13.766-14.158l-1.843-14.197l23.453,10.589l0.941,3.608l1.843,0.431c7.06-11.217,11.569-24.159,12.825-38.004l-55.3-9.216
			l-14.393-2.392L479.8,791.08l-15.805-14.119l-2.824-14.04l24.12,8.942l1.216,3.53l13.413,2.118l55.496,8.824
			c0.157-2.078,0.236-4.157,0.236-6.236c0-47.887-38.985-86.871-86.871-86.871C420.893,693.228,381.909,732.212,381.909,780.099z"/>
		<path style="fill:#F74242;" d="M437.522,780.099c0,17.217,14.002,31.258,31.258,31.258c17.257,0,31.258-14.041,31.258-31.258
			c0-0.432,0-0.902-0.039-1.333l-14.393-2.392L479.8,791.08l-15.805-14.119l-2.824-14.04l24.12,8.942l1.216,3.53l13.413,2.118
			c-1.294-16.04-14.746-28.669-31.14-28.669C451.523,748.841,437.522,762.842,437.522,780.099z"/>
		<path style="fill:#DE3C3B;" d="M665.386,803.748l14.55,2.314l17.649-17.531l24.512,4.118c-0.274,6.118-0.823,12.237-1.529,18.237
			c-0.079,0.628-0.157,1.255-0.236,1.922c-0.118,0.902-0.236,1.765-0.392,2.667c-0.079,0.745-0.196,1.451-0.314,2.196
			c-0.863,5.962-1.961,11.884-3.294,17.688l-25.846-4.314l-10.982-22.316l-14.471-2.432
			C665.19,805.473,665.307,804.611,665.386,803.748z"/>
		<path style="fill:#E4EFF7;" d="M610.204,797.159l54.828,9.138c0.157-0.824,0.275-1.686,0.353-2.549l-54.946-8.707
			C610.361,795.747,610.283,796.453,610.204,797.159z"/>
		<path style="fill:#DE3C3B;" d="M555.297,787.982l54.907,9.177c0.078-0.706,0.157-1.412,0.236-2.118l-55.025-8.707
			C555.376,786.884,555.337,787.433,555.297,787.982z"/>
		<path style="fill:#E4EFF7;" d="M499.919,777.51c0.04,0.392,0.078,0.824,0.078,1.255l55.3,9.216
			c0.039-0.549,0.078-1.098,0.118-1.647L499.919,777.51z"/>
		<path style="fill:#DE3C3B;" d="M461.171,762.921l2.824,14.04L479.8,791.08l5.804-14.707l14.393,2.392
			c0-0.431-0.038-0.863-0.078-1.255l-13.413-2.118l-1.216-3.53L461.171,762.921z"/>
		<path style="fill:#DE3C3B;" d="M652.64,853.557l54.593,13.06c0.275-0.745,0.549-1.53,0.823-2.353l-54.672-12.628
			C653.149,852.262,652.915,852.929,652.64,853.557z"/>
		<path style="fill:#E4EFF7;" d="M597.811,840.418l54.828,13.138c0.275-0.628,0.509-1.294,0.745-1.922l-54.907-12.707
			C598.281,839.438,598.046,839.947,597.811,840.418z"/>
		<path style="fill:#DE3C3B;" d="M541.806,827.005l56.005,13.413c0.235-0.471,0.47-0.98,0.666-1.49l-56.005-12.943
			C542.276,826.338,542.08,826.691,541.806,827.005z"/>
		<path style="fill:#E4EFF7;" d="M516.235,811.357l1.843,14.197l13.766,14.158c1.098-1.137,2.157-2.314,3.216-3.53v-0.039
			l4.628-9.648l2.118,0.51c0.274-0.314,0.47-0.667,0.666-1.02l-1.843-0.431l-0.941-3.608L516.235,811.357z"/>
		<path style="fill:#F74242;" d="M531.844,839.712l1.02,1.02l2.196-4.549C534.002,837.398,532.943,838.575,531.844,839.712z"/>
		<g>
			
				<line style="fill:none;stroke:#586773;stroke-width:4.1326;stroke-linecap:round;stroke-linejoin:round;stroke-miterlimit:10;" x1="790.21" y1="576.159" x2="470.931" y2="764.457"/>
			<polygon style="fill:#F8EBB7;" points="715.432,620.26 795.715,572.913 799.774,543.764 719.491,591.112 			"/>
			<polygon style="fill:#F9E181;" points="715.432,620.26 795.715,572.913 823.188,583.465 742.905,630.813 			"/>
			<polygon style="fill:#F8EBB7;" points="666.119,649.343 702.469,627.906 705.038,599.635 668.689,621.073 			"/>
			<polygon style="fill:#F9E181;" points="666.119,649.343 702.469,627.906 728.453,639.337 692.103,660.774 			"/>
			<polygon style="fill:#92ABBE;" points="471.026,745.332 487.714,773.63 464.584,777.48 457.282,762.679 			"/>
		</g>
		<g>
			
				<line style="fill:none;stroke:#586773;stroke-width:4.1326;stroke-linecap:round;stroke-linejoin:round;stroke-miterlimit:10;" x1="854.188" y1="654.219" x2="520.172" y2="814.93"/>
			<polygon style="fill:#F8EBB7;" points="775.958,691.859 859.947,651.448 866.449,622.745 782.46,663.156 			"/>
			<polygon style="fill:#F9E181;" points="775.958,691.859 859.947,651.448 886.433,664.279 802.444,704.69 			"/>
			<polygon style="fill:#F8EBB7;" points="724.37,716.681 762.397,698.384 767.34,670.431 729.313,688.728 			"/>
			<polygon style="fill:#F9E181;" points="724.37,716.681 762.397,698.384 787.324,711.965 749.297,730.262 			"/>
			<polygon style="fill:#92ABBE;" points="521.878,795.882 536.121,825.486 518.456,826.912 509.336,809.226 			"/>
		</g>
	</g>
	<g>
		<path style="fill:#F74242;" d="M1346.684,1164.315L1346.684,1164.315c13.457,7.242,30.392,2.158,37.634-11.298l54.438-101.147
			c7.242-13.456,2.158-30.392-11.298-37.634v0c-13.456-7.242-30.392-2.158-37.634,11.298l-54.438,101.147
			C1328.144,1140.137,1333.228,1157.072,1346.684,1164.315z"/>
		<path style="fill:#FDAE97;" d="M1385.88,1147.808c4.195-14.771-3.042-29.886-16.08-33.588l-116.628-16.926
			c-3.764-1.419-8.015-3.205-11.354-5.112c-7.764-4.434-30.271-13.992-31.624-10.74s12.741,12.927,11.054,13.826
			c-1.687,0.9-13.683-3.783-18.639-6.186c-4.956-2.403-14.75-9.264-17.602-7.77c-2.853,1.494-1.808,6.121-1.808,6.121
			s-3.417-3.076-4.926-0.573c-1.508,2.503,2.654,8.588,2.654,8.588s-1.727-1.906-2.704,1.268
			c-0.978,3.173,8.322,10.099,8.322,10.099s-2.24-0.626-2.654,1.883c-0.414,2.509,12.808,10.256,23.734,12.623
			c9.753,2.113,33.486,4.558,38.471,5.059l108.451,41.553C1367.586,1171.636,1381.686,1162.58,1385.88,1147.808z"/>
		<path style="fill:#322A28;" d="M1485.102,934.282c0,0,14.441,10.531,11.306,32.274c-3.135,21.742-4.891,33.51,8.854,34.632
			c13.745,1.122,41.279-7.073,43.508,11.32c2.229,18.393-10.743,30.648,8.62,34.038c19.363,3.39,22.01,28.324,22.01,28.324
			s-69.15,43.543-134.889,3.558c-65.739-39.985,4.319-67.564,4.319-67.564L1485.102,934.282z"/>
		<g>
			<rect x="1301.697" y="1538.296" style="fill:#322A28;" width="225.392" height="11.947"/>
			<rect x="1324.287" y="1695.087" style="fill:#322A28;" width="225.392" height="11.947"/>
			<rect x="1348.555" y="1851.877" style="fill:#322A28;" width="218.5" height="11.947"/>
			<polygon style="fill:#322A28;" points="1372.136,2005.862 1359.394,2005.862 1284.931,1428.41 1297.674,1428.41 			"/>
			<polygon style="fill:#322A28;" points="1589.742,2005.862 1576.999,2005.862 1502.537,1428.41 1515.28,1428.41 			"/>
			<polygon style="fill:#322A28;" points="1428.011,2005.862 1440.754,2005.862 1515.216,1428.41 1502.473,1428.41 			"/>
			<polygon style="fill:#322A28;" points="1210.405,2005.862 1223.148,2005.862 1297.61,1428.41 1284.867,1428.41 			"/>
			<rect x="1287.834" y="1428.41" style="fill:#322A28;" width="225.392" height="11.947"/>
		</g>
		<path style="fill:#0775EF;" d="M1483.835,1268.32c-21.424,20.958-69.599,33.779-123.81,28.749
			c-54.211-5.03-89.397-4.657-89.397-4.657c-24.808,0-44.92-20.111-44.92-44.92c0-24.808,20.111-44.92,44.92-44.92l204.341-6.456
			L1483.835,1268.32z"/>
		<path style="fill:#F74242;" d="M1474.419,1002.711l48.624,22.022c0,0-10.811,125.173-11.929,138.865
			c-1.118,13.692,3.074,34.371,3.074,34.371l-116.236,0.582c0,0,1.108-67.646-6.717-86.369c-5.301-12.683-8.942-20.399-5.868-34.93
			c3.074-14.531,25.565-40.219,21.932-65.368l25.366-8.124L1474.419,1002.711z"/>
		<path style="fill:#F74242;" d="M1465.908,1184.788L1465.908,1184.788c14.464,4.93,30.333-2.87,35.263-17.335l37.059-108.724
			c4.93-14.464-2.87-30.333-17.335-35.263l0,0c-14.464-4.93-30.333,2.87-35.263,17.335l-37.059,108.724
			C1443.643,1163.99,1451.444,1179.858,1465.908,1184.788z"/>
		<path style="fill:#322A28;" d="M1424.005,935.562c0,0-7.484-15.896,8.129-21.675L1424.005,935.562z"/>
		<path style="fill:#FDAE97;" d="M1474.625,1002.703l-0.033,0.033c-0.522,0.915-9.342,15.778-26.035,14.536
			c-14.765-1.111-15.875-13.524-15.875-13.524v-56.544h35.932L1474.625,1002.703z"/>
		<polygon style="fill:#E89780;" points="1432.682,997.308 1457.752,970.047 1432.666,979.47 		"/>
		<path style="fill:#FDAE97;" d="M1457.183,979.749c-11.33,7.533-25.137,8.269-33.768,3.118c-8.637-5.12-7.961-18.029-5.919-26.312
			c0.007-0.032,0.007-0.032,0.013-0.064c0.427-1.713,1.033-4.122,1.707-6.851c2.615-10.699,6.479-26.543,6.479-26.543
			c1.614-8.349,24.21-28.158,47.857-5.197C1497.193,940.892,1468.512,972.216,1457.183,979.749z"/>
		<path style="fill:#322A28;" d="M1426.263,919.725c0,0,0.84,9.856,15.026,15.705c14.186,5.849,27.858,15.227,26.991,29.896
			c-0.866,14.669,4.576,22.625,4.576,22.625s1.077-18.281,9.409-34.163c3.232-6.161,5.666-18.921-0.824-29.457
			C1471.201,907.704,1446.449,895.99,1426.263,919.725z"/>
		<path style="fill:#FDAE97;" d="M1465.745,962.32c-2.737,4.556-3.414,7.729,0.163,9.877c3.577,2.149,9.403,1.279,12.14-3.277
			c2.737-4.556,2.055-9.991-1.522-12.14C1472.949,954.633,1468.481,957.765,1465.745,962.32z"/>
		
			<path style="fill:none;stroke:#E89780;stroke-width:0.6601;stroke-linecap:round;stroke-linejoin:round;stroke-miterlimit:10;" d="
			M1473.707,965.177c-2.972-1.254-5.427,0.149-5.427,0.149c1.729-5.122,7.861-3.421,7.861-3.421"/>
		<path style="fill:#322A28;" d="M1444.451,950.009c-0.442,2.005-1.852,3.399-3.149,3.113c-1.297-0.286-1.99-2.144-1.548-4.149
			c0.442-2.005,1.852-3.399,3.149-3.113C1444.2,946.146,1444.893,948.004,1444.451,950.009z"/>
		<path style="fill:#322A28;" d="M1427.662,944.674c-0.442,2.005-1.852,3.399-3.15,3.113c-1.297-0.286-1.99-2.143-1.548-4.149
			c0.442-2.005,1.852-3.399,3.149-3.113C1427.412,940.811,1428.105,942.669,1427.662,944.674z"/>
		<path style="fill:none;stroke:#2C3447;stroke-width:0.98;stroke-miterlimit:10;" d="M1449.907,946.988
			c0,0-2.923-5.885-8.014-5.112"/>
		<path style="fill:none;stroke:#FFFFFF;stroke-width:1.3202;stroke-miterlimit:10;" d="M1392.676,1116.528
			c0,0-8.544-18.7-8.278-32.761c0.266-14.06,9.882-26.318,9.882-26.318"/>
		<path style="fill:#0775EF;" d="M1299.67,1487.402h75.318l-59.667-239.624l-0.069-0.833c-1.596-23.279-21.024-41.666-44.719-41.666
			c-24.771,0-44.823,20.053-44.823,44.823c0,1.388,0.069,2.741,0.208,4.059L1299.67,1487.402z"/>
		<polygon style="fill:#FDAE97;" points="1291.308,1530.317 1282.461,1538.296 1371.49,1538.296 1369.462,1530.317 1363.4,1505.095 
			1357.882,1487.402 1310.526,1487.402 1319.27,1505.095 		"/>
		<path style="fill:#088CFF;" d="M1371.5,1538.306h-89.011c0.115-2.406,0.459-4.754,1.031-6.988
			c3.953-15.179,17.699-26.234,33.909-26.234h45.995l6.014,25.26l0.229,0.974L1371.5,1538.306z"/>
		
			<line style="fill:none;stroke:#FFFFFF;stroke-width:0.8673;stroke-miterlimit:10;" x1="1330.173" y1="1514.885" x2="1315.262" y2="1514.885"/>
		
			<line style="fill:none;stroke:#FFFFFF;stroke-width:0.8673;stroke-miterlimit:10;" x1="1325.436" y1="1520.673" x2="1310.526" y2="1520.673"/>
		<circle style="fill:#FFFFFF;" cx="1347.363" cy="1518.744" r="6.315"/>
		<path style="fill:none;stroke:#2C3447;stroke-width:0.98;stroke-miterlimit:10;" d="M1428.759,938.039c0,0-2.804-1.19-6.616,1.29"
			/>
		<path style="fill:#088CFF;" d="M1507.179,1644.192h75.318l-23.904-239.624l-0.069-0.833
			c-1.596-23.279-21.024-41.666-44.719-41.666c-24.771,0-44.823,20.053-44.823,44.823c0,1.388,0.069,2.741,0.208,4.059
			L1507.179,1644.192z"/>
		<g>
			
				<rect x="712.682" y="1038.376" style="fill:#FFFFFF;stroke:#BBDBF3;stroke-width:5.1829;stroke-miterlimit:10;" width="674.39" height="84.81"/>
			
				<rect x="1217.973" y="1038.376" style="fill:#BBDBF3;stroke:#BBDBF3;stroke-width:4.5379;stroke-miterlimit:10;" width="169.099" height="84.81"/>
			<path style="fill:#FFFFFF;" d="M1273.29,1098.022c12.175,6.803,27.187,3.451,35.59-7.137l45.195,25.253l4.376-7.832
				l-45.189-25.249c4.648-12.711-0.386-27.239-12.582-34.053c-13.527-7.558-30.659-2.758-38.217,10.768
				C1254.904,1073.298,1259.763,1090.464,1273.29,1098.022z M1297.703,1054.329c10.534,5.886,14.338,19.321,8.452,29.855
				c-5.92,10.594-19.321,14.337-29.855,8.451c-10.593-5.919-14.37-19.26-8.451-29.854
				C1273.734,1052.247,1287.11,1048.41,1297.703,1054.329z"/>
		</g>
		<path style="fill:#FFFFFF;" d="M1371.5,1538.306h-89.011c0.115-2.406,0.459-4.754,1.031-6.988h86.146L1371.5,1538.306z"/>
		<path style="fill:none;stroke:#2C3447;stroke-width:0.98;stroke-miterlimit:10;" d="M1433.657,946.297c0,0-2.421,9.885-8.52,9.814
			c0,0,1.483,2.097,3.654,3.305"/>
		<path style="fill:#088CFF;" d="M1514.188,1197.968c23.083,19.115,38.839,59.903,39.503,114.343
			c0.664,54.44,4.713,89.394,4.713,89.394c2.593,24.672-15.306,46.776-39.978,49.369c-24.672,2.593-46.776-15.306-49.369-39.978
			l-34.86-213.128H1514.188z"/>
		<path style="fill:none;stroke:#2C3447;stroke-width:0.98;stroke-miterlimit:10;" d="M1425.978,967.474
			c0,0,5.877,4.16,12.112-1.955"/>
		
			<ellipse transform="matrix(0.9967 -0.0816 0.0816 0.9967 -73.4121 121.1036)" style="fill:#E89780;" cx="1445.76" cy="959.212" rx="7.598" ry="3.875"/>
		<path style="fill:#E89780;" d="M1421.878,955.239c-0.614,1.173-2.302,1.586-4.369,1.252c0.427-1.713,1.033-4.122,1.707-6.851
			C1421.523,951.526,1422.687,953.773,1421.878,955.239z"/>
		<path style="fill:#FDAE97;" d="M1318.505,1053.457c2.17-1.957,4.547,1.978,4.547,1.978s0.343-4.73,3.506-5.332
			c3.163-0.602,10.544,8.807,14.589,12.545c4.045,3.738,14.165,11.701,16.04,11.33c1.876-0.371-8.802-13.72-6.564-16.44
			c2.238-2.719,21.002,12.961,27.144,19.458c2.642,2.794,6.191,5.737,9.381,8.188l106.692,50.053
			c11.402,7.328,13.939,23.892,5.637,36.81c-8.302,12.918-24.423,17.491-35.825,10.163l-91.718-71.246
			c-4.625-1.927-26.626-11.156-35.346-16.01c-9.768-5.437-20.172-16.688-19.048-18.969c1.124-2.281,3.086-1.031,3.086-1.031
			s-6.889-9.328-5.032-12.08c1.857-2.753,2.956-0.429,2.956-0.429S1316.335,1055.414,1318.505,1053.457z"/>
		
			<ellipse transform="matrix(0.7986 -0.6018 0.6018 0.7986 -254.0287 1080.827)" style="fill:#322A28;" cx="1488.1" cy="920.017" rx="15.49" ry="23.166"/>
		<path style="fill:none;stroke:#FFFFFF;stroke-width:0.8673;stroke-miterlimit:10;" d="M1464.288,972.28
			c-0.388,1.847,0.794,3.658,2.641,4.047c1.847,0.388,3.658-0.794,4.047-2.641s-0.794-3.658-2.641-4.046
			C1466.488,969.251,1464.677,970.434,1464.288,972.28z"/>
		<polygon style="fill:#FDAE97;" points="1499.061,1687.107 1490.215,1695.087 1572.784,1695.087 1572.402,1687.107 
			1571.153,1661.886 1570.286,1644.192 1522.93,1644.192 1527.024,1661.886 		"/>
		<path style="fill:#088CFC;" d="M1572.777,1695.077h-82.539l0.745-3.723c0.229-1.088,0.515-2.177,0.859-3.265
			c2.119-7.16,6.358-13.346,11.914-17.871c6.357-5.212,14.491-8.305,23.255-8.305h44.162l1.203,25.203l0.057,0.974
			L1572.777,1695.077z"/>
		
			<line style="fill:none;stroke:#FFFFFF;stroke-width:0.8673;stroke-miterlimit:10;" x1="1537.926" y1="1671.675" x2="1523.016" y2="1671.675"/>
		
			<line style="fill:none;stroke:#FFFFFF;stroke-width:0.8673;stroke-miterlimit:10;" x1="1533.19" y1="1677.464" x2="1518.28" y2="1677.464"/>
		<path style="fill:#FFFFFF;" d="M1548.802,1675.534c0,3.488,2.827,6.315,6.315,6.315c3.488,0,6.315-2.827,6.315-6.315
			s-2.827-6.315-6.315-6.315C1551.629,1669.219,1548.802,1672.046,1548.802,1675.534z"/>
		<path style="fill:#FFFFFF;" d="M1572.777,1695.077h-82.539l0.745-3.723c0.229-1.088,0.515-2.177,0.859-3.265h80.591
			L1572.777,1695.077z"/>
		
			<line style="fill:none;stroke:#FFFFFF;stroke-width:1.3202;stroke-miterlimit:10;" x1="1459.013" y1="1118.898" x2="1471.59" y2="1081.998"/>
	</g>
	<path style="fill:#0775EF;" d="M2017.414,2024.472H337.693c-10.614,0-19.219-8.605-19.219-19.219v-3.92
		c0-10.614,8.604-19.219,19.219-19.219h1679.72c10.614,0,19.219,8.605,19.219,19.219v3.92
		C2036.633,2015.867,2028.028,2024.472,2017.414,2024.472z"/>
	<g>
		<path style="fill:#586773;" d="M978.474,1981.983H445.628c-11.662,0-21.116-9.454-21.116-21.116v-365.739H999.59v365.739
			C999.59,1972.529,990.136,1981.983,978.474,1981.983z"/>
		<polygon style="fill:#322A28;" points="424.512,1622.494 999.59,1622.494 424.512,1679.713 		"/>
		<g>
			<rect x="418.614" y="1545.373" style="fill:#586773;" width="586.871" height="77.126"/>
			<polygon style="fill:#FFFFFF;" points="493.175,1545.373 451.128,1622.5 418.614,1622.5 418.614,1610.045 453.827,1545.373 			
				"/>
			<polygon style="fill:#FFFFFF;" points="568.868,1545.373 526.821,1622.5 487.517,1622.5 529.563,1545.373 			"/>
			<polygon style="fill:#FFFFFF;" points="644.561,1545.373 602.557,1622.5 563.209,1622.5 605.257,1545.373 			"/>
			<polygon style="fill:#FFFFFF;" points="720.297,1545.373 678.251,1622.5 638.946,1622.5 680.949,1545.373 			"/>
			<polygon style="fill:#FFFFFF;" points="795.99,1545.373 753.944,1622.5 714.639,1622.5 756.686,1545.373 			"/>
			<polygon style="fill:#FFFFFF;" points="871.684,1545.373 829.681,1622.5 790.332,1622.5 832.379,1545.373 			"/>
			<polygon style="fill:#FFFFFF;" points="947.42,1545.373 905.373,1622.5 866.068,1622.5 908.071,1545.373 			"/>
			<polygon style="fill:#FFFFFF;" points="1005.485,1545.373 1005.485,1577.709 981.066,1622.5 941.762,1622.5 983.808,1545.373 			
				"/>
		</g>
		<g>
			
				<rect x="377.56" y="1352.236" transform="matrix(0.9135 -0.4067 0.4067 0.9135 -507.679 393.1599)" style="fill:#586773;" width="586.871" height="77.126"/>
			<polygon style="fill:#FFFFFF;" points="455.359,1444.594 448.317,1532.155 418.614,1545.379 413.548,1534.002 419.413,1460.599 
							"/>
			<polygon style="fill:#FFFFFF;" points="524.508,1413.807 517.466,1501.367 481.56,1517.354 488.601,1429.794 			"/>
			<polygon style="fill:#FFFFFF;" points="593.657,1383.02 586.655,1470.563 550.708,1486.567 557.75,1399.006 			"/>
			<polygon style="fill:#FFFFFF;" points="662.845,1352.215 655.804,1439.775 619.898,1455.762 626.899,1368.22 			"/>
			<polygon style="fill:#FFFFFF;" points="731.994,1321.428 724.953,1408.988 689.046,1424.975 696.088,1337.415 			"/>
			<polygon style="fill:#FFFFFF;" points="801.143,1290.641 794.142,1378.183 758.195,1394.188 765.237,1306.628 			"/>
			<polygon style="fill:#FFFFFF;" points="870.332,1259.836 863.291,1347.396 827.384,1363.383 834.385,1275.841 			"/>
			<polygon style="fill:#FFFFFF;" points="923.377,1236.219 936.529,1265.759 932.439,1316.609 896.533,1332.596 903.575,1245.036 
							"/>
		</g>
		
			<line style="fill:none;stroke:#FFFFFF;stroke-width:4.5068;stroke-miterlimit:10;" x1="452.369" y1="1722.628" x2="971.733" y2="1722.628"/>
		
			<line style="fill:none;stroke:#FFFFFF;stroke-width:4.5068;stroke-miterlimit:10;" x1="452.369" y1="1827.116" x2="971.733" y2="1827.116"/>
		
			<line style="fill:none;stroke:#FFFFFF;stroke-width:4.5068;stroke-miterlimit:10;" x1="452.369" y1="1896.775" x2="971.733" y2="1896.775"/>
		
			<line style="fill:none;stroke:#FFFFFF;stroke-width:4.5068;stroke-miterlimit:10;" x1="712.051" y1="1827.116" x2="712.051" y2="1960.836"/>
		
			<line style="fill:none;stroke:#FFFFFF;stroke-width:4.5068;stroke-miterlimit:10;" x1="452.916" y1="1861.946" x2="712.051" y2="1861.946"/>
		
			<line style="fill:none;stroke:#FFFFFF;stroke-width:4.5068;stroke-miterlimit:10;" x1="582.21" y1="1722.628" x2="582.21" y2="1827.116"/>
		
			<line style="fill:none;stroke:#FFFFFF;stroke-width:4.5068;stroke-miterlimit:10;" x1="712.051" y1="1722.628" x2="712.051" y2="1827.116"/>
		
			<line style="fill:none;stroke:#FFFFFF;stroke-width:4.5068;stroke-miterlimit:10;" x1="841.892" y1="1722.628" x2="841.892" y2="1827.116"/>
	</g>
	<g>
		<rect x="1677.5" y="1664.844" style="fill:#BBDBF3;" width="262.253" height="262.253"/>
		<g>
			<g>
				<ellipse style="fill:#FFFFFF;" cx="1856.978" cy="1876.697" rx="33.53" ry="21.51"/>
			</g>
			<g>
				<ellipse style="fill:#FFFFFF;" cx="1753.548" cy="1859.503" rx="26.802" ry="17.194"/>
			</g>
			<g>
				<polygon style="fill:#FFFFFF;" points="1889.789,1876.697 1875.094,1876.697 1875.094,1754.036 1779.542,1715.509 
					1779.542,1859.503 1764.847,1859.503 1764.847,1693.734 1889.789,1744.113 				"/>
			</g>
			<g>
				
					<rect x="1819.969" y="1708.131" transform="matrix(0.383 -0.9238 0.9238 0.383 -505.542 2778.7393)" style="fill:#FFFFFF;" width="14.698" height="119.346"/>
			</g>
		</g>
	</g>
	<g>
		
			<rect x="1921.377" y="558.815" transform="matrix(-1.836970e-16 1 -1 -1.836970e-16 2718.5681 -1331.4558)" style="fill:#E5F0F8;" width="207.27" height="269.481"/>
		<polygon style="fill:#FFFFFF;" points="2084.899,690.457 1983.568,631.953 1983.568,748.96 		"/>
		<rect x="1890.271" y="785.909" style="fill:#E5F0F8;" width="269.481" height="11.282"/>
		<rect x="1890.271" y="785.909" style="fill:#BBDBF3;" width="132.28" height="11.282"/>
		<path style="fill:#FFFFFF;" d="M2032.163,797.191h-16.717c-3.102,0-5.641-2.538-5.641-5.641l0,0c0-3.102,2.538-5.641,5.641-5.641
			h16.717c3.102,0,5.641,2.538,5.641,5.641l0,0C2037.804,794.653,2035.266,797.191,2032.163,797.191z"/>
	</g>
	<g>
		<rect x="1338.518" y="555.862" style="fill:#BBDBF3;" width="324.055" height="180.169"/>
		<path style="fill:#BBDBF3;" d="M1662.573,534.96v-5.984h-324.025v4.857c1.416,0.781,2.37,2.284,2.37,4.018v9.136
			c0,1.735-0.954,3.238-2.37,4.018v4.857h324.025v-5.984c-0.665-0.781-1.041-1.792-1.041-2.891v-9.136
			C1661.532,536.753,1661.908,535.741,1662.573,534.96z M1354.679,546.987c0,2.544-2.081,4.597-4.597,4.597
			c-2.515,0-4.567-2.053-4.567-4.597v-9.136c0-2.544,2.052-4.597,4.567-4.597c2.516,0,4.597,2.053,4.597,4.597V546.987z
			 M1368.411,546.987c0,2.544-2.052,4.597-4.597,4.597c-2.515,0-4.567-2.053-4.567-4.597v-9.136c0-2.544,2.052-4.597,4.567-4.597
			c2.544,0,4.597,2.053,4.597,4.597V546.987z M1382.144,546.987c0,2.544-2.052,4.597-4.567,4.597c-2.516,0-4.597-2.053-4.597-4.597
			v-9.136c0-2.544,2.081-4.597,4.597-4.597c2.515,0,4.567,2.053,4.567,4.597V546.987z M1395.876,546.987
			c0,2.544-2.052,4.597-4.567,4.597c-2.516,0-4.568-2.053-4.568-4.597v-9.136c0-2.544,2.052-4.597,4.568-4.597
			c2.515,0,4.567,2.053,4.567,4.597V546.987z M1409.637,546.987c0,2.544-2.081,4.597-4.596,4.597c-2.516,0-4.568-2.053-4.568-4.597
			v-9.136c0-2.544,2.052-4.597,4.568-4.597c2.515,0,4.596,2.053,4.596,4.597V546.987z M1423.37,546.987
			c0,2.544-2.053,4.597-4.568,4.597c-2.544,0-4.596-2.053-4.596-4.597v-9.136c0-2.544,2.052-4.597,4.596-4.597
			c2.516,0,4.568,2.053,4.568,4.597V546.987z M1437.102,546.987c0,2.544-2.053,4.597-4.568,4.597c-2.515,0-4.596-2.053-4.596-4.597
			v-9.136c0-2.544,2.081-4.597,4.596-4.597c2.516,0,4.568,2.053,4.568,4.597V546.987z M1450.863,546.987
			c0,2.544-2.081,4.597-4.597,4.597c-2.515,0-4.567-2.053-4.567-4.597v-9.136c0-2.544,2.052-4.597,4.567-4.597
			c2.516,0,4.597,2.053,4.597,4.597V546.987z M1464.596,546.987c0,2.544-2.053,4.597-4.597,4.597c-2.515,0-4.567-2.053-4.567-4.597
			v-9.136c0-2.544,2.053-4.597,4.567-4.597c2.544,0,4.597,2.053,4.597,4.597V546.987z M1478.328,546.987
			c0,2.544-2.052,4.597-4.568,4.597c-2.515,0-4.596-2.053-4.596-4.597v-9.136c0-2.544,2.081-4.597,4.596-4.597
			c2.516,0,4.568,2.053,4.568,4.597V546.987z M1492.06,546.987c0,2.544-2.053,4.597-4.568,4.597c-2.515,0-4.567-2.053-4.567-4.597
			v-9.136c0-2.544,2.052-4.597,4.567-4.597c2.516,0,4.568,2.053,4.568,4.597V546.987z M1505.822,546.987
			c0,2.544-2.081,4.597-4.597,4.597c-2.515,0-4.567-2.053-4.567-4.597v-9.136c0-2.544,2.053-4.597,4.567-4.597
			c2.516,0,4.597,2.053,4.597,4.597V546.987z M1519.554,546.987c0,2.544-2.052,4.597-4.568,4.597c-2.544,0-4.596-2.053-4.596-4.597
			v-9.136c0-2.544,2.052-4.597,4.596-4.597c2.516,0,4.568,2.053,4.568,4.597V546.987z M1533.286,546.987
			c0,2.544-2.053,4.597-4.568,4.597c-2.515,0-4.596-2.053-4.596-4.597v-9.136c0-2.544,2.082-4.597,4.596-4.597
			c2.516,0,4.568,2.053,4.568,4.597V546.987z M1547.048,546.987c0,2.544-2.081,4.597-4.597,4.597c-2.515,0-4.567-2.053-4.567-4.597
			v-9.136c0-2.544,2.052-4.597,4.567-4.597c2.516,0,4.597,2.053,4.597,4.597V546.987z M1560.78,546.987
			c0,2.544-2.052,4.597-4.597,4.597c-2.515,0-4.567-2.053-4.567-4.597v-9.136c0-2.544,2.052-4.597,4.567-4.597
			c2.545,0,4.597,2.053,4.597,4.597V546.987z M1574.512,546.987c0,2.544-2.052,4.597-4.568,4.597c-2.515,0-4.596-2.053-4.596-4.597
			v-9.136c0-2.544,2.081-4.597,4.596-4.597c2.516,0,4.568,2.053,4.568,4.597V546.987z M1588.245,546.987
			c0,2.544-2.052,4.597-4.568,4.597c-2.515,0-4.567-2.053-4.567-4.597v-9.136c0-2.544,2.052-4.597,4.567-4.597
			c2.516,0,4.568,2.053,4.568,4.597V546.987z M1602.006,546.987c0,2.544-2.082,4.597-4.597,4.597c-2.515,0-4.567-2.053-4.567-4.597
			v-9.136c0-2.544,2.052-4.597,4.567-4.597c2.516,0,4.597,2.053,4.597,4.597V546.987z M1615.738,546.987
			c0,2.544-2.052,4.597-4.568,4.597c-2.544,0-4.596-2.053-4.596-4.597v-9.136c0-2.544,2.052-4.597,4.596-4.597
			c2.516,0,4.568,2.053,4.568,4.597V546.987z M1629.471,546.987c0,2.544-2.052,4.597-4.568,4.597c-2.515,0-4.596-2.053-4.596-4.597
			v-9.136c0-2.544,2.081-4.597,4.596-4.597c2.516,0,4.568,2.053,4.568,4.597V546.987z M1643.232,546.987
			c0,2.544-2.081,4.597-4.597,4.597c-2.515,0-4.568-2.053-4.568-4.597v-9.136c0-2.544,2.053-4.597,4.568-4.597
			c2.516,0,4.597,2.053,4.597,4.597V546.987z M1656.964,546.987c0,2.544-2.052,4.597-4.597,4.597c-2.515,0-4.568-2.053-4.568-4.597
			v-9.136c0-2.544,2.053-4.597,4.568-4.597c2.544,0,4.597,2.053,4.597,4.597V546.987z"/>
		<path style="fill:#BBDBF3;" d="M1662.573,742.026v-5.984h-324.025v4.857c1.416,0.781,2.37,2.284,2.37,4.018v9.136
			c0,1.735-0.954,3.238-2.37,4.019v4.857h324.025v-5.984c-0.665-0.781-1.041-1.792-1.041-2.891v-9.136
			C1661.532,743.819,1661.908,742.807,1662.573,742.026z M1354.679,754.053c0,2.544-2.081,4.597-4.597,4.597
			c-2.515,0-4.567-2.053-4.567-4.597v-9.136c0-2.544,2.052-4.597,4.567-4.597c2.516,0,4.597,2.053,4.597,4.597V754.053z
			 M1368.411,754.053c0,2.544-2.052,4.597-4.597,4.597c-2.515,0-4.567-2.053-4.567-4.597v-9.136c0-2.544,2.052-4.597,4.567-4.597
			c2.544,0,4.597,2.053,4.597,4.597V754.053z M1382.144,754.053c0,2.544-2.052,4.597-4.567,4.597c-2.516,0-4.597-2.053-4.597-4.597
			v-9.136c0-2.544,2.081-4.597,4.597-4.597c2.515,0,4.567,2.053,4.567,4.597V754.053z M1395.876,754.053
			c0,2.544-2.052,4.597-4.567,4.597c-2.516,0-4.568-2.053-4.568-4.597v-9.136c0-2.544,2.052-4.597,4.568-4.597
			c2.515,0,4.567,2.053,4.567,4.597V754.053z M1409.637,754.053c0,2.544-2.081,4.597-4.596,4.597c-2.516,0-4.568-2.053-4.568-4.597
			v-9.136c0-2.544,2.052-4.597,4.568-4.597c2.515,0,4.596,2.053,4.596,4.597V754.053z M1423.37,754.053
			c0,2.544-2.053,4.597-4.568,4.597c-2.544,0-4.596-2.053-4.596-4.597v-9.136c0-2.544,2.052-4.597,4.596-4.597
			c2.516,0,4.568,2.053,4.568,4.597V754.053z M1437.102,754.053c0,2.544-2.053,4.597-4.568,4.597c-2.515,0-4.596-2.053-4.596-4.597
			v-9.136c0-2.544,2.081-4.597,4.596-4.597c2.516,0,4.568,2.053,4.568,4.597V754.053z M1450.863,754.053
			c0,2.544-2.081,4.597-4.597,4.597c-2.515,0-4.567-2.053-4.567-4.597v-9.136c0-2.544,2.052-4.597,4.567-4.597
			c2.516,0,4.597,2.053,4.597,4.597V754.053z M1464.596,754.053c0,2.544-2.053,4.597-4.597,4.597c-2.515,0-4.567-2.053-4.567-4.597
			v-9.136c0-2.544,2.053-4.597,4.567-4.597c2.544,0,4.597,2.053,4.597,4.597V754.053z M1478.328,754.053
			c0,2.544-2.052,4.597-4.568,4.597c-2.515,0-4.596-2.053-4.596-4.597v-9.136c0-2.544,2.081-4.597,4.596-4.597
			c2.516,0,4.568,2.053,4.568,4.597V754.053z M1492.06,754.053c0,2.544-2.053,4.597-4.568,4.597c-2.515,0-4.567-2.053-4.567-4.597
			v-9.136c0-2.544,2.052-4.597,4.567-4.597c2.516,0,4.568,2.053,4.568,4.597V754.053z M1505.822,754.053
			c0,2.544-2.081,4.597-4.597,4.597c-2.515,0-4.567-2.053-4.567-4.597v-9.136c0-2.544,2.053-4.597,4.567-4.597
			c2.516,0,4.597,2.053,4.597,4.597V754.053z M1519.554,754.053c0,2.544-2.052,4.597-4.568,4.597c-2.544,0-4.596-2.053-4.596-4.597
			v-9.136c0-2.544,2.052-4.597,4.596-4.597c2.516,0,4.568,2.053,4.568,4.597V754.053z M1533.286,754.053
			c0,2.544-2.053,4.597-4.568,4.597c-2.515,0-4.596-2.053-4.596-4.597v-9.136c0-2.544,2.082-4.597,4.596-4.597
			c2.516,0,4.568,2.053,4.568,4.597V754.053z M1547.048,754.053c0,2.544-2.081,4.597-4.597,4.597c-2.515,0-4.567-2.053-4.567-4.597
			v-9.136c0-2.544,2.052-4.597,4.567-4.597c2.516,0,4.597,2.053,4.597,4.597V754.053z M1560.78,754.053
			c0,2.544-2.052,4.597-4.597,4.597c-2.515,0-4.567-2.053-4.567-4.597v-9.136c0-2.544,2.052-4.597,4.567-4.597
			c2.545,0,4.597,2.053,4.597,4.597V754.053z M1574.512,754.053c0,2.544-2.052,4.597-4.568,4.597c-2.515,0-4.596-2.053-4.596-4.597
			v-9.136c0-2.544,2.081-4.597,4.596-4.597c2.516,0,4.568,2.053,4.568,4.597V754.053z M1588.245,754.053
			c0,2.544-2.052,4.597-4.568,4.597c-2.515,0-4.567-2.053-4.567-4.597v-9.136c0-2.544,2.052-4.597,4.567-4.597
			c2.516,0,4.568,2.053,4.568,4.597V754.053z M1602.006,754.053c0,2.544-2.082,4.597-4.597,4.597c-2.515,0-4.567-2.053-4.567-4.597
			v-9.136c0-2.544,2.052-4.597,4.567-4.597c2.516,0,4.597,2.053,4.597,4.597V754.053z M1615.738,754.053
			c0,2.544-2.052,4.597-4.568,4.597c-2.544,0-4.596-2.053-4.596-4.597v-9.136c0-2.544,2.052-4.597,4.596-4.597
			c2.516,0,4.568,2.053,4.568,4.597V754.053z M1629.471,754.053c0,2.544-2.052,4.597-4.568,4.597c-2.515,0-4.596-2.053-4.596-4.597
			v-9.136c0-2.544,2.081-4.597,4.596-4.597c2.516,0,4.568,2.053,4.568,4.597V754.053z M1643.232,754.053
			c0,2.544-2.081,4.597-4.597,4.597c-2.515,0-4.568-2.053-4.568-4.597v-9.136c0-2.544,2.053-4.597,4.568-4.597
			c2.516,0,4.597,2.053,4.597,4.597V754.053z M1656.964,754.053c0,2.544-2.052,4.597-4.597,4.597c-2.515,0-4.568-2.053-4.568-4.597
			v-9.136c0-2.544,2.053-4.597,4.568-4.597c2.544,0,4.597,2.053,4.597,4.597V754.053z"/>
		<g>
			<rect x="1384.363" y="555.866" style="fill:#E5F0F8;" width="232.372" height="180.176"/>
			<polygon style="fill:#FFFFFF;" points="1384.363,736.042 1450.056,656.298 1496.207,713.438 1561.323,603.554 1616.735,736.042 
							"/>
			<circle style="fill:#FFFFFF;" cx="1500.549" cy="599.221" r="11.761"/>
		</g>
		<g>
			<rect x="1633.056" y="555.862" style="fill:#E5F0F8;" width="29.517" height="180.169"/>
			<polygon style="fill:#FFFFFF;" points="1662.573,700.211 1662.573,736.031 1633.056,736.031 			"/>
		</g>
		<g>
			<rect x="1338.518" y="555.862" style="fill:#E5F0F8;" width="29.518" height="180.169"/>
			<polygon style="fill:#FFFFFF;" points="1368.036,736.031 1338.518,736.031 1338.518,700.211 			"/>
		</g>
	</g>
	<g>
		<path style="fill:#F9E181;" d="M821.953,1432.688L821.953,1432.688c-12.497,7.671-28.998,3.722-36.669-8.775l-57.66-93.935
			c-7.671-12.497-3.722-28.998,8.775-36.669h0c12.497-7.671,28.998-3.722,36.669,8.774l57.66,93.935
			C838.399,1408.516,834.45,1425.017,821.953,1432.688z"/>
		<path style="fill:#332B27;" d="M685.371,1183.32c0,0-23.545,16.773-25.787,52.188c-2.243,35.415-43.083,40.599-43.083,40.599
			s1.606,36.519,46.576,44.003s44.454-67.083,44.454-67.083L685.371,1183.32z"/>
		<path style="fill:#332B27;" d="M728.925,1183.32c0,0,14.914,3.336,16.749,30.098c1.836,26.762-15.372,66.625-23.862,67.228
			C713.324,1281.249,695.198,1187.262,728.925,1183.32z"/>
		<path style="fill:#F9E181;" d="M683.704,1278.476l-46.657,21.974c0,0,10.374,119.267,11.446,132.406
			c1.073,13.139-2.949,32.98-2.949,32.98h111.812c0,0-1.341-64.352,6.167-82.317c5.086-12.17,8.58-19.574,5.631-33.517
			c-2.949-13.943-12.87-34.857-9.385-58.989l-28.69-11.53L683.704,1278.476z"/>
		<path style="fill:#B37661;" d="M731.09,1225.241v54.251c0,0,0,0.663-0.133,1.723c-0.557,4.428-3.421,15.803-18.163,15.644
			c-13.47-0.159-22.883-10.049-26.886-15.246c-1.458-1.856-2.201-3.129-2.201-3.129l6.788-53.243H731.09z"/>
		<polygon style="fill:#824C3A;" points="731.078,1279.482 706.958,1248.687 731.078,1244.042 		"/>
		<path style="fill:#B37661;" d="M735.591,1252.346c-8.898,4.783-22.677,3.391-33.703-4.675
			c-11.026-8.067-38.426-40.769-13.68-62.758c24.779-21.987,46.279,3.151,47.783,7.372c0,0,3.038,15.284,5.153,26.06
			c0.558,2.738,1.04,5.173,1.4,7.008c0.044,0.299,0.123,0.568,0.17,0.835C744.372,1234.629,744.486,1247.596,735.591,1252.346z"/>
		<path style="fill:#F9E181;" d="M590.487,1447.5L590.487,1447.5c-13.231-6.321-18.884-22.319-12.563-35.55l47.516-99.452
			c6.321-13.231,22.319-18.884,35.549-12.563h0c13.231,6.322,18.884,22.319,12.562,35.55l-47.516,99.452
			C619.715,1448.168,603.718,1453.822,590.487,1447.5z"/>
		<polygon style="fill:#322A28;" points="677.624,1901.183 697.322,1904.656 700.828,1892.163 709.315,1906.771 755.786,1914.965 
			726.471,1877.396 684.858,1869.362 		"/>
		
			<line style="fill:none;stroke:#FFF1F0;stroke-width:1.578;stroke-miterlimit:10;" x1="713.341" y1="1883.359" x2="731.932" y2="1886.577"/>
		<path style="fill:#332B27;" d="M706.958,1176.01c0,0,25.499-3.749,33.13,19.956l-12.76,2.944c0,0-1.298-8.366-8.426-10.845
			c0,0,5.705,5.539,5.266,12.046l-14.643,4.164c0,0-2.283-8.928-2.128-12.646c0,0-2.113,8.916-1.339,13.874l-9.974,4.765
			c0,0,1.591,8.436-1.662,12.154c-3.253,3.718-5.887,18.182-5.887,18.182s-16.268-27.904-13.17-38.284
			C678.465,1191.938,684.325,1175.111,706.958,1176.01z"/>
		
			<line style="fill:none;stroke:#FFF1F0;stroke-width:1.578;stroke-miterlimit:10;" x1="716.705" y1="1890.555" x2="735.296" y2="1893.772"/>
		<polygon style="fill:#322A28;" points="889.074,1865.299 908.035,1858.929 905.139,1846.281 919.578,1855.051 964.31,1840.024 
			920.598,1821.049 880.331,1834.32 		"/>
		
			<line style="fill:none;stroke:#FFF1F0;stroke-width:1.578;stroke-miterlimit:10;" x1="911.918" y1="1832.565" x2="929.784" y2="1826.5"/>
		
			<line style="fill:none;stroke:#FFF1F0;stroke-width:1.578;stroke-miterlimit:10;" x1="918.314" y1="1837.275" x2="936.18" y2="1831.211"/>
		<path style="fill:#B37661;" d="M694.054,1229.821c2.54,4.694,3.077,7.907-0.608,9.902c-3.685,1.995-9.491,0.86-12.032-3.834
			c-2.54-4.694-1.612-10.116,2.073-12.111C687.173,1221.784,691.514,1225.127,694.054,1229.821z"/>
		
			<path style="fill:none;stroke:#724638;stroke-width:0.6629;stroke-linecap:round;stroke-linejoin:round;stroke-miterlimit:10;" d="
			M683.644,1228.937c0,0,6.228-1.431,7.732,3.786c0,0-2.399-1.518-5.438-0.393"/>
		<path style="fill:#332B27;" d="M715.971,1218.428c0.353,2.032,1.705,3.493,3.02,3.265c1.314-0.229,2.093-2.061,1.74-4.093
			s-1.705-3.493-3.02-3.265C716.397,1214.564,715.618,1216.397,715.971,1218.428z"/>
		<path style="fill:#332B27;" d="M733.055,1213.832c0.353,2.032,1.705,3.493,3.02,3.265c1.314-0.229,2.093-2.061,1.74-4.093
			s-1.705-3.493-3.02-3.265C733.48,1209.968,732.701,1211.8,733.055,1213.832z"/>
		<path style="fill:#FFFFFF;" d="M726.634,1240.838c2.544,0.399,4.93-1.339,5.329-3.883l-9.212-1.446
			C722.352,1238.053,724.09,1240.439,726.634,1240.838z"/>
		<path style="fill:none;stroke:#332B27;stroke-width:0.9841;stroke-miterlimit:10;" d="M710.633,1215.151
			c0,0,3.198-5.773,8.27-4.768"/>
		<path style="fill:none;stroke:#332B27;stroke-width:0.9841;stroke-miterlimit:10;" d="M732.253,1207.126
			c0,0,2.867-1.068,6.579,1.592"/>
		<path style="fill:none;stroke:#332B27;stroke-width:0.9841;stroke-miterlimit:10;" d="M726.968,1215.191
			c0,0,1.984,10.026,8.106,10.23c0,0-1.582,2.037-3.814,3.151"/>
		<path style="fill:#A14C53;" d="M721.175,1228.918c-0.146,2.021-3.302,3.44-7.049,3.169s-6.665-2.129-6.519-4.151
			c0.146-2.021,3.302-3.44,7.049-3.169C718.403,1225.039,721.322,1226.897,721.175,1228.918z"/>
		<path style="fill:#A14C53;" d="M742.543,1225.353c-2.139,0.47-3.987,0.106-4.655-1.126c-0.87-1.609,0.558-4.071,3.254-5.882
			C741.701,1221.082,742.182,1223.518,742.543,1225.353z"/>
		<path style="fill:#B37661;" d="M782.861,1417.043c-6.398-14.74-0.988-31.422,12.023-37.07l118.629-33.727
			c3.708-1.993,7.869-4.435,11.069-6.876c7.438-5.675,29.459-18.71,31.313-15.525c1.853,3.186-11.424,15.175-9.549,15.874
			c1.875,0.699,13.669-5.822,18.476-9.001c4.807-3.179,14.015-11.654,17.181-10.5c3.166,1.155,2.724,6.098,2.724,6.098
			s3.117-3.664,5.029-1.277c1.912,2.388-1.562,9.277-1.562,9.277s1.527-2.217,2.981,0.94c1.454,3.156-7.232,11.63-7.232,11.63
			s2.237-0.96,3.014,1.585c0.777,2.545-11.864,12.414-22.869,16.384c-9.824,3.544-34.102,9.371-39.204,10.582l-106.732,58.138
			C805.141,1439.223,789.26,1431.783,782.861,1417.043z"/>
		
			<line style="fill:none;stroke:#332B27;stroke-width:1.3629;stroke-miterlimit:10;" x1="646.318" y1="1392.488" x2="662.144" y2="1359.364"/>
		<path style="fill:#088CFC;" d="M654.231,1752.284c2.039,20.802,69.816,19.071,119.749-18.303
			c49.933-37.374,135.472-3.087,143.859-80.178c8.387-77.091-160.616-59.372-164.899-52.03
			c-4.283,7.342-80.762,114.413-82.598,116.248c-1.836,1.835-14.378,20.955-14.378,20.955L654.231,1752.284z"/>
		<path style="fill:none;stroke:#FFFFFF;stroke-width:1.1225;stroke-miterlimit:10;" d="M694.884,1241.182
			c0.368,2.136-1.064,4.166-3.2,4.534c-2.136,0.368-4.166-1.064-4.534-3.2c-0.369-2.136,1.064-4.166,3.2-4.534
			C692.486,1237.613,694.516,1239.046,694.884,1241.182z"/>
		<path style="fill:none;stroke:#332B27;stroke-width:1.3629;stroke-miterlimit:10;" d="M763.137,1384.549
			c0,0,8.403-17.677,7.038-26.858c-1.365-9.181-8.844-33.988-9.831-41.606"/>
		<path style="fill:#B37661;" d="M522.659,1326.185l-5.669-11.817c0,0-8.97-10.874-11.772-15.163
			c-1.579-2.418-6.501-8.486-7.668-9.172c-0.924-0.543-3.359-0.004-3.456,1.041c-0.125,1.357,2.835,8.44,3.94,11.237
			c1.051,2.66,4.202,10.638,4.202,10.638s-17.63-12.561-23.293-17.103c-3.187-2.557-12.179-10.418-14.104-8.317
			c-1.466,1.601,6.838,10.67,9.65,13.801c2.585,2.878,10.26,11.584,10.26,11.584s-12.473-10.221-16.631-13.628
			c-3.025-2.479-11.113-11.003-13.333-8.711c-2.198,2.269,6.379,10.087,8.949,13.015c3.627,4.133,14.51,16.532,14.51,16.532
			s-13.291-10.396-17.721-13.861c-2.452-1.918-9.013-8.579-10.942-6.295c-1.965,2.327,5.518,8.181,7.744,10.439
			c3.814,3.869,15.256,15.476,15.256,15.476s-9.81-7.251-13.079-9.668c-1.397-1.033-5.658-3.985-6.63-2.584
			c-1.323,1.907,4.132,6.318,5.797,7.995l13.765,13.866c1.114,1.122,2.352,2.106,3.686,2.929l24.07,16L522.659,1326.185z"/>
		<path style="fill:#B37661;" d="M621.405,1441.409c-8.903,9.267-23.173,10.584-33.597,3.734l0,0l-87.618-90.724l22.469-28.235
			l100.701,75.705C633.815,1411.949,631.465,1430.954,621.405,1441.409z"/>
		<path style="fill:#B37661;" d="M808.289,1670.823c-1.815,6.308-7.079,20.42-14.022,38.435
			c-23.732,61.351-67.794,168.17-67.794,168.17l-41.612-8.032c0,0,8.849-73.421,15.565-127.874
			c1.497-11.798,2.859-22.689,3.993-31.764c3.358-26.637,11.799-56.495,23.324-79.683c15.02-30.176,35.258-49.008,56.314-34.578
			c10.301,7.033,17.38,13.795,22.053,20.51C818.363,1633.613,814.097,1650.766,808.289,1670.823z"/>
		<path style="fill:#B37661;" d="M920.599,1821.068l-40.205,13.205c0,0-29.359-84.176-47.374-136.315
			c-1.952-5.627-3.767-10.891-5.4-15.61c-7.169-20.874-12.207-45.287-13.659-67.749c-2.632-40.204,6.217-74.101,34.896-69.927
			c44.742,6.534,49.915,28.542,54.906,56.994c0.136,0.862,0.318,1.86,0.454,2.995c1.271,8.758,2.813,25.684,4.492,46.331
			C914.109,1716.927,920.599,1821.068,920.599,1821.068z"/>
		<path style="fill:#824C3A;" d="M808.289,1670.823c-1.815,6.308-7.079,20.42-14.022,38.435
			c-30.086-1.225-76.008,22.553-93.841,32.264c1.497-11.798,2.859-22.689,3.993-31.764c3.358-26.637,11.799-56.495,23.324-79.683
			l78.367-14.067C818.363,1633.613,814.097,1650.766,808.289,1670.823z"/>
		<path style="fill:#824C3A;" d="M908.71,1650.993c-35.213-3.086-67.023,35.44-75.69,46.966c-1.952-5.627-3.767-10.891-5.4-15.61
			c-7.169-20.874-12.207-45.287-13.659-67.749l85.491-15.292c0,0,1.906,2.042,4.765,5.354
			C905.488,1613.42,907.031,1630.346,908.71,1650.993z"/>
		<path style="fill:#2EC6FC;" d="M757.356,1465.835c0,0,115.685,67.091,139.059,99.84c23.375,32.749,21.899,84.433,21.899,84.433
			s-17.922-24.473-69.928,9.789c-52.006,34.263-91.663,54.619-145.56,62.49c-53.898,7.871-48.594,29.897-48.594,29.897
			s-6.127-50.749,16.723-99.117s-36.925-108.906-40.795-137.969c-3.869-29.062,15.384-49.363,15.384-49.363H757.356z"/>
		<path style="fill:none;stroke:#FFFFFF;stroke-width:1.3629;stroke-miterlimit:10;" d="M813.961,1642.758
			c0,0,6.892-43.432-10.239-78.307c-17.131-34.875-63.279-64.243-72.632-89.328"/>
		<path style="fill:#FFFFFF;" d="M724.337,1485.831c0,1.943-1.575,3.518-3.518,3.518c-1.943,0-3.518-1.575-3.518-3.518
			s1.575-3.518,3.518-3.518C722.762,1482.313,724.337,1483.888,724.337,1485.831z"/>
		<path style="fill:#FFFFFF;" d="M738.126,1502.044c0,1.943-1.575,3.518-3.518,3.518c-1.943,0-3.518-1.575-3.518-3.518
			s1.575-3.518,3.518-3.518C736.551,1498.526,738.126,1500.101,738.126,1502.044z"/>
		<path style="fill:#FFFFFF;" d="M756.464,1525.294c0,1.943-1.575,3.518-3.518,3.518c-1.943,0-3.518-1.575-3.518-3.518
			s1.575-3.518,3.518-3.518C754.889,1521.776,756.464,1523.351,756.464,1525.294z"/>
		<path style="fill:#FFFFFF;" d="M776.729,1547.843c0,1.943-1.575,3.518-3.518,3.518c-1.943,0-3.518-1.575-3.518-3.518
			c0-1.943,1.575-3.518,3.518-3.518C775.153,1544.324,776.729,1545.9,776.729,1547.843z"/>
		<path style="fill:#FFFFFF;" d="M797.225,1575.987c0,1.943-1.575,3.518-3.518,3.518c-1.943,0-3.518-1.575-3.518-3.518
			s1.575-3.518,3.518-3.518C795.65,1572.469,797.225,1574.044,797.225,1575.987z"/>
		<path style="fill:#FFFFFF;" d="M800.743,1604.244c0,1.943-1.575,3.518-3.518,3.518c-1.943,0-3.518-1.575-3.518-3.518
			s1.575-3.518,3.518-3.518C799.168,1600.726,800.743,1602.301,800.743,1604.244z"/>
		<path style="fill:#FFFFFF;" d="M800.743,1637.283c0,1.943-1.575,3.518-3.518,3.518c-1.943,0-3.518-1.575-3.518-3.518
			s1.575-3.518,3.518-3.518C799.168,1633.765,800.743,1635.34,800.743,1637.283z"/>
		<path style="fill:#FFFFFF;" d="M793.707,1665.428c0,1.943-1.575,3.518-3.518,3.518c-1.943,0-3.518-1.575-3.518-3.518
			c0-1.943,1.575-3.518,3.518-3.518C792.132,1661.91,793.707,1663.485,793.707,1665.428z"/>
	</g>
	<g>
		<path style="fill:#E5F0F8;" d="M2057.874,887.894c-1.133,1.56-4.253,5.107-4.253,5.107s-0.996-3.969-4.116-4.964
			c-3.12-0.991-9.365-0.427-14.756-2.978c-5.386-2.556-7.942-7.378-7.942-7.378s-3.547,6.041,2.413,13.376
			c5.955,7.335,21.138,26.396,19.293,48.075h-48.942c0,0-19.578-34.642-5.391-63.864c14.187-29.222,46.529-32.285,46.529-32.285
			l-3.689,8.71l11.351,10.384c0,0,0.422,11.346,6.524,16.738C2060.994,884.205,2059.012,886.334,2057.874,887.894z"/>
		<path style="fill:#E5F0F8;" d="M2057.66,944.831c0,1.569-0.64,2.992-1.674,4.021c-1.029,1.034-2.451,1.674-4.021,1.674h-57.249
			c-3.13,0-5.695-2.56-5.695-5.695c0-1.569,0.64-2.992,1.674-4.026c1.034-1.034,2.456-1.674,4.021-1.674h57.249
			C2055.1,939.131,2057.66,941.696,2057.66,944.831z"/>
		<path style="fill:#E5F0F8;" d="M2061.221,955.812v26.463h-75.756v-26.463c0-2.906,2.376-5.287,5.282-5.287h65.187
			C2058.841,950.525,2061.221,952.906,2061.221,955.812z"/>
	</g>
	<g>
		<g>
			<ellipse style="fill:#FFFFFF;" cx="338.472" cy="1135.472" rx="17.036" ry="10.929"/>
		</g>
		<g>
			<ellipse style="fill:#FFFFFF;" cx="285.921" cy="1126.736" rx="13.618" ry="8.736"/>
		</g>
		<g>
			<polygon style="fill:#FFFFFF;" points="355.142,1135.472 347.676,1135.472 347.676,1073.15 299.128,1053.575 299.128,1126.736 
				291.662,1126.736 291.662,1042.512 355.142,1068.109 			"/>
		</g>
		<g>
			
				<rect x="319.668" y="1049.827" transform="matrix(0.383 -0.9238 0.9238 0.383 -798.2447 965.2014)" style="fill:#FFFFFF;" width="7.468" height="60.638"/>
		</g>
	</g>
	<path style="fill:#FFFFFF;" d="M340.741,1342.205c17.733,4.559,48.311,28.759,57.901,37.367l-0.961-16.304l-3.274-55.54
		l-6.412-71.598c-8.217,9.926-34.844,38.257-51.694,45.336c-11.796,4.976-28.984,5.994-38.371,6.157
		c-4.145,0.087-6.76-0.017-6.76-0.017l-0.015,0.047c-0.608,0.015-1.192,0.037-1.815,0.1c-8.159,0.583-15.328,4.132-20.385,9.354
		c0,0,0,0-0.008,0.024c-4.397,4.553-7.173,10.405-7.607,16.757l-5.584,0.41c-1.027,0.075-1.799,0.969-1.724,1.997l0.491,6.684
		c0.076,1.027,0.969,1.799,1.997,1.724l6.25-0.459c4.134,11.532,16.3,19.438,30.097,18.64l0.582,3.451h0l0.735,4.36l2.4-0.405
		l0.981,4.046l0,0l9.542,39.351l0,0l0.634,2.613l0.811,3.343l-1.469,0.356l1.631,6.726l24.688-5.986l-1.631-6.726l-1.469,0.356v0
		l0,0l0,0l-11.593-47.811l2.41-0.407l-0.752-4.458l0,0l-0.198-1.385C327.17,1340.187,334.552,1340.614,340.741,1342.205z"/>
</g>
</svg>
