<?xml version="1.0" standalone="no"?>
<!DOCTYPE svg PUBLIC "-//W3C//DTD SVG 20010904//EN"
 "http://www.w3.org/TR/2001/REC-SVG-20010904/DTD/svg10.dtd">
<svg version="1.0" xmlns="http://www.w3.org/2000/svg"
 width="7500.000000pt" height="5000.000000pt" viewBox="0 0 7500.000000 5000.000000"
 preserveAspectRatio="xMidYMid meet">

<g transform="translate(0.000000,5000.000000) scale(0.100000,-0.100000)"
fill="#000000" stroke="none">
<path d="M23555 32900 c-4 -6 -11 -7 -17 -4 -7 4 -8 2 -4 -5 6 -9 11 -9 22 0
14 11 18 19 10 19 -3 0 -8 -5 -11 -10z"/>
<path d="M23700 31780 c6 -11 13 -20 16 -20 2 0 0 9 -6 20 -6 11 -13 20 -16
20 -2 0 0 -9 6 -20z"/>
<path d="M20800 31625 c-85 -16 -229 -64 -305 -102 -201 -102 -435 -353 -701
-753 -193 -289 -378 -621 -551 -985 -350 -739 -572 -1440 -644 -2040 -16 -131
-16 -448 0 -553 13 -89 51 -231 79 -295 l17 -39 50 73 c63 93 217 254 312 325
225 169 463 268 798 330 267 49 313 59 371 81 117 45 240 155 301 269 90 168
173 614 173 923 0 104 -3 124 -29 192 -37 93 -51 201 -51 386 l0 143 34 0 c53
0 263 38 341 61 293 88 566 378 810 860 l84 166 56 -31 c89 -49 183 -124 226
-179 79 -99 176 -335 210 -512 9 -45 14 -139 14 -260 0 -163 -4 -213 -29 -350
-81 -462 -199 -764 -326 -833 -42 -23 -52 -24 -156 -18 l-111 6 -7 -92 c-10
-149 -7 -308 9 -382 23 -108 78 -208 160 -290 97 -99 165 -131 427 -205 363
-102 526 -167 681 -271 164 -109 209 -193 477 -877 l84 -213 35 27 c195 144
316 317 351 500 14 71 6 347 -10 363 -3 3 -15 37 -28 77 -12 39 -47 121 -77
181 -29 61 -52 113 -49 116 2 3 1 4 -2 1 -8 -5 -73 96 -71 108 1 5 -6 13 -15
18 -10 6 -18 16 -18 23 0 8 -7 17 -16 20 -10 4 -14 12 -10 23 4 10 4 14 0 10
-9 -9 -35 13 -28 24 3 5 1 9 -4 9 -15 0 -83 93 -78 107 3 7 -1 10 -8 7 -23 -9
-263 306 -250 328 4 7 3 10 -1 5 -10 -8 -66 73 -59 85 3 4 1 8 -4 8 -21 0
-169 331 -157 351 4 5 2 9 -4 9 -10 0 -26 59 -19 71 2 3 -2 12 -8 20 -11 13
-38 130 -49 214 -22 164 -26 261 -23 600 3 330 -3 479 -18 494 -2 2 2 11 9 19
6 9 7 13 1 10 -6 -5 -20 39 -38 119 -15 69 -43 178 -63 242 -20 64 -36 124
-37 133 0 9 -3 15 -6 13 -3 -2 -16 24 -29 58 -13 34 -41 96 -62 138 -21 42
-35 79 -32 83 4 3 1 6 -5 6 -7 0 -12 4 -12 10 0 5 -14 32 -31 60 -17 27 -27
55 -23 61 4 8 3 9 -5 5 -6 -4 -14 0 -19 11 -4 10 -23 41 -44 68 -20 28 -37 53
-38 57 -1 4 -19 26 -41 50 -21 24 -37 48 -35 55 3 7 -1 10 -8 7 -6 -2 -27 15
-46 38 -19 24 -38 45 -43 47 -5 2 -30 22 -57 45 -79 68 -110 94 -118 98 -50
22 -139 84 -135 94 2 6 0 15 -6 19 -7 4 -8 0 -5 -10 5 -13 2 -15 -22 -9 -16 4
-53 18 -82 31 -140 61 -386 100 -567 89 -80 -5 -119 -2 -195 14 -112 23 -276
25 -390 5z"/>
<path d="M55050 31449 c-185 -14 -388 -39 -494 -60 -386 -80 -612 -250 -657
-494 -28 -150 30 -349 139 -484 54 -66 85 -81 169 -81 92 0 165 17 388 90 229
75 322 94 434 88 176 -9 263 -88 407 -372 63 -122 85 -155 117 -173 40 -22 59
-14 121 51 95 99 162 110 203 33 18 -33 21 -107 12 -327 -3 -79 -2 -89 28
-145 29 -56 115 -179 133 -190 4 -2 59 54 123 126 125 141 172 218 227 374 75
216 140 523 160 770 13 153 6 261 -23 328 -23 55 -19 62 38 75 l40 9 -28 12
c-16 6 -41 11 -57 11 -28 0 -40 15 -40 48 0 31 -57 137 -91 169 -19 18 -52 39
-74 48 l-40 17 31 -34 c29 -30 54 -69 54 -82 0 -3 -22 10 -48 29 -113 81 -280
134 -502 160 -138 16 -571 18 -770 4z"/>
<path d="M23875 30560 c-3 -5 -1 -10 4 -10 6 0 11 5 11 10 0 6 -2 10 -4 10 -3
0 -8 -4 -11 -10z"/>
<path d="M23976 29948 c3 -5 10 -6 15 -3 13 9 11 12 -6 12 -8 0 -12 -4 -9 -9z"/>
<path d="M23100 28600 c-9 -6 -10 -10 -3 -10 6 0 15 5 18 10 8 12 4 12 -15 0z"/>
<path d="M56128 28356 c-79 -32 -237 -126 -458 -270 -102 -66 -223 -140 -270
-164 -173 -87 -369 -132 -576 -132 l-122 0 -124 -142 c-69 -79 -147 -169 -174
-201 l-49 -58 -230 -78 c-561 -190 -1122 -413 -2088 -828 -467 -201 -418 -190
-656 -148 -298 53 -1260 275 -1891 436 -186 48 -284 68 -305 64 -47 -9 -134
-75 -195 -147 -76 -90 -196 -327 -223 -439 -8 -30 -49 -8 383 -206 921 -423
1657 -737 1924 -822 90 -29 118 -33 305 -43 397 -20 1757 8 2287 48 l81 6 7
-203 c31 -929 143 -2211 312 -3554 64 -517 166 -1232 197 -1395 29 -151 18
-146 265 -131 103 6 282 13 397 16 947 26 1469 117 2088 366 277 112 685 320
967 494 109 68 235 185 246 230 5 21 -27 203 -110 620 -151 763 -222 1191
-290 1730 -43 338 -83 755 -73 755 11 0 732 -441 767 -469 19 -16 48 -50 64
-77 41 -69 164 -341 296 -654 93 -221 527 -1302 604 -1505 21 -55 27 -62 82
-91 81 -44 167 -58 306 -51 120 6 221 24 330 59 59 19 67 24 63 42 -3 12 -43
221 -90 466 -238 1255 -394 1940 -477 2105 -67 133 -422 639 -828 1180 -626
835 -1201 1526 -1656 1995 l-141 145 -80 160 c-153 306 -284 497 -468 681
-125 126 -272 234 -316 234 -13 0 -50 -11 -81 -24z"/>
<path d="M24269 27953 c-13 -16 -12 -17 4 -4 16 13 21 21 13 21 -2 0 -10 -8
-17 -17z"/>
<path d="M24278 27878 c9 -9 9 -15 -1 -27 -11 -14 -10 -14 6 -2 13 10 15 17 6
27 -6 8 -14 14 -17 14 -3 0 -1 -5 6 -12z"/>
<path d="M24490 26376 c0 -2 8 -10 18 -17 15 -13 16 -12 3 4 -13 16 -21 21
-21 13z"/>
<path d="M24495 26309 c-4 -6 -5 -12 -2 -15 2 -3 7 2 10 11 7 17 1 20 -8 4z"/>
<path d="M24515 26241 c-3 -5 -2 -12 3 -15 5 -3 9 1 9 9 0 17 -3 19 -12 6z"/>
<path d="M46127 26128 l-127 -93 171 -3 c95 -1 174 0 176 2 16 16 -62 186 -85
186 -5 0 -65 -42 -135 -92z"/>
<path d="M23881 25551 c-8 -5 -9 -11 -3 -15 5 -3 12 1 16 9 6 17 6 18 -13 6z"/>
<path d="M24661 25286 c-9 -11 -9 -16 1 -22 7 -4 10 -4 6 1 -4 4 -3 14 3 22 6
7 9 13 6 13 -2 0 -10 -6 -16 -14z"/>
<path d="M24406 24627 c3 -10 9 -15 12 -12 3 3 0 11 -7 18 -10 9 -11 8 -5 -6z"/>
<path d="M24605 23311 c-3 -5 -2 -12 3 -15 5 -3 9 1 9 9 0 17 -3 19 -12 6z"/>
<path d="M22675 23264 c-60 -47 -258 -128 -376 -154 l-57 -13 33 -43 c51 -67
70 -127 70 -224 0 -73 -4 -93 -28 -142 -97 -198 -315 -241 -459 -91 -46 48
-84 131 -93 204 -8 64 13 162 45 214 11 18 20 35 20 37 0 5 -400 22 -526 23
l-60 0 -178 -204 c-132 -151 -175 -207 -170 -220 27 -61 6 -170 -61 -306 -72
-146 -175 -245 -256 -245 -19 0 -58 11 -88 25 -30 14 -55 24 -56 23 -1 -2
-107 -124 -237 -273 -205 -236 -470 -541 -559 -643 -16 -18 -33 -31 -38 -27
-6 3 -142 120 -302 260 -161 140 -296 255 -300 255 -18 0 -161 -346 -224 -544
-85 -262 -108 -433 -140 -1031 -8 -159 -19 -348 -25 -420 -6 -71 -15 -263 -20
-425 -20 -605 -75 -1685 -115 -2265 -54 -775 -99 -1139 -180 -1457 -42 -163
-76 -284 -210 -728 -150 -498 -348 -1265 -381 -1475 -6 -39 -37 -194 -68 -340
-70 -324 -173 -1098 -197 -1465 -5 -85 -14 -214 -19 -286 -5 -72 -16 -324 -25
-560 l-17 -429 -56 -75 c-32 -41 -93 -113 -137 -160 -177 -188 -275 -366 -275
-501 0 -109 59 -210 234 -402 196 -216 240 -287 275 -449 36 -166 79 -267 148
-348 l35 -40 -6520 0 -6519 0 -27 -21 c-22 -17 -26 -28 -26 -69 0 -41 4 -52
26 -69 l27 -21 33279 0 33279 0 24 25 c35 34 35 96 0 130 l-24 25 -5348 0
-5348 0 44 22 c118 58 213 209 256 406 38 175 82 247 285 467 108 117 175 220
191 291 32 145 -59 335 -266 554 -39 41 -83 92 -99 112 l-28 37 -51 -39 c-102
-76 -343 -205 -584 -312 l-81 -36 -5 -368 c-4 -343 -5 -375 -26 -449 -34 -121
-84 -217 -151 -288 -67 -72 -127 -108 -219 -132 -36 -9 -81 -25 -102 -35 -76
-39 -112 -117 -91 -194 l10 -36 -1710 0 -1710 0 16 25 c51 78 81 350 70 628
l-7 168 -61 -8 c-90 -11 -310 -8 -401 6 -102 16 -272 72 -351 114 l-61 33 -18
-48 c-24 -68 -101 -172 -180 -247 -187 -174 -469 -300 -830 -370 -137 -26
-205 -54 -264 -107 -51 -46 -101 -130 -101 -171 l0 -23 -5652 0 c-22415 0
-21718 -1 -21788 16 -91 22 -234 94 -306 153 -100 83 -186 205 -230 325 l-22
61 -951 3 c-523 1 -951 0 -951 -2 0 -6 42 -79 50 -86 3 -3 25 -31 49 -62 55
-73 152 -164 233 -220 123 -84 235 -132 403 -172 54 -13 -30 -15 -810 -15
l-871 -1 -12 45 c-7 25 -12 48 -11 51 0 4 -3 10 -8 13 -17 11 -63 78 -58 83 3
2 -1 5 -8 5 -6 0 -34 15 -62 34 -27 18 -54 34 -60 35 -5 1 -23 8 -40 14 -16 7
-37 14 -45 15 -8 1 -42 8 -75 15 -33 7 -67 14 -75 15 -79 12 -179 38 -302 81
-116 40 -157 60 -176 83 -8 9 -11 10 -7 3 9 -17 1 -15 -46 8 -22 12 -37 25
-34 30 4 6 -1 7 -11 3 -12 -4 -15 -3 -10 5 5 8 1 10 -10 5 -14 -5 -16 -3 -10
13 5 15 4 16 -5 7 -9 -9 -24 -3 -65 24 -30 20 -54 40 -54 44 0 5 -4 8 -9 6
-15 -4 -127 99 -175 162 -47 61 -96 151 -116 215 -11 35 -11 40 6 49 11 6 20
10 22 9 1 -1 10 6 20 16 11 9 46 36 78 59 33 24 84 68 114 99 30 31 66 68 80
81 14 14 25 30 25 36 1 7 14 38 29 71 27 55 58 198 73 336 3 30 9 56 13 58 4
2 6 11 4 20 -3 9 9 112 26 227 17 116 34 233 37 260 3 28 9 51 14 53 4 2 6 9
3 16 -4 11 17 192 30 263 2 10 7 41 10 68 20 154 28 212 33 225 4 8 5 18 5 22
-1 5 3 41 9 80 6 40 13 93 15 118 3 25 14 104 25 175 23 143 25 162 27 218 1
22 6 36 12 32 6 -3 7 1 4 9 -10 26 16 187 30 179 8 -4 8 -3 0 6 -7 8 -4 58 13
174 13 89 25 182 28 207 3 25 7 56 10 70 3 14 7 45 10 70 3 25 8 63 12 85 3
22 7 47 8 55 1 8 5 33 8 55 4 22 9 63 12 90 5 46 17 129 21 148 1 4 2 23 3 43
1 28 5 35 16 30 12 -4 13 -2 4 13 -9 13 -7 45 4 127 9 60 19 137 23 172 4 34
10 62 15 62 5 0 6 6 3 14 -3 8 0 24 6 36 7 13 8 20 3 17 -14 -9 1 89 16 107 7
9 18 13 24 9 6 -3 7 -1 3 6 -6 9 -11 9 -22 0 -17 -14 -17 -18 2 106 8 55 16
114 18 131 2 17 6 49 10 70 3 21 8 57 11 79 18 146 57 433 60 445 4 16 11 65
20 145 3 27 10 54 15 59 5 5 7 21 4 35 -3 14 4 96 16 181 12 85 23 171 26 190
2 19 7 51 10 70 4 19 8 46 9 60 7 93 19 169 25 165 5 -3 6 3 3 13 -2 11 1 54
7 98 6 43 15 111 20 149 5 39 12 81 14 95 3 14 7 50 11 80 3 30 9 58 15 64 5
5 7 21 4 35 -8 36 14 183 27 192 7 4 7 8 2 10 -12 5 27 322 39 327 4 2 5 8 2
14 -7 10 56 520 65 528 4 3 7 25 8 50 3 59 2 58 18 180 8 58 16 125 20 150 57
473 80 646 85 660 1 3 2 12 1 22 -1 9 5 69 14 135 9 65 18 141 21 168 2 28 7
66 10 85 4 19 8 55 10 80 2 25 16 146 30 270 19 164 31 230 43 245 15 19 15
19 -3 5 -11 -8 -17 -10 -13 -4 3 6 9 42 12 80 6 73 43 435 50 494 3 19 6 54 7
78 1 23 5 42 8 42 3 0 4 16 2 35 -3 25 0 35 9 35 10 0 10 3 3 8 -12 7 -7 225
5 218 3 -2 6 22 6 54 0 32 -3 56 -7 53 -5 -2 -9 21 -10 51 -2 85 -4 100 -33
256 -15 80 -28 156 -30 170 -1 14 -5 32 -8 40 -11 26 -61 254 -61 278 -1 12
-4 22 -7 22 -4 0 -11 27 -33 140 -2 8 -6 22 -9 30 -4 8 -20 69 -37 135 -17 66
-38 144 -46 172 -9 29 -13 57 -10 62 4 5 2 11 -3 13 -4 1 -29 80 -55 173 -25
94 -53 193 -61 220 -8 28 -15 59 -17 70 -2 11 -5 22 -9 25 -3 3 -15 41 -28 85
-47 162 -101 343 -141 472 l-40 132 30 90 c17 49 32 105 35 123 8 59 10 226 3
221 -5 -2 -8 6 -8 18 0 26 -21 89 -30 89 -3 0 -14 -8 -25 -16z m-2250 -9484
c35 -943 116 -2438 176 -3225 72 -949 74 -981 69 -1170 -15 -595 -3 -940 35
-1032 l14 -33 -995 0 -994 0 0 29 c0 68 -72 126 -201 162 -39 11 -90 29 -113
41 -150 75 -263 259 -300 487 -10 61 -16 209 -19 503 l-4 418 36 6 c105 17
189 60 259 132 49 50 75 96 240 431 749 1525 1311 2733 1661 3573 48 117 92
224 97 238 13 39 21 -78 39 -560z"/>
<path d="M21985 23044 c-47 -24 -72 -52 -95 -107 -44 -102 -8 -248 73 -298 73
-44 157 -33 217 30 84 88 81 262 -6 343 -53 49 -131 62 -189 32z"/>
<path d="M25256 21228 c3 -5 10 -6 15 -3 13 9 11 12 -6 12 -8 0 -12 -4 -9 -9z"/>
<path d="M25294 20868 c-4 -7 -4 -10 1 -6 4 4 15 2 24 -5 14 -11 14 -10 2 6
-16 20 -18 21 -27 5z"/>
<path d="M44789 20688 c-5 -18 -6 -38 -1 -34 7 8 12 36 6 36 -2 0 -4 -1 -5 -2z"/>
<path d="M45877 20199 c7 -7 15 -10 18 -7 3 3 -2 9 -12 12 -14 6 -15 5 -6 -5z"/>
<path d="M23255 19179 c-4 -6 -5 -12 -2 -15 2 -3 7 2 10 11 7 17 1 20 -8 4z"/>
<path d="M25566 19162 c-3 -5 1 -9 9 -9 8 0 12 4 9 9 -3 4 -7 8 -9 8 -2 0 -6
-4 -9 -8z"/>
<path d="M25780 17526 c0 -2 8 -10 18 -17 15 -13 16 -12 3 4 -13 16 -21 21
-21 13z"/>
<path d="M25949 16513 c-13 -16 -12 -17 4 -4 9 7 17 15 17 17 0 8 -8 3 -21
-13z"/>
<path d="M41554 15862 c4 -3 14 -7 22 -8 9 -1 13 0 10 4 -4 3 -14 7 -22 8 -9
1 -13 0 -10 -4z"/>
<path d="M22766 15368 c3 -5 10 -6 15 -3 13 9 11 12 -6 12 -8 0 -12 -4 -9 -9z"/>
<path d="M31523 14565 c0 -8 4 -12 9 -9 5 3 6 10 3 15 -9 13 -12 11 -12 -6z"/>
<path d="M40526 14307 c3 -10 9 -15 12 -12 3 3 0 11 -7 18 -10 9 -11 8 -5 -6z"/>
<path d="M32475 14210 c10 -11 20 -20 23 -20 3 0 -3 9 -13 20 -10 11 -20 20
-23 20 -3 0 3 -9 13 -20z"/>
<path d="M26574 12148 c-4 -7 -4 -10 1 -6 4 4 15 2 24 -5 14 -11 14 -10 2 6
-16 20 -18 21 -27 5z"/>
<path d="M22286 11848 c3 -5 10 -6 15 -3 13 9 11 12 -6 12 -8 0 -12 -4 -9 -9z"/>
<path d="M26645 11811 c-6 -11 13 -26 22 -17 4 3 1 6 -6 6 -7 0 -9 5 -6 10 3
6 4 10 1 10 -3 0 -7 -4 -11 -9z"/>
<path d="M25314 10667 c-2 -7 -3 -51 -2 -98 l3 -84 285 0 285 0 0 95 0 95
-283 3 c-226 2 -284 0 -288 -11z"/>
<path d="M43079 10083 c-13 -16 -12 -17 4 -4 16 13 21 21 13 21 -2 0 -10 -8
-17 -17z"/>
<path d="M43766 9898 c3 -5 10 -6 15 -3 13 9 11 12 -6 12 -8 0 -12 -4 -9 -9z"/>
<path d="M43973 9785 c0 -8 4 -12 9 -9 5 3 6 10 3 15 -9 13 -12 11 -12 -6z"/>
<path d="M43126 9782 c-3 -5 1 -9 9 -9 8 0 12 4 9 9 -3 4 -7 8 -9 8 -2 0 -6
-4 -9 -8z"/>
<path d="M43783 9615 c0 -8 4 -12 9 -9 5 3 6 10 3 15 -9 13 -12 11 -12 -6z"/>
<path d="M44040 9106 c0 -2 8 -10 18 -17 15 -13 16 -12 3 4 -13 16 -21 21 -21
13z"/>
<path d="M22200 8780 c-9 -6 -10 -10 -3 -10 6 0 15 5 18 10 8 12 4 12 -15 0z"/>
<path d="M22515 8709 c-4 -6 -5 -12 -2 -15 2 -3 7 2 10 11 7 17 1 20 -8 4z"/>
<path d="M43075 8510 c-3 -6 1 -7 9 -4 18 7 21 14 7 14 -6 0 -13 -4 -16 -10z"/>
<path d="M42920 8456 c0 -2 8 -10 18 -17 15 -13 16 -12 3 4 -13 16 -21 21 -21
13z"/>
</g>
</svg>
