<?xml version="1.0" encoding="utf-8"?>
<!-- Generator: Adobe Illustrator 27.5.0, SVG Export Plug-In . SVG Version: 6.00 Build 0)  -->
<svg version="1.1" xmlns="http://www.w3.org/2000/svg" xmlns:xlink="http://www.w3.org/1999/xlink" x="0px" y="0px"
	 viewBox="0 0 500 500" style="enable-background:new 0 0 500 500;" xml:space="preserve">
<g id="BACKGROUND">
	<g>
		<rect style="fill:#FFFFFF;" width="500" height="500"/>
		<g>
			<path style="fill:#BFE9F7;" d="M406.679,349.119c32.35-32.748,46.827-81.638,39.35-130.133
				c-1.723-11.175-4.572-22.18-8.547-32.767c-5.408-14.403-12.661-28.121-21.58-40.66c-5.393-7.582-11.349-14.766-17.811-21.46
				c-34.154-35.377-81.136-57.102-129.729-64.637c-51.863-8.042-107.746,0.357-150.31,31.062
				c-28.702,20.705-50.336,51.029-60.574,84.907c-15.532,51.393-3.207,110.802,33.09,150.363
				c24.218,26.396,57.456,43.324,92.046,52.641c37.798,10.181,78.055,16.311,117.251,13.482
				C337.715,389.185,379.345,376.789,406.679,349.119z"/>
			<g>
				<path style="fill:#BFE9F7;" d="M94.384,319.821c3.221-0.045,6.532-0.107,9.511-1.334c2.979-1.227,5.591-3.905,5.753-7.123
					c0.181-3.586-2.89-6.82-6.412-7.52c-3.522-0.7-7.219,0.753-9.919,3.12c-1.449-3.736-6.777-5.266-9.987-2.868
					c-1.077-6.268-7.035-11.328-13.395-11.377c-6.36-0.049-12.394,4.92-13.567,11.17c-4.012-2.027-9.486-0.343-11.665,3.589
					c-3.149-2.886-9.229-0.71-9.832,3.519c-2.387-0.82-4.875-1.582-7.389-1.366c-5.282,0.453-8.64,6.704-3.859,10.231
					c4.003,2.954,14.611,0.74,19.153,0.677C59.979,320.3,77.181,320.061,94.384,319.821z"/>
				<path style="fill:#FFFFFF;" d="M380.099,159.39c3.221-0.045,6.532-0.107,9.511-1.334c2.979-1.227,5.591-3.905,5.753-7.122
					c0.181-3.586-2.89-6.82-6.412-7.52c-3.522-0.7-7.219,0.753-9.919,3.12c-1.448-3.736-6.777-5.266-9.987-2.868
					c-1.077-6.268-7.035-11.328-13.395-11.377c-6.36-0.049-12.394,4.92-13.567,11.17c-4.012-2.027-9.486-0.343-11.665,3.589
					c-3.15-2.886-9.229-0.71-9.832,3.519c-2.387-0.82-4.875-1.582-7.389-1.366c-5.282,0.453-8.64,6.704-3.86,10.231
					c4.003,2.953,14.611,0.74,19.153,0.677C345.693,159.869,362.896,159.63,380.099,159.39z"/>
				<path style="fill:#FFFFFF;" d="M137.704,120.509c1.904-0.026,3.861-0.063,5.622-0.788c1.761-0.725,3.305-2.308,3.4-4.21
					c0.107-2.12-1.708-4.031-3.79-4.445c-2.082-0.414-4.267,0.445-5.863,1.844c-0.856-2.208-4.006-3.112-5.903-1.695
					c-0.637-3.705-4.158-6.696-7.917-6.725s-7.326,2.908-8.02,6.603c-2.372-1.198-5.607-0.203-6.895,2.122
					c-1.862-1.706-5.455-0.42-5.812,2.08c-1.411-0.485-2.881-0.935-4.368-0.807c-3.122,0.268-5.107,3.963-2.281,6.047
					c2.366,1.746,8.636,0.437,11.321,0.4C117.367,120.792,127.536,120.65,137.704,120.509z"/>
			</g>
		</g>
	</g>
</g>
<g id="OBJECTS">
	<g>
		<g>
			<g>
				
					<line style="fill:none;stroke:#173756;stroke-width:1.0215;stroke-miterlimit:10;" x1="231.711" y1="163.089" x2="230.285" y2="162.844"/>
				
					<line style="fill:none;stroke:#173756;stroke-width:1.0215;stroke-miterlimit:10;stroke-dasharray:2.8574,2.8574;" x1="227.468" y1="162.361" x2="178.184" y2="153.905"/>
				<polyline style="fill:none;stroke:#173756;stroke-width:1.0215;stroke-miterlimit:10;" points="176.776,153.663 
					175.349,153.419 174.891,154.792 				"/>
				
					<line style="fill:none;stroke:#173756;stroke-width:1.0215;stroke-miterlimit:10;stroke-dasharray:2.9317,2.9317;" x1="173.965" y1="157.574" x2="150.354" y2="228.507"/>
				<polyline style="fill:none;stroke:#173756;stroke-width:1.0215;stroke-miterlimit:10;" points="149.891,229.898 
					149.433,231.271 150.862,231.508 				"/>
				
					<line style="fill:none;stroke:#173756;stroke-width:1.0215;stroke-miterlimit:10;stroke-dasharray:2.2812,2.2812;" x1="153.112" y1="231.881" x2="160.989" y2="233.187"/>
				
					<line style="fill:none;stroke:#173756;stroke-width:1.0215;stroke-miterlimit:10;" x1="162.114" y1="233.373" x2="163.542" y2="233.61"/>
			</g>
		</g>
		<g>
			<g>
				
					<line style="fill:none;stroke:#173756;stroke-width:1.0215;stroke-miterlimit:10;" x1="249.238" y1="170.368" x2="250.666" y2="170.605"/>
				
					<line style="fill:none;stroke:#173756;stroke-width:1.0215;stroke-miterlimit:10;stroke-dasharray:2.9045,2.9045;" x1="253.531" y1="171.08" x2="464.139" y2="205.989"/>
				<polyline style="fill:none;stroke:#173756;stroke-width:1.0215;stroke-miterlimit:10;" points="465.572,206.226 467,206.463 
					466.549,207.839 				"/>
				
					<line style="fill:none;stroke:#173756;stroke-width:1.0215;stroke-miterlimit:10;stroke-dasharray:2.9364,2.9364;" x1="465.635" y1="210.629" x2="451.462" y2="253.881"/>
				
					<line style="fill:none;stroke:#173756;stroke-width:1.0215;stroke-miterlimit:10;" x1="451.005" y1="255.276" x2="450.554" y2="256.652"/>
			</g>
		</g>
		<g>
			<g>
				
					<line style="fill:none;stroke:#173756;stroke-width:1.0215;stroke-miterlimit:10;" x1="231.498" y1="239.091" x2="232.926" y2="239.328"/>
				
					<line style="fill:none;stroke:#173756;stroke-width:1.0215;stroke-miterlimit:10;stroke-dasharray:2.398,2.398;" x1="235.292" y1="239.72" x2="243.572" y2="241.092"/>
				<polyline style="fill:none;stroke:#173756;stroke-width:1.0215;stroke-miterlimit:10;" points="244.755,241.288 
					246.183,241.525 246.64,240.151 				"/>
				
					<line style="fill:none;stroke:#173756;stroke-width:1.0215;stroke-miterlimit:10;stroke-dasharray:2.7787,2.7787;" x1="247.518" y1="237.515" x2="252.345" y2="223.014"/>
				<polyline style="fill:none;stroke:#173756;stroke-width:1.0215;stroke-miterlimit:10;" points="252.784,221.696 
					253.241,220.322 254.669,220.559 				"/>
				
					<line style="fill:none;stroke:#173756;stroke-width:1.0215;stroke-miterlimit:10;stroke-dasharray:2.9651,2.9651;" x1="257.594" y1="221.044" x2="367.288" y2="239.229"/>
				
					<line style="fill:none;stroke:#173756;stroke-width:1.0215;stroke-miterlimit:10;" x1="368.751" y1="239.472" x2="370.18" y2="239.709"/>
			</g>
		</g>
		<g>
			<g>
				
					<line style="fill:none;stroke:#173756;stroke-width:1.0215;stroke-miterlimit:10;" x1="114.536" y1="309.572" x2="114.993" y2="308.199"/>
				<polyline style="fill:none;stroke:#173756;stroke-width:1.0215;stroke-miterlimit:10;" points="116.203,304.562 
					116.661,303.189 118.089,303.425 				"/>
				
					<line style="fill:none;stroke:#173756;stroke-width:1.0215;stroke-miterlimit:10;stroke-dasharray:2.8934,2.8934;" x1="120.944" y1="303.898" x2="170.897" y2="312.178"/>
				
					<line style="fill:none;stroke:#173756;stroke-width:1.0215;stroke-miterlimit:10;" x1="172.324" y1="312.415" x2="173.753" y2="312.652"/>
			</g>
		</g>
	</g>
	<g>
		<g>
			<path style="fill:#FFFFFF;" d="M373.956,265.706c-3.746,0.096-3.901-5.726-0.149-5.822
				C377.553,259.788,377.708,265.61,373.956,265.706L373.956,265.706z"/>
		</g>
		<g>
			<path style="fill:#452C6D;" d="M249.062,186.137c-3.746,0.096-3.901-5.726-0.149-5.822
				C252.66,180.219,252.815,186.041,249.062,186.137L249.062,186.137z"/>
		</g>
		<g>
			<path style="fill:#452C6D;" d="M150.045,283.664c-1.873,0.048-1.95-2.863-0.074-2.911
				C151.844,280.705,151.922,283.616,150.045,283.664L150.045,283.664z"/>
		</g>
		<g>
			<path style="fill:#452C6D;" d="M292.482,205.772c-1.873,0.048-1.95-2.863-0.074-2.911
				C294.281,202.813,294.358,205.724,292.482,205.772L292.482,205.772z"/>
		</g>
		<g>
			<path style="fill:#452C6D;" d="M412.544,358.901c-1.873,0.048-1.95-2.863-0.074-2.911
				C414.343,355.943,414.42,358.853,412.544,358.901L412.544,358.901z"/>
		</g>
		<g>
			<path style="fill:#FFFFFF;" d="M142.397,219.216c-1.873,0.048-1.951-2.863-0.074-2.911
				C144.195,216.257,144.273,219.168,142.397,219.216L142.397,219.216z"/>
		</g>
		<g>
			<path style="fill:#FFFFFF;" d="M68.317,313.669c-1.873,0.048-1.951-2.863-0.074-2.911
				C70.116,310.71,70.193,313.621,68.317,313.669L68.317,313.669z"/>
		</g>
		<g>
			<path style="fill:#F95B5E;" d="M390.556,244.528c-1.873,0.048-1.95-2.863-0.074-2.911
				C392.355,241.569,392.433,244.48,390.556,244.528L390.556,244.528z"/>
		</g>
		<g>
			<path style="fill:#F95B5E;" d="M188.541,137.081c-1.873,0.048-1.951-2.863-0.074-2.911
				C190.34,134.123,190.417,137.034,188.541,137.081L188.541,137.081z"/>
		</g>
		<g>
			<path style="fill:#F95B5E;" d="M180.409,146.466c-1.873,0.048-1.951-2.863-0.074-2.911
				C182.207,143.508,182.285,146.418,180.409,146.466L180.409,146.466z"/>
		</g>
		<g>
			<path style="fill:#F95B5E;" d="M357.902,420.058c-1.873,0.048-1.95-2.863-0.074-2.911
				C359.701,417.099,359.778,420.01,357.902,420.058L357.902,420.058z"/>
		</g>
		<g>
			<path style="fill:#F95B5E;" d="M290.79,192.871c-1.873,0.048-1.951-2.863-0.074-2.911
				C292.589,189.912,292.667,192.823,290.79,192.871L290.79,192.871z"/>
		</g>
		<g>
			<path style="fill:#F95B5E;" d="M140.047,292.282c-1.873,0.048-1.951-2.863-0.074-2.911
				C141.845,289.323,141.923,292.234,140.047,292.282L140.047,292.282z"/>
		</g>
		<g>
			<path style="fill:#F95B5E;" d="M388.935,207.843c-1.873,0.048-1.951-2.863-0.074-2.911
				C390.733,204.884,390.811,207.795,388.935,207.843L388.935,207.843z"/>
		</g>
		<g>
			<path style="fill:#F95B5E;" d="M85.408,286.864c-1.873,0.048-1.95-2.863-0.074-2.911
				C87.207,283.905,87.285,286.816,85.408,286.864L85.408,286.864z"/>
		</g>
		<g>
			<path style="fill:#F95B5E;" d="M331.616,431.136c-1.873,0.048-1.95-2.863-0.074-2.911
				C333.415,428.177,333.492,431.088,331.616,431.136L331.616,431.136z"/>
		</g>
		<g>
			<path style="fill:#FFFFFF;" d="M158.717,179.122c-1.873,0.048-1.951-2.863-0.074-2.911
				C160.516,176.163,160.594,179.074,158.717,179.122L158.717,179.122z"/>
		</g>
		<g>
			<path style="fill:#FFFFFF;" d="M142.939,295.597c-1.873,0.048-1.951-2.863-0.074-2.911
				C144.738,292.638,144.815,295.549,142.939,295.597L142.939,295.597z"/>
		</g>
		<g>
			<path style="fill:#FFFFFF;" d="M228.462,269.419c-1.873,0.048-1.95-2.863-0.074-2.911
				C230.26,266.461,230.338,269.372,228.462,269.419L228.462,269.419z"/>
		</g>
		<g>
			<path style="fill:#FFFFFF;" d="M240.147,330.602c-1.873,0.048-1.951-2.863-0.074-2.911
				C241.945,327.643,242.023,330.554,240.147,330.602L240.147,330.602z"/>
		</g>
		<g>
			<path style="fill:#FFFFFF;" d="M147.831,432.131c-1.873,0.048-1.95-2.863-0.074-2.911
				C149.63,429.172,149.707,432.083,147.831,432.131L147.831,432.131z"/>
		</g>
		<path style="fill:#452C6D;" d="M439.734,390.614c-0.003-0.129-0.007-0.259-0.01-0.388c-0.039-1.523,1.263-3.016,2.837-2.985
			c1.579,0.03,2.944,1.205,2.985,2.837c0.003,0.129,0.007,0.259,0.01,0.388c0.039,1.523-1.263,3.016-2.837,2.985
			C441.141,393.421,439.776,392.246,439.734,390.614L439.734,390.614z"/>
		<g>
			<path style="fill:#452C6D;" d="M62.296,368.884c-2.105,0.054-2.193-3.218-0.083-3.272
				C64.318,365.558,64.405,368.83,62.296,368.884L62.296,368.884z"/>
		</g>
		<g>
			<path style="fill:#452C6D;" d="M89.234,303.304c-3.746,0.096-3.901-5.726-0.149-5.822
				C92.832,297.387,92.987,303.208,89.234,303.304L89.234,303.304z"/>
		</g>
		<g>
			<path style="fill:#452C6D;" d="M212.749,205.028c-3.746,0.096-3.901-5.726-0.149-5.822
				C216.346,199.111,216.501,204.932,212.749,205.028L212.749,205.028z"/>
		</g>
		<g>
			<path style="fill:#FFFFFF;" d="M388.479,359.747c-3.746,0.096-3.901-5.726-0.149-5.822
				C392.077,353.83,392.232,359.651,388.479,359.747L388.479,359.747z"/>
		</g>
		<g>
			<path style="fill:#FFFFFF;" d="M239.172,345.802c-3.746,0.096-3.901-5.726-0.149-5.822
				C242.77,339.884,242.924,345.706,239.172,345.802L239.172,345.802z"/>
		</g>
	</g>
	<g>
		<g>
			<g>
				<polygon style="fill:#392863;" points="62.431,207.386 93.872,240.267 94.23,254.279 				"/>
				<polygon style="fill:#281C4C;" points="94.23,254.279 94.829,240.024 92.593,240.455 				"/>
				<polygon style="fill:#452C6D;" points="62.431,207.386 66.662,250.625 93.872,240.267 				"/>
				<polygon style="fill:#4B3577;" points="62.431,207.386 117.804,235.108 93.872,240.267 				"/>
			</g>
			<g>
				<g>
					<path style="fill:none;stroke:#173756;stroke-width:0.8687;stroke-miterlimit:10;" d="M96.05,258.798
						c0.089,0.475,0.205,0.944,0.346,1.404"/>
					<path style="fill:none;stroke:#173756;stroke-width:0.8687;stroke-miterlimit:10;stroke-dasharray:2.9652,2.9652;" d="
						M97.568,262.921c1.649,2.922,4.337,5.282,7.456,6.561c4.487,1.84,9.725,1.524,14.138-0.486c2.052-0.935,4.07-2.38,4.754-4.528
						c0.941-2.954-1.252-6.333-4.234-7.182c-2.982-0.849-6.307,0.517-8.321,2.874c-2.013,2.358-2.855,5.537-2.936,8.636
						c-0.058,2.225,0.27,4.524,1.414,6.433c1.842,3.073,5.463,4.62,8.978,5.313c5.506,1.087,11.322,0.512,16.524-1.587"/>
					<path style="fill:none;stroke:#173756;stroke-width:0.8687;stroke-miterlimit:10;" d="M136.709,278.363
						c0.438-0.204,0.87-0.419,1.297-0.645"/>
				</g>
			</g>
		</g>
		<g>
			<g>
				<polygon style="fill:#2C1851;" points="383.446,144.34 383.679,153.457 429.71,130.653 				"/>
				<polygon style="fill:#452C6D;" points="436.226,127.865 383.211,144.279 409.668,152.554 				"/>
				<polygon style="fill:#4B3577;" points="436.226,127.865 363.835,139.291 383.446,144.34 				"/>
			</g>
			<g>
				<g>
					<path style="fill:none;stroke:#173756;stroke-width:0.8687;stroke-miterlimit:10;" d="M380.519,154.927
						c-0.355,0.328-0.716,0.648-1.083,0.962"/>
					<path style="fill:none;stroke:#173756;stroke-width:0.8687;stroke-miterlimit:10;stroke-dasharray:2.9074,2.9074;" d="
						M377.154,157.691c-7.828,5.717-17.803,8.481-27.455,7.472c-4.151-0.434-8.352-1.592-11.619-4.19
						c-1.517-1.206-2.869-2.867-2.94-4.803c-0.077-2.099,1.352-3.942,2.876-5.388c3.056-2.898,7.506-5.11,11.408-3.526
						c4.922,1.997,5.845,9.172,2.955,13.629c-2.89,4.457-8.189,6.673-13.301,8.114c-5.427,1.53-11.018,2.479-16.646,2.826"/>
					<path style="fill:none;stroke:#173756;stroke-width:0.8687;stroke-miterlimit:10;" d="M320.977,171.902
						c-0.482,0.021-0.965,0.037-1.447,0.049"/>
				</g>
			</g>
		</g>
	</g>
	<g>
		<g>
			<g>
				<g>
					<g>
						<path style="fill:#A7A9AC;" d="M178.583,354.588l208.155,34.346c3.3-1.785,7.26-3.443,10.257-3.176l0.129,4.889
							l-126.605,54.584L38.828,388.257L178.583,354.588z"/>
						<path style="fill:#A7A9AC;" d="M38.699,383.367l0.129,4.89c0,0,14.172-0.939,15.755-2.065
							C56.166,385.066,38.699,383.367,38.699,383.367z"/>
						<g>
							<path style="fill:#173756;" d="M179.235,351.306l217.76,34.453c0.692,0.109,1.473-0.435,1.735-1.209l48.932-144.56
								c0.262-0.774-0.089-1.497-0.782-1.607L229.12,203.93c-0.692-0.109-1.473,0.435-1.735,1.209l-48.932,144.559
								C178.191,350.473,178.543,351.197,179.235,351.306z"/>
							<polygon style="fill:#5F88DB;" points="188.037,344.402 393.524,376.914 438.079,245.287 232.591,212.775 							"/>
							<path style="fill:#6E9CE5;" d="M393.524,376.913l36.262-107.128c-22.072,1.262-44.123,3.21-66.022,5.39
								c-53.808,5.355-107.918,12.135-160.524,24.312l-15.203,44.916L393.524,376.913z"/>
							<g>
								<g>
									<g>
										<polyline style="fill:none;stroke:#FFFFFF;stroke-width:1.0215;stroke-miterlimit:10;" points="400.046,303.556 
											399.574,304.924 398.144,304.697 										"/>
										
											<line style="fill:none;stroke:#FFFFFF;stroke-width:1.0215;stroke-miterlimit:10;stroke-dasharray:2.9775,2.9775;" x1="395.204" y1="304.229" x2="355.506" y2="297.914"/>
										<polyline style="fill:none;stroke:#FFFFFF;stroke-width:1.0215;stroke-miterlimit:10;" points="354.036,297.681 
											352.606,297.453 353.079,296.085 										"/>
										
											<line style="fill:none;stroke:#FFFFFF;stroke-width:1.0215;stroke-miterlimit:10;stroke-dasharray:3.0189,3.0189;" x1="354.064" y1="293.231" x2="367.365" y2="254.708"/>
										<polyline style="fill:none;stroke:#FFFFFF;stroke-width:1.0215;stroke-miterlimit:10;" points="367.858,253.281 
											368.331,251.913 369.761,252.14 										"/>
										
											<line style="fill:none;stroke:#FFFFFF;stroke-width:1.0215;stroke-miterlimit:10;stroke-dasharray:2.9775,2.9775;" x1="372.701" y1="252.608" x2="412.398" y2="258.922"/>
										<polyline style="fill:none;stroke:#FFFFFF;stroke-width:1.0215;stroke-miterlimit:10;" points="413.868,259.156 
											415.298,259.384 414.826,260.752 										"/>
										
											<line style="fill:none;stroke:#FFFFFF;stroke-width:1.0215;stroke-miterlimit:10;stroke-dasharray:3.0189,3.0189;" x1="413.841" y1="263.606" x2="400.539" y2="302.129"/>
									</g>
								</g>
								<g>
									<g>
										<polyline style="fill:none;stroke:#FFFFFF;stroke-width:1.0215;stroke-miterlimit:10;" points="259.112,339.532 
											258.64,340.901 257.21,340.673 										"/>
										
											<line style="fill:none;stroke:#FFFFFF;stroke-width:1.0215;stroke-miterlimit:10;stroke-dasharray:2.9775,2.9775;" x1="254.269" y1="340.206" x2="214.572" y2="333.891"/>
										<polyline style="fill:none;stroke:#FFFFFF;stroke-width:1.0215;stroke-miterlimit:10;" points="213.102,333.657 
											211.672,333.43 212.145,332.061 										"/>
										
											<line style="fill:none;stroke:#FFFFFF;stroke-width:1.0215;stroke-miterlimit:10;stroke-dasharray:3.0189,3.0189;" x1="213.13" y1="329.208" x2="226.431" y2="290.685"/>
										<polyline style="fill:none;stroke:#FFFFFF;stroke-width:1.0215;stroke-miterlimit:10;" points="226.924,289.258 
											227.396,287.889 228.826,288.117 										"/>
										
											<line style="fill:none;stroke:#FFFFFF;stroke-width:1.0215;stroke-miterlimit:10;stroke-dasharray:2.9775,2.9775;" x1="231.767" y1="288.584" x2="271.464" y2="294.899"/>
										<polyline style="fill:none;stroke:#FFFFFF;stroke-width:1.0215;stroke-miterlimit:10;" points="272.934,295.133 
											274.364,295.36 273.892,296.729 										"/>
										
											<line style="fill:none;stroke:#FFFFFF;stroke-width:1.0215;stroke-miterlimit:10;stroke-dasharray:3.0189,3.0189;" x1="272.906" y1="299.582" x2="259.605" y2="338.105"/>
									</g>
								</g>
								<g>
									<polygon style="fill:#173756;" points="380.751,361.153 333.94,353.383 349.964,307.942 396.775,315.712 									"/>
									<g>
										<polygon style="fill:#0C253A;" points="380.173,356.553 337.943,349.543 338.338,348.424 380.568,355.434 										"/>
										<polygon style="fill:#FFFFFF;" points="369.787,354.338 338.42,349.131 338.539,348.795 369.905,354.001 										"/>
									</g>
									<path style="fill:#122D44;" d="M376.874,334.901c-2.048,5.808-8.559,9.711-14.542,8.718
										c-5.983-0.993-9.173-6.506-7.125-12.314c2.048-5.808,8.559-9.711,14.542-8.718
										C375.732,323.579,378.922,329.093,376.874,334.901z"/>
									<polygon style="fill:#FFFFFF;" points="362.809,332.437 364.601,327.354 368.24,330.648 371.878,333.942 366.447,335.731 
										361.016,337.52 									"/>
								</g>
								<g>
									<polygon style="fill:#EA3636;" points="319.997,351.769 272.262,343.845 288.602,297.507 336.337,305.431 									"/>
									<g>
										<g>
											<path style="fill:#FFFFFF;" d="M288.021,328.42l17.992,2.986c1.169,0.194,2.452-0.576,2.852-1.71l2.731-7.746
												c0.4-1.134-0.229-2.221-1.397-2.415l-17.992-2.987c-1.169-0.194-2.452,0.576-2.852,1.71l-2.731,7.746
												C286.223,327.139,286.852,328.226,288.021,328.42z"/>
											<polygon style="fill:#FFFFFF;" points="292.036,327.653 290.082,334.918 287.412,326.969 											"/>
										</g>
										<g>
											<path style="fill:#6E9CE5;" d="M318.443,326.911l-17.992-2.986c-1.169-0.194-1.798-1.281-1.398-2.416l2.731-7.746
												c0.4-1.135,1.684-1.904,2.852-1.71l17.992,2.987c1.169,0.194,1.798,1.281,1.397,2.415l-2.731,7.746
												C320.895,326.336,319.612,327.105,318.443,326.911z"/>
											<polygon style="fill:#6E9CE5;" points="315.383,324.97 312.279,332.045 319.951,325.812 											"/>
										</g>
									</g>
								</g>
								<g>
									<polygon style="fill:#FF5C5C;" points="277.203,285.474 229.467,277.551 245.808,231.213 293.543,239.136 									"/>
									<g>
										<g>
											<path style="fill:#FFFFFF;" d="M259.114,243.383c-1.026,0.624-2.742,1.666-4.154,2.515l-8.048,22.822l17.92,2.974
												l9.115-25.849L259.114,243.383z"/>
										</g>
										<path style="fill:#173756;" d="M258.046,246.41l1.067-3.027c-1.411,0.848-3.128,1.891-4.154,2.515L258.046,246.41z"/>
										<g>
											<path style="fill:#173756;" d="M267.928,271.137c-0.522,1.48-2.181,2.474-3.705,2.221
												c-1.524-0.253-2.337-1.658-1.815-3.138c0.522-1.48,2.181-2.474,3.705-2.221
												C267.637,268.252,268.45,269.657,267.928,271.137z"/>
											<g>
												<polygon style="fill:#FFFFFF;" points="264.945,272.476 264.124,272.339 265.346,268.874 266.167,269.011 												
													"/>
												<polygon style="fill:#FFFFFF;" points="263.22,270.777 263.501,269.981 267.071,270.573 266.79,271.369 												"/>
											</g>
										</g>
										<polygon style="fill:#E6E7E8;" points="270.888,250.865 255.277,248.274 255.5,247.641 271.111,250.232 										"/>
										<polygon style="fill:#E6E7E8;" points="270.307,252.511 254.696,249.92 254.92,249.287 270.53,251.878 										"/>
										<polygon style="fill:#E6E7E8;" points="269.727,254.158 254.116,251.566 254.339,250.933 269.95,253.524 										"/>
										<polygon style="fill:#E6E7E8;" points="269.146,255.804 253.535,253.213 253.759,252.579 269.37,255.171 										"/>
										<polygon style="fill:#E6E7E8;" points="268.566,257.45 252.955,254.859 253.178,254.226 268.789,256.817 										"/>
										<polygon style="fill:#E6E7E8;" points="267.985,259.096 252.374,256.505 252.598,255.872 268.208,258.463 										"/>
										<polygon style="fill:#E6E7E8;" points="267.405,260.743 251.794,258.151 252.017,257.518 267.628,260.109 										"/>
										<polygon style="fill:#E6E7E8;" points="266.824,262.389 251.213,259.798 251.437,259.164 267.047,261.756 										"/>
										<polygon style="fill:#E6E7E8;" points="266.244,264.035 250.633,261.444 250.856,260.811 266.467,263.402 										"/>
										<polygon style="fill:#E6E7E8;" points="265.663,265.681 250.052,263.09 250.276,262.457 265.886,265.048 										"/>
										<polygon style="fill:#E6E7E8;" points="265.083,267.328 249.472,264.736 249.695,264.103 265.306,266.694 										"/>
									</g>
								</g>
							</g>
							<g>
								<g>
									<g>
										<polyline style="fill:none;stroke:#FFFFFF;stroke-width:1.0215;stroke-miterlimit:10;" points="338.909,293.408 
											338.437,294.776 337.007,294.549 										"/>
										
											<line style="fill:none;stroke:#FFFFFF;stroke-width:1.0215;stroke-miterlimit:10;stroke-dasharray:2.9775,2.9775;" x1="334.066" y1="294.081" x2="294.369" y2="287.767"/>
										<polyline style="fill:none;stroke:#FFFFFF;stroke-width:1.0215;stroke-miterlimit:10;" points="292.899,287.533 
											291.469,287.305 291.942,285.937 										"/>
										
											<line style="fill:none;stroke:#FFFFFF;stroke-width:1.0215;stroke-miterlimit:10;stroke-dasharray:3.0189,3.0189;" x1="292.927" y1="283.083" x2="306.228" y2="244.56"/>
										<polyline style="fill:none;stroke:#FFFFFF;stroke-width:1.0215;stroke-miterlimit:10;" points="306.721,243.133 
											307.194,241.765 308.624,241.992 										"/>
										
											<line style="fill:none;stroke:#FFFFFF;stroke-width:1.0215;stroke-miterlimit:10;stroke-dasharray:2.9775,2.9775;" x1="311.564" y1="242.46" x2="351.261" y2="248.775"/>
										<polyline style="fill:none;stroke:#FFFFFF;stroke-width:1.0215;stroke-miterlimit:10;" points="352.732,249.008 
											354.161,249.236 353.689,250.604 										"/>
										
											<line style="fill:none;stroke:#FFFFFF;stroke-width:1.0215;stroke-miterlimit:10;stroke-dasharray:3.0189,3.0189;" x1="352.703" y1="253.458" x2="339.402" y2="291.981"/>
									</g>
								</g>
							</g>
							<g>
								<polygon style="fill:#8DC63F;" points="328.564,282.809 281.597,275.338 297.321,229.797 344.289,237.268 								"/>
								<g>
									<polygon style="fill:#FFFFFF;" points="289.813,266.241 326.764,272.374 326.055,257.242 310.381,260.853 302.833,252.006 
																			"/>
									<path style="fill:#FFFFFF;" d="M334.06,249.164c-1.064,3.017-4.445,5.044-7.553,4.528
										c-3.108-0.516-4.764-3.379-3.701-6.396c1.064-3.017,4.445-5.044,7.553-4.528
										C333.467,243.284,335.123,246.148,334.06,249.164z"/>
								</g>
							</g>
							
								<text transform="matrix(0.9744 0.1615 -0.3158 0.9488 364.5358 280.834)" style="fill:#173756; font-family:'BebasNeueBold'; font-size:15.1763px;">&lt;C M S&gt;</text>
						</g>
						<polygon style="fill:#E6E7E8;" points="396.995,385.759 270.39,440.342 38.699,383.367 178.453,349.699 						"/>
						<path style="fill:#D1D3D4;" d="M375.067,387.803l-194.978-35.362c0,0,5.44-0.802,0,0c-5.824,0.858-76.554,20.02-71.753,18.663
							l195.634,42.841L375.067,387.803z"/>
						<polygon style="fill:#173756;" points="245.759,370.109 253.018,367.615 264.729,369.75 257.815,372.363 						"/>
						<polygon style="fill:#173756;" points="228.593,366.899 235.915,364.497 250.366,367.131 243.13,369.617 						"/>
						<polygon style="fill:#173756;" points="322.497,384.458 330.185,381.683 345.331,384.444 337.514,387.266 						"/>
						<polygon style="fill:#173756;" points="260.311,372.83 267.245,370.208 278.979,372.348 271.948,375.006 						"/>
						<polygon style="fill:#173756;" points="305.735,381.324 313.278,378.601 327.604,381.212 319.939,383.98 						"/>
						<polygon style="fill:#173756;" points="212.587,363.905 220.094,361.613 233.195,364.001 225.898,366.395 						"/>
						<polygon style="fill:#173756;" points="289.18,378.228 296.58,375.556 310.697,378.13 303.176,380.845 						"/>
						<polygon style="fill:#173756;" points="274.443,375.472 281.496,372.807 293.999,375.086 286.621,377.75 						"/>
						<polygon style="fill:#173756;" points="182.85,358.345 192.763,356.63 217.267,361.097 209.787,363.382 						"/>
						<polygon style="fill:#173756;" points="364.41,387.922 354.92,390.521 340.073,387.745 347.913,384.915 						"/>
						<polygon style="fill:#173756;" points="325.061,393.164 340.534,396.23 332.277,399.227 316.974,396.084 						"/>
						<polygon style="fill:#173756;" points="140.214,376.26 123.948,372.906 133.554,370.305 148.964,373.587 						"/>
						<polygon style="fill:#173756;" points="151.735,372.741 136.524,369.501 144.067,367.458 158.773,370.591 						"/>
						<polygon style="fill:#173756;" points="297.458,393.812 312.77,396.957 304.088,400.109 288.948,396.884 						"/>
						<polygon style="fill:#173756;" points="307.89,388.329 293.969,385.571 300.733,383.129 314.848,385.818 						"/>
						<polygon style="fill:#173756;" points="334.856,389.628 350.507,392.609 343.087,395.303 327.624,392.239 						"/>
						<polygon style="fill:#173756;" points="325.115,391.742 310.398,388.826 317.391,386.302 332.313,389.144 						"/>
						<polygon style="fill:#173756;" points="291.461,385.074 277.743,382.357 284.283,379.996 298.19,382.645 						"/>
						<polygon style="fill:#173756;" points="188.864,369.773 174.878,366.901 182.324,364.885 195.998,367.594 						"/>
						<polygon style="fill:#173756;" points="172.502,366.176 158.515,363.303 166.484,361.395 180.159,364.104 						"/>
						<polygon style="fill:#173756;" points="215.082,369.942 201.581,367.267 207.676,365.406 221.111,367.965 						"/>
						<polygon style="fill:#173756;" points="161.544,369.745 147.037,366.655 154.882,364.53 169.073,367.445 						"/>
						<polygon style="fill:#173756;" points="247.321,376.33 234.844,373.858 240.982,371.749 253.255,374.086 						"/>
						<polygon style="fill:#173756;" points="185.379,364.057 191.664,362.356 204.895,364.876 198.843,366.725 						"/>
						<polygon style="fill:#173756;" points="170.162,360.584 175.937,359.085 189.169,361.606 183.626,363.251 						"/>
						<polygon style="fill:#173756;" points="275.235,381.86 263.628,379.56 269.782,377.234 281.74,379.512 						"/>
						<polygon style="fill:#173756;" points="232.269,373.348 217.72,370.465 223.788,368.474 238.371,371.251 						"/>
						<polygon style="fill:#173756;" points="261.181,379.076 249.769,376.814 255.735,374.559 267.302,376.762 						"/>
						<polygon style="fill:#173756;" points="192.882,377.857 186.325,380.109 171.347,376.919 178.092,374.707 						"/>
						<polygon style="fill:#173756;" points="283.75,389.26 291.406,386.496 305.327,389.255 297.493,392.083 						"/>
						<polygon style="fill:#173756;" points="280.453,390.32 294.983,393.304 286.506,396.364 272.169,393.31 						"/>
						<polygon style="fill:#173756;" points="254.085,383.168 261.142,380.5 272.673,382.785 265.257,385.462 						"/>
						<polygon style="fill:#173756;" points="307.835,389.751 322.553,392.667 314.498,395.575 299.969,392.591 						"/>
						<polygon style="fill:#173756;" points="267.733,385.971 275.181,383.282 288.898,385.999 281.274,388.752 						"/>
						<polygon style="fill:#173756;" points="191.564,370.327 198.737,368.137 212.359,370.835 205.304,373.149 						"/>
						<polygon style="fill:#173756;" points="240.397,380.357 247.282,377.754 258.694,380.015 251.668,382.671 						"/>
						<polygon style="fill:#173756;" points="207.906,373.684 214.997,371.358 229.624,374.256 222.54,376.69 						"/>
						<polygon style="fill:#173756;" points="225.081,377.211 232.199,374.766 244.834,377.27 237.981,379.86 						"/>
						<polygon style="fill:#173756;" points="251.221,390.284 244.864,392.579 231.503,389.733 237.859,387.438 						"/>
						<polygon style="fill:#173756;" points="208.862,381.261 202.688,383.595 188.831,380.643 195.388,378.391 						"/>
						<polygon style="fill:#173756;" points="222.373,384.139 216.199,386.473 205.074,384.103 211.248,381.769 						"/>
						<polygon style="fill:#173756;" points="161.433,371.158 175.527,374.16 168.782,376.372 154.395,373.307 						"/>
						<polygon style="fill:#173756;" points="284.002,397.268 277.645,399.562 263.31,396.509 269.667,394.214 						"/>
						<polygon style="fill:#173756;" points="151.624,374.154 166.126,377.243 157.963,379.921 142.909,376.816 						"/>
						<polygon style="fill:#173756;" points="286.445,397.788 301.593,401.015 295.258,403.315 280.088,400.083 						"/>
						<polygon style="fill:#173756;" points="267.224,393.693 260.867,395.988 247.307,393.1 253.664,390.805 						"/>
						<polygon style="fill:#173756;" points="180.748,373.836 188.234,371.38 202.944,374.401 195.464,376.97 						"/>
						<polygon style="fill:#173756;" points="235.417,386.918 229.06,389.213 218.584,386.981 224.759,384.648 						"/>
						<polygon style="fill:#173756;" points="226.557,390.117 219.592,392.631 209.27,390.502 216.153,387.9 						"/>
						<polygon style="fill:#173756;" points="275.142,400.466 268.759,402.771 254.251,399.779 260.806,397.412 						"/>
						<polygon style="fill:#173756;" points="213.768,387.392 206.856,390.004 195.603,387.683 202.643,385.022 						"/>
						<polygon style="fill:#173756;" points="292.764,404.22 286.613,406.453 271.231,403.281 277.585,400.987 						"/>
						<polygon style="fill:#173756;" points="197.97,377.504 205.484,374.923 218.538,377.604 211.294,380.342 						"/>
						<polygon style="fill:#173756;" points="258.364,396.892 251.779,399.269 238.057,396.439 244.804,394.003 						"/>
						<polygon style="fill:#173756;" points="200.257,384.514 193.189,387.186 178.565,384.17 186.249,381.53 						"/>
						<polygon style="fill:#173756;" points="242.361,393.483 235.585,395.929 222.064,393.141 229,390.637 						"/>
						<polygon style="fill:#173756;" points="277.977,389.811 269.727,392.79 256.167,389.901 264.234,386.989 						"/>
						<polygon style="fill:#173756;" points="227.19,383.728 234.642,380.911 245.741,383.191 237.92,386.014 						"/>
						<polygon style="fill:#173756;" points="213.679,380.85 220.955,378.1 232.226,380.415 224.804,383.22 						"/>
						<polygon style="fill:#173756;" points="183.744,380.996 176.028,383.647 160.561,380.457 168.691,377.79 						"/>
						<polygon style="fill:#173756;" points="240.363,386.534 248.217,383.699 261.758,386.48 253.724,389.381 						"/>
						<polygon style="fill:#173756;" points="178.182,373.289 164.204,370.311 171.772,367.999 185.631,370.845 						"/>
						<polygon style="fill:#BCBEC0;" points="223.843,399.876 168.842,388.04 124.703,400.416 185.104,414.195 						"/>
						<polygon style="fill:#173756;" points="288.645,406.957 303.625,401.519 311.064,402.886 322.686,398.928 330.176,400.301 
							303.634,410.102 						"/>
					</g>
				</g>
			</g>
		</g>
		<g>
			<g>
				<path style="fill:#E5713E;" d="M376.113,257.865l59.589,9.877c2.792,0.463,5.936-1.363,6.987-4.057l11.159-28.6
					c1.051-2.694-0.373-5.277-3.164-5.74l-59.589-9.877c-2.792-0.463-5.936,1.363-6.987,4.057l-11.159,28.6
					C371.898,254.819,373.322,257.402,376.113,257.865z"/>
				<polygon style="fill:#FFFFFF;" points="386.155,221.594 388.732,213.852 451.376,226.241 442.84,245.129 				"/>
				<path style="fill:#FAAF41;" d="M434,267.46l-59.589-9.877c-2.792-0.463-4.455-3.085-3.697-5.828l8.053-29.115
					c0.759-2.743,3.663-4.608,6.455-4.145l59.589,9.877c2.792,0.463,4.455,3.085,3.697,5.828l-8.053,29.115
					C439.697,266.057,436.792,267.922,434,267.46z"/>
				<path style="fill:#FAAF41;" d="M422.028,225.613l0.832-2.501c0.279-0.837,1.201-1.399,2.06-1.257l16.119,2.672l-1.422,4.271
					L422.028,225.613z"/>
			</g>
			
				<text transform="matrix(0.9744 0.1615 -0.3158 0.9488 389.8114 249.8968)" style="fill:#82561C; font-family:'BebasNeueBold'; font-size:27.38px;">&lt;/&gt;</text>
		</g>
		<g style="opacity:0.95;">
			<path style="fill:#EA3636;" d="M219.794,346.195l-38.188-6.33c-5.318-0.881-8.231-5.793-6.507-10.971l6.008-18.049
				c1.724-5.178,7.432-8.661,12.749-7.78l38.188,6.33c5.317,0.882,8.231,5.793,6.507,10.971l-6.008,18.049
				C230.82,343.594,225.112,347.077,219.794,346.195z"/>
			<polygon style="fill:#FFFFFF;" points="201.018,323.668 203.191,317.138 207.912,321.365 212.633,325.593 205.739,327.895 
				198.844,330.198 			"/>
		</g>
		<g>
			<path style="fill:#FFFFFF;" d="M267.125,361.27c0,0-19.702,18.941-24.87,22.774c0,0,33.412,1.208,61.873-12.302
				c28.461-13.51,37.946-28.596,44.309-39.14c0,0-31.647,5.259-38.519,6.011c0,0-2.287,16.321-16.922,27.354
				C292.996,365.967,282.981,366.213,267.125,361.27z"/>
			<path style="fill:#E3C8FC;" d="M242.255,384.044c0,0,33.412,1.208,61.873-12.302c8.941-4.244,16.007-8.644,21.694-13.009
				c-16.879,7.726-32.826,7.234-32.826,7.234s-10.015,0.246-25.871-4.697C267.125,361.27,247.424,380.211,242.255,384.044z"/>
		</g>
		<g>
			<polygon style="fill:#8DC63F;" points="218.015,265.407 163.969,256.449 181.487,203.822 235.533,212.78 			"/>
			<g>
				<path style="fill:#FFFFFF;" d="M208.951,223.559c2.652-1.591,5.731-1.572,7.859-0.186l-5.941,3.563
					c-1.394,0.836-1.966,2.504-1.27,3.706c0.696,1.202,2.406,1.501,3.801,0.665l5.941-3.563c0.16,2.566-1.315,5.316-3.968,6.907
					c-2.653,1.591-5.731,1.572-7.859,0.186l-19.387,11.627c-1.394,0.836-3.105,0.537-3.801-0.665
					c-0.696-1.202-0.125-2.87,1.27-3.706l19.387-11.627C204.823,227.899,206.298,225.149,208.951,223.559z"/>
				<g>
					<path style="fill:#FFFFFF;" d="M200.676,231.816l-5.203-8.274c0,0,3.779-2.338,6.405-1.014c0,0,0.439,0.185,0.733-0.045
						c0.294-0.23,0.395-0.403-0.233-0.867c-0.628-0.464-4.325-3.406-11.515,1.797c0,0-0.498,3.39-3.882,2.321l-2.579,1.542
						l2.813,4.617l2.633-1.639c0,0-0.439-1.555,1.316-2.386c1.756-0.831,2.544,0.655,2.544,0.655l3.031,5.618L200.676,231.816z"/>
					<path style="fill:#FFFFFF;" d="M210.081,246.948l-5.4-8.64l-4.322,2.458l4.684,8.777c0,0,2.059,1.654,3.654,0.457
						C210.289,248.804,210.325,247.455,210.081,246.948z"/>
				</g>
			</g>
		</g>
		<g>
			<g>
				<path style="fill:#F97F40;" d="M73.836,355.728l65.694,10.889c3.078,0.51,6.544-1.503,7.703-4.473l12.302-31.53
					c1.159-2.97-0.411-5.818-3.489-6.328l-65.694-10.889c-3.078-0.51-6.544,1.503-7.703,4.473l-12.302,31.53
					C69.188,352.371,70.758,355.218,73.836,355.728z"/>
				<polygon style="fill:#D3D3D3;" points="80.997,315.695 82.975,308.5 159.339,322.784 145.587,357.508 				"/>
				<polygon style="fill:#FFFFFF;" points="84.906,315.742 87.748,307.206 156.809,320.864 147.4,341.688 				"/>
				<path style="fill:#FAAF41;" d="M137.654,366.306L71.96,355.417c-3.078-0.51-4.912-3.401-4.075-6.425l8.878-32.098
					c0.836-3.024,4.039-5.08,7.117-4.57l65.693,10.889c3.078,0.51,4.912,3.401,4.075,6.425l-8.878,32.098
					C143.934,364.76,140.731,366.816,137.654,366.306z"/>
				<path style="fill:#FAAF41;" d="M124.455,320.173l0.918-2.757c0.307-0.922,1.324-1.543,2.271-1.386l17.77,2.945l-1.567,4.708
					L124.455,320.173z"/>
			</g>
			<g>
				<path style="fill:#8E5D1C;" d="M115.477,349.725l-17.105-2.835c-0.309-0.051-0.541-0.259-0.609-0.545
					c-0.068-0.286,0.039-0.608,0.281-0.843l13.354-13.007c0.242-0.235,0.581-0.348,0.89-0.297c0.309,0.051,0.541,0.259,0.609,0.545
					l3.751,15.842c0.068,0.286-0.039,0.608-0.281,0.843C116.125,349.663,115.786,349.776,115.477,349.725z M100.431,345.453
					l14.108,2.338l-3.093-13.066L100.431,345.453z"/>
				<g>
					<path style="fill:#8E5D1C;" d="M107.37,344.785c0.136-0.409,0.526-0.656,0.923-0.591c0.42,0.07,0.59,0.41,0.454,0.819
						c-0.132,0.398-0.503,0.66-0.923,0.591C107.416,345.536,107.238,345.183,107.37,344.785z M108.203,343.208l1.653-5.483
						l1.12,0.186l-1.979,5.428L108.203,343.208z"/>
				</g>
			</g>
		</g>
		<g>
			<g>
				<path style="fill:#F97F40;" d="M237.345,190.219l50.419,8.357c2.362,0.392,5.022-1.153,5.912-3.433l9.442-24.199
					c0.889-2.28-0.315-4.465-2.678-4.856l-50.419-8.357c-2.362-0.392-5.022,1.153-5.912,3.433l-9.442,24.199
					C233.778,187.642,234.982,189.827,237.345,190.219z"/>
				<polygon style="fill:#D3D3D3;" points="242.841,159.493 244.358,153.971 302.966,164.934 292.413,191.585 				"/>
				<polygon style="fill:#FFFFFF;" points="245.841,159.529 248.021,152.979 301.025,163.461 293.803,179.443 				"/>
				<path style="fill:#FAAF41;" d="M286.323,198.337l-50.419-8.357c-2.362-0.392-3.77-2.611-3.128-4.931l6.814-24.634
					c0.642-2.321,3.1-3.899,5.462-3.507l50.419,8.357c2.362,0.391,3.77,2.61,3.128,4.931l-6.814,24.634
					C291.143,197.15,288.685,198.729,286.323,198.337z"/>
				<g>
					<path style="fill:#8E5D1C;" d="M274.446,186.853l-23.718-3.937c-0.845-0.14-1.297-0.922-1.008-1.742l4.78-13.555
						c0.289-0.82,1.212-1.374,2.057-1.233l23.718,3.937c0.845,0.14,1.297,0.922,1.008,1.742l-4.78,13.555
						C276.214,186.44,275.291,186.993,274.446,186.853z M252.236,180.838l22.252,3.694l4.278-12.131l-22.252-3.694L252.236,180.838z
						"/>
					<path style="fill:#8E5D1C;" d="M264.492,178.293c-0.214-0.036-0.406-0.13-0.552-0.277l-9.248-9.386
						c-0.41-0.416-0.322-1.122,0.197-1.576c0.519-0.455,1.272-0.484,1.682-0.069l8.785,8.916l14.54-5.063
						c0.643-0.225,1.284,0.056,1.423,0.631c0.141,0.574-0.27,1.221-0.917,1.446l-15.27,5.317
						C264.916,178.308,264.695,178.327,264.492,178.293z"/>
				</g>
				<path style="fill:#FAAF41;" d="M276.194,162.93l0.704-2.116c0.236-0.708,1.016-1.184,1.743-1.064l13.638,2.261l-1.203,3.614
					L276.194,162.93z"/>
			</g>
		</g>
	</g>
</g>
</svg>
