<?xml version="1.0" encoding="utf-8"?>
<!-- Generator: Adobe Illustrator 27.5.0, SVG Export Plug-In . SVG Version: 6.00 Build 0)  -->
<svg version="1.1" xmlns="http://www.w3.org/2000/svg" xmlns:xlink="http://www.w3.org/1999/xlink" x="0px" y="0px"
	 viewBox="0 0 500 500" style="enable-background:new 0 0 500 500;" xml:space="preserve">
<g id="Background_Complete">
	<g>
		<g>
			<g>
				<path style="fill:#E0E0E0;" d="M399.277,332.09c6.275-2.57,10.776-8.979,10.877-16.576c0.124-9.952-7.338-18.119-16.67-18.241
					c-9.328-0.123-16.996,7.846-17.122,17.798c-0.097,7.668,4.326,14.23,10.624,16.915c-26.035,3.696-25.096,31.966-25.096,31.966
					l61.484,0.806C423.375,364.758,425.02,336.202,399.277,332.09z"/>
			</g>
		</g>
	</g>
	<g>
		<g>
			<g>
				<path style="fill:#E0E0E0;" d="M54.621,276.884l3.657-0.775l5.625-12.815l-1.547-7.301c0,0,5.579-1.546,6.94,8.155
					c1.36,9.701,1.564,7.114,1.564,7.114s12.014-2.497,13.232-1.666c0.886,0.604,3.741,12.458,5.236,18.898
					c0.753,3.242-0.602,6.693-3.467,8.104c-0.407,0.201-0.828,0.357-1.255,0.448c-2.994,0.634-18.807,1.442-18.807,1.442
					l-6.318,1.339L54.621,276.884z"/>
			</g>
		</g>
		<g>
			<g>
				<polygon style="fill:#E0E0E0;" points="43.726,277.098 51.276,301.637 57.54,300.31 52.346,275.798 				"/>
			</g>
		</g>
	</g>
	<g>
		<g>
			<g>
				<g>
					<path style="fill:#EBEBEB;" d="M191.049,139.045h-43.377c-1.888,0-3.419,1.531-3.419,3.419v28.742
						c0,1.889,1.531,3.42,3.419,3.42h22.843l10.858,10.858v-10.858h9.676c1.4,0,2.535-1.135,2.535-2.535V141.58
						C193.584,140.18,192.449,139.045,191.049,139.045z"/>
				</g>
			</g>
		</g>
		<g>
			<g>
				<g>
					<circle style="fill:#FAFAFA;" cx="179.21" cy="157.438" r="2.553"/>
				</g>
			</g>
		</g>
		<g>
			<g>
				<g>
					<path style="fill:#FAFAFA;" d="M166.561,157.438c0,1.41,1.143,2.553,2.553,2.553s2.553-1.143,2.553-2.553
						c0-1.41-1.143-2.552-2.553-2.552S166.561,156.028,166.561,157.438z"/>
				</g>
			</g>
		</g>
		<g>
			<g>
				<g>
					<circle style="fill:#FAFAFA;" cx="159.019" cy="157.438" r="2.553"/>
				</g>
			</g>
		</g>
	</g>
	<g>
		<g>
			<path style="fill:#E0E0E0;" d="M449.017,77.89c-0.403-2.05-2.425-3.653-4.513-3.577c-2.069,0.075-3.953,1.789-4.234,3.838
				c-0.299-2.046-2.198-3.744-4.267-3.8c-2.088-0.057-4.096,1.564-4.481,3.617c-0.28,1.495,0.233,3.052,1.074,4.319
				c0.842,1.267,1.991,2.294,3.127,3.305c1.592,1.417,3.063,2.749,4.656,4.166c1.579-1.431,2.923-2.775,4.503-4.206
				c1.128-1.021,2.268-2.058,3.098-3.333C448.812,80.944,449.311,79.383,449.017,77.89z"/>
		</g>
	</g>
</g>
<g id="Background_Simple" style="display:none;">
	<path style="display:inline;fill:#EBEBEB;" d="M86.475,250.739c9.236,21.736,38.307,53.988,61.026,74.21
		c23.533,20.947,54.168,33.09,85.439,36.927c31.271,3.837,63.174-0.313,93.423-9.122c29.395-8.56,58.115-21.938,79.673-43.678
		c21.557-21.74,35.11-52.799,30.729-83.1c-4.38-30.301-29.285-57.968-59.794-60.536c-14.801-1.246-29.64,3.096-44.449,1.955
		c-27.098-2.088-49.347-21.859-67.153-42.392c-17.806-20.533-34.232-43.537-58.208-56.336
		c-31.674-16.908-77.783-14.269-104.966,9.187c-19.821,17.103-29.482,37.918-32.471,65.196c-1.915,17.477-0.932,37.467,2.273,54.754
		C74.994,213.976,79.73,234.868,86.475,250.739z"/>
</g>
<g id="Character">
	<g>
		<g>
			<path style="fill:#E8505B;" d="M313.759,459.082l-30.528-112.458l-90.842-0.874c-8.975,32.708-14.354,74.445-16.778,113.332"/>
		</g>
		<g>
			<g>
				<path style="fill:#FAFAFA;" d="M212.923,428.943c0.057-0.104,0.993,0.761,2.87,1.113c0.927,0.176,2.079,0.161,3.263-0.214
					c1.182-0.369,2.365-1.141,3.249-2.265c0.87-1.136,1.325-2.473,1.39-3.71c0.07-1.241-0.202-2.361-0.601-3.215
					c-0.806-1.732-1.876-2.424-1.79-2.505c0.018-0.024,0.281,0.13,0.701,0.489c0.414,0.362,0.96,0.969,1.421,1.856
					c0.465,0.88,0.798,2.065,0.749,3.398c-0.041,1.328-0.518,2.783-1.458,4.007c-0.952,1.213-2.244,2.035-3.519,2.405
					c-1.279,0.377-2.509,0.349-3.477,0.117c-0.973-0.226-1.697-0.604-2.15-0.916C213.118,429.183,212.904,428.965,212.923,428.943z"
					/>
			</g>
		</g>
		<g>
			<g>
				<path style="fill:#FAFAFA;" d="M243.397,401.245c-0.041,0.093-0.6-0.555-1.683-0.391c-0.513,0.083-1.097,0.445-1.371,1.069
					c-0.284,0.607-0.188,1.461,0.368,2.008c0.547,0.557,1.401,0.653,2.008,0.368c0.624-0.274,0.987-0.859,1.069-1.372
					C243.952,401.844,243.304,401.286,243.397,401.245c0.02-0.022,0.188,0.07,0.393,0.343c0.2,0.268,0.423,0.756,0.364,1.389
					c-0.047,0.621-0.45,1.38-1.231,1.757c-0.756,0.39-1.871,0.288-2.58-0.435c-0.723-0.709-0.825-1.823-0.435-2.579
					c0.377-0.781,1.136-1.184,1.757-1.231c0.633-0.06,1.121,0.164,1.389,0.364C243.327,401.057,243.419,401.225,243.397,401.245z"/>
			</g>
		</g>
		<g>
			<g>
				<path style="fill:#FAFAFA;" d="M261.496,446.553c-0.042,0.093-0.6-0.555-1.683-0.391c-0.513,0.083-1.097,0.445-1.371,1.069
					c-0.284,0.607-0.188,1.461,0.368,2.008c0.547,0.557,1.401,0.653,2.009,0.368c0.624-0.274,0.987-0.859,1.069-1.371
					C262.051,447.152,261.403,446.595,261.496,446.553c0.02-0.022,0.188,0.07,0.392,0.343c0.2,0.267,0.423,0.755,0.364,1.389
					c-0.047,0.621-0.45,1.38-1.231,1.757c-0.756,0.39-1.871,0.288-2.58-0.435c-0.723-0.709-0.825-1.823-0.435-2.579
					c0.377-0.781,1.136-1.184,1.757-1.231c0.633-0.06,1.121,0.164,1.389,0.364C261.426,446.366,261.517,446.533,261.496,446.553z"/>
			</g>
		</g>
		<g>
			<g>
				<path style="fill:#FAFAFA;" d="M190.703,420.06c0.002,0.049-0.374,0.047-1.002,0.23c-0.616,0.18-1.511,0.611-2.193,1.542
					c-0.685,0.9-1.06,2.368-0.527,3.781c0.489,1.402,1.981,2.608,3.721,2.593c1.74,0.016,3.233-1.19,3.723-2.593
					c0.533-1.414,0.157-2.882-0.528-3.781c-0.682-0.93-1.577-1.362-2.193-1.542C191.077,420.107,190.701,420.108,190.703,420.06
					c-0.002-0.022,0.376-0.096,1.051,0.033c0.66,0.128,1.651,0.53,2.436,1.515c0.786,0.951,1.257,2.571,0.686,4.168
					c-0.52,1.583-2.201,2.969-4.174,2.95c-1.972,0.018-3.653-1.367-4.172-2.95c-0.571-1.597-0.1-3.217,0.686-4.168
					c0.785-0.985,1.776-1.388,2.436-1.515C190.327,419.964,190.705,420.037,190.703,420.06z"/>
			</g>
		</g>
		<g>
			<g>
				<path style="fill:#FAFAFA;" d="M257.669,420.912c0.002,0.049-0.374,0.048-1.002,0.23c-0.616,0.18-1.511,0.612-2.193,1.542
					c-0.684,0.9-1.06,2.368-0.527,3.781c0.489,1.402,1.981,2.608,3.721,2.593c1.741,0.016,3.233-1.19,3.723-2.593
					c0.533-1.414,0.157-2.882-0.528-3.782c-0.682-0.93-1.577-1.361-2.193-1.542C258.043,420.959,257.667,420.961,257.669,420.912
					c-0.003-0.022,0.376-0.095,1.051,0.033c0.66,0.128,1.651,0.53,2.436,1.515c0.786,0.951,1.257,2.571,0.686,4.168
					c-0.52,1.583-2.201,2.969-4.174,2.95c-1.972,0.019-3.653-1.367-4.172-2.95c-0.571-1.597-0.1-3.217,0.686-4.168
					c0.785-0.985,1.776-1.388,2.436-1.515C257.293,420.816,257.671,420.89,257.669,420.912z"/>
			</g>
		</g>
		<g>
			<path style="fill:#FAFAFA;" d="M194.643,443.94c0.793-0.793,2.077-0.793,2.87,0c0.793,0.793,0.793,2.078,0,2.87
				c-0.793,0.793-2.078,0.793-2.87,0C193.851,446.017,193.851,444.732,194.643,443.94z"/>
		</g>
		<g>
			<path style="fill:#FAFAFA;" d="M231.58,386.112c0.792-0.793,2.077-0.793,2.87,0c0.792,0.793,0.792,2.078,0,2.87
				c-0.793,0.792-2.078,0.792-2.87,0C230.787,388.189,230.787,386.904,231.58,386.112z"/>
		</g>
		<g>
			<path style="fill:#FAFAFA;" d="M271.574,399.81c0.793-0.793,2.078-0.793,2.87,0c0.793,0.793,0.793,2.077,0,2.87
				c-0.792,0.793-2.077,0.793-2.87,0C270.782,401.887,270.782,400.602,271.574,399.81z"/>
		</g>
		<g>
			<g>
				<path style="fill:#FAFAFA;" d="M225.756,398.541c0.017,0.012-0.108,0.226-0.36,0.618c-0.294,0.443-0.666,1.005-1.123,1.694
					c-1.039,1.515-2.458,3.585-4.172,6.085l-0.162,0.237l-0.173-0.233c-1.763-2.377-3.851-5.19-6.12-8.25l0.409,0.002
					c-1.043,1.399-2.13,2.857-3.245,4.351c-1.007,1.345-1.992,2.66-2.941,3.928l-0.216,0.288l-0.2-0.298
					c-2.051-3.049-3.943-5.862-5.584-8.302l0.337,0.019c-2.146,2.443-3.933,4.476-5.24,5.962c-0.602,0.665-1.093,1.207-1.477,1.631
					c-0.345,0.371-0.536,0.561-0.553,0.546c-0.017-0.014,0.142-0.232,0.456-0.629c0.361-0.444,0.823-1.011,1.389-1.707
					c1.272-1.516,3.012-3.59,5.102-6.081l0.178-0.212l0.159,0.232c1.662,2.426,3.579,5.223,5.656,8.254l-0.416-0.009
					c0.947-1.27,1.929-2.586,2.934-3.933c1.118-1.492,2.208-2.947,3.254-4.344l0.207-0.276l0.202,0.278
					c2.241,3.08,4.301,5.913,6.042,8.307l-0.335,0.003c1.774-2.458,3.243-4.493,4.318-5.982c0.494-0.663,0.897-1.203,1.215-1.629
					C225.58,398.718,225.739,398.529,225.756,398.541z"/>
			</g>
		</g>
		<g>
			<g>
				<path style="fill:#FAFAFA;" d="M245.884,437.812c0.02,0.008-0.053,0.244-0.209,0.684c-0.184,0.499-0.418,1.131-0.705,1.906
					c-0.664,1.713-1.57,4.053-2.665,6.88l-0.104,0.267l-0.222-0.187c-2.262-1.909-4.938-4.169-7.849-6.626l0.398-0.092
					c-0.695,1.601-1.419,3.269-2.161,4.979c-0.672,1.54-1.329,3.045-1.962,4.498l-0.144,0.33l-0.263-0.244
					c-2.695-2.497-5.182-4.802-7.339-6.801l0.332-0.059c-1.529,2.87-2.802,5.258-3.733,7.005c-0.434,0.785-0.787,1.425-1.064,1.927
					c-0.251,0.44-0.393,0.668-0.413,0.658c-0.02-0.01,0.085-0.258,0.3-0.717c0.25-0.515,0.569-1.173,0.961-1.98
					c0.891-1.768,2.108-4.185,3.571-7.089l0.125-0.248l0.208,0.189c2.174,1.98,4.681,4.263,7.398,6.737l-0.407,0.086
					c0.631-1.453,1.285-2.96,1.954-4.501c0.746-1.709,1.473-3.375,2.171-4.975l0.138-0.316l0.261,0.224
					c2.887,2.485,5.543,4.77,7.786,6.7l-0.325,0.08c1.163-2.799,2.127-5.117,2.831-6.813c0.329-0.759,0.597-1.377,0.809-1.865
					C245.754,438.025,245.865,437.804,245.884,437.812z"/>
			</g>
		</g>
		<g>
			<g>
				<path style="fill:#FAFAFA;" d="M280.307,420.06c0.013-0.017,0.22,0.12,0.599,0.392c0.427,0.316,0.969,0.717,1.634,1.209
					c1.46,1.115,3.454,2.638,5.863,4.479l0.228,0.174l-0.242,0.161c-2.464,1.639-5.381,3.579-8.553,5.689l0.023-0.408
					c1.344,1.114,2.744,2.274,4.179,3.464c1.292,1.075,2.554,2.125,3.772,3.139l0.277,0.231l-0.308,0.185
					c-3.15,1.891-6.057,3.637-8.578,5.151l0.036-0.335c2.329,2.269,4.268,4.158,5.686,5.539c0.633,0.636,1.149,1.153,1.553,1.559
					c0.352,0.364,0.532,0.564,0.517,0.58c-0.015,0.016-0.224-0.154-0.605-0.488c-0.425-0.384-0.967-0.874-1.633-1.475
					c-1.449-1.348-3.431-3.192-5.811-5.407l-0.203-0.189l0.239-0.146c2.508-1.536,5.4-3.306,8.533-5.225l-0.031,0.415
					c-1.22-1.011-2.484-2.059-3.778-3.132c-1.433-1.193-2.83-2.356-4.172-3.473l-0.265-0.221l0.288-0.188
					c3.191-2.08,6.126-3.992,8.606-5.608l-0.014,0.335c-2.364-1.898-4.321-3.47-5.753-4.62c-0.637-0.527-1.156-0.958-1.565-1.297
					C280.476,420.244,280.294,420.076,280.307,420.06z"/>
			</g>
		</g>
		<g style="opacity:0.2;">
			<polygon points="178.815,421.732 301.145,412.613 298.488,402.826 181.16,402.826 			"/>
		</g>
		<g>
			<g>
				<path style="fill:#263238;" d="M243.06,450.595c-0.144-0.002-0.168-8.459-0.055-18.887c0.113-10.432,0.322-18.884,0.466-18.883
					c0.144,0.002,0.168,8.457,0.055,18.889C243.412,442.142,243.203,450.597,243.06,450.595z"/>
			</g>
		</g>
		<g>
			<g>
				<path style="fill:#263238;" d="M268.611,450.595c-0.035,0.009-0.19-0.469-0.44-1.339c-0.271-0.968-0.617-2.208-1.032-3.693
					c-0.863-3.12-2.065-7.425-3.462-12.16c-1.399-4.736-2.728-9.005-3.698-12.093c-0.458-1.472-0.84-2.701-1.139-3.661
					c-0.263-0.867-0.392-1.352-0.358-1.363c0.034-0.012,0.228,0.451,0.55,1.298c0.323,0.847,0.767,2.08,1.296,3.611
					c1.06,3.061,2.447,7.318,3.848,12.061c1.399,4.741,2.547,9.069,3.319,12.215c0.387,1.573,0.684,2.85,0.873,3.736
					C268.557,450.092,268.646,450.586,268.611,450.595z"/>
			</g>
		</g>
	</g>
	<g>
		<polygon style="fill:#F5F5F5;" points="370.452,302.271 352.261,314.12 352.261,131.488 370.452,131.488 		"/>
	</g>
	<g>
		<path style="fill:#E0E0E0;" d="M352.159,291.592c8.345-25.629,4.612-54.186,13.809-79.599c0.884-2.444,1.904-4.943,1.645-7.492
			c-0.219-2.15-1.346-4.17-2.806-5.927c-1.633-1.965-4.082-3.788-6.884-3.59c-2.423,0.171-4.408,1.871-5.334,3.802
			c-0.926,1.931-0.994,4.075-1.035,6.163c-0.152,7.767-0.111,15.536-0.07,23.305c0.104,19.543,0.208,39.085,0.313,58.628"/>
	</g>
	<g>
		<polygon style="fill:#E0E0E0;" points="352.092,178.123 352.092,171.361 370.283,166.153 370.283,173.947 		"/>
	</g>
	<g>
		<path style="fill:#FFAD9D;" d="M131.606,206.186c0,0-1.309-10.155-0.715-13.745c0.632-3.819,7.008-11.912,7.008-11.912
			c-0.088-0.352-1.145-1.233-4.402,0c-3.257,1.232-4.402,3.522-7.483,5.723l-15.822-9.816l-5.22,16.602l13.438,21.158
			L131.606,206.186z"/>
	</g>
	<g>
		<path style="fill:#263238;" d="M201.497,167.344c-8.169,8.006-0.32,20.446-5.556,28.484c-3.174,4.872-9.969,7.227-11.431,12.855
			c-0.723,2.786,0.094,5.704,0.523,8.551c0.429,2.846,0.325,6.117-1.746,8.117c-0.961,0.928-2.233,1.459-3.31,2.25
			c-3.195,2.348-4.276,6.727-3.918,10.675c0.359,3.948,1.896,7.676,2.974,11.491c3.036,10.75,2.351,22.514-1.914,32.838
			c3.741,0.05,7.463-1.735,9.766-4.683c-0.099,2.646-0.198,5.292-0.297,7.939c3.519,0.217,6.92-1.675,9.271-4.303
			c2.35-2.629,3.8-5.929,5.03-9.234c5.532-14.853,7.378-31.063,5.325-46.779"/>
	</g>
	<g>
		<path style="fill:#263238;" d="M268.921,144.481c4.642,6.834,6.639,15.417,5.489,23.598c-0.653,4.649-2.261,9.484-0.662,13.897
			c1.377,3.799,5.032,6.903,4.831,10.939c-0.229,4.6-5.416,7.711-5.883,12.293c-0.648,6.351,7.879,10.617,7.781,17.001
			c-0.05,3.289-2.404,6.008-4.034,8.865c-1.63,2.857-2.365,6.98,0.195,9.047l-29.64-2.176l5.281-92.789L268.921,144.481z"/>
	</g>
	<g>
		<g>
			<g>
				<g>
					<g>
						<path style="fill:#FFAD9D;" d="M355.747,223.526l-0.325-0.009l1.31-4.37l4.184-16.7c0.397-1.515-0.446-3.077-1.965-3.638
							l-3.011-0.102l-10.314-4.824c-1.949-0.721-4.103,0.503-4.348,2.495c-0.377,3.069-2.463,11.315-4.686,8.427
							c-0.052-0.068-0.108-0.123-0.16-0.19c-3.122-4.298-7.011-6.617-8.611-6.552c-1.561,0.063-2.137,1.954-1.092,3.084
							c0.155,0.194,0.338,0.374,0.589,0.51c0.104,0.056,0.227,0.157,0.338,0.228c1.212,0.973,2.653,2.703,3.712,4.073
							c1.01,1.307,1.778,2.79,2.273,4.347c0.551,1.732,0.96,3.25,1.268,4.537l-0.801,8.524"/>
					</g>
				</g>
				<g>
					<g>
						<g>
							<g>
								<path style="fill:#455A64;" d="M328.227,147.883c0,0,12.054-2.31,29.37-18.041c17.316-15.731,25.847-37.032,27.907-36.868
									c2.06,0.163,11.188-3.764,27.265,33.995c16.077,37.759,9.082,46.222,5.675,46.056c-3.408-0.167-26.376-7.275-40.883-6.042
									c-14.507,1.234-33.308,8.243-33.308,8.243L328.227,147.883z"/>
							</g>
						</g>
						<g>
							<g>
								<path style="fill:#263238;" d="M302.204,167.477l3.866,7.885l1.732,3.533c2.375,4.845,8.127,6.983,13.091,4.865
									l25.928-8.217l-13.984-34.559l-26.039,12.942C301.801,156.41,299.748,162.465,302.204,167.477z"/>
							</g>
						</g>
						<g>
							<g>
								<path style="fill:#263238;" d="M316.654,180.337l7.728,16.267l4.124-1.021l26.102,22.492l7.881-14.406
									c0,0-15.597-7.25-18.357-12.963c-2.76-5.713,0.65-6.895,0.65-6.895l-7.192-8.656L316.654,180.337z"/>
							</g>
						</g>
						<g>
							<g>
								<path style="fill:#263238;" d="M411.365,127.608c8.546,20.449,11.832,38.549,7.338,40.427
									c-4.493,1.878-15.064-13.178-23.61-33.627c-8.546-20.449-11.831-38.549-7.338-40.427
									C392.249,92.104,402.819,107.159,411.365,127.608z"/>
							</g>
						</g>
					</g>
					<g>
						<g>
							<polygon style="fill:#455A64;" points="299.682,178.641 306.703,176.653 302.629,168.343 297.318,171.439 							"/>
						</g>
					</g>
					<g>
						<g>
							<polygon style="fill:#455A64;" points="340.056,178.123 321.016,189.519 318.813,184.882 							"/>
						</g>
					</g>
					<g>
						<g>
							<polygon style="fill:#455A64;" points="302.629,168.343 306.703,176.653 305.261,177.062 301.994,168.713 							"/>
						</g>
					</g>
					<g>
						<g>
							<path style="fill:#455A64;" d="M307.37,170.368c0.096,0.228,3.607-1.023,7.842-2.795c4.238-1.771,7.594-3.393,7.498-3.62
								c-0.095-0.228-3.605,1.024-7.842,2.795C310.632,168.519,307.276,170.14,307.37,170.368z"/>
						</g>
					</g>
					<g>
						<g>
							<path style="fill:#455A64;" d="M305.369,165.43c0.103,0.225,3.283-1.01,7.103-2.759c3.822-1.75,6.835-3.349,6.732-3.574
								c-0.103-0.224-3.282,1.011-7.104,2.76C308.28,163.607,305.266,165.206,305.369,165.43z"/>
						</g>
					</g>
					<g>
						<g>
							<path style="fill:#455A64;" d="M309.925,175.559c0.033,0.12,0.866-0.048,2.196-0.418c0.664-0.185,1.452-0.42,2.325-0.695
								c0.867-0.287,1.77-0.712,2.737-1.117c3.857-1.659,6.813-3.307,6.724-3.515c-0.106-0.245-3.252,1.049-7.074,2.692
								c-0.958,0.402-1.849,0.849-2.686,1.171c-0.84,0.312-1.594,0.604-2.224,0.863C310.662,175.059,309.892,175.44,309.925,175.559
								z"/>
						</g>
					</g>
					<g>
						<g>
							<path style="fill:#455A64;" d="M392.902,122.59c0,0,10.594-6.16,15.891,8.067c5.297,14.228-5.723,16.23-5.723,16.23
								C398.785,139.809,395.37,131.739,392.902,122.59z"/>
						</g>
					</g>
					<g>
						<g>
							<path style="fill:#263238;" d="M382.305,105.513c-0.061,0.009,0.06,0.968,0.332,2.699c0.281,1.728,0.675,4.236,1.256,7.319
								c0.397,1.521,0.832,3.182,1.297,4.963c0.236,0.893,0.48,1.815,0.731,2.764c0.126,0.476,0.254,0.957,0.384,1.445
								c0.142,0.485,0.331,0.962,0.499,1.453c0.695,1.957,1.424,4.009,2.18,6.136c0.19,0.532,0.381,1.068,0.575,1.609
								c0.187,0.543,0.459,1.057,0.687,1.593c0.479,1.064,0.965,2.143,1.457,3.235c0.493,1.092,0.981,2.17,1.462,3.234
								c0.251,0.526,0.457,1.07,0.74,1.571c0.278,0.503,0.553,1.002,0.826,1.496c1.095,1.974,2.151,3.88,3.159,5.696
								c0.258,0.45,0.49,0.908,0.76,1.335c0.281,0.422,0.557,0.837,0.831,1.247c0.547,0.818,1.078,1.613,1.591,2.382
								c1.028,1.529,1.988,2.956,2.866,4.262c1.922,2.469,3.538,4.419,4.647,5.772c1.117,1.348,1.757,2.075,1.806,2.037
								c0.049-0.038-0.499-0.837-1.531-2.25c-1.071-1.44-2.574-3.462-4.421-5.945c-0.844-1.315-1.765-2.751-2.754-4.291
								c-0.497-0.77-1.01-1.565-1.539-2.384c-0.265-0.409-0.534-0.825-0.806-1.245c-0.262-0.427-0.488-0.886-0.739-1.336
								c-0.986-1.812-2.02-3.713-3.092-5.683c-0.269-0.492-0.54-0.989-0.814-1.489c-0.279-0.498-0.482-1.039-0.729-1.562
								c-0.476-1.056-0.958-2.128-1.447-3.213c-0.49-1.084-0.974-2.155-1.451-3.21c-0.228-0.532-0.5-1.041-0.688-1.58
								c-0.194-0.536-0.387-1.068-0.578-1.595c-0.767-2.106-1.508-4.139-2.214-6.077c-0.172-0.486-0.366-0.958-0.513-1.437
								c-0.135-0.483-0.268-0.96-0.4-1.431c-0.264-0.94-0.521-1.853-0.769-2.735c-0.501-1.761-0.968-3.404-1.396-4.909
								c-0.638-3.021-1.158-5.481-1.528-7.234C382.603,106.446,382.366,105.504,382.305,105.513z"/>
						</g>
					</g>
				</g>
			</g>
			<g>
				<g>
					<g>
						<path style="fill:#E8505B;" d="M330.484,219.944l-5.22,46.334l-26.052-25.96c0,0-13.942,28.991-14.136,30.171
							c-0.13,0.793,14.622,15.367,25.582,23.786c5.934,4.558,13.941,11.602,21.33,10.418c12.324-1.975,19.642-10.117,20.713-22.553
							l4.72-61.483L330.484,219.944z"/>
					</g>
				</g>
				<g>
					<g>
						<g>
							<g>
								<path style="fill:#E8505B;" d="M194.115,262.96l-19.101-12.659c5.225-29.366,47.644-32.309,47.644-32.309l32.298-0.573
									c0,0,23.939-3.255,38.743,13.383c15.321,17.219,26.855,30.775,26.855,30.775l-20.964,22.943l-20.55-16.13
									c0,0,5.034,6.598,5.047,15.505c0.015,9.561-7.123,18.704-7.123,18.704l-1.789,16.331l7.828,31.652l-91.498,0.243
									c6.239-9.887,10.7-18.443,16.256-33.063l-8.548-30.784L194.115,262.96z"/>
							</g>
						</g>
					</g>
				</g>
				<g>
					<path style="fill:#E8505B;" d="M195.502,226.742l-46.345,24.52l-16.769-45.808l-20.457,9.729l14.471,58.31
						c2.877,11.591,15.152,18.558,26.356,14.425c0.377-0.139,0.752-0.289,1.125-0.451l50.212-21.738L195.502,226.742z"/>
				</g>
				<g>
					<g>
						<path style="fill:#FAFAFA;" d="M226.351,262.749c0.018,0.117-1.251,0.007-2.95,0.881c-0.84,0.43-1.741,1.147-2.446,2.17
							c-0.708,1.017-1.168,2.352-1.177,3.782c0.009,1.431,0.47,2.766,1.177,3.783c0.705,1.023,1.607,1.741,2.446,2.171
							c1.699,0.874,2.968,0.764,2.95,0.881c0.001,0.029-0.302,0.07-0.853,0.044c-0.549-0.032-1.353-0.177-2.26-0.595
							c-0.907-0.41-1.896-1.142-2.675-2.225c-0.781-1.074-1.297-2.516-1.305-4.059c0.008-1.542,0.524-2.984,1.305-4.058
							c0.779-1.082,1.768-1.814,2.675-2.224c0.908-0.418,1.711-0.563,2.26-0.595C226.049,262.68,226.352,262.72,226.351,262.749z"/>
					</g>
				</g>
				<g>
					<g>
						<path style="fill:#FAFAFA;" d="M258.949,278.675c0.105-0.055,0.413,1.181,1.79,2.505c0.678,0.655,1.65,1.275,2.846,1.611
							c1.191,0.34,2.603,0.343,3.959-0.112c1.35-0.472,2.464-1.341,3.197-2.34c0.74-0.999,1.126-2.085,1.26-3.018
							c0.276-1.89-0.239-3.055-0.123-3.076c0.028-0.01,0.164,0.263,0.318,0.793c0.148,0.53,0.271,1.337,0.17,2.331
							c-0.094,0.991-0.466,2.164-1.237,3.252c-0.763,1.087-1.959,2.043-3.416,2.551c-1.462,0.492-2.993,0.471-4.262,0.08
							c-1.276-0.386-2.289-1.085-2.972-1.81c-0.69-0.723-1.087-1.436-1.295-1.946C258.981,278.983,258.921,278.684,258.949,278.675z
							"/>
					</g>
				</g>
				<g>
					<g>
						<path style="fill:#FAFAFA;" d="M235.571,330.843c0.057-0.104,0.993,0.761,2.87,1.113c0.926,0.176,2.079,0.161,3.263-0.214
							c1.182-0.369,2.365-1.141,3.249-2.265c0.87-1.136,1.325-2.473,1.39-3.71c0.071-1.241-0.202-2.361-0.601-3.215
							c-0.806-1.732-1.876-2.424-1.79-2.505c0.017-0.024,0.281,0.13,0.701,0.489c0.414,0.362,0.96,0.969,1.421,1.856
							c0.465,0.88,0.798,2.065,0.749,3.398c-0.041,1.328-0.518,2.783-1.458,4.007c-0.952,1.213-2.244,2.036-3.52,2.405
							c-1.279,0.377-2.509,0.349-3.477,0.117c-0.973-0.226-1.697-0.604-2.15-0.916C235.767,331.083,235.553,330.866,235.571,330.843
							z"/>
					</g>
				</g>
				<g>
					<g>
						<path style="fill:#FAFAFA;" d="M331.72,250.628c0.057-0.104,0.993,0.761,2.87,1.113c0.926,0.176,2.079,0.161,3.263-0.214
							c1.183-0.369,2.365-1.141,3.249-2.265c0.87-1.136,1.325-2.473,1.39-3.71c0.07-1.241-0.202-2.361-0.601-3.215
							c-0.806-1.732-1.876-2.424-1.79-2.505c0.017-0.024,0.281,0.13,0.701,0.489c0.414,0.362,0.96,0.969,1.421,1.856
							c0.465,0.88,0.798,2.065,0.749,3.398c-0.041,1.328-0.518,2.783-1.458,4.007c-0.952,1.213-2.244,2.036-3.52,2.405
							c-1.279,0.377-2.509,0.349-3.477,0.117c-0.973-0.226-1.697-0.604-2.15-0.916C331.916,250.868,331.701,250.651,331.72,250.628z
							"/>
					</g>
				</g>
				<g>
					<g>
						<path style="fill:#FAFAFA;" d="M340.398,297.402c-0.115,0.026-0.091-1.248-1.077-2.884c-0.485-0.809-1.261-1.66-2.329-2.295
							c-1.062-0.638-2.425-1.008-3.852-0.921c-1.427,0.105-2.728,0.654-3.695,1.428c-0.974,0.772-1.629,1.72-2.002,2.586
							c-0.758,1.753-0.563,3.013-0.681,3.002c-0.029,0.003-0.09-0.296-0.101-0.848c-0.005-0.55,0.086-1.361,0.442-2.295
							c0.349-0.932,1.013-1.969,2.04-2.818c1.019-0.852,2.423-1.463,3.962-1.575c1.539-0.095,3.012,0.323,4.136,1.031
							c1.132,0.705,1.929,1.643,2.399,2.52c0.478,0.877,0.676,1.669,0.745,2.215C340.448,297.096,340.428,297.401,340.398,297.402z"
							/>
					</g>
				</g>
				<g>
					<g>
						<path style="fill:#FAFAFA;" d="M269.707,238.612c0.09-0.077,0.665,1.06,2.302,2.044c0.807,0.488,1.892,0.876,3.133,0.938
							c1.237,0.066,2.614-0.245,3.835-0.989c1.212-0.761,2.105-1.855,2.597-2.992c0.499-1.139,0.635-2.283,0.558-3.223
							c-0.151-1.904-0.913-2.926-0.803-2.972c0.025-0.016,0.218,0.22,0.486,0.702c0.262,0.484,0.562,1.243,0.684,2.235
							c0.129,0.987,0.027,2.214-0.483,3.446c-0.502,1.23-1.456,2.427-2.764,3.246c-1.316,0.805-2.813,1.125-4.137,1.026
							c-1.33-0.093-2.473-0.548-3.299-1.104c-0.833-0.552-1.379-1.158-1.695-1.609C269.807,238.905,269.682,238.627,269.707,238.612
							z"/>
					</g>
				</g>
				<g>
					<g>
						<path style="fill:#FAFAFA;" d="M178.865,263.559c0.09-0.077,0.665,1.06,2.302,2.044c0.807,0.488,1.892,0.877,3.133,0.938
							c1.237,0.066,2.614-0.245,3.835-0.989c1.212-0.761,2.105-1.855,2.597-2.992c0.499-1.138,0.635-2.283,0.558-3.223
							c-0.151-1.904-0.913-2.926-0.803-2.972c0.025-0.016,0.218,0.22,0.486,0.702c0.262,0.484,0.562,1.243,0.684,2.235
							c0.129,0.987,0.027,2.214-0.483,3.446c-0.502,1.23-1.456,2.427-2.764,3.246c-1.316,0.805-2.813,1.125-4.137,1.026
							c-1.33-0.093-2.473-0.548-3.299-1.104c-0.833-0.552-1.379-1.159-1.695-1.609C178.965,263.852,178.84,263.573,178.865,263.559z
							"/>
					</g>
				</g>
				<g>
					<g>
						<path style="fill:#FAFAFA;" d="M142.035,265.402c-0.106-0.052,0.714-1.027,0.976-2.92c0.132-0.934,0.063-2.084-0.368-3.249
							c-0.425-1.164-1.252-2.308-2.416-3.139c-1.176-0.816-2.533-1.207-3.772-1.213c-1.243-0.012-2.348,0.313-3.183,0.752
							c-1.692,0.887-2.332,1.988-2.417,1.906c-0.025-0.016,0.117-0.287,0.455-0.723c0.342-0.431,0.923-1.005,1.787-1.507
							c0.857-0.506,2.025-0.894,3.359-0.909c1.328-0.021,2.804,0.386,4.071,1.267c1.257,0.894,2.139,2.145,2.568,3.402
							c0.437,1.26,0.467,2.49,0.281,3.468c-0.18,0.983-0.524,1.724-0.814,2.191C142.265,265.195,142.058,265.419,142.035,265.402z"
							/>
					</g>
				</g>
				<g>
					<g>
						<path style="fill:#FAFAFA;" d="M245.373,271.674c-0.041,0.093-0.6-0.555-1.683-0.391c-0.513,0.083-1.097,0.445-1.371,1.069
							c-0.284,0.607-0.188,1.461,0.368,2.008c0.547,0.557,1.401,0.653,2.008,0.369c0.624-0.274,0.987-0.859,1.069-1.372
							C245.928,272.273,245.279,271.715,245.373,271.674c0.02-0.022,0.188,0.07,0.393,0.343c0.2,0.268,0.423,0.756,0.364,1.389
							c-0.047,0.621-0.45,1.38-1.231,1.757c-0.756,0.39-1.871,0.288-2.58-0.435c-0.723-0.709-0.825-1.823-0.435-2.579
							c0.377-0.781,1.136-1.184,1.757-1.231c0.633-0.06,1.121,0.164,1.389,0.364C245.303,271.486,245.394,271.654,245.373,271.674z"
							/>
					</g>
				</g>
				<g>
					<g>
						<path style="fill:#FAFAFA;" d="M277.465,256.018c-0.041,0.093-0.6-0.555-1.683-0.391c-0.513,0.083-1.097,0.445-1.371,1.069
							c-0.284,0.607-0.188,1.461,0.368,2.008c0.547,0.557,1.401,0.653,2.008,0.368c0.624-0.274,0.987-0.859,1.069-1.372
							C278.02,256.617,277.372,256.06,277.465,256.018c0.02-0.021,0.188,0.07,0.392,0.343c0.2,0.268,0.423,0.756,0.364,1.389
							c-0.047,0.621-0.45,1.38-1.231,1.757c-0.756,0.39-1.871,0.288-2.58-0.435c-0.723-0.709-0.825-1.823-0.435-2.579
							c0.377-0.781,1.136-1.183,1.757-1.231c0.633-0.06,1.121,0.164,1.389,0.364C277.395,255.831,277.487,255.998,277.465,256.018z"
							/>
					</g>
				</g>
				<g>
					<g>
						<path style="fill:#FAFAFA;" d="M347.158,229.983c-0.041,0.093-0.6-0.555-1.683-0.391c-0.513,0.082-1.097,0.445-1.371,1.069
							c-0.284,0.607-0.188,1.461,0.368,2.008c0.547,0.557,1.401,0.653,2.009,0.368c0.624-0.274,0.987-0.859,1.069-1.372
							C347.713,230.583,347.065,230.025,347.158,229.983c0.02-0.022,0.188,0.07,0.392,0.343c0.2,0.268,0.423,0.756,0.364,1.389
							c-0.047,0.621-0.45,1.38-1.231,1.757c-0.756,0.39-1.871,0.288-2.58-0.435c-0.723-0.709-0.825-1.823-0.435-2.579
							c0.377-0.781,1.136-1.184,1.757-1.231c0.633-0.059,1.121,0.164,1.389,0.364C347.089,229.796,347.18,229.963,347.158,229.983z"
							/>
					</g>
				</g>
				<g>
					<g>
						<path style="fill:#FAFAFA;" d="M268.528,305.295c-0.042,0.093-0.6-0.555-1.683-0.391c-0.513,0.082-1.097,0.445-1.372,1.069
							c-0.284,0.607-0.188,1.461,0.368,2.008c0.547,0.557,1.401,0.653,2.008,0.369c0.624-0.274,0.987-0.859,1.069-1.372
							C269.083,305.894,268.434,305.336,268.528,305.295c0.02-0.021,0.188,0.07,0.392,0.343c0.2,0.268,0.423,0.755,0.364,1.389
							c-0.047,0.621-0.45,1.38-1.231,1.757c-0.756,0.39-1.871,0.288-2.58-0.435c-0.723-0.709-0.825-1.823-0.435-2.579
							c0.377-0.781,1.136-1.184,1.757-1.231c0.633-0.06,1.121,0.164,1.389,0.364C268.458,305.107,268.549,305.275,268.528,305.295z"
							/>
					</g>
				</g>
				<g>
					<g>
						<path style="fill:#FAFAFA;" d="M160.198,271.674c-0.041,0.093-0.6-0.555-1.683-0.391c-0.513,0.083-1.097,0.445-1.372,1.069
							c-0.284,0.607-0.188,1.461,0.368,2.008c0.547,0.557,1.401,0.653,2.008,0.369c0.624-0.274,0.987-0.859,1.069-1.372
							C160.753,272.273,160.105,271.715,160.198,271.674c0.02-0.022,0.188,0.07,0.392,0.343c0.2,0.268,0.423,0.756,0.364,1.389
							c-0.047,0.621-0.45,1.38-1.231,1.757c-0.756,0.39-1.871,0.288-2.58-0.435c-0.723-0.709-0.825-1.823-0.435-2.579
							c0.377-0.781,1.136-1.184,1.757-1.231c0.633-0.06,1.121,0.164,1.389,0.364C160.128,271.486,160.22,271.654,160.198,271.674z"
							/>
					</g>
				</g>
				<g>
					<g>
						<path style="fill:#FAFAFA;" d="M219.517,318.065c0.002,0.049-0.374,0.048-1.002,0.23c-0.616,0.18-1.511,0.611-2.193,1.542
							c-0.684,0.899-1.06,2.368-0.527,3.781c0.489,1.402,1.982,2.608,3.721,2.593c1.74,0.016,3.233-1.19,3.723-2.593
							c0.533-1.414,0.157-2.882-0.528-3.781c-0.682-0.93-1.577-1.362-2.193-1.542C219.891,318.113,219.515,318.114,219.517,318.065
							c-0.003-0.022,0.376-0.095,1.051,0.033c0.66,0.128,1.651,0.53,2.436,1.515c0.786,0.951,1.257,2.571,0.686,4.168
							c-0.52,1.583-2.201,2.969-4.174,2.95c-1.972,0.019-3.653-1.367-4.172-2.95c-0.571-1.597-0.1-3.217,0.686-4.168
							c0.785-0.985,1.776-1.387,2.436-1.515C219.141,317.97,219.52,318.043,219.517,318.065z"/>
					</g>
				</g>
				<g>
					<g>
						<path style="fill:#FAFAFA;" d="M314.127,262.749c0.002,0.049-0.374,0.047-1.001,0.23c-0.616,0.18-1.511,0.612-2.193,1.542
							c-0.685,0.9-1.06,2.368-0.527,3.781c0.489,1.402,1.982,2.608,3.721,2.593c1.74,0.016,3.233-1.19,3.722-2.593
							c0.533-1.414,0.157-2.882-0.528-3.781c-0.682-0.93-1.577-1.362-2.193-1.542C314.501,262.797,314.125,262.798,314.127,262.749
							c-0.002-0.022,0.376-0.096,1.051,0.033c0.66,0.128,1.651,0.53,2.436,1.515c0.786,0.951,1.257,2.571,0.686,4.168
							c-0.52,1.583-2.201,2.969-4.174,2.95c-1.972,0.019-3.653-1.367-4.172-2.95c-0.571-1.597-0.1-3.217,0.686-4.168
							c0.785-0.985,1.776-1.388,2.436-1.515C313.751,262.654,314.129,262.727,314.127,262.749z"/>
					</g>
				</g>
				<g>
					<path style="fill:#FAFAFA;" d="M212.653,287.83c0.792-0.793,2.077-0.793,2.87,0c0.792,0.793,0.792,2.078,0,2.87
						c-0.793,0.793-2.078,0.793-2.87,0C211.86,289.908,211.86,288.623,212.653,287.83z"/>
				</g>
				<g>
					<path style="fill:#FAFAFA;" d="M136.465,271.674c0.792-0.793,2.077-0.793,2.87,0c0.792,0.793,0.792,2.078,0,2.87
						c-0.793,0.793-2.078,0.793-2.87,0C135.672,273.751,135.672,272.466,136.465,271.674z"/>
				</g>
				<g>
					<path style="fill:#FAFAFA;" d="M345.386,258.047c0.793-0.792,2.078-0.792,2.87,0c0.793,0.793,0.793,2.078,0,2.87
						c-0.793,0.793-2.078,0.793-2.87,0C344.594,260.125,344.594,258.84,345.386,258.047z"/>
				</g>
				<g>
					<path style="fill:#FAFAFA;" d="M269.939,226.748c0.793-0.793,2.078-0.793,2.87,0c0.793,0.792,0.793,2.077,0,2.87
						c-0.793,0.793-2.078,0.793-2.87,0C269.147,228.825,269.147,227.54,269.939,226.748z"/>
				</g>
				<g>
					<path style="fill:#FAFAFA;" d="M223.457,341.945c0.792-0.793,2.077-0.793,2.87,0c0.793,0.793,0.793,2.078,0,2.87
						c-0.793,0.793-2.078,0.793-2.87,0C222.665,344.023,222.665,342.738,223.457,341.945z"/>
				</g>
				<g>
					<g>
						<path style="fill:#FAFAFA;" d="M254.57,296.546c0.017,0.012-0.108,0.225-0.36,0.618c-0.294,0.443-0.666,1.005-1.123,1.694
							c-1.039,1.515-2.458,3.585-4.172,6.085l-0.162,0.237l-0.173-0.233c-1.763-2.377-3.851-5.19-6.12-8.25l0.409,0.002
							c-1.043,1.399-2.13,2.857-3.245,4.351c-1.007,1.345-1.992,2.659-2.941,3.928l-0.216,0.289l-0.2-0.298
							c-2.051-3.049-3.943-5.863-5.584-8.303l0.337,0.019c-2.147,2.443-3.933,4.476-5.24,5.962
							c-0.602,0.665-1.093,1.207-1.477,1.631c-0.345,0.371-0.536,0.56-0.553,0.546c-0.017-0.014,0.142-0.232,0.456-0.629
							c0.361-0.444,0.823-1.011,1.389-1.707c1.272-1.516,3.012-3.59,5.102-6.081l0.178-0.212l0.159,0.232
							c1.662,2.426,3.579,5.223,5.656,8.254l-0.416-0.009c0.947-1.27,1.929-2.586,2.934-3.933c1.118-1.492,2.208-2.947,3.254-4.344
							l0.207-0.276l0.202,0.278c2.241,3.08,4.301,5.913,6.042,8.307l-0.335,0.003c1.774-2.458,3.243-4.493,4.318-5.982
							c0.494-0.663,0.897-1.203,1.215-1.629C254.394,296.724,254.553,296.534,254.57,296.546z"/>
					</g>
				</g>
				<g>
					<g>
						<path style="fill:#FAFAFA;" d="M274.698,330.624c0.02,0.008-0.053,0.244-0.209,0.684c-0.184,0.499-0.418,1.131-0.705,1.906
							c-0.664,1.713-1.57,4.053-2.665,6.88l-0.104,0.267l-0.222-0.187c-2.262-1.909-4.938-4.169-7.849-6.626l0.398-0.092
							c-0.695,1.601-1.418,3.269-2.161,4.979c-0.672,1.54-1.329,3.045-1.962,4.497l-0.144,0.33l-0.263-0.244
							c-2.695-2.497-5.182-4.802-7.339-6.801l0.332-0.059c-1.529,2.87-2.802,5.258-3.733,7.005
							c-0.434,0.785-0.787,1.425-1.064,1.927c-0.251,0.44-0.393,0.668-0.413,0.658c-0.019-0.01,0.085-0.258,0.3-0.717
							c0.25-0.515,0.569-1.173,0.961-1.98c0.891-1.768,2.108-4.185,3.571-7.089l0.125-0.248l0.208,0.189
							c2.174,1.98,4.681,4.263,7.398,6.737l-0.407,0.086c0.631-1.453,1.285-2.96,1.954-4.501c0.746-1.709,1.473-3.375,2.171-4.975
							l0.138-0.316l0.261,0.224c2.887,2.484,5.543,4.769,7.786,6.7l-0.325,0.08c1.164-2.799,2.127-5.117,2.832-6.813
							c0.329-0.759,0.597-1.377,0.809-1.865C274.568,330.837,274.679,330.616,274.698,330.624z"/>
					</g>
				</g>
				<g>
					<g>
						<path style="fill:#FAFAFA;" d="M291.41,242.026c0.012-0.017,0.225,0.109,0.617,0.363c0.442,0.295,1.002,0.67,1.689,1.13
							c1.511,1.044,3.575,2.472,6.069,4.196l0.236,0.163l-0.234,0.172c-2.384,1.754-5.205,3.83-8.273,6.088l0.003-0.409
							c1.395,1.049,2.848,2.141,4.339,3.262c1.341,1.012,2.652,2.002,3.916,2.957l0.288,0.217l-0.299,0.199
							c-3.057,2.039-5.878,3.92-8.324,5.552l0.02-0.337c2.434,2.156,4.46,3.951,5.942,5.263c0.663,0.605,1.203,1.097,1.626,1.483
							c0.369,0.346,0.558,0.538,0.544,0.555c-0.014,0.017-0.231-0.143-0.627-0.459c-0.443-0.363-1.008-0.827-1.701-1.396
							c-1.511-1.278-3.578-3.026-6.061-5.125l-0.212-0.179l0.232-0.158c2.432-1.653,5.237-3.559,8.276-5.624l-0.011,0.416
							c-1.266-0.952-2.579-1.939-3.922-2.949c-1.488-1.124-2.939-2.219-4.332-3.271l-0.276-0.208l0.279-0.201
							c3.089-2.229,5.93-4.278,8.33-6.01l0.002,0.335c-2.451-1.784-4.48-3.261-5.966-4.342c-0.661-0.497-1.2-0.902-1.625-1.221
							C291.587,242.203,291.397,242.043,291.41,242.026z"/>
					</g>
				</g>
				<g>
					<g>
						<path style="fill:#FAFAFA;" d="M316.282,288.365c-0.019-0.008,0.058-0.243,0.223-0.68c0.194-0.495,0.441-1.122,0.744-1.891
							c0.698-1.699,1.652-4.02,2.805-6.824l0.109-0.265l0.218,0.192c2.222,1.955,4.852,4.269,7.712,6.785l-0.4,0.084
							c0.727-1.587,1.485-3.239,2.262-4.934c0.703-1.526,1.391-3.018,2.054-4.457l0.151-0.327l0.258,0.249
							c2.643,2.552,5.083,4.907,7.199,6.949l-0.333,0.052c1.587-2.838,2.909-5.2,3.875-6.927c0.45-0.776,0.816-1.409,1.103-1.905
							c0.26-0.435,0.407-0.66,0.426-0.65c0.019,0.01-0.09,0.256-0.314,0.711c-0.26,0.51-0.593,1.161-1.001,1.96
							c-0.927,1.749-2.193,4.141-3.715,7.014l-0.13,0.245l-0.204-0.193c-2.133-2.024-4.593-4.358-7.259-6.887l0.409-0.078
							c-0.66,1.44-1.345,2.933-2.045,4.46c-0.78,1.693-1.542,3.344-2.272,4.93l-0.145,0.314l-0.256-0.23
							c-2.836-2.543-5.444-4.881-7.648-6.857l0.327-0.074c-1.22,2.775-2.23,5.073-2.97,6.754c-0.344,0.752-0.625,1.365-0.846,1.848
							C316.417,288.155,316.301,288.374,316.282,288.365z"/>
					</g>
				</g>
				<g>
					<g>
						<path style="fill:#FAFAFA;" d="M157.794,259.25c-0.019-0.008,0.058-0.243,0.223-0.68c0.195-0.495,0.441-1.122,0.744-1.891
							c0.698-1.699,1.653-4.02,2.805-6.824l0.109-0.265l0.218,0.192c2.222,1.955,4.852,4.269,7.712,6.785l-0.4,0.084
							c0.727-1.587,1.485-3.239,2.262-4.934c0.703-1.526,1.391-3.018,2.054-4.456l0.151-0.327l0.258,0.249
							c2.644,2.552,5.083,4.907,7.199,6.949l-0.333,0.052c1.588-2.838,2.909-5.2,3.875-6.928c0.45-0.777,0.816-1.409,1.103-1.905
							c0.26-0.435,0.407-0.66,0.426-0.65c0.019,0.01-0.09,0.256-0.315,0.71c-0.26,0.51-0.593,1.161-1.001,1.96
							c-0.926,1.749-2.193,4.141-3.715,7.015l-0.13,0.245l-0.204-0.193c-2.133-2.024-4.593-4.358-7.259-6.887l0.409-0.078
							c-0.66,1.44-1.345,2.933-2.045,4.46c-0.781,1.693-1.542,3.344-2.272,4.93l-0.145,0.314l-0.256-0.229
							c-2.836-2.543-5.444-4.882-7.648-6.857l0.327-0.073c-1.22,2.775-2.231,5.073-2.97,6.754c-0.344,0.752-0.625,1.364-0.846,1.848
							C157.929,259.039,157.813,259.258,157.794,259.25z"/>
					</g>
				</g>
				<g>
					<g>
						<path style="fill:#FAFAFA;" d="M229.731,247.274c-0.01-0.018,0.194-0.157,0.591-0.404c0.456-0.274,1.033-0.621,1.742-1.048
							c1.588-0.922,3.759-2.183,6.38-3.705l0.248-0.144l0.056,0.285c0.572,2.904,1.25,6.341,1.986,10.078l-0.369-0.177
							c1.543-0.816,3.15-1.666,4.799-2.537c1.487-0.782,2.94-1.547,4.343-2.285l0.319-0.168l0.053,0.355
							c0.543,3.634,1.045,6.988,1.48,9.896l-0.296-0.162c2.987-1.285,5.474-2.354,7.292-3.136c0.829-0.342,1.505-0.621,2.034-0.839
							c0.471-0.187,0.725-0.276,0.734-0.256c0.009,0.02-0.228,0.148-0.682,0.372c-0.517,0.246-1.177,0.56-1.987,0.945
							c-1.8,0.824-4.261,1.95-7.218,3.302l-0.252,0.115l-0.044-0.277c-0.46-2.904-0.99-6.254-1.565-9.883l0.372,0.187
							c-1.401,0.74-2.853,1.508-4.338,2.293c-1.65,0.868-3.259,1.714-4.804,2.527l-0.306,0.161l-0.063-0.338
							c-0.701-3.744-1.347-7.187-1.892-10.096l0.304,0.141c-2.658,1.458-4.858,2.666-6.468,3.549
							c-0.731,0.387-1.327,0.702-1.797,0.95C229.966,247.189,229.741,247.293,229.731,247.274z"/>
					</g>
				</g>
			</g>
			<g>
				<g>
					<g>
						<g>
							<g>
								<g>
									<path style="fill:#FFAD9D;" d="M254.385,223.479c0.206-8.987,0.589-18.632,0.589-18.632s13.674-1.725,14.263-15.681
										c0.449-10.625,0.638-27.328,0.702-34.698c0.019-2.204-1.411-4.149-3.518-4.798l-22.763-7.016l-19.143,14.133l-0.46,66.232
										c-0.058,8.418,5.441,13.615,13.859,13.615l0,0C246.153,236.634,254.196,231.716,254.385,223.479z"/>
								</g>
								<g>
									<path style="fill:#E88B79;" d="M254.974,204.847c0,0-9.146,0.263-18.107-5.927c0,0,4.256,10.166,17.869,9.353
										L254.974,204.847z"/>
								</g>
								<g>
									<path style="fill:#E88B79;" d="M253.739,188.587c0.24-0.524,0.177-1.175-0.159-1.643c-0.337-0.468-0.934-0.735-1.507-0.673
										c-0.082-1.278-1.335-2.333-2.615-2.284c-1.28,0.048-2.419,1.115-2.644,2.376c-0.225,1.261,0.419,2.606,1.491,3.307
										c1.072,0.701,2.501,0.77,3.681,0.269c0.924-0.392,1.744-1.195,1.856-2.193"/>
								</g>
								<g>
									<g>
										<g>
											<g>
												<g>
													<g>
														<g>
															<g>
																<g>
																	<path style="fill:#263238;" d="M264.732,167.721c0.036,1.011-0.791,1.876-1.847,1.933
																		c-1.054,0.056-1.939-0.715-1.974-1.727c-0.036-1.011,0.791-1.877,1.845-1.934
																		C263.812,165.936,264.697,166.709,264.732,167.721z"/>
																</g>
															</g>
														</g>
														<g>
															<g>
																<g>
																	<g>
																		<path style="fill:#263238;" d="M267.062,166.115c-0.237,0.25-1.689-0.824-3.75-0.819
																			c-2.059-0.024-3.572,1.036-3.795,0.784c-0.11-0.112,0.132-0.562,0.791-1.042c0.648-0.478,1.754-0.942,3.038-0.937
																			c1.284,0.007,2.364,0.48,2.985,0.964C266.965,165.552,267.179,166.003,267.062,166.115z"/>
																	</g>
																</g>
															</g>
														</g>
													</g>
													<g>
														<g>
															<g>
																<g>
																	<path style="fill:#263238;" d="M254.282,181.786c-0.01-0.117,1.272-0.339,3.348-0.604
																		c0.526-0.054,1.024-0.159,1.113-0.518c0.124-0.381-0.096-0.948-0.351-1.56c-0.495-1.274-1.013-2.609-1.557-4.008
																		c-2.161-5.706-3.726-10.398-3.496-10.484c0.231-0.085,2.17,4.471,4.331,10.178c0.52,1.407,1.018,2.748,1.491,4.032
																		c0.199,0.598,0.542,1.277,0.273,2.066c-0.142,0.393-0.528,0.679-0.865,0.77c-0.337,0.103-0.634,0.109-0.894,0.124
																		C255.586,181.894,254.29,181.903,254.282,181.786z"/>
																</g>
															</g>
														</g>
													</g>
													<g>
														<g>
															<g>
																<g>
																	<path style="fill:#263238;" d="M248.216,183.212c0.335-0.019,0.339,2.218,2.254,3.806
																		c1.912,1.593,4.297,1.342,4.314,1.655c0.031,0.14-0.531,0.435-1.537,0.462c-0.988,0.034-2.43-0.283-3.601-1.255
																		c-1.168-0.974-1.671-2.273-1.747-3.191C247.813,183.753,248.063,183.199,248.216,183.212z"/>
																</g>
															</g>
														</g>
													</g>
												</g>
											</g>
										</g>
										<g>
											<g>
												<g>
													<path style="fill:#263238;" d="M247.847,165.089c-0.216,0.545-1.948,0.144-4.03,0.275
														c-2.083,0.081-3.798,0.658-4.032,0.136c-0.103-0.249,0.227-0.752,0.94-1.241c0.707-0.488,1.809-0.919,3.058-0.984
														c1.248-0.062,2.362,0.256,3.084,0.671C247.596,164.361,247.942,164.83,247.847,165.089z"/>
												</g>
											</g>
										</g>
										<g>
											<g>
												<g>
													<path style="fill:#263238;" d="M267.516,161.068c-0.44,0.468-2.161-0.018-4.233-0.04
														c-2.069-0.083-3.824,0.314-4.228-0.175c-0.177-0.238,0.099-0.707,0.866-1.15c0.755-0.442,2.017-0.803,3.441-0.767
														c1.423,0.037,2.656,0.462,3.376,0.941C267.47,160.357,267.71,160.84,267.516,161.068z"/>
												</g>
											</g>
										</g>
									</g>
								</g>
							</g>
						</g>
					</g>
				</g>
				<g>
					<g>
						<path style="fill:#263238;" d="M247.256,169.101c-0.074,0.044-0.314-0.367-0.901-0.78c-0.574-0.414-1.544-0.789-2.625-0.705
							c-1.088,0.089-2.011,0.556-2.63,0.941c-0.625,0.389-0.986,0.69-1.041,0.633c-0.046-0.045,0.225-0.443,0.828-0.934
							c0.594-0.482,1.575-1.058,2.802-1.16c1.235-0.097,2.318,0.396,2.896,0.936C247.181,168.579,247.31,169.083,247.256,169.101z"
							/>
					</g>
				</g>
				<g>
					<g>
						<path style="fill:#E88B79;" d="M240.215,173.817c-0.075,0.123-0.373,0.077-0.664-0.103c-0.292-0.179-0.467-0.424-0.392-0.546
							c0.075-0.123,0.373-0.076,0.664,0.103C240.115,173.45,240.29,173.695,240.215,173.817z"/>
					</g>
				</g>
				<g>
					<g>
						<path style="fill:#E88B79;" d="M243.777,174.071c-0.142-0.02-0.222-0.291-0.178-0.605s0.196-0.552,0.338-0.532
							c0.142,0.02,0.222,0.291,0.178,0.605C244.071,173.853,243.92,174.091,243.777,174.071z"/>
					</g>
				</g>
				<g>
					<g>
						<path style="fill:#E88B79;" d="M241.833,180c-0.131-0.059-0.146-0.308-0.034-0.554c0.112-0.247,0.309-0.398,0.44-0.339
							c0.131,0.06,0.146,0.308,0.034,0.554C242.16,179.908,241.963,180.059,241.833,180z"/>
					</g>
				</g>
				<g>
					<g>
						<path style="fill:#E88B79;" d="M264.733,173.503c-0.08,0.12-0.308,0.108-0.51-0.027c-0.202-0.135-0.301-0.341-0.221-0.46
							c0.08-0.12,0.308-0.108,0.51,0.027C264.714,173.178,264.813,173.384,264.733,173.503z"/>
					</g>
				</g>
				<g>
					<g>
						<path style="fill:#E88B79;" d="M266.992,173.17c-0.125-0.072-0.1-0.349,0.056-0.619c0.156-0.27,0.383-0.431,0.507-0.359
							c0.125,0.072,0.099,0.349-0.056,0.619C267.344,173.081,267.117,173.242,266.992,173.17z"/>
					</g>
				</g>
				<g>
					<g>
						<path style="fill:#E88B79;" d="M265.469,179.107c-0.142-0.024-0.202-0.37-0.134-0.774c0.068-0.404,0.238-0.711,0.38-0.688
							c0.142,0.024,0.202,0.37,0.134,0.774C265.781,178.824,265.611,179.131,265.469,179.107z"/>
					</g>
				</g>
				<g>
					<g>
						<path style="fill:#E8505B;" d="M264.731,200.985c0.019-0.039,0.428,0.161,1.207,0.384c0.775,0.215,1.946,0.449,3.375,0.294
							c1.42-0.15,3.092-0.723,4.593-1.877c1.507-1.136,2.754-2.921,3.253-5.047c0.504-2.121,0.275-4.284-0.402-6.04
							c-0.674-1.77-1.849-3.101-3.052-3.865c-1.206-0.778-2.365-1.074-3.161-1.172c-0.802-0.102-1.257-0.05-1.26-0.097
							c-0.002-0.018,0.109-0.044,0.325-0.076c0.216-0.028,0.538-0.05,0.954-0.028c0.826,0.038,2.047,0.287,3.338,1.061
							c1.29,0.76,2.571,2.148,3.303,4.001c0.736,1.838,0.993,4.099,0.462,6.338c-0.523,2.242-1.869,4.137-3.469,5.307
							c-1.594,1.192-3.362,1.753-4.849,1.862c-1.499,0.113-2.697-0.188-3.471-0.468C265.097,201.273,264.717,201.01,264.731,200.985
							z"/>
					</g>
				</g>
			</g>
		</g>
		<g style="opacity:0.2;">
			<g>
				<path d="M245.602,293.859c0.277,0.133-0.378,2.362-2.791,5.158c-1.197,1.389-2.857,2.863-4.956,4.129
					c-2.093,1.268-4.645,2.29-7.458,2.777c-2.818,0.459-5.565,0.327-7.958-0.187c-2.398-0.511-4.448-1.361-6.034-2.283
					c-3.194-1.853-4.542-3.746-4.324-3.962c0.265-0.308,2.004,1.023,5.134,2.308c3.09,1.296,7.755,2.388,12.75,1.555
					c4.991-0.845,9.042-3.401,11.539-5.636C244.042,295.482,245.251,293.655,245.602,293.859z"/>
			</g>
		</g>
		<g style="opacity:0.2;">
			<path d="M195.493,269.453c0,0,17.443,40.726,16.516,46.061c-0.928,5.335-13.147,22.673-13.147,22.673l8.9-20.424
				C202.551,300.354,198.231,283.982,195.493,269.453z"/>
		</g>
		<g>
			<g>
				<path style="fill:#263238;" d="M328.88,277.805c-0.122,0.06-1.38-2.337-2.446-5.491c-1.075-3.152-1.536-5.819-1.403-5.846
					c0.147-0.034,0.831,2.557,1.896,5.679C327.982,275.27,329.018,277.742,328.88,277.805z"/>
			</g>
		</g>
		<g>
			<g>
				<path style="fill:#263238;" d="M331.035,274.99c-0.107,0.087-1.763-1.795-3.434-4.387c-1.679-2.589-2.716-4.871-2.592-4.932
					c0.133-0.069,1.367,2.085,3.03,4.649C329.693,272.887,331.152,274.897,331.035,274.99z"/>
			</g>
		</g>
		<g>
			<g>
				<path style="fill:#263238;" d="M267.296,311.624c0.02,0.03-0.432,0.369-1.265,0.956c-0.914,0.633-2.109,1.459-3.549,2.456
					c-3.077,2.113-7.189,4.936-11.734,8.057c-4.531,3.145-8.628,5.99-11.695,8.119c-1.442,0.994-2.638,1.818-3.554,2.448
					c-0.844,0.571-1.321,0.873-1.342,0.844c-0.021-0.029,0.416-0.387,1.224-1.008c0.808-0.622,1.989-1.505,3.458-2.583
					c2.938-2.157,7.035-5.086,11.613-8.248c4.577-3.159,8.767-5.951,11.826-7.935c1.529-0.992,2.773-1.784,3.642-2.318
					C266.787,311.875,267.276,311.594,267.296,311.624z"/>
			</g>
		</g>
		<g>
			<g>
				<path style="fill:#263238;" d="M144.372,261.853c-0.132-0.04,0.544-2.582,1.808-5.561c1.257-2.983,2.611-5.238,2.731-5.171
					c0.132,0.071-1.005,2.416-2.251,5.374C145.406,259.448,144.515,261.899,144.372,261.853z"/>
			</g>
		</g>
		<g>
			<g>
				<path style="fill:#263238;" d="M147.673,266.301c-0.069-0.003-0.103-0.871-0.058-2.273c0.044-1.402,0.176-3.336,0.43-5.461
					c0.255-2.126,0.584-4.037,0.872-5.409c0.288-1.373,0.525-2.208,0.593-2.195c0.073,0.014-0.036,0.874-0.23,2.258
					c-0.194,1.384-0.464,3.293-0.718,5.408c-0.253,2.114-0.442,4.033-0.58,5.423C147.845,265.443,147.748,266.304,147.673,266.301z"
					/>
			</g>
		</g>
	</g>
	<g>
		<path style="fill:#263238;" d="M243.542,134.473c4.16,7.153,2.735,17.084-3.269,22.778c-3.03,2.874-7.122,4.842-9.006,8.569
			c-1.982,3.923-0.931,8.657,0.502,12.812c1.433,4.155,3.24,8.427,2.635,12.78c-0.75,5.406-5.081,9.765-6.003,15.144
			c-1.764,10.291,9.311,19.373,8.022,29.734c-0.565,4.54-3.434,8.399-5.92,12.24c-2.486,3.841-4.749,8.309-3.893,12.804
			c0.407,2.137,2.225,4.03,2.023,6.196c-0.816,8.754-13.198,9.933-14.988,8.399c2.264-4.31-0.409-11.005-0.675-11.34
			c-0.711,3.829-4.157,6.979-8.034,7.345c0.488-3.326,0.217-6.761-0.785-9.969c-1.467,2.472-4.075,4.234-6.915,4.672
			c2.368-12.092,0.875-24.91-4.207-36.135c-1.788-3.948-4.068-8.034-3.485-12.328c0.754-5.559,5.969-9.333,8.435-14.372
			c2.775-5.669,1.841-12.355,1.081-18.621c-0.76-6.266-1.137-13.149,2.462-18.334c2.194-3.16,5.677-5.352,7.448-8.767
			c1.647-3.174,1.577-6.943,2.581-10.375c1.82-6.219,6.38-13.238,12.504-15.357C230.179,130.231,239.687,128.18,243.542,134.473"/>
	</g>
	<g>
		<path style="fill:#263238;" d="M199.772,253.548c-1.504,4.324-3.03,8.797-2.702,13.363c0.328,4.566,3.006,9.29,7.406,10.554
			c1.674,0.481,3.636,0.519,4.818,1.798c0.977,1.057,1.086,2.698,0.644,4.068c-0.443,1.37-1.348,2.534-2.237,3.666
			c2.737-1.285,5.092-3.371,6.697-5.933c0.813,3.493-0.268,7.368-2.771,9.936c3.375,0.131,6.315-2.194,8.7-4.586
			c5.441-5.459,10.018-12.663,9.337-20.34c-0.678-7.643-6.436-14.287-6.413-21.961c0.009-2.947,0.885-5.828,1.035-8.771
			s-0.642-6.229-3.102-7.851"/>
	</g>
	<g>
		<path style="fill:#263238;" d="M242.153,135.033c2.821-3.528,7.62-5.191,12.11-4.69c4.49,0.501,8.622,2.989,11.615,6.374
			c2.992,3.385,4.913,7.613,6.076,11.978c0.346,1.298,0.63,2.643,0.47,3.976c-0.161,1.333-0.836,2.668-2.011,3.317
			c-1.212,0.67-2.748,0.501-3.998-0.096c-1.25-0.597-2.274-1.57-3.275-2.526c-0.582,2.672-3.112,4.79-5.844,4.894
			c-2.733,0.104-5.416-1.816-6.199-4.437c-1.464,3.515-5.365,5.847-9.154,5.471c-3.789-0.376-7.157-3.428-7.901-7.162
			c-0.694-3.48,0.736-7.066,2.742-9.993c2.007-2.927,4.59-5.419,6.645-8.313"/>
	</g>
	<g>
		<g>
			<path style="fill:#455A64;" d="M190.674,227.711c-0.023-0.022,0.311-0.305,0.749-0.988c0.436-0.679,0.91-1.811,1.052-3.349
				c0.187-1.538-0.059-3.421-0.336-5.614c-0.123-1.098-0.232-2.29-0.123-3.558c0.096-1.27,0.502-2.589,1.18-3.828
				c1.378-2.496,3.783-4.535,6.404-6.466c1.31-0.976,2.673-1.968,3.954-3.124c1.276-1.152,2.48-2.481,3.297-4.087
				c0.821-1.602,1.174-3.456,1.189-5.347c0.011-1.898-0.291-3.833-0.661-5.788c-0.375-1.953-0.836-3.952-1.036-6.028
				c-0.204-2.065-0.209-4.234,0.412-6.325c0.309-1.04,0.78-2.034,1.413-2.906c0.646-0.862,1.409-1.622,2.251-2.252
				c1.69-1.259,3.554-2.133,5.31-3.065c1.746-0.933,3.461-1.922,4.687-3.347c1.27-1.391,1.884-3.193,2.098-4.983
				c0.228-1.797,0.163-3.589,0.212-5.336c0.031-1.745,0.234-3.471,0.739-5.051c0.98-3.172,2.845-5.769,4.959-7.609
				c2.123-1.843,4.491-2.97,6.676-3.419c2.19-0.448,4.161-0.284,5.662,0.165c1.512,0.446,2.532,1.178,3.135,1.728
				c0.311,0.271,0.511,0.514,0.643,0.678c0.134,0.162,0.199,0.248,0.192,0.253c-0.03,0.027-0.28-0.332-0.904-0.852
				c-0.617-0.517-1.634-1.205-3.122-1.612c-1.477-0.41-3.409-0.54-5.545-0.075c-2.127,0.464-4.433,1.591-6.493,3.41
				c-2.051,1.816-3.854,4.367-4.789,7.459c-0.482,1.541-0.671,3.204-0.694,4.936c-0.041,1.73,0.034,3.533-0.194,5.386
				c-0.209,1.84-0.857,3.773-2.2,5.25c-1.296,1.51-3.066,2.525-4.822,3.469c-1.769,0.941-3.609,1.812-5.237,3.028
				c-0.812,0.608-1.532,1.331-2.142,2.143c-0.597,0.823-1.042,1.76-1.336,2.751c-0.593,1.99-0.594,4.098-0.395,6.125
				c0.195,2.038,0.647,4.014,1.022,5.984c0.369,1.968,0.674,3.934,0.658,5.887c-0.019,1.945-0.392,3.885-1.259,5.561
				c-0.862,1.677-2.114,3.042-3.418,4.209c-1.31,1.171-2.689,2.163-4.003,3.131c-2.623,1.907-4.989,3.897-6.339,6.298
				c-0.665,1.193-1.066,2.451-1.172,3.679c-0.118,1.228-0.026,2.403,0.083,3.496c0.248,2.182,0.469,4.106,0.248,5.667
				c-0.176,1.563-0.693,2.712-1.166,3.384C191.035,227.458,190.674,227.711,190.674,227.711z"/>
		</g>
	</g>
	<g>
		<g>
			<path style="fill:#455A64;" d="M214.598,250.661c0,0-0.186-0.389-0.384-1.183c-0.181-0.799-0.227-2.037,0.123-3.557
				c0.331-1.526,1.082-3.28,1.914-5.303c0.79-2.006,1.78-4.423,1.39-7.131c-0.19-1.34-0.784-2.663-1.555-3.932
				c-0.78-1.271-1.749-2.499-2.734-3.794c-0.982-1.292-1.981-2.68-2.708-4.284c-0.734-1.593-1.23-3.35-1.45-5.187
				c-0.411-3.661,0.267-7.707,2.411-11.149c2.129-3.475,5.528-5.993,8.483-8.932c1.472-1.481,2.823-3.066,3.782-4.843
				c0.48-0.886,0.861-1.814,1.107-2.77c0.252-0.955,0.321-1.939,0.332-2.911c-0.105-3.928-1.673-7.534-2.194-11.188
				c-0.263-1.825-0.232-3.68,0.244-5.387c0.475-1.707,1.374-3.204,2.39-4.49c2.086-2.558,4.593-4.345,6.827-5.955
				c2.267-1.578,4.273-3.053,5.834-4.584c1.57-1.512,2.719-3.025,3.414-4.39c1.401-2.764,1.127-4.598,1.239-4.564
				c0,0,0.038,0.429-0.035,1.242c-0.074,0.812-0.343,2.011-1.024,3.413c-0.678,1.402-1.823,2.958-3.392,4.507
				c-1.556,1.566-3.574,3.082-5.823,4.675c-2.215,1.623-4.686,3.419-6.704,5.925c-0.982,1.259-1.839,2.707-2.287,4.344
				c-0.447,1.636-0.472,3.412-0.21,5.194c0.515,3.573,2.105,7.175,2.23,11.251c-0.009,1.011-0.08,2.042-0.344,3.045
				c-0.256,1.002-0.654,1.972-1.15,2.89c-0.994,1.843-2.377,3.462-3.869,4.964c-2.999,2.975-6.354,5.468-8.418,8.833
				c-2.082,3.327-2.755,7.26-2.368,10.825c0.208,1.788,0.684,3.499,1.39,5.05c0.697,1.557,1.665,2.921,2.637,4.215
				c0.973,1.295,1.943,2.539,2.732,3.845c0.78,1.302,1.389,2.681,1.576,4.086c0.379,2.848-0.672,5.295-1.485,7.297
				c-0.861,2.02-1.631,3.745-1.986,5.239c-0.374,1.487-0.362,2.697-0.217,3.49C214.479,250.246,214.627,250.652,214.598,250.661z"/>
		</g>
	</g>
	<g>
		<g>
			<path style="fill:#455A64;" d="M266.946,151.767c-0.089,0.012-0.281-1.646-0.778-4.272c-0.265-1.307-0.632-2.86-1.314-4.473
				c-0.683-1.602-1.706-3.281-3.212-4.601c-1.5-1.331-3.356-2.008-5.075-2.235c-1.729-0.233-3.324-0.113-4.646,0.043
				c-2.648,0.343-4.273,0.732-4.291,0.639c-0.008-0.034,0.389-0.162,1.117-0.351c0.729-0.187,1.788-0.445,3.124-0.653
				c1.333-0.204,2.957-0.369,4.758-0.154c1.787,0.205,3.772,0.911,5.355,2.318c1.587,1.392,2.633,3.148,3.313,4.809
				c0.677,1.673,1.012,3.262,1.233,4.591c0.216,1.333,0.317,2.418,0.379,3.167C266.968,151.346,266.981,151.762,266.946,151.767z"/>
		</g>
	</g>
	<g>
		<g>
			<path style="fill:#455A64;" d="M253.842,154.696c-0.079-0.011,0.064-1.22,0.219-3.169c0.13-1.934,0.279-4.681-0.608-7.499
				c-0.445-1.397-1.115-2.647-1.934-3.607c-0.817-0.965-1.757-1.647-2.608-2.083c-1.729-0.874-3.004-0.764-2.989-0.869
				c-0.001-0.027,0.304-0.087,0.862-0.055c0.556,0.031,1.366,0.182,2.286,0.592c0.914,0.413,1.928,1.099,2.812,2.101
				c0.888,0.998,1.604,2.307,2.068,3.763c0.922,2.939,0.702,5.753,0.478,7.692c-0.122,0.979-0.258,1.763-0.365,2.303
				C253.956,154.406,253.877,154.701,253.842,154.696z"/>
		</g>
	</g>
	<g>
		<path style="fill:#F5F5F5;" d="M370.283,115.703V78.541h-260.09v325.614h260.09V292.845l-18.191,11.979v42.254H129.32V115.305
			h222.772l0,19.248C357.494,131.008,365.401,122.434,370.283,115.703z"/>
	</g>
	<g>
		<g>
			<g>
				<g>
					<g>
						<path style="fill:#455A64;" d="M136.239,96.765c0.963-0.406,1.647-1.402,1.65-2.573c0.003-1.534-1.16-2.781-2.599-2.785
							c-1.438-0.004-2.607,1.237-2.611,2.771c-0.002,1.182,0.69,2.187,1.665,2.59c-2.192,0.335-3.124,1.788-3.522,3.038
							c0.915,1.034,2.184,1.743,3.619,1.941l1.605,0.004c1.457-0.195,2.744-0.917,3.666-1.971
							C139.316,98.528,138.395,97.086,136.239,96.765z"/>
					</g>
				</g>
				<g>
					<g>
						<g>
							<path style="fill:#455A64;" d="M135.268,101.81c-0.003-0.05,0.528-0.03,1.424-0.274c0.88-0.242,2.166-0.845,3.152-2.173
								c0.989-1.284,1.54-3.395,0.775-5.435c-0.366-1.005-1.054-1.962-2.003-2.641c-0.936-0.699-2.135-1.089-3.371-1.099
								c-1.236,0.014-2.435,0.41-3.368,1.112c-0.946,0.683-1.631,1.643-1.993,2.649c-0.757,2.044-0.198,4.153,0.797,5.433
								c0.992,1.324,2.28,1.922,3.161,2.16C134.74,101.783,135.27,101.76,135.268,101.81c0,0.016-0.13,0.025-0.38,0.028
								c-0.25,0.008-0.622-0.022-1.088-0.124c-0.919-0.192-2.292-0.764-3.374-2.136c-0.528-0.679-0.982-1.545-1.173-2.552
								c-0.185-0.999-0.164-2.133,0.237-3.219c0.378-1.085,1.106-2.124,2.122-2.866c1.002-0.761,2.298-1.195,3.632-1.208
								c1.334,0.008,2.631,0.437,3.636,1.194c1.019,0.737,1.751,1.773,2.133,2.857c0.406,1.084,0.431,2.217,0.25,3.217
								c-0.187,1.007-0.637,1.875-1.163,2.557c-1.076,1.376-2.446,1.954-3.365,2.15c-0.466,0.104-0.838,0.135-1.087,0.128
								C135.398,101.834,135.268,101.826,135.268,101.81z"/>
						</g>
					</g>
				</g>
			</g>
		</g>
		<g>
			<g>
				<g>
					<path style="fill:#455A64;" d="M351.973,89.815c0.009,0.717-0.564,1.305-1.281,1.314c-0.717,0.009-1.305-0.564-1.314-1.281
						c-0.009-0.716,0.564-1.305,1.281-1.314C351.376,88.525,351.964,89.099,351.973,89.815z"/>
				</g>
			</g>
			<g>
				<g>
					<path style="fill:#455A64;" d="M352.033,94.481c0.009,0.717-0.564,1.305-1.281,1.314c-0.717,0.009-1.305-0.564-1.314-1.281
						c-0.009-0.716,0.564-1.305,1.281-1.314S352.023,93.765,352.033,94.481z"/>
				</g>
			</g>
			<g>
				<g>
					<path style="fill:#455A64;" d="M352.092,99.148c0.009,0.717-0.564,1.305-1.281,1.314c-0.716,0.009-1.305-0.564-1.314-1.281
						c-0.009-0.717,0.564-1.305,1.281-1.314C351.495,97.858,352.083,98.432,352.092,99.148z"/>
				</g>
			</g>
		</g>
		<g>
			<g>
				<path style="fill:#263238;" d="M262.497,96.002c0,0.144-25.636,0.26-57.251,0.26c-31.627,0-57.257-0.117-57.257-0.26
					c0-0.144,25.63-0.26,57.257-0.26C236.862,95.741,262.497,95.858,262.497,96.002z"/>
			</g>
		</g>
	</g>
	<g>
		<g>
			<g>
				<path style="fill:#263238;" d="M169.749,375.708l-2.636-1.173c-1.272,0.69-2.389,1.031-3.41,1.041
					c-4.036,0.036-7.348-3.217-7.383-7.252c-0.036-4.034,3.217-7.347,7.253-7.383c4.035-0.036,7.346,3.217,7.382,7.252
					c0.016,1.797-0.628,3.524-1.817,4.881L169.749,375.708z M163.577,361.443c-3.759,0.034-6.79,3.118-6.756,6.877
					c0.033,3.758,3.118,6.789,6.878,6.755c0.965-0.009,2.038-0.349,3.282-1.038l0.109-0.062l1.943,0.865l-0.442-1.909l0.088-0.097
					c1.16-1.277,1.79-2.925,1.775-4.638C170.421,364.439,167.336,361.409,163.577,361.443z"/>
			</g>
		</g>
		<g>
			<g>
				<path style="fill:#263238;" d="M186.686,374.562l-3.026-7.367l-5.667-5.155l13.734-0.123L186.686,374.562z M179.275,362.53
					l4.827,4.422l2.578,6.275l4.305-10.802L179.275,362.53z"/>
			</g>
		</g>
		<g>
			<g>
				
					<rect x="183.145" y="364.359" transform="matrix(0.8377 -0.5461 0.5461 0.8377 -168.6715 161.6308)" style="fill:#263238;" width="8.934" height="0.502"/>
			</g>
		</g>
		<g>
			<g>
				<path style="fill:#263238;" d="M351.447,374.795l-5.734-5.632l-5.347,5.445l-0.145-16.292l11.078-0.099L351.447,374.795z
					 M345.707,368.454l0.18,0.175l5.048,4.961l-0.133-14.867l-10.076,0.09l0.13,14.582L345.707,368.454z"/>
			</g>
		</g>
		<g>
			<g>
				<path style="fill:#E8505B;" d="M148.126,363.606c-0.395-1.962-2.339-3.488-4.338-3.407c-1.981,0.081-3.778,1.731-4.039,3.695
					c-0.296-1.959-2.122-3.577-4.104-3.622c-2.001-0.045-3.917,1.516-4.277,3.484c-0.262,1.433,0.236,2.922,1.048,4.132
					c0.812,1.21,1.917,2.189,3.01,3.153c1.531,1.35,2.946,2.62,4.477,3.97c1.507-1.378,2.788-2.671,4.295-4.049
					c1.076-0.983,2.164-1.981,2.954-3.206C147.942,366.532,148.413,365.035,148.126,363.606z"/>
			</g>
		</g>
	</g>
	<g>
		<path style="fill:#E0E0E0;" d="M110.193,201.541c1.103,0.788,1.58,1.271,2.663,2.086c1.083,0.815,2.586,1.319,3.791,0.697
			c1.284-0.663,1.705-2.338,1.514-3.77c-0.191-1.432-0.838-2.764-1.127-4.179c0.833,0.392,1.89,0.015,2.453-0.713
			c0.563-0.728,0.692-1.718,0.552-2.627c-0.14-0.909-0.522-1.761-0.9-2.6c0.327,0.529,1.226,0.331,1.535-0.21
			c0.308-0.54,0.2-1.215,0.05-1.819c-0.369-1.495-0.976-3.001-2.14-4.01c-1.163-1.008-2.996-1.367-4.261-0.489
			c-1.011,0.702-2.842,1.734-3.14,2.928c-1.055,4.223-0.694,10.443-0.991,14.785"/>
	</g>
	<g>
		<path style="fill:#FFAD9D;" d="M349.027,190.77c1.155,0.478,1.726,1.78,1.293,2.953c-0.829,2.246-2.168,5.769-3.171,7.903
			c-0.323,0.688-0.671,1.387-1.23,1.902s-1.382,0.812-2.096,0.552c-0.754-0.274-1.195-1.099-1.253-1.899
			c-0.058-0.8,0.193-1.587,0.449-2.347c0.707-2.1,1.926-5.24,2.969-7.795C346.474,190.846,347.836,190.278,349.027,190.77
			L349.027,190.77z"/>
	</g>
	<g>
		<path style="fill:#FFAD9D;" d="M352.303,194.911c1.155,0.477,1.726,1.78,1.293,2.953c-0.829,2.246-2.168,5.769-3.171,7.903
			c-0.323,0.688-0.671,1.388-1.23,1.902c-0.559,0.515-1.382,0.812-2.096,0.552c-0.754-0.274-1.195-1.099-1.253-1.899
			c-0.058-0.8,0.193-1.587,0.449-2.347c0.707-2.1,1.926-5.24,2.969-7.795C349.749,194.986,351.112,194.419,352.303,194.911
			L352.303,194.911z"/>
	</g>
	<g>
		<path style="fill:#FFAD9D;" d="M355.388,197.538c1,0.414,1.495,1.541,1.12,2.557c-0.718,1.944-1.877,4.995-2.746,6.843
			c-0.28,0.596-0.581,1.201-1.065,1.647c-0.484,0.446-1.197,0.703-1.815,0.478c-0.653-0.237-1.035-0.952-1.085-1.645
			c-0.051-0.693,0.167-1.374,0.388-2.032c0.612-1.818,1.668-4.537,2.57-6.75C353.177,197.603,354.356,197.112,355.388,197.538
			L355.388,197.538z"/>
	</g>
	<g>
		<path style="fill:#FFAD9D;" d="M359.366,198.422c1.005,0.415,1.502,1.549,1.125,2.569c-0.721,1.954-1.886,5.019-2.759,6.876
			c-0.281,0.599-0.584,1.207-1.07,1.655c-0.487,0.448-1.202,0.706-1.824,0.48c-0.656-0.239-1.039-0.956-1.09-1.652
			c-0.051-0.696,0.168-1.381,0.39-2.042c0.615-1.827,1.675-4.559,2.583-6.782C357.145,198.487,358.33,197.993,359.366,198.422
			L359.366,198.422z"/>
	</g>
	<g>
		<g>
			<path style="fill:#E88B79;" d="M346.138,203.618c-0.132-0.058,0.562-1.937,1.55-4.198c0.988-2.262,1.895-4.048,2.027-3.99
				c0.132,0.058-0.562,1.937-1.55,4.198C347.178,201.889,346.27,203.675,346.138,203.618z"/>
		</g>
	</g>
	<g>
		<g>
			<path style="fill:#E88B79;" d="M349.715,207.056c-0.134-0.054,0.629-2.2,1.703-4.794c1.074-2.595,2.052-4.65,2.183-4.592
				c0.132,0.058-0.631,2.204-1.703,4.794C350.826,205.053,349.848,207.109,349.715,207.056z"/>
		</g>
	</g>
	<g>
		<g>
			<path style="fill:#E88B79;" d="M353.457,207.512c-0.132-0.069,0.697-1.891,1.641-4.165c0.95-2.272,1.662-4.143,1.803-4.098
				c0.133,0.041-0.362,2.002-1.322,4.298C354.624,205.845,353.579,207.578,353.457,207.512z"/>
		</g>
	</g>
	<g>
		<g>
			<path style="fill:#263238;" d="M370.283,115.703c0,0-0.016-0.796-0.024-2.371c-0.005-1.58-0.013-3.933-0.023-7.049
				c-0.01-6.241-0.025-15.53-0.045-27.743l0.092,0.092c-47.087,0.025-140.492,0.074-260.09,0.138l0.23-0.23
				c0.009,77.185,0.019,166.953,0.031,262.285c-0.001,21.457-0.001,42.632-0.002,63.328l-0.259-0.259
				c96.561,0.017,185.474,0.033,260.09,0.046l-0.212,0.212c0.038-71.615,0.069-130.657,0.091-171.8
				c0.025-20.566,0.045-36.658,0.058-47.614c0.014-5.473,0.024-9.661,0.031-12.486c0.011-2.821,0.032-4.273,0.032-4.273
				s0.022,1.452,0.032,4.273c0.007,2.826,0.018,7.014,0.031,12.486c0.013,10.955,0.033,27.047,0.058,47.614
				c0.022,41.143,0.053,100.185,0.091,171.8l0,0.212h-0.212c-74.616,0.013-163.529,0.029-260.09,0.047h-0.259v-0.259
				c-0.001-20.696-0.001-41.871-0.002-63.328c0.011-95.332,0.022-185.101,0.031-262.285l0-0.23l0.23,0
				c119.597,0.063,213.002,0.113,260.09,0.138l0.092,0l0,0.092c-0.02,12.212-0.034,21.501-0.045,27.743
				c-0.01,3.115-0.018,5.469-0.023,7.049C370.299,114.907,370.283,115.703,370.283,115.703z"/>
		</g>
	</g>
	<g>
		<g>
			<g>
				<path style="fill:#FFAD9D;" d="M104.875,191.9c0.539-1.014,1.903-1.365,2.891-0.741c1.69,1.067,3.524,2.205,5.115,3.229
					c0.694,0.447,1.424,0.904,1.833,1.593c0.41,0.689,0.378,1.686-0.308,2.167c-0.687,0.481-1.653,0.252-2.43-0.058
					c-0.247-0.099-4.228-2.501-6.437-3.838C104.709,193.748,104.427,192.742,104.875,191.9L104.875,191.9z"/>
			</g>
			<g>
				<path style="fill:#FFAD9D;" d="M104.403,186.399c0.625-1.228,2.191-1.62,3.318-0.828c1.929,1.356,4.022,2.801,5.837,4.102
					c0.792,0.567,1.624,1.148,2.089,2.004c0.465,0.856,0.421,2.077-0.369,2.647c-0.791,0.571-1.895,0.262-2.784-0.139
					c-0.282-0.128-4.826-3.184-7.347-4.885C104.199,188.66,103.884,187.418,104.403,186.399L104.403,186.399z"/>
			</g>
			<g>
				<path style="fill:#FFAD9D;" d="M105.235,181.737c0.641-1.219,2.212-1.59,3.329-0.783c1.911,1.381,3.984,2.855,5.782,4.179
					c0.784,0.578,1.609,1.17,2.062,2.032c0.453,0.862,0.393,2.083-0.404,2.642c-0.798,0.56-1.899,0.237-2.782-0.177
					c-0.28-0.131-4.783-3.248-7.281-4.982C105.001,183.995,104.702,182.749,105.235,181.737L105.235,181.737z"/>
			</g>
			<g>
				<path style="fill:#FFAD9D;" d="M105.69,176.383c0.698-1.414,2.456-1.862,3.727-0.945c2.175,1.57,4.534,3.243,6.581,4.748
					c0.893,0.657,1.831,1.329,2.358,2.318c0.526,0.989,0.482,2.398-0.404,3.053c-0.886,0.656-2.13,0.297-3.131-0.169
					c-0.318-0.148-5.44-3.687-8.282-5.656C105.47,178.99,105.11,177.557,105.69,176.383L105.69,176.383z"/>
			</g>
		</g>
		<g>
			<g>
				<path style="fill:#E88B79;" d="M115.515,185.999c-0.082,0.118-1.901-1.012-4.062-2.523c-2.161-1.511-3.846-2.832-3.764-2.95
					c0.082-0.118,1.901,1.011,4.062,2.523C113.912,184.56,115.597,185.881,115.515,185.999z"/>
			</g>
		</g>
		<g>
			<g>
				<path style="fill:#E88B79;" d="M114.241,190.172c-0.079,0.12-1.813-0.886-3.872-2.247c-2.06-1.361-3.665-2.562-3.586-2.682
					c0.079-0.12,1.813,0.886,3.873,2.247C112.715,188.851,114.32,190.052,114.241,190.172z"/>
			</g>
		</g>
		<g>
			<g>
				<path style="fill:#E88B79;" d="M114.334,195.426c-0.079,0.12-1.813-0.886-3.872-2.247c-2.06-1.361-3.665-2.562-3.586-2.682
					c0.079-0.12,1.813,0.886,3.873,2.247C112.808,194.105,114.413,195.306,114.334,195.426z"/>
			</g>
		</g>
	</g>
	<g>
		<g>
			<path style="fill:#263238;" d="M352.092,134.553c0,0-0.014-0.417-0.021-1.239c-0.005-0.829-0.012-2.054-0.021-3.669
				c-0.009-3.247-0.022-8.056-0.04-14.339l0.082,0.082c-35.273,0.025-117.585,0.085-222.772,0.161l0.243-0.243
				c0.005,42.166,0.011,88.452,0.018,136.856c-0.003,32.794-0.006,64.614-0.008,94.917l-0.252-0.252
				c93.119,0.046,172.249,0.086,222.772,0.111l-0.141,0.141c0.029-19.46,0.051-34.764,0.066-45.209
				c0.016-5.215,0.028-9.216,0.037-11.921c0.008-1.345,0.015-2.366,0.019-3.058c0.006-0.686,0.019-1.034,0.019-1.034
				s0.013,0.348,0.019,1.034c0.004,0.692,0.011,1.713,0.019,3.058c0.008,2.705,0.021,6.706,0.037,11.921
				c0.015,10.446,0.038,25.749,0.066,45.209l0,0.141h-0.142c-50.523,0.025-129.653,0.065-222.772,0.111l-0.252,0v-0.252
				c-0.003-30.303-0.005-62.123-0.008-94.917c0.006-48.404,0.012-94.69,0.018-136.856v-0.243l0.243,0
				c105.187,0.076,187.499,0.136,222.772,0.161h0.082l0,0.082c-0.017,6.282-0.031,11.092-0.04,14.339
				c-0.009,1.616-0.016,2.841-0.021,3.669C352.106,134.136,352.092,134.553,352.092,134.553z"/>
		</g>
	</g>
	<g>
		<g>
			<path style="fill:#263238;" d="M352.092,194.911c-0.144,0-0.26-4.998-0.26-11.161c0-6.166,0.117-11.162,0.26-11.162
				c0.144,0,0.26,4.997,0.26,11.162C352.352,189.913,352.236,194.911,352.092,194.911z"/>
		</g>
	</g>
	<g>
		<g>
			<path style="fill:#263238;" d="M457.679,459.082c0,0.144-92.674,0.26-206.966,0.26c-114.332,0-206.986-0.117-206.986-0.26
				s92.654-0.26,206.986-0.26C365.005,458.822,457.679,458.938,457.679,459.082z"/>
		</g>
	</g>
</g>
<g id="Icons">
	<g>
		<g>
			<g>
				<path style="fill:#455A64;" d="M323.36,49.718c1.997-0.818,3.43-2.858,3.462-5.277c0.04-3.168-2.336-5.768-5.306-5.807
					c-2.97-0.039-5.41,2.498-5.45,5.665c-0.031,2.441,1.377,4.53,3.382,5.385c-8.288,1.177-7.988,10.175-7.988,10.175l19.572,0.257
					C331.031,60.117,331.555,51.027,323.36,49.718z"/>
			</g>
		</g>
	</g>
	<g>
		<g>
			<g>
				<path style="fill:#455A64;" d="M440.274,284.111h1.859l4.057-5.653v-3.711c0,0,2.873-0.177,2.535,4.682
					c-0.338,4.859,0.028,3.622,0.028,3.622s6.101,0.023,6.607,0.553c0.369,0.385,0.535,6.445,0.599,9.732
					c0.032,1.655-0.983,3.193-2.521,3.584c-0.219,0.056-0.44,0.088-0.657,0.088c-1.522,0-9.296-1.237-9.296-1.237h-3.211V284.111z"
					/>
			</g>
		</g>
		<g>
			<g>
				<polygon style="fill:#455A64;" points="434.952,283.092 436.096,295.806 439.279,295.806 439.279,283.348 				"/>
			</g>
		</g>
	</g>
	<g>
		<g>
			<path style="fill:#455A64;" d="M96.372,64.769c-0.587-2.982-3.528-5.314-6.565-5.204c-3.01,0.109-5.75,2.603-6.159,5.584
				c-0.435-2.977-3.198-5.447-6.208-5.529c-3.038-0.083-5.959,2.275-6.519,5.262c-0.408,2.175,0.338,4.44,1.563,6.283
				c1.224,1.844,2.897,3.337,4.55,4.809c2.316,2.061,4.456,3.999,6.773,6.061c2.298-2.082,4.253-4.038,6.551-6.12
				c1.64-1.486,3.299-2.994,4.508-4.849C96.073,69.211,96.799,66.94,96.372,64.769z"/>
		</g>
	</g>
</g>
<g id="Plants">
	<g>
		<g>
			<g>
				<path style="fill:#E8505B;" d="M414.206,410.69c-2.222,3.174-6.541,2.123-8.543,0.186c-2.002-1.937-2.849-4.745-3.619-7.422
					c-1.76-6.117-3.535-12.534-2.226-18.764c0.391-1.862,1.088-3.72,2.396-5.101c1.309-1.382,3.321-2.204,5.161-1.718
					c2.178,0.575,3.531,2.708,4.509,4.737c2.875,5.964,4.398,12.575,4.42,19.195C416.315,404.894,415.95,408.137,414.206,410.69"/>
			</g>
		</g>
		<g style="opacity:0.2;">
			<g>
				<path d="M414.206,410.69c-2.222,3.174-6.541,2.123-8.543,0.186c-2.002-1.937-2.849-4.745-3.619-7.422
					c-1.76-6.117-3.535-12.534-2.226-18.764c0.391-1.862,1.088-3.72,2.396-5.101c1.309-1.382,3.321-2.204,5.161-1.718
					c2.178,0.575,3.531,2.708,4.509,4.737c2.875,5.964,4.398,12.575,4.42,19.195C416.315,404.894,415.95,408.137,414.206,410.69"/>
			</g>
		</g>
		<g>
			<g>
				<path style="fill:#E8505B;" d="M405.881,426.761c-3.634-1.875-7.913-2.119-11.947-1.452c-2.167,0.358-4.427,1.007-5.902,2.635
					c-1.475,1.628-1.754,4.493-0.061,5.892c1.008,0.833,2.414,0.959,3.721,0.944c3.158-0.037,6.662-0.593,9.186,1.307
					c1.439,1.084,2.398,2.886,4.119,3.419c1.684,0.521,3.584-0.472,4.477-1.992c0.893-1.52,0.923-3.419,0.506-5.132
					C409.979,432.383,409.541,428.65,405.881,426.761z"/>
			</g>
		</g>
		<g>
			<g>
				<path style="fill:#E8505B;" d="M420.308,415.243c-2.413-2.863-2.87-7.04-1.797-10.627c1.074-3.587,3.499-6.639,6.294-9.13
					c3.277-2.921,7.13-5.194,11.271-6.65c1.63-0.573,3.349-1.025,5.069-0.861c1.72,0.164,3.452,1.043,4.254,2.574
					c1.186,2.262,0.049,5.006-1.181,7.245c-2.167,3.944-4.645,7.717-7.403,11.273c-2.219,2.861-4.76,5.682-8.142,6.975
					c-3.382,1.293-6.894,1.141-8.687-1.204"/>
			</g>
		</g>
		<g>
			<g>
				<g>
					<path style="fill:#263238;" d="M414.356,458.563c-0.041,0.003-0.109-0.512-0.201-1.442c-0.102-1.049-0.23-2.367-0.383-3.935
						c-0.183-1.656-0.425-3.627-0.885-5.773c-0.459-2.141-1.176-4.461-2.098-6.813c-0.955-2.339-2.119-4.465-3.479-6.165
						c-1.351-1.708-2.922-2.944-4.398-3.657c-1.472-0.727-2.792-1.022-3.704-1.154c-0.92-0.094-1.435-0.167-1.436-0.208
						c0-0.041,0.516-0.048,1.461-0.023c0.937,0.063,2.311,0.3,3.863,1.005c1.556,0.69,3.223,1.945,4.64,3.688
						c1.428,1.736,2.635,3.908,3.606,6.289c0.938,2.394,1.645,4.738,2.083,6.925c0.437,2.183,0.637,4.176,0.767,5.845
						c0.125,1.671,0.172,3.025,0.195,3.96C414.408,458.043,414.397,458.561,414.356,458.563z"/>
				</g>
			</g>
		</g>
		<g>
			<g>
				<g>
					<path style="fill:#263238;" d="M414.085,455.535c-0.021-0.001-0.033-0.232-0.039-0.669c0.001-0.503,0.003-1.136,0.005-1.914
						c0.005-1.66,0.004-4.064-0.085-7.031c-0.147-5.935-0.658-14.128-1.645-23.133c-0.994-9.008-2.312-17.111-3.513-22.924
						c-0.284-1.457-0.57-2.769-0.839-3.917c-0.257-1.151-0.476-2.143-0.687-2.946c-0.182-0.756-0.33-1.371-0.447-1.86
						c-0.096-0.427-0.137-0.654-0.117-0.66c0.02-0.006,0.099,0.21,0.233,0.627c0.146,0.482,0.33,1.088,0.556,1.834
						c0.246,0.795,0.499,1.781,0.787,2.927c0.301,1.143,0.616,2.452,0.927,3.907c1.31,5.806,2.697,13.919,3.693,22.946
						c0.989,9.024,1.434,17.24,1.474,23.19c0.035,2.975-0.028,5.383-0.104,7.045c-0.048,0.777-0.086,1.41-0.117,1.912
						C414.133,455.307,414.106,455.536,414.085,455.535z"/>
				</g>
			</g>
		</g>
		<g>
			<g>
				<g>
					<path style="fill:#263238;" d="M414.046,439.688c-0.041-0.001-0.034-0.712,0.014-1.999c0.074-1.284,0.25-3.141,0.612-5.415
						c0.383-2.269,0.919-4.963,1.761-7.89c0.801-2.938,1.901-6.11,3.299-9.336c2.737-6.492,6.455-11.8,9.69-15.087
						c0.758-0.873,1.604-1.502,2.279-2.119c0.35-0.296,0.659-0.591,0.974-0.824c0.317-0.218,0.611-0.421,0.884-0.609
						c1.065-0.728,1.661-1.112,1.683-1.077c0.095,0.13-2.384,1.589-5.516,4.921c-3.119,3.324-6.733,8.596-9.448,15.033
						c-1.387,3.198-2.494,6.341-3.318,9.25c-0.865,2.899-1.44,5.566-1.874,7.812c-0.413,2.251-0.652,4.089-0.796,5.362
						C414.172,438.982,414.087,439.689,414.046,439.688z"/>
				</g>
			</g>
		</g>
	</g>
	<g>
		<g>
			<path style="fill:#455A64;" d="M75.906,395.48c3.271,0.429,6.18,2.505,8.108,5.182c1.928,2.676,2.958,5.908,3.503,9.161
				c1.055,6.294-0.647,13.44-2.982,19.38c-6.417-3.01-9.836-10.488-11.332-14.39C70.839,408.646,70.31,396.063,75.906,395.48"/>
		</g>
		<g>
			<path style="fill:#455A64;" d="M93.995,438.06c-2.035-3.071-1.988-7.276-0.247-10.524c1.74-3.248,4.993-5.544,8.539-6.544
				c1.64-0.462,3.534-0.629,4.928,0.35c1.304,0.915,1.835,2.664,1.628,4.243c-0.207,1.579-1.043,3.009-2.019,4.268
				C103.478,434.171,99.448,437.735,93.995,438.06"/>
		</g>
		<g>
			<g>
				<path style="fill:#263238;" d="M92.374,457.996c-0.049,0.003-0.124-0.469-0.215-1.324c-0.09-0.855-0.198-2.096-0.283-3.633
					c-0.154-3.063-0.281-7.38,0.733-12.028c1.02-4.654,3.275-8.501,5.467-10.712c1.086-1.118,2.097-1.884,2.839-2.332
					c0.741-0.452,1.184-0.639,1.203-0.603c0.082,0.121-1.649,1.005-3.671,3.278c-2.035,2.237-4.145,5.991-5.14,10.525
					c-0.991,4.537-0.951,8.8-0.926,11.856C92.431,456.086,92.481,457.99,92.374,457.996z"/>
			</g>
		</g>
		<g>
			<g>
				<path style="fill:#263238;" d="M77.399,405.027c0.047-0.015,0.333,0.718,0.809,2.058c0.478,1.339,1.138,3.288,1.926,5.705
					c1.579,4.833,3.65,11.547,5.755,19.015c2.103,7.471,3.84,14.28,5.016,19.227c0.589,2.473,1.044,4.48,1.335,5.872
					c0.293,1.392,0.432,2.166,0.384,2.178c-0.048,0.012-0.279-0.741-0.655-2.112c-0.399-1.494-0.923-3.452-1.554-5.814
					c-1.301-4.912-3.114-11.692-5.215-19.156c-2.103-7.46-4.095-14.189-5.55-19.058c-0.694-2.344-1.269-4.288-1.708-5.771
					C77.548,405.805,77.352,405.042,77.399,405.027z"/>
			</g>
		</g>
		<g>
			<path style="fill:#455A64;" d="M85.449,444.044c-3.129-7.11-9.896-12.501-17.526-13.962c-1.943-0.372-4.338-0.318-5.419,1.339
				c-1.082,1.66-0.156,3.884,1.009,5.486c4.849,6.668,13.999,9.867,21.947,7.674"/>
		</g>
		<g>
			<g>
				<path style="fill:#263238;" d="M70.056,435.673c0.008-0.049,0.461,0,1.278,0.13c0.411,0.058,0.909,0.149,1.474,0.314
					c0.566,0.157,1.225,0.3,1.914,0.574c1.409,0.467,3.02,1.212,4.719,2.2c1.676,1.023,3.425,2.309,5.067,3.878
					c1.622,1.591,2.965,3.298,4.041,4.94c1.042,1.666,1.839,3.253,2.351,4.646c0.297,0.68,0.46,1.334,0.636,1.895
					c0.183,0.559,0.29,1.054,0.361,1.463c0.157,0.813,0.22,1.263,0.171,1.273c-0.136,0.031-0.487-1.764-1.636-4.439
					c-0.562-1.342-1.388-2.869-2.435-4.477c-1.082-1.584-2.405-3.235-3.987-4.787c-1.602-1.53-3.294-2.799-4.912-3.829
					c-1.64-0.994-3.193-1.771-4.552-2.289C71.835,436.103,70.029,435.811,70.056,435.673z"/>
			</g>
		</g>
	</g>
</g>
<g id="Speech_Bubbles">
	<g>
		<g>
			<g>
				<g>
					<path style="fill:#263238;" d="M412.537,227.283c0.012-0.002,0.044,0.112,0.093,0.337c0.034,0.227,0.088,0.567,0.077,1.014
						c-0.009,0.888-0.27,2.218-1.105,3.663c-0.824,1.453-2.243,2.911-3.926,4.429c-1.658,1.565-3.514,3.317-5.527,5.217
						l-0.151,0.143l-0.159-0.142c-1.688-1.502-3.5-3.114-5.402-4.807c-1.868-1.68-4.064-3.476-5.107-6.167
						c-0.653-1.647-0.721-3.594,0.134-5.147c0.827-1.534,2.305-2.629,3.914-2.981c1.625-0.387,3.301,0.135,4.493,1.061
						c1.202,0.934,2.007,2.276,2.205,3.665l-0.43,0.002c0.379-2.399,2.227-4.067,4.037-4.598c1.866-0.576,3.606,0.065,4.667,0.848
						c1.103,0.796,1.656,1.75,1.921,2.406C412.53,226.896,412.537,227.283,412.537,227.283c-0.035,0.009-0.096-0.368-0.389-1.002
						c-0.295-0.623-0.865-1.521-1.944-2.254c-1.042-0.723-2.692-1.283-4.419-0.716c-1.686,0.52-3.394,2.124-3.711,4.321l-0.21,1.449
						l-0.22-1.447c-0.192-1.265-0.945-2.499-2.061-3.354c-1.112-0.847-2.631-1.306-4.098-0.949c-1.46,0.324-2.822,1.341-3.568,2.737
						c-0.766,1.397-0.715,3.165-0.102,4.718c0.97,2.521,3.085,4.287,4.958,5.975c1.893,1.703,3.695,3.326,5.375,4.838l-0.31,0.001
						c2.033-1.879,3.907-3.611,5.581-5.158c1.703-1.494,3.111-2.893,3.947-4.285c0.845-1.384,1.141-2.663,1.197-3.528
						C412.616,227.755,412.5,227.288,412.537,227.283z"/>
				</g>
			</g>
		</g>
		<g>
			<g>
				<g>
					<g>
						<path style="fill:#263238;" d="M383.753,210.794c0,0,0.013,0.251,0.02,0.72c0.005,0.486,0.012,1.175,0.021,2.072
							c0.011,1.829,0.027,4.493,0.048,7.912c0.024,6.852,0.059,16.727,0.103,28.893l-0.191-0.191
							c7.597-0.012,16.152-0.024,25.424-0.038l0.23,0l0,0.23c0.004,3.815,0.008,7.892,0.012,12.083l-0.413-0.171
							c3.853-3.858,7.906-7.916,12.075-12.091l0.074-0.074h0.105c8.872-0.002,18.24-0.005,27.868-0.007c2.878,0,5.732,0,8.55,0.001
							l-0.26,0.26c0.007-13.996,0.014-27.329,0.02-39.596l0.239,0.239c-21.705-0.048-40.154-0.089-53.196-0.118
							c-6.52-0.027-11.687-0.049-15.244-0.064c-1.763-0.013-3.124-0.022-4.066-0.029c-0.452-0.006-0.799-0.011-1.053-0.014
							C383.881,210.803,383.753,210.794,383.753,210.794s0.109-0.01,0.338-0.014c0.248-0.003,0.587-0.008,1.027-0.014
							c0.931-0.007,2.275-0.016,4.018-0.029c3.545-0.015,8.694-0.037,15.19-0.064c13.081-0.029,31.584-0.07,53.353-0.118
							l0.239-0.001l0,0.24c0.006,12.268,0.013,25.6,0.02,39.596l0,0.26l-0.26,0c-2.818,0-5.672,0-8.55,0.001
							c-9.628-0.002-18.996-0.005-27.868-0.007l0.179-0.074c-4.175,4.169-8.233,8.222-12.091,12.075l-0.414,0.413l0.001-0.584
							c0.004-4.191,0.008-8.268,0.012-12.083l0.23,0.23c-9.272-0.014-17.828-0.027-25.424-0.038l-0.192,0l0.001-0.191
							c0.043-12.215,0.078-22.13,0.103-29.01c0.021-3.4,0.037-6.05,0.048-7.869c0.009-0.882,0.016-1.559,0.021-2.037
							C383.739,211.018,383.753,210.794,383.753,210.794z"/>
					</g>
				</g>
			</g>
		</g>
		<g>
			<path style="fill:#263238;" d="M424.514,231.249h-3.12v3.038h-0.738v-3.038h-3.12v-0.706h3.12v-3.054h0.738v3.054h3.12V231.249z"
				/>
			<path style="fill:#263238;" d="M429.225,225.141v11.493h-0.838v-10.738h-2.808v-0.755H429.225z"/>
			<path style="fill:#263238;" d="M432.132,230.887c0-3.596,1.855-5.829,4.498-5.829c2.644,0,4.499,2.233,4.499,5.829
				s-1.855,5.829-4.499,5.829C433.987,236.716,432.132,234.483,432.132,230.887z M440.292,230.887c0-3.202-1.494-5.057-3.662-5.057
				c-2.167,0-3.661,1.855-3.661,5.057c0,3.202,1.494,5.057,3.661,5.057C438.797,235.945,440.292,234.089,440.292,230.887z"/>
			<path style="fill:#263238;" d="M442.933,230.887c0-3.596,1.854-5.829,4.498-5.829c2.644,0,4.499,2.233,4.499,5.829
				s-1.855,5.829-4.499,5.829C444.788,236.716,442.933,234.483,442.933,230.887z M451.092,230.887c0-3.202-1.493-5.057-3.661-5.057
				c-2.167,0-3.661,1.855-3.661,5.057c0,3.202,1.494,5.057,3.661,5.057C449.599,235.945,451.092,234.089,451.092,230.887z"/>
		</g>
	</g>
	<g>
		<g>
			<g>
				<g>
					<polygon style="fill:#E8505B;" points="43.227,117.822 124.077,117.822 124.077,161.128 84.248,161.128 71.033,174.343 
						71.033,161.128 43.227,161.128 					"/>
				</g>
			</g>
		</g>
		<g>
			<g>
				<g>
					<g>
						<g>
							<path style="fill:#FFFFFF;" d="M56.928,138.283c0.014,0.013,0.043,0.301,0.086,0.833c0.043,0.582,0.099,1.346,0.169,2.297
								c0.131,2.02,0.314,4.829,0.536,8.25l-0.205-0.185c0.996-0.058,2.043-0.119,3.135-0.183l0.015-0.001l0.019,0.002
								c2.671,0.246,5.653,0.582,8.807,0.703c0.194,0.006,0.38-0.009,0.554-0.055c0.178-0.032,0.359-0.06,0.531-0.137
								c0.344-0.138,0.662-0.349,0.929-0.619c0.537-0.537,0.875-1.286,0.951-2.07c0.045-0.385-0.009-0.793-0.037-1.228
								c-0.033-0.426-0.066-0.854-0.099-1.284c-0.073-0.86-0.146-1.729-0.22-2.606c-0.092-1.009-0.19-2.008-0.313-2.986
								c-0.062-0.488-0.128-0.977-0.227-1.436c-0.021-0.12-0.056-0.217-0.084-0.321c-0.02-0.036-0.01-0.031-0.019-0.053
								c-0.031-0.003-0.037-0.015-0.074-0.03c-0.194-0.054-0.427-0.088-0.659-0.111c-1.887-0.145-3.773-0.064-5.555-0.004
								l0.226-0.187c-0.01,0.042-0.022,0.075-0.038,0.116l-0.04,0.077c-0.02,0.028-0.045,0.056-0.074,0.078
								c-0.015,0.014-0.068,0.057-0.184,0.053c-0.05-0.004-0.097-0.023-0.128-0.043c-0.022-0.015-0.023-0.02-0.035-0.031
								c-0.019-0.02-0.036-0.042-0.051-0.066c-0.036-0.06-0.029-0.063-0.039-0.087c-0.012-0.039-0.026-0.086-0.029-0.113
								c-0.025-0.13-0.033-0.243-0.044-0.36l-0.031-0.674c-0.002-0.441-0.004-0.877-0.007-1.308
								c0.001-0.864,0.056-1.697-0.038-2.477c-0.084-0.781-0.291-1.533-0.7-2.116c-0.408-0.569-1.085-0.916-1.706-0.886l0.178-0.21
								c0.059,1.314,0.113,2.516,0.162,3.626l0.002,0.058l-0.03,0.045c-1.658,2.51-2.92,4.421-3.751,5.68l-0.024,0.037l-0.04,0.001
								c-0.565,0.01-1.004,0.018-1.348,0.023C57.096,138.295,56.938,138.293,56.928,138.283c-0.011-0.009,0.125-0.027,0.421-0.056
								c0.354-0.031,0.807-0.07,1.39-0.12l-0.064,0.037c0.797-1.28,2.007-3.225,3.596-5.779l-0.027,0.102
								c-0.066-1.109-0.138-2.31-0.217-3.623l-0.012-0.198l0.19-0.012c0.817-0.053,1.599,0.368,2.096,1.031
								c0.482,0.672,0.706,1.493,0.804,2.319c0.106,0.837,0.055,1.683,0.061,2.531c0.005,0.426,0.01,0.857,0.015,1.293l0.033,0.648
								c0.011,0.104,0.02,0.213,0.038,0.302c0.003,0.028,0.009,0.034,0.012,0.049c0.01,0.002,0.01,0.017-0.075,0.032
								c-0.055,0.001-0.118,0.115-0.109,0.084c0.005,0.033-0.033-0.069-0.082-0.063c-0.028-0.022-0.08-0.053-0.095-0.059l0,0.001
								l0.014-0.043l0.057-0.181l0.169-0.007c1.803-0.07,3.666-0.162,5.63-0.017c0.248,0.025,0.497,0.055,0.771,0.133
								c0.076,0.026,0.173,0.082,0.252,0.132c0.068,0.063,0.133,0.186,0.161,0.259c0.039,0.13,0.083,0.266,0.105,0.387
								c0.108,0.498,0.174,0.987,0.238,1.483c0.126,0.99,0.225,1.992,0.317,3.005c0.074,0.879,0.147,1.751,0.219,2.613
								c0.032,0.431,0.065,0.86,0.097,1.287c0.025,0.416,0.085,0.858,0.033,1.316c-0.089,0.896-0.476,1.754-1.106,2.38
								c-0.313,0.314-0.69,0.563-1.098,0.725c-0.202,0.088-0.42,0.126-0.638,0.164c-0.219,0.052-0.431,0.066-0.637,0.059
								c-3.22-0.139-6.167-0.497-8.85-0.773l0.034,0.001c-1.093,0.051-2.141,0.099-3.137,0.145l-0.198,0.009l-0.008-0.194
								c-0.138-3.475-0.252-6.328-0.334-8.381c-0.028-0.935-0.051-1.686-0.069-2.258C56.914,138.533,56.913,138.27,56.928,138.283z"
								/>
						</g>
					</g>
				</g>
				<g>
					<g>
						<g>
							<path style="fill:#FFFFFF;" d="M51.678,137.56c-0.025-0.022,0.347-0.042,1.07-0.07c0.721-0.027,1.803-0.064,3.17-0.077
								l0.163-0.002l0.012,0.168c0.203,2.882,0.455,7.082,0.699,11.751l0.021,0.413l0.014,0.26l-0.26,0.013
								c-1.07,0.054-2.111,0.106-3.11,0.156l-0.233,0.012l-0.032-0.229c-0.502-3.599-0.893-6.743-1.156-8.947
								c-0.117-1.016-0.215-1.87-0.295-2.567C51.679,137.85,51.655,137.54,51.678,137.56s0.093,0.37,0.203,0.99
								c0.121,0.709,0.269,1.578,0.445,2.611c0.367,2.206,0.86,5.242,1.369,8.724l-0.265-0.218c0.999-0.054,2.039-0.111,3.109-0.169
								l-0.246,0.273l-0.022-0.413c-0.244-4.669-0.431-8.873-0.53-11.76l0.174,0.167c-1.28-0.032-2.318-0.083-3.054-0.12
								C52.127,137.607,51.703,137.582,51.678,137.56z"/>
						</g>
					</g>
				</g>
			</g>
			<g>
				<g>
					<path style="fill:#FFFFFF;" d="M87.807,140.192h-3.412v3.322h-0.808v-3.322h-3.413v-0.772h3.413v-3.34h0.808v3.34h3.412
						V140.192z"/>
					<path style="fill:#FFFFFF;" d="M92.958,133.511v12.572h-0.916v-11.746h-3.071v-0.826H92.958z"/>
					<path style="fill:#FFFFFF;" d="M96.135,139.797c0-3.934,2.029-6.376,4.921-6.376s4.921,2.442,4.921,6.376
						c0,3.933-2.029,6.375-4.921,6.375S96.135,143.73,96.135,139.797z M105.061,139.797c0-3.502-1.634-5.532-4.005-5.532
						s-4.005,2.029-4.005,5.532c0,3.502,1.634,5.531,4.005,5.531S105.061,143.299,105.061,139.797z"/>
					<path style="fill:#FFFFFF;" d="M107.949,139.797c0-3.934,2.029-6.376,4.921-6.376c2.892,0,4.921,2.442,4.921,6.376
						c0,3.933-2.029,6.375-4.921,6.375C109.979,146.172,107.949,143.73,107.949,139.797z M116.875,139.797
						c0-3.502-1.634-5.532-4.005-5.532c-2.371,0-4.005,2.029-4.005,5.532c0,3.502,1.634,5.531,4.005,5.531
						C115.241,145.328,116.875,143.299,116.875,139.797z"/>
				</g>
			</g>
		</g>
	</g>
</g>
</svg>
