<?xml version="1.0" encoding="utf-8"?>
<!-- Generator: Adobe Illustrator 27.5.0, SVG Export Plug-In . SVG Version: 6.00 Build 0)  -->
<svg version="1.1" xmlns="http://www.w3.org/2000/svg" xmlns:xlink="http://www.w3.org/1999/xlink" x="0px" y="0px"
	 viewBox="0 0 750 500" style="enable-background:new 0 0 750 500;" xml:space="preserve">
<g id="Background_Simple">
	<g>
		<path style="fill:#92E3A9;" d="M277.161,121.194c99.211-48.849,201.254-112.726,316.51-86.586
			c35.736,8.105,68.257,28.367,90.241,57.824c58.783,78.767,54.003,199.413,22.066,288.078
			c-4.168,11.571-9.372,22.792-16.069,33.127c-32.415,50.031-87.037,52.388-139.723,37.923
			c-44.586-12.241-84.087-24.833-130.144-12.387c-25.51,6.894-50.23,16.369-75.645,23.579
			c-34.603,9.818-70.277,16.487-106.314,17.163C142.745,481.703,33.841,433.068,25.393,326.6c-0.547-6.9-0.644-13.834-0.334-20.748
			c1.905-42.503,15.951-85.069,54.886-107.136c39.145-22.186,85.588-30.958,127.46-46.694
			C231.216,143.074,254.319,132.441,277.161,121.194z"/>
		<path style="opacity:0.7;fill:#FFFFFF;" d="M277.161,121.194c99.211-48.849,201.254-112.726,316.51-86.586
			c35.736,8.105,68.257,28.367,90.241,57.824c58.783,78.767,54.003,199.413,22.066,288.078
			c-4.168,11.571-9.372,22.792-16.069,33.127c-32.415,50.031-87.037,52.388-139.723,37.923
			c-44.586-12.241-84.087-24.833-130.144-12.387c-25.51,6.894-50.23,16.369-75.645,23.579
			c-34.603,9.818-70.277,16.487-106.314,17.163C142.745,481.703,33.841,433.068,25.393,326.6c-0.547-6.9-0.644-13.834-0.334-20.748
			c1.905-42.503,15.951-85.069,54.886-107.136c39.145-22.186,85.588-30.958,127.46-46.694
			C231.216,143.074,254.319,132.441,277.161,121.194z"/>
	</g>
</g>
<g id="Clouds">
	<path style="fill:#FFFFFF;stroke:#263238;stroke-linecap:round;stroke-linejoin:round;stroke-miterlimit:10;" d="M307.545,292.036
		c0,0-18.157-18.982-28.06-18.982c-9.904,0-23.934,14.856-28.061,16.506c-4.127,1.651-15.681-9.078-25.585-6.603
		c-9.904,2.476-19.807,16.506-22.283,17.332c-2.476,0.825-17.331-4.952-23.934-1.651c-6.602,3.301-16.392,7.293-16.392,7.293
		h175.676l-4.952-10.594c0,0-1.651-11.554-13.205-14.03C309.195,278.831,307.545,292.036,307.545,292.036z"/>
	<path style="fill:#FFFFFF;stroke:#263238;stroke-linecap:round;stroke-linejoin:round;stroke-miterlimit:10;" d="M175.496,37.841
		c0,0-18.157-18.982-28.06-18.982s-23.934,14.856-28.061,16.506c-4.127,1.651-15.681-9.078-25.585-6.602
		c-9.904,2.476-19.807,16.506-22.283,17.331c-2.476,0.825-17.331-4.952-23.934-1.651c-6.603,3.301-16.392,7.293-16.392,7.293
		h175.676l-4.952-10.594c0,0-1.651-11.554-13.205-14.03C177.146,24.636,175.496,37.841,175.496,37.841z"/>
	<path style="fill:#FFFFFF;stroke:#263238;stroke-linecap:round;stroke-linejoin:round;stroke-miterlimit:10;" d="M708.645,105.517
		c0,0-18.157-18.982-28.06-18.982c-9.904,0-23.934,14.855-28.06,16.506c-4.127,1.651-15.681-9.078-25.585-6.603
		s-19.807,16.506-22.283,17.331c-2.476,0.825-17.331-4.952-23.934-1.651c-6.602,3.301-16.392,7.293-16.392,7.293h175.676
		l-4.952-10.594c0,0-1.651-11.554-13.205-14.03C710.295,92.312,708.645,105.517,708.645,105.517z"/>
</g>
<g id="Device">
	<g>
		<g>
			<path style="fill:#263238;stroke:#263238;stroke-linecap:round;stroke-linejoin:round;stroke-miterlimit:10;" d="
				M237.768,117.371L237.768,117.371c-1.714,0-3.104-1.39-3.104-3.105l0.003-20.178c0-1.715,1.39-3.104,3.105-3.104l0,0
				c1.715,0,3.104,1.39,3.104,3.105l-0.003,20.178C240.872,115.981,239.482,117.371,237.768,117.371z"/>
			<path style="fill:#263238;stroke:#263238;stroke-linecap:round;stroke-linejoin:round;stroke-miterlimit:10;" d="
				M237.763,148.932L237.763,148.932c-1.714,0-3.104-1.39-3.104-3.105l0.003-20.178c0-1.715,1.39-3.104,3.105-3.104l0,0
				c1.714,0,3.104,1.39,3.104,3.105l-0.003,20.178C240.867,147.542,239.477,148.932,237.763,148.932z"/>
			<path style="fill:#263238;stroke:#263238;stroke-linecap:round;stroke-linejoin:round;stroke-miterlimit:10;" d="
				M237.757,192.393L237.757,192.393c-1.714,0-3.104-1.39-3.104-3.105l0.003-20.178c0-1.715,1.39-3.104,3.105-3.104l0,0
				c1.714,0,3.104,1.39,3.104,3.105l-0.003,20.178C240.861,191.003,239.471,192.393,237.757,192.393z"/>
			<path style="fill:#263238;stroke:#263238;stroke-linecap:round;stroke-linejoin:round;stroke-miterlimit:10;" d="
				M224.742,425.488l-148.273-0.022c-7.441-0.001-13.472-6.034-13.471-13.475l0.043-336.259c0.001-7.441,6.034-13.472,13.475-13.471
				l148.273,0.022c7.441,0.001,13.472,6.034,13.471,13.475l-0.044,336.258C238.216,419.458,232.183,425.49,224.742,425.488z"/>
			
				<rect x="76.137" y="86.21" style="fill:#FFFFFF;stroke:#263238;stroke-linecap:round;stroke-linejoin:round;stroke-miterlimit:10;" width="148.984" height="315.33"/>
			<polygon style="fill:#92E3A9;stroke:#263238;stroke-linecap:round;stroke-linejoin:round;stroke-miterlimit:10;" points="
				225.101,106.046 76.117,106.024 76.157,86.199 225.141,86.221 			"/>
			<path style="fill:#FFFFFF;stroke:#263238;stroke-linecap:round;stroke-linejoin:round;stroke-miterlimit:10;" d="M210.65,99.515
				h-34.253c-2.316,0-4.194-1.878-4.194-4.194l0,0c0-2.316,1.878-4.194,4.194-4.194h34.253c2.316,0,4.194,1.878,4.194,4.194l0,0
				C214.844,97.637,212.966,99.515,210.65,99.515z"/>
			<path style="fill:#FFFFFF;stroke:#263238;stroke-linecap:round;stroke-linejoin:round;stroke-miterlimit:10;" d="M160.669,99.515
				H87.62c-2.316,0-4.194-1.878-4.194-4.194l0,0c0-2.316,1.878-4.194,4.194-4.194h73.049c2.316,0,4.194,1.878,4.194,4.194l0,0
				C164.863,97.637,162.985,99.515,160.669,99.515z"/>
		</g>
		<g>
			
				<rect x="150.246" y="138.269" style="fill:#FFFFFF;stroke:#263238;stroke-linecap:round;stroke-linejoin:round;stroke-miterlimit:10;" width="66.616" height="124.314"/>
			<polygon style="fill:#FFFFFF;stroke:#263238;stroke-linecap:round;stroke-linejoin:round;stroke-miterlimit:10;" points="
				150.246,262.583 170.326,183.001 186.06,199.077 203.504,160.426 216.159,175.476 216.862,262.583 			"/>
			
				<ellipse transform="matrix(0.1826 -0.9832 0.9832 0.1826 -16.2222 290.738)" style="fill:#FFFFFF;stroke:#263238;stroke-linecap:round;stroke-linejoin:round;stroke-miterlimit:10;" cx="166.734" cy="155.125" rx="8.38" ry="8.38"/>
		</g>
		<g>
			
				<line style="fill:none;stroke:#263238;stroke-linecap:round;stroke-linejoin:round;stroke-miterlimit:10;" x1="83.386" y1="127.571" x2="216.457" y2="127.571"/>
			<g>
				<path style="fill:none;stroke:#263238;stroke-linecap:round;stroke-linejoin:round;stroke-miterlimit:10;" d="M99.373,127.633
					v-5.259c0-1.946,1.515-3.524,3.383-3.524h20.304c1.868,0,3.383,1.578,3.383,3.524v5.028"/>
				<path style="fill:none;stroke:#263238;stroke-linecap:round;stroke-linejoin:round;stroke-miterlimit:10;" d="M128.717,127.633
					v-5.259c0-1.946,1.515-3.524,3.383-3.524h20.304c1.868,0,3.383,1.578,3.383,3.524v5.028"/>
				<path style="fill:none;stroke:#263238;stroke-linecap:round;stroke-linejoin:round;stroke-miterlimit:10;" d="M158.061,127.633
					v-5.259c0-1.946,1.515-3.524,3.383-3.524h20.304c1.868,0,3.383,1.578,3.383,3.524v5.028"/>
				<path style="fill:none;stroke:#263238;stroke-linecap:round;stroke-linejoin:round;stroke-miterlimit:10;" d="M187.406,127.633
					v-5.259c0-1.946,1.515-3.524,3.383-3.524h20.304c1.868,0,3.383,1.578,3.383,3.524v5.028"/>
			</g>
		</g>
		<g>
			
				<line style="fill:none;stroke:#263238;stroke-linecap:round;stroke-linejoin:round;stroke-miterlimit:10;" x1="85.571" y1="140.347" x2="143.132" y2="140.347"/>
			
				<line style="fill:none;stroke:#263238;stroke-linecap:round;stroke-linejoin:round;stroke-miterlimit:10;" x1="85.571" y1="150.048" x2="143.132" y2="150.048"/>
			
				<line style="fill:none;stroke:#263238;stroke-linecap:round;stroke-linejoin:round;stroke-miterlimit:10;" x1="85.571" y1="159.749" x2="143.132" y2="159.749"/>
			
				<line style="fill:none;stroke:#263238;stroke-linecap:round;stroke-linejoin:round;stroke-miterlimit:10;" x1="85.571" y1="169.451" x2="143.132" y2="169.451"/>
			
				<line style="fill:none;stroke:#263238;stroke-linecap:round;stroke-linejoin:round;stroke-miterlimit:10;" x1="85.571" y1="179.152" x2="143.132" y2="179.152"/>
			
				<line style="fill:none;stroke:#263238;stroke-linecap:round;stroke-linejoin:round;stroke-miterlimit:10;" x1="85.571" y1="188.853" x2="143.132" y2="188.853"/>
		</g>
		<g>
			
				<line style="fill:none;stroke:#263238;stroke-linecap:round;stroke-linejoin:round;stroke-miterlimit:10;" x1="157.387" y1="277.758" x2="214.947" y2="277.758"/>
			
				<line style="fill:none;stroke:#263238;stroke-linecap:round;stroke-linejoin:round;stroke-miterlimit:10;" x1="157.387" y1="287.459" x2="214.947" y2="287.459"/>
			
				<line style="fill:none;stroke:#263238;stroke-linecap:round;stroke-linejoin:round;stroke-miterlimit:10;" x1="157.387" y1="297.16" x2="214.947" y2="297.16"/>
			
				<line style="fill:none;stroke:#263238;stroke-linecap:round;stroke-linejoin:round;stroke-miterlimit:10;" x1="157.387" y1="306.862" x2="214.947" y2="306.862"/>
			
				<line style="fill:none;stroke:#263238;stroke-linecap:round;stroke-linejoin:round;stroke-miterlimit:10;" x1="157.387" y1="316.563" x2="214.947" y2="316.563"/>
			
				<line style="fill:none;stroke:#263238;stroke-linecap:round;stroke-linejoin:round;stroke-miterlimit:10;" x1="157.387" y1="326.264" x2="214.947" y2="326.264"/>
		</g>
		<g>
			
				<line style="fill:none;stroke:#263238;stroke-linecap:round;stroke-linejoin:round;stroke-miterlimit:10;" x1="82.178" y1="277.758" x2="139.739" y2="277.758"/>
			
				<line style="fill:none;stroke:#263238;stroke-linecap:round;stroke-linejoin:round;stroke-miterlimit:10;" x1="82.178" y1="287.459" x2="139.739" y2="287.459"/>
			
				<line style="fill:none;stroke:#263238;stroke-linecap:round;stroke-linejoin:round;stroke-miterlimit:10;" x1="82.178" y1="297.16" x2="139.739" y2="297.16"/>
			
				<line style="fill:none;stroke:#263238;stroke-linecap:round;stroke-linejoin:round;stroke-miterlimit:10;" x1="82.178" y1="306.862" x2="139.739" y2="306.862"/>
			
				<line style="fill:none;stroke:#263238;stroke-linecap:round;stroke-linejoin:round;stroke-miterlimit:10;" x1="82.178" y1="316.563" x2="139.739" y2="316.563"/>
			
				<line style="fill:none;stroke:#263238;stroke-linecap:round;stroke-linejoin:round;stroke-miterlimit:10;" x1="82.178" y1="326.264" x2="139.739" y2="326.264"/>
		</g>
	</g>
</g>
<g id="Floor">
	
		<line style="fill:none;stroke:#263238;stroke-linecap:round;stroke-linejoin:round;stroke-miterlimit:10;" x1="13.576" y1="425.175" x2="732.92" y2="425.175"/>
</g>
<g id="Target_1_">
	<g>
		<g>
			
				<ellipse transform="matrix(0.3935 -0.9193 0.9193 0.3935 232.9404 522.413)" style="fill:#263238;stroke:#263238;stroke-linecap:round;stroke-linejoin:round;stroke-miterlimit:10;" cx="512.391" cy="84.668" rx="45.295" ry="45.295"/>
			
				<ellipse transform="matrix(0.7071 -0.7071 0.7071 0.7071 90.2066 387.114)" style="fill:#FFFFFF;stroke:#263238;stroke-linecap:round;stroke-linejoin:round;stroke-miterlimit:10;" cx="512.391" cy="84.668" rx="36.272" ry="36.272"/>
			
				<ellipse transform="matrix(0.7071 -0.7071 0.7071 0.7071 90.2066 387.114)" style="fill:#263238;stroke:#263238;stroke-linecap:round;stroke-linejoin:round;stroke-miterlimit:10;" cx="512.391" cy="84.668" rx="23.222" ry="23.222"/>
			
				<ellipse transform="matrix(0.7071 -0.7071 0.7071 0.7071 90.2066 387.114)" style="fill:#FFFFFF;stroke:#1A004F;stroke-miterlimit:10;" cx="512.391" cy="84.668" rx="13.124" ry="13.124"/>
		</g>
		<g>
			<g>
				<line style="fill:#263238;" x1="510.139" y1="84.668" x2="432.517" y2="84.668"/>
			</g>
			<g>
				<g>
					<path style="fill:#263238;" d="M511.293,85.766h-60.915V83.57h60.915c0.606,0,1.098,0.492,1.098,1.098l0,0
						C512.391,85.274,511.9,85.766,511.293,85.766z"/>
				</g>
				<g>
					<g>
						<polygon style="fill:#263238;stroke:#263238;stroke-linecap:round;stroke-linejoin:round;stroke-miterlimit:10;" points="
							444.965,76.857 445.304,77.25 451.671,83.561 432.623,83.561 425.807,76.857 						"/>
					</g>
					<g>
						<path style="fill:#263238;stroke:#263238;stroke-linecap:round;stroke-linejoin:round;stroke-miterlimit:10;" d="
							M425.807,92.224l6.816-6.477h19.048c-2.479,1.859-4.731,4.056-6.762,6.477H425.807z"/>
					</g>
				</g>
			</g>
		</g>
	</g>
</g>
<g id="Plants">
	<g>
		<path style="fill:#263238;" d="M16.392,392.607c1.235,0.432,4.154,0.145,4.156,0.145c0.03-0.003-0.773-1.867-0.837-1.979
			c-0.743-1.294-2.939-3.357-4.573-3.009c-1.177,0.251-1.749,1.491-1.396,2.59C14.103,391.477,15.34,392.238,16.392,392.607z"/>
		<path style="fill:#263238;" d="M53.946,379.762c-1.67-0.054-3.467,2.365-3.969,3.77c-0.043,0.121-0.505,2.098-0.474,2.095
			c0,0,0.028-0.003,0.035-0.003c-0.287,0.38-0.59,0.79-0.912,1.245c-0.588,0.845-1.244,1.805-1.888,2.898
			c-0.646,1.091-1.318,2.294-1.911,3.625c-0.596,1.333-1.155,2.767-1.54,4.318c-0.004,0.018-0.007,0.036-0.011,0.054
			c-0.028-0.489-0.153-1.852-0.174-1.956c-0.303-1.461-1.746-4.106-3.407-4.285c-1.196-0.129-2.126,0.871-2.134,2.026
			c-0.007,1.179,0.931,2.288,1.816,2.966c0.998,0.764,3.653,1.377,3.864,1.425c-0.353,1.48-0.595,3.029-0.754,4.608
			c-0.092,0.904-0.156,1.816-0.209,2.732c-0.038-0.422-0.075-0.799-0.086-0.851c-0.303-1.461-1.746-4.106-3.407-4.285
			c-1.197-0.129-2.126,0.871-2.134,2.026c-0.008,1.179,0.931,2.288,1.815,2.966c0.898,0.688,3.151,1.256,3.749,1.398
			c-0.017,0.352-0.037,0.703-0.052,1.054c-0.074,1.687-0.14,3.371-0.255,5.02c-0.04,0.581-0.102,1.152-0.161,1.724
			c-0.034-0.374-0.066-0.69-0.076-0.737c-0.303-1.461-1.746-4.106-3.407-4.285c-1.197-0.129-2.127,0.871-2.134,2.026
			c-0.008,1.179,0.931,2.288,1.816,2.966c0.856,0.656,2.932,1.199,3.642,1.372c-0.078,0.584-0.155,1.168-0.258,1.73
			c-0.078,0.382-0.127,0.755-0.227,1.135c-0.091,0.377-0.181,0.752-0.271,1.122c-0.199,0.707-0.399,1.437-0.609,2.122
			c-0.143,0.477-0.288,0.93-0.433,1.385c0.047-0.578,0.115-1.712,0.11-1.807c-0.052-0.99-0.524-2.57-1.308-3.647
			c-0.007-0.146-0.026-0.291-0.06-0.434c-0.268-1.123-1.4-1.887-2.537-1.491c-1.577,0.55-2.385,3.453-2.349,4.944
			c0.002,0.088,0.132,1.04,0.223,1.639c-0.108-0.344-0.208-0.679-0.323-1.032c-0.222-0.699-0.465-1.391-0.724-2.136
			c-0.137-0.355-0.276-0.714-0.417-1.076c-0.131-0.362-0.316-0.728-0.474-1.097c-0.384-0.846-0.815-1.686-1.267-2.522
			c0.612-0.196,2.775-0.925,3.609-1.671c0.831-0.743,1.682-1.92,1.585-3.095c-0.095-1.151-1.098-2.078-2.282-1.858
			c-1.643,0.305-2.881,3.052-3.072,4.531c-0.012,0.092-0.029,1.169-0.028,1.761c-0.276-0.5-0.549-1.001-0.844-1.498
			c-0.853-1.435-1.76-2.861-2.66-4.288c-0.276-0.437-0.545-0.875-0.817-1.313c0.219-0.068,2.808-0.878,3.742-1.714
			c0.83-0.743,1.682-1.92,1.585-3.096c-0.095-1.151-1.098-2.077-2.282-1.858c-1.643,0.305-2.881,3.052-3.072,4.531
			c-0.014,0.111-0.037,1.661-0.024,2.056c-0.597-0.965-1.184-1.932-1.723-2.909c-0.746-1.347-1.404-2.709-1.943-4.076
			c0.102-0.031,2.808-0.865,3.765-1.721c0.831-0.743,1.682-1.92,1.585-3.096c-0.095-1.151-1.098-2.077-2.282-1.858
			c-1.643,0.305-2.881,3.052-3.071,4.531c-0.015,0.116-0.039,1.784-0.021,2.086c-0.032-0.081-0.074-0.162-0.105-0.243
			c-0.557-1.467-0.913-2.958-1.178-4.371c-0.155-0.82-0.258-1.613-0.34-2.387c0.52-0.104,2.891-0.603,3.837-1.279
			c0.907-0.647,1.883-1.724,1.915-2.903c0.032-1.154-0.863-2.186-2.064-2.097c-1.666,0.122-3.199,2.717-3.551,4.167
			c-0.019,0.079-0.125,0.902-0.194,1.502c-0.032-0.35-0.071-0.71-0.095-1.046c-0.093-1.26-0.1-2.42-0.098-3.447
			c0.006-0.584,0.022-1.112,0.044-1.606c0.457-0.368,2.281-1.874,2.8-2.89c0.507-0.992,0.876-2.397,0.362-3.458
			c-0.504-1.039-1.773-1.542-2.798-0.91c-1.422,0.877-1.587,3.885-1.231,5.334c0.031,0.125,0.737,2.028,0.761,2.009
			c0,0,0.022-0.018,0.027-0.022c-0.03,0.475-0.056,0.984-0.073,1.541c-0.024,1.029-0.042,2.192,0.024,3.459
			c0.063,1.266,0.166,2.64,0.406,4.078c0.238,1.441,0.562,2.945,1.097,4.451c0.006,0.017,0.015,0.034,0.021,0.051
			c-0.293-0.392-1.15-1.461-1.225-1.535c-1.058-1.052-3.721-2.461-5.205-1.694c-1.069,0.553-1.293,1.9-0.662,2.867
			c0.645,0.988,2.039,1.395,3.15,1.472c1.254,0.087,3.806-0.866,4.009-0.943c0.522,1.43,1.174,2.855,1.913,4.26
			c0.421,0.804,0.872,1.601,1.332,2.394c-0.264-0.331-0.503-0.624-0.541-0.662c-1.059-1.052-3.722-2.461-5.205-1.694
			c-1.07,0.552-1.293,1.899-0.662,2.867c0.644,0.988,2.039,1.395,3.15,1.472c1.128,0.079,3.32-0.691,3.898-0.902
			c0.18,0.302,0.356,0.606,0.538,0.908c0.869,1.448,1.743,2.889,2.557,4.328c0.287,0.507,0.551,1.017,0.817,1.527
			c-0.235-0.294-0.436-0.539-0.47-0.573c-1.058-1.051-3.721-2.461-5.205-1.694c-1.069,0.552-1.293,1.899-0.662,2.867
			c0.645,0.988,2.039,1.395,3.151,1.472c1.076,0.075,3.107-0.617,3.794-0.865c0.257,0.53,0.515,1.06,0.74,1.585
			c0.145,0.362,0.311,0.7,0.436,1.072c0.133,0.365,0.263,0.727,0.393,1.085c0.224,0.699,0.46,1.418,0.662,2.106
			c0.144,0.477,0.273,0.934,0.403,1.394c-0.28-0.508-0.848-1.492-0.905-1.568c-0.886-1.2-3.305-2.996-4.889-2.463
			c-1.141,0.384-1.566,1.682-1.089,2.733c0.487,1.074,1.804,1.688,2.891,1.933c1.197,0.269,3.762-0.253,4.083-0.32
			c0.214,0.762,0.414,1.506,0.592,2.21c0.028,0.108,0.05,0.205,0.077,0.311h1.035c-0.051-0.187-0.101-0.373-0.155-0.565
			c-0.214-0.775-0.458-1.599-0.716-2.442c0.189-0.092,1.26-0.622,2.198-1.243c0.922,0.859,3.189,1.775,3.482,1.891
			c-0.242,0.754-0.485,1.484-0.725,2.17c-0.023,0.066-0.045,0.125-0.067,0.19h1.046c0.236-0.729,0.474-1.505,0.71-2.306
			c0.318,0.042,2.922,0.369,4.096,0.009c1.065-0.327,2.332-1.039,2.736-2.147c0.396-1.085-0.127-2.346-1.294-2.643
			c-1.619-0.411-3.894,1.564-4.687,2.828c-0.047,0.074-0.464,0.94-0.718,1.49c0.1-0.346,0.201-0.681,0.3-1.039
			c0.201-0.706,0.379-1.417,0.575-2.18c0.082-0.372,0.164-0.748,0.247-1.128c0.09-0.375,0.138-0.782,0.21-1.176
			c0.147-0.918,0.251-1.855,0.335-2.802c0.618,0.173,2.824,0.759,3.932,0.597c1.102-0.161,2.462-0.673,3.029-1.708
			c0.556-1.012,0.23-2.339-0.878-2.808c-1.538-0.652-4.087,0.956-5.062,2.085c-0.061,0.07-0.669,0.959-0.994,1.454
			c0.046-0.569,0.094-1.137,0.122-1.715c0.08-1.667,0.11-3.357,0.147-5.044c0.011-0.516,0.028-1.031,0.043-1.546
			c0.22,0.064,2.826,0.817,4.067,0.635c1.102-0.161,2.462-0.674,3.029-1.708c0.556-1.012,0.23-2.339-0.878-2.808
			c-1.538-0.652-4.086,0.956-5.061,2.085c-0.073,0.085-0.948,1.365-1.154,1.702c0.034-1.134,0.078-2.264,0.167-3.377
			c0.121-1.535,0.324-3.034,0.628-4.472c0.102,0.03,2.819,0.828,4.09,0.642c1.103-0.162,2.462-0.674,3.03-1.708
			c0.556-1.012,0.23-2.339-0.878-2.808c-1.538-0.652-4.086,0.956-5.062,2.085c-0.076,0.089-1.016,1.466-1.169,1.728
			c0.019-0.085,0.028-0.176,0.047-0.261c0.344-1.531,0.87-2.971,1.429-4.295c0.323-0.77,0.675-1.488,1.032-2.179
			c0.491,0.201,2.744,1.092,3.906,1.051c1.114-0.039,2.521-0.399,3.199-1.365c0.664-0.945,0.486-2.299-0.564-2.888
			c-1.458-0.817-4.167,0.502-5.26,1.517c-0.059,0.055-0.602,0.683-0.99,1.146c0.166-0.309,0.332-0.632,0.497-0.925
			c0.618-1.102,1.251-2.073,1.819-2.929c0.327-0.484,0.632-0.915,0.922-1.315c0.584-0.054,2.936-0.304,3.93-0.866
			c0.97-0.548,2.054-1.516,2.21-2.685C55.931,380.919,55.149,379.8,53.946,379.762z"/>
		<path style="fill:#263238;" d="M46.018,391.017c0.027,0.014,0.385-1.984,0.393-2.112c0.094-1.489-0.6-4.421-2.155-5.033
			c-1.12-0.441-2.281,0.279-2.593,1.391c-0.319,1.135,0.293,2.453,0.968,3.34C43.423,389.645,46.016,391.016,46.018,391.017z"/>
	</g>
	<g>
		<path style="fill:#263238;" d="M269.406,360.376c2.179,0.951,7.507,0.831,7.511,0.831c0.055-0.001-1.145-3.488-1.246-3.699
			c-1.169-2.446-4.866-6.484-7.874-6.077c-2.167,0.293-3.372,2.462-2.883,4.502C265.413,358.018,267.551,359.565,269.406,360.376z"
			/>
		<path style="fill:#263238;" d="M271.246,375.81c2.26,0.329,7.015-1.049,7.393-1.161c0.751,2.662,1.737,5.333,2.884,7.98
			c0.654,1.514,1.36,3.019,2.087,4.519c-0.434-0.635-0.826-1.2-0.889-1.273c-1.774-2.05-6.406-4.968-9.199-3.781
			c-2.014,0.854-2.603,3.264-1.592,5.103c1.032,1.878,3.504,2.807,5.507,3.098c2.033,0.297,6.111-0.798,7.186-1.102
			c0.285,0.573,0.563,1.147,0.85,1.718c1.377,2.742,2.763,5.472,4.04,8.191c0.451,0.958,0.859,1.918,1.272,2.878
			c-0.386-0.564-0.715-1.036-0.773-1.103c-1.773-2.049-6.405-4.968-9.199-3.781c-2.013,0.855-2.603,3.265-1.592,5.103
			c1.033,1.878,3.503,2.807,5.507,3.098c1.94,0.283,5.713-0.693,6.992-1.048c0.393,0.995,0.788,1.991,1.123,2.973
			c0.214,0.676,0.468,1.311,0.644,2.002c0.19,0.68,0.378,1.353,0.564,2.02c0.311,1.297,0.641,2.633,0.912,3.906
			c0.196,0.884,0.366,1.73,0.54,2.581c-0.438-0.959-1.333-2.818-1.426-2.965c-1.442-2.295-5.579-5.881-8.52-5.131
			c-2.119,0.54-3.067,2.833-2.346,4.803c0.736,2.012,3.037,3.305,4.973,3.897c2.132,0.651,6.851,0.056,7.44-0.022
			c0.283,1.41,0.545,2.784,0.771,4.085c0.17,0.963,0.324,1.888,0.466,2.777h1.89c-0.178-0.99-0.373-2.024-0.589-3.107
			c-0.281-1.433-0.611-2.959-0.964-4.522c0.355-0.141,2.368-0.955,4.151-1.952c1.554,1.682,5.535,3.651,6.05,3.902
			c-0.542,1.332-1.082,2.623-1.611,3.833c-0.279,0.641-0.549,1.246-0.819,1.847h1.999c0.159-0.38,0.316-0.752,0.477-1.147
			c0.556-1.35,1.123-2.805,1.691-4.303c0.571,0.119,5.243,1.068,7.42,0.577c1.974-0.446,4.367-1.564,5.251-3.516
			c0.866-1.911,0.091-4.268-1.983-4.965c-2.877-0.967-7.269,2.301-8.879,4.483c-0.095,0.128-0.969,1.64-1.505,2.602
			c0.229-0.613,0.458-1.207,0.686-1.841c0.46-1.252,0.881-2.514,1.339-3.871c0.198-0.663,0.399-1.333,0.601-2.009
			c0.215-0.667,0.357-1.398,0.541-2.103c0.392-1.643,0.708-3.327,0.989-5.031c1.097,0.399,5.013,1.762,7.042,1.619
			c2.02-0.142,4.553-0.884,5.722-2.68c1.145-1.758,0.737-4.206-1.207-5.208c-2.698-1.391-7.535,1.174-9.456,3.086
			c-0.12,0.119-1.344,1.646-2,2.498c0.161-1.025,0.327-2.048,0.456-3.09c0.374-3.01,0.658-6.068,0.955-9.118
			c0.09-0.934,0.192-1.864,0.29-2.795c0.389,0.147,5.008,1.867,7.281,1.707c2.019-0.141,4.553-0.884,5.722-2.68
			c1.145-1.758,0.737-4.206-1.207-5.208c-2.698-1.392-7.534,1.173-9.455,3.085c-0.145,0.144-1.903,2.344-2.323,2.925
			c0.217-2.051,0.452-4.092,0.765-6.095c0.428-2.764,1.002-5.453,1.75-8.016c0.181,0.069,4.995,1.885,7.322,1.722
			c2.02-0.142,4.553-0.884,5.723-2.68c1.145-1.758,0.737-4.205-1.207-5.208c-2.698-1.391-7.534,1.174-9.456,3.086
			c-0.151,0.15-2.041,2.518-2.354,2.972c0.045-0.152,0.075-0.315,0.121-0.466c0.833-2.727,1.983-5.264,3.176-7.586
			c0.69-1.351,1.426-2.604,2.169-3.806c0.862,0.431,4.823,2.353,6.933,2.438c2.023,0.081,4.623-0.379,5.982-2.035
			c1.331-1.622,1.194-4.099-0.627-5.309c-2.529-1.679-7.618,0.339-9.737,2.029c-0.115,0.092-1.183,1.156-1.95,1.941
			c0.343-0.538,0.688-1.099,1.027-1.607c1.27-1.912,2.55-3.585,3.697-5.058c0.658-0.832,1.27-1.571,1.85-2.257
			c1.066-0.019,5.361-0.149,7.239-1.031c1.832-0.861,3.928-2.466,4.372-4.563c0.434-2.053-0.83-4.189-3.004-4.422
			c-3.018-0.325-6.605,3.811-7.707,6.287c-0.095,0.214-1.201,3.732-1.146,3.732c0,0,0.052,0,0.064-0.001
			c-0.572,0.648-1.176,1.35-1.822,2.131c-1.181,1.45-2.501,3.1-3.817,4.992c-1.32,1.888-2.702,3.975-3.958,6.306
			c-1.263,2.334-2.471,4.854-3.381,7.612c-0.01,0.031-0.017,0.065-0.027,0.096c0.016-0.889-0.023-3.377-0.048-3.567
			c-0.349-2.688-2.601-7.678-5.587-8.23c-2.15-0.397-3.971,1.287-4.143,3.379c-0.175,2.136,1.374,4.273,2.884,5.622
			c1.703,1.521,6.43,2.994,6.806,3.11c-0.843,2.634-1.493,5.405-1.997,8.246c-0.29,1.624-0.531,3.269-0.752,4.921
			c-0.011-0.769-0.027-1.457-0.04-1.553c-0.349-2.689-2.601-7.677-5.587-8.229c-2.151-0.398-3.972,1.288-4.143,3.379
			c-0.175,2.136,1.373,4.273,2.883,5.622c1.532,1.368,5.537,2.706,6.601,3.045c-0.078,0.635-0.163,1.268-0.239,1.903
			c-0.364,3.046-0.714,6.088-1.149,9.061c-0.152,1.048-0.341,2.074-0.527,3.101c-0.011-0.683-0.026-1.258-0.037-1.345
			c-0.349-2.689-2.602-7.678-5.586-8.23c-2.151-0.397-3.972,1.287-4.144,3.379c-0.175,2.135,1.374,4.273,2.884,5.622
			c1.462,1.306,5.147,2.573,6.41,2.983c-0.221,1.047-0.441,2.095-0.703,3.099c-0.194,0.682-0.334,1.351-0.567,2.025
			c-0.217,0.671-0.431,1.337-0.644,1.995c-0.457,1.253-0.919,2.55-1.394,3.761c-0.324,0.845-0.65,1.645-0.974,2.451
			c0.164-1.041,0.443-3.086,0.447-3.259c0.041-1.8-0.598-4.728-1.871-6.786c0.008-0.266-0.007-0.531-0.05-0.794
			c-0.333-2.072-2.279-3.611-4.393-3.048c-2.933,0.781-4.794,5.93-4.932,8.637c-0.008,0.16,0.096,1.902,0.18,3.001
			c-0.148-0.638-0.284-1.259-0.444-1.914c-0.308-1.297-0.653-2.583-1.019-3.968c-0.2-0.662-0.403-1.331-0.607-2.007
			c-0.188-0.674-0.473-1.362-0.709-2.052c-0.58-1.586-1.245-3.166-1.95-4.742c1.136-0.272,5.154-1.296,6.767-2.535
			c1.607-1.232,3.31-3.249,3.295-5.391c-0.015-2.098-1.705-3.914-3.88-3.678c-3.018,0.328-5.637,5.135-6.185,7.79
			c-0.034,0.166-0.213,2.115-0.29,3.187c-0.431-0.944-0.857-1.888-1.325-2.829c-1.348-2.717-2.798-5.424-4.233-8.132
			c-0.44-0.829-0.868-1.66-1.3-2.491c0.405-0.093,5.208-1.207,7.015-2.594c1.606-1.232,3.31-3.249,3.295-5.392
			c-0.015-2.098-1.706-3.914-3.88-3.678c-3.018,0.328-5.637,5.135-6.185,7.79c-0.041,0.2-0.294,3.005-0.324,3.721
			c-0.95-1.829-1.881-3.662-2.725-5.505c-1.167-2.542-2.172-5.101-2.963-7.651c0.189-0.043,5.206-1.184,7.057-2.603
			c1.606-1.232,3.31-3.249,3.294-5.392c-0.015-2.098-1.705-3.914-3.88-3.678c-3.018,0.328-5.636,5.135-6.184,7.79
			c-0.043,0.208-0.314,3.226-0.324,3.776c-0.047-0.151-0.112-0.303-0.157-0.455c-0.809-2.735-1.25-5.484-1.536-8.08
			c-0.169-1.507-0.246-2.958-0.29-4.37c0.956-0.117,5.321-0.698,7.127-1.792c1.732-1.049,3.647-2.866,3.867-4.997
			c0.215-2.087-1.266-4.078-3.452-4.082c-3.036-0.006-6.167,4.485-7.003,7.064c-0.046,0.141-0.35,1.617-0.556,2.695
			c-0.01-0.638-0.032-1.296-0.03-1.907c0.004-2.295,0.149-4.397,0.293-6.258c0.09-1.058,0.193-2.012,0.299-2.903
			c0.878-0.604,4.389-3.082,5.469-4.854c1.054-1.729,1.916-4.223,1.129-6.216c-0.771-1.952-3.003-3.036-4.945-2.032
			c-2.697,1.394-3.406,6.823-2.961,9.496c0.039,0.231,1.057,3.775,1.104,3.744c0,0,0.043-0.029,0.053-0.036
			c-0.119,0.856-0.236,1.776-0.344,2.782c-0.185,1.861-0.376,3.965-0.43,6.27c-0.06,2.303-0.06,4.806,0.177,7.443
			c0.235,2.643,0.616,5.412,1.379,8.214c0.009,0.032,0.022,0.064,0.03,0.095c-0.478-0.75-1.883-2.803-2.009-2.949
			c-1.773-2.05-6.405-4.968-9.199-3.782c-2.013,0.855-2.603,3.265-1.592,5.104C266.772,374.589,269.242,375.518,271.246,375.81z"/>
		<path style="fill:#263238;" d="M323.3,361.548c0.047,0.029,0.969-3.541,1.002-3.773c0.374-2.685-0.482-8.092-3.216-9.413
			c-1.969-0.951-4.17,0.193-4.888,2.165c-0.733,2.013,0.196,4.484,1.296,6.184C318.786,358.707,323.297,361.546,323.3,361.548z"/>
	</g>
</g>
<g id="Paper_Planes">
	<g>
		<g>
			<polyline style="fill:#FFFFFF;stroke:#263238;stroke-linecap:round;stroke-linejoin:round;stroke-miterlimit:10;" points="
				624.504,162.329 624.081,163.465 619.006,173.986 670.033,165.188 			"/>
			<polygon style="fill:#FFFFFF;stroke:#263238;stroke-linecap:round;stroke-linejoin:round;stroke-miterlimit:10;" points="
				629.343,173.546 624.504,162.329 670.033,165.188 			"/>
			<polygon style="fill:#FFFFFF;stroke:#263238;stroke-linecap:round;stroke-linejoin:round;stroke-miterlimit:10;" points="
				670.033,165.188 635.942,142.754 628.327,158.422 			"/>
			<polygon style="fill:#FFFFFF;stroke:#263238;stroke-linecap:round;stroke-linejoin:round;stroke-miterlimit:10;" points="
				670.033,165.188 629.343,173.546 628.327,158.422 			"/>
		</g>
		<g>
			<g>
				<path style="fill:none;stroke:#263238;stroke-linecap:round;stroke-linejoin:round;" d="M270.1,198.122
					c0,0,0.35,0.391,1.034,1.081"/>
				<path style="fill:none;stroke:#263238;stroke-linecap:round;stroke-linejoin:round;stroke-dasharray:2.9891,2.9891;" d="
					M273.286,201.271c13.078,12.059,65.248,51.897,134.746-3.816c80.627-64.635-14.66-138.598-65.967-128.603
					c-51.308,9.995-42.646,90.622,37.981,105.948c79.764,15.162,143.876-26.414,235.564-15.692"/>
				<path style="fill:none;stroke:#263238;stroke-linecap:round;stroke-linejoin:round;" d="M617.106,159.287
					c0.495,0.061,0.992,0.123,1.489,0.187"/>
			</g>
		</g>
	</g>
	<g>
		<g>
			<polygon style="fill:#FFFFFF;stroke:#263238;stroke-linecap:round;stroke-linejoin:round;stroke-miterlimit:10;" points="
				501.967,313.522 488.476,296.607 517.263,273.269 			"/>
			<polygon style="fill:#FFFFFF;stroke:#263238;stroke-linecap:round;stroke-linejoin:round;stroke-miterlimit:10;" points="
				488.476,296.607 486.386,290.291 517.263,273.269 			"/>
			<polygon style="fill:#FFFFFF;stroke:#263238;stroke-linecap:round;stroke-linejoin:round;stroke-miterlimit:10;" points="
				517.263,273.269 485.57,292.137 472.545,274.981 			"/>
		</g>
		<path style="fill:none;stroke:#263238;stroke-linecap:round;stroke-linejoin:round;stroke-miterlimit:10;stroke-dasharray:3;" d="
			M262.827,175.267c0,0,44.13,16.859,63.964,77.352c19.834,60.494,70.749,96.148,160.313,40.811"/>
	</g>
</g>
<g id="Hand">
	<g>
		<g>
			<path style="fill:#FFFFFF;stroke:#263238;stroke-linecap:round;stroke-linejoin:round;stroke-miterlimit:10;" d="
				M133.847,248.951c0,0,4.504,14.763,4.504,16.264c0,1.287-2.943,12.69-2.994,17.021"/>
		</g>
		<g>
			<path style="fill:#92E3A9;stroke:#263238;stroke-linecap:round;stroke-linejoin:round;stroke-miterlimit:10;" d="M87.997,206.061
				l3.387,31.511c0.673,6.257,6.582,10.579,12.747,9.314c22.41-4.595,72.453-14.038,103.071-13.54
				c40.383,0.657,76.89,21.053,76.89,21.053l-0.374-18.378c-0.578-28.4-4.923-56.599-12.923-83.855l-5.294-18.037
				c0,0-28.279,31.358-69.516,44.452c-31.043,9.858-77.221,14.167-98.154,15.696C91.808,194.717,87.351,200.056,87.997,206.061z"/>
			<path style="fill:none;stroke:#FFFFFF;stroke-width:5;stroke-linecap:round;stroke-linejoin:round;stroke-miterlimit:10;" d="
				M265.774,138.439l-0.274-0.934c0,0-28.279,31.358-69.516,44.452c-2.228,0.707-4.533,1.386-6.902,2.038"/>
			<path style="fill:none;stroke:#FFFFFF;stroke-width:5;stroke-linecap:round;stroke-linejoin:round;stroke-miterlimit:10;" d="
				M179.747,186.354c-7,1.628-14.343,3.052-21.704,4.292"/>
			<g>
				<path style="fill:#263238;stroke:#263238;stroke-linecap:round;stroke-linejoin:round;stroke-miterlimit:10;" d="
					M284.754,260.509c-0.177,0.019-0.357,0.031-0.539,0.034c-3.393,0.069-6.2-2.626-6.269-6.019l-0.373-18.378
					c-0.567-27.849-4.831-55.522-12.676-82.25l-5.294-18.037c-0.956-3.257,0.909-6.671,4.166-7.627
					c3.259-0.953,6.672,0.91,7.627,4.166l5.294,18.037c8.151,27.771,12.582,56.524,13.171,85.461l0.373,18.377
					C290.3,257.486,287.89,260.172,284.754,260.509z"/>
			</g>
			<path style="fill:#263238;stroke:#263238;stroke-linecap:round;stroke-linejoin:round;stroke-miterlimit:10;" d="
				M160.884,186.779c-24.272,4.253-49.195,6.486-63.054,7.498c-6.023,0.44-10.479,5.779-9.834,11.783l3.387,31.511
				c0.673,6.257,6.582,10.579,12.747,9.314c13.845-2.839,38.236-7.526,62.078-10.578L160.884,186.779z"/>
			<path style="fill:#92E3A9;stroke:#263238;stroke-linecap:round;stroke-linejoin:round;stroke-miterlimit:10;" d="M119.792,238.41
				c0,0,9.805,19.935,11.335,21.769c0.576,0.69,1.649,1.185,2.764,1.535c2.702,0.846,5.026,2.599,6.586,4.962
				c7.004,10.615,24.917,37.723,25.825,38.696c1.13,1.211,3.906,2.245,5.447,1.08c1.541-1.165,12.994-12.391,12.134-17.296
				c-0.86-4.905-2.366-3.411-4.919-5.468c-2.055-1.656-9.99-15.846-13.008-21.32c-0.725-1.315-0.661-2.922,0.164-4.177l2.671-4.06
				c0,0-11.672-9.406-11.849-11.053c-0.177-1.647,4.693-2.837,4.845-4.519c0.152-1.682-4.143-7.55-4.143-7.55L119.792,238.41z"/>
			<path style="fill:#263238;stroke:#263238;stroke-linecap:round;stroke-linejoin:round;stroke-miterlimit:10;" d="
				M161.519,248.001l8.557,3.152c0.334,0.123,0.459,0.529,0.253,0.819l-1.539,2.161L161.519,248.001z"/>
			
				<line style="fill:none;stroke:#263238;stroke-linecap:round;stroke-linejoin:round;stroke-miterlimit:10;" x1="140.228" y1="256.01" x2="137.759" y2="257.921"/>
			
				<line style="fill:none;stroke:#263238;stroke-linecap:round;stroke-linejoin:round;stroke-miterlimit:10;" x1="156.941" y1="243.079" x2="142.362" y2="254.359"/>
			
				<rect x="129.598" y="209.665" transform="matrix(0.9943 -0.1069 0.1069 0.9943 -21.9616 15.578)" style="fill:#92E3A9;stroke:#263238;stroke-linecap:round;stroke-linejoin:round;stroke-miterlimit:10;" width="9.544" height="6.074"/>
		</g>
		<g>
			<path style="fill:#FFFFFF;stroke:#263238;stroke-linecap:round;stroke-linejoin:round;stroke-miterlimit:10;" d="
				M135.357,282.236c-0.008,0.721,0.063,1.246,0.242,1.495c1.251,1.752,4.254,14.013,4.504,15.264c0.25,1.251,0,6.255-0.751,10.259
				c-0.751,4.004-3.753,14.263-3.753,14.263l30.527,9.759c0,0,7.256-14.513,9.008-17.516c1.752-3.003,7.006-10.76,8.257-16.014
				c1.251-5.255,1.501-11.26,1.501-11.26s4.004-3.253,3.503-5.505c-0.5-2.252-2.752-4.754-2.752-4.754s0.5-4.254-1.001-6.506
				c-1.501-2.252-3.753-4.504-4.254-5.255c-0.5-0.751,0.751-7.757-2.252-9.258c-3.003-1.501-5.004-1.752-5.004-1.752
				s0.5-4.254-2.752-6.506s-7.256-2.502-10.259,0.25c-3.003,2.752-16.264,17.265-16.264,17.265"/>
			<path style="fill:#FFFFFF;stroke:#263238;stroke-linecap:round;stroke-linejoin:round;stroke-miterlimit:10;" d="M144.356,270.22
				c0,0,0.751,3.753,1.501,4.504c0.751,0.751-1.501,11.26-1.501,11.26"/>
			<polyline style="fill:#FFFFFF;stroke:#263238;stroke-linecap:round;stroke-linejoin:round;stroke-miterlimit:10;" points="
				173.132,255.456 167.627,258.709 161.872,265.716 			"/>
			
				<line style="fill:#FFFFFF;stroke:#263238;stroke-linecap:round;stroke-linejoin:round;stroke-miterlimit:10;" x1="180.388" y1="266.466" x2="173.632" y2="271.971"/>
			
				<line style="fill:#FFFFFF;stroke:#263238;stroke-linecap:round;stroke-linejoin:round;stroke-miterlimit:10;" x1="185.643" y1="278.227" x2="179.888" y2="281.73"/>
			<path style="fill:#FFFFFF;stroke:#263238;stroke-linecap:round;stroke-linejoin:round;stroke-miterlimit:10;" d="
				M156.117,273.222c0,0-1.001,2.002,0,4.754c1.001,2.753,1.001,2.753,1.001,2.753"/>
			<path style="fill:#FFFFFF;stroke:#263238;stroke-linecap:round;stroke-linejoin:round;stroke-miterlimit:10;" d="
				M169.378,278.727c0,0-2.752,2.002-1.751,4.254"/>
		</g>
		<polygon style="fill:#FFFFFF;stroke:#263238;stroke-linecap:round;stroke-linejoin:round;stroke-miterlimit:10;" points="
			134.219,313.642 175.026,328.318 168.94,347.29 128.133,328.676 		"/>
		<polygon style="fill:#263238;stroke:#263238;stroke-linecap:round;stroke-linejoin:round;stroke-miterlimit:10;" points="
			128.854,324.769 174.958,342.757 162.553,398.551 101.953,398.551 		"/>
	</g>
</g>
<g id="Speech_Bubbles_2">
	<g>
		<path style="fill:#FFFFFF;stroke:#263238;stroke-linecap:round;stroke-linejoin:round;stroke-miterlimit:10;" d="M618.414,191.906
			c-13.199,0-23.898,8.306-23.898,18.553c0,3.256,1.083,6.314,2.981,8.973l-8.012,13.353l12.754-8.673
			c4.256,3.041,9.936,4.899,16.176,4.899c13.199,0,23.898-8.306,23.898-18.553C642.313,200.212,631.613,191.906,618.414,191.906z"/>
		<g>
			<path style="fill:#263238;" d="M613.557,210.094c0,1.371-1.112,2.483-2.483,2.483c-1.371,0-2.483-1.112-2.483-2.483
				c0-1.371,1.112-2.483,2.483-2.483C612.445,207.611,613.557,208.723,613.557,210.094z"/>
			<path style="fill:#263238;" d="M620.267,210.094c0,1.371-1.112,2.483-2.483,2.483c-1.371,0-2.483-1.112-2.483-2.483
				c0-1.371,1.112-2.483,2.483-2.483C619.155,207.611,620.267,208.723,620.267,210.094z"/>
			<path style="fill:#263238;" d="M626.977,210.094c0,1.371-1.112,2.483-2.483,2.483c-1.371,0-2.483-1.112-2.483-2.483
				c0-1.371,1.112-2.483,2.483-2.483C625.865,207.611,626.977,208.723,626.977,210.094z"/>
		</g>
	</g>
	<g>
		<path style="fill:#FFFFFF;stroke:#263238;stroke-linecap:round;stroke-linejoin:round;stroke-miterlimit:10;" d="M691.996,238.13
			c0-10.246-10.7-18.553-23.898-18.553s-23.898,8.306-23.898,18.553c0,8.856,7.996,16.259,18.688,18.105l1.437,8.623l6.451-8.295
			C682.714,255.531,691.996,247.674,691.996,238.13z"/>
		<g>
			<path style="fill:#263238;" d="M663.757,238.057c0,1.371-1.112,2.483-2.483,2.483c-1.371,0-2.483-1.112-2.483-2.483
				c0-1.371,1.112-2.483,2.483-2.483C662.646,235.574,663.757,236.686,663.757,238.057z"/>
			<circle style="fill:#263238;" cx="667.984" cy="238.057" r="2.483"/>
			<path style="fill:#263238;" d="M677.177,238.057c0,1.371-1.112,2.483-2.483,2.483s-2.483-1.112-2.483-2.483
				c0-1.371,1.112-2.483,2.483-2.483S677.177,236.686,677.177,238.057z"/>
		</g>
	</g>
</g>
<g id="Speech_Bubble_1">
	<g>
		<path style="fill:#FFFFFF;stroke:#263238;stroke-linecap:round;stroke-linejoin:round;stroke-miterlimit:10;" d="M491.481,200.782
			c-10.711,0-19.395,8.683-19.395,19.395c0,5.609,2.395,10.646,6.201,14.188l-3.75,8.101l7.248-5.509
			c2.854,1.653,6.159,2.615,9.695,2.615c10.711,0,19.395-8.683,19.395-19.395C510.876,209.465,502.193,200.782,491.481,200.782z"/>
		<path style="fill:#92E3A9;stroke:#263238;stroke-linecap:round;stroke-linejoin:round;stroke-miterlimit:10;" d="M501.137,212.807
			c-2.136-2.136-5.599-2.136-7.734,0l-2.089,2.089l-2.089-2.089c-2.136-2.136-5.599-2.136-7.734,0c-2.136,2.136-2.136,5.599,0,7.734
			l9.791,9.792l0.032-0.032l0.032,0.032l9.791-9.792C503.273,218.405,503.273,214.942,501.137,212.807z"/>
	</g>
</g>
<g id="Characters_2">
	<g>
		
			<rect x="685.795" y="339.723" style="fill:#263238;stroke:#263238;stroke-linecap:round;stroke-linejoin:round;stroke-miterlimit:10;" width="5.075" height="85.452"/>
		
			<rect x="513.906" y="339.723" style="fill:#263238;stroke:#263238;stroke-linecap:round;stroke-linejoin:round;stroke-miterlimit:10;" width="5.075" height="85.452"/>
		
			<rect x="594.456" y="339.723" style="fill:#263238;stroke:#263238;stroke-linecap:round;stroke-linejoin:round;stroke-miterlimit:10;" width="5.075" height="26.916"/>
		
			<rect x="499.813" y="359.987" style="fill:#92E3A9;stroke:#263238;stroke-linecap:round;stroke-linejoin:round;stroke-miterlimit:10;" width="205.157" height="7.632"/>
		
			<rect x="499.813" y="320.909" style="fill:#92E3A9;stroke:#263238;stroke-linecap:round;stroke-linejoin:round;stroke-miterlimit:10;" width="205.157" height="25.339"/>
		
			<rect x="696.489" y="367.765" style="fill:#263238;stroke:#263238;stroke-linecap:round;stroke-linejoin:round;stroke-miterlimit:10;" width="5.075" height="57.41"/>
		
			<rect x="505.181" y="367.765" style="fill:#263238;stroke:#263238;stroke-linecap:round;stroke-linejoin:round;stroke-miterlimit:10;" width="5.075" height="57.41"/>
	</g>
	<g>
		<path style="fill:#FFFFFF;stroke:#263238;stroke-linecap:round;stroke-linejoin:round;stroke-miterlimit:10;" d="M635.45,301.141
			c0,0-3.582,0.367-4.806,4.773c-1.224,4.406-4.406,31.577-2.203,33.046c2.203,1.469,7.711-2.325,8.078-5.14
			c0.367-2.815,2.325-18.726,2.325-18.726S637.686,300.039,635.45,301.141z"/>
		<path style="fill:#92E3A9;stroke:#263238;stroke-linecap:round;stroke-linejoin:round;stroke-miterlimit:10;" d="M657.655,286.102
			c0,0-0.202,7.469,0.101,7.974c0.303,0.505,2.22,2.322,7.065,3.23c4.845,0.908,6.863,1.312,7.671,6.157
			c0.807,4.845,0.505,21.499,1.009,22.205c0.505,0.706,5.955,11.405,6.056,19.076c0.101,7.671-3.936,12.919-6.662,14.131
			c-2.725,1.211-6.359,1.413-7.267,1.413s-25.233,0-25.233,0s-1.716-7.974-0.404-14.534c1.312-6.561,2.725-12.717,2.422-13.626
			c-0.303-0.908-1.009-7.267-2.019-9.992c-1.009-2.725-4.037-8.68-4.744-12.616c-0.706-3.936-0.202-8.377-0.202-8.377
			s8.478-0.807,9.79-2.523c1.312-1.716-0.505-8.175-0.505-8.175L657.655,286.102z"/>
		<path style="fill:#FFFFFF;stroke:#263238;stroke-linecap:round;stroke-linejoin:round;stroke-miterlimit:10;" d="M643.217,299.714
			c1.186,1.329,3.948,3.719,8.786,4.152c4.843,0.434,8.546-4.411,10.258-7.197c-2.982-0.946-4.263-2.189-4.505-2.593
			c-0.303-0.505-0.101-7.974-0.101-7.974l-12.919,4.34c0,0,1.817,6.46,0.505,8.176C644.92,299.037,644.167,299.401,643.217,299.714z
			"/>
		<g>
			<path style="fill:#263238;stroke:#263238;stroke-linecap:round;stroke-linejoin:round;stroke-miterlimit:10;" d="
				M635.753,288.221c0,0,0,3.028,0.404,4.744c0.404,1.716,0.807,4.138-0.303,5.249c-1.11,1.11-3.634,2.725-1.615,4.037
				c2.019,1.312,4.239,0.908,3.734,2.019c-0.505,1.11-4.845,0.706-2.624,4.441c2.22,3.734,7.873,3.836,7.57,4.744
				c-0.303,0.908-2.826,0.202-1.211,1.918c1.615,1.716,4.34,0,3.734-0.908c-0.606-0.908-1.009-1.514,0.202-2.725
				c1.211-1.211,2.725-2.826,2.321-4.542c-0.404-1.716-2.019-1.312-0.908-2.422c1.11-1.11,2.927-3.028,3.331-5.45
				c0.404-2.422,0.202-4.542-1.817-6.258c-2.019-1.716-5.248-5.349-5.349-8.478c0,0-0.908-3.634-0.404-7.267
				C642.818,277.32,636.561,283.174,635.753,288.221z"/>
			<g>
				<path style="fill:#FFFFFF;stroke:#263238;stroke-linecap:round;stroke-linejoin:round;stroke-miterlimit:10;" d="
					M645.384,268.944c0,0-4.926,4.416-4.586,8.492c0.34,4.076,0.679,11.38,2.038,13.248c1.359,1.868,5.302,5.541,7.307,5.641
					c1.667,0.083,3.644-1.309,5.002-2.668c1.359-1.359,2.977-5.181,3.316-6.031c0.34-0.849,0.34-10.191,0-12.059
					c-0.34-1.868-5.775-6.115-7.813-6.624C648.611,268.434,645.384,268.944,645.384,268.944z"/>
				<path style="fill:none;stroke:#263238;stroke-linecap:round;stroke-linejoin:round;stroke-miterlimit:10;" d="M648.06,287.405
					c0,0,1.417,1.084,2.251,0.75c0.834-0.333,1.584-1.167,1.584-1.167"/>
				<path style="fill:none;stroke:#263238;stroke-linecap:round;stroke-linejoin:round;stroke-miterlimit:10;" d="M646.725,289.406
					c0,0,4.502,2.334,7.253-1.084"/>
				<path style="fill:none;stroke:#263238;stroke-linecap:round;stroke-linejoin:round;stroke-miterlimit:10;" d="M643.557,280.152
					c1.501-1.001,3.752,0.333,3.752,0.333"/>
				<path style="fill:none;stroke:#263238;stroke-linecap:round;stroke-linejoin:round;stroke-miterlimit:10;" d="M651.644,280.152
					c0,0,2.334-1.584,4.169-0.5"/>
				<ellipse style="fill:#263238;" cx="645.725" cy="283.07" rx="0.78" ry="1.003"/>
				<path style="fill:#263238;" d="M653.926,282.653c0,0.554-0.349,1.003-0.78,1.003c-0.431,0-0.781-0.449-0.781-1.003
					c0-0.554,0.349-1.003,0.781-1.003C653.576,281.65,653.926,282.099,653.926,282.653z"/>
			</g>
			<path style="fill:#263238;stroke:#263238;stroke-linecap:round;stroke-linejoin:round;stroke-miterlimit:10;" d="M652.104,271.87
				c0,0-3.936,0.707-5.45,3.432c-1.514,2.725-1.817,6.561-4.946,9.185c-3.129,2.624-5.955,3.734-5.955,3.734
				s-1.009-6.863,0.505-9.589c1.514-2.725,4.542-10.194,7.671-12.011c3.129-1.817,6.863-0.908,7.469-0.908s3.734-0.202,5.652,2.22
				c1.918,2.422,2.927,7.267,3.634,9.185c0.706,1.918,1.514,6.258,1.514,8.781c0,2.523-1.211,4.744-2.019,5.249
				c-0.807,0.505-2.725,0.807-2.725,0.807s1.615-9.185,0.908-10.295c-0.707-1.11-2.523-4.542-4.037-6.561
				C652.811,273.081,652.104,271.87,652.104,271.87z"/>
		</g>
		<path style="fill:#FFFFFF;stroke:#263238;stroke-linecap:round;stroke-linejoin:round;stroke-miterlimit:10;" d="M645.089,313.342
			l1.922,10.65l4.808,3.322h4.721l-1.238-14.777c-0.04-0.483-0.461-0.845-0.945-0.812l-8.453,0.573
			C645.374,312.334,644.995,312.821,645.089,313.342z"/>
		<g>
			<path style="fill:#FFFFFF;stroke:#263238;stroke-linecap:round;stroke-linejoin:round;stroke-miterlimit:10;" d="
				M628.613,332.741c0,0,7.182-7.641,8.711-9.628c1.528-1.987,4.279-3.515,4.89-3.744c0.611-0.229,5.884-0.611,6.8-0.764
				c0.917-0.153,2.063,0.153,1.757,0.841c-0.306,0.688-0.841,0.993-2.216,1.146c-1.375,0.153-1.895-0.183-1.895-0.183
				s1.283,4.08,1.054,4.538c-0.229,0.459-4.05,2.14-5.425,2.674c-1.375,0.535-2.216,0.535-2.216,0.535s-1.757,6.342-2.904,8.558
				c-1.146,2.216-2.904,5.196-4.584,5.578c-1.681,0.382-3.744-0.153-4.203-1.223c-0.458-1.07-0.993-5.425-0.917-7.412"/>
			<path style="fill:none;stroke:#263238;stroke-linecap:round;stroke-linejoin:round;stroke-miterlimit:10;" d="M640.074,328.156
				c-1.987-0.229-2.674-2.674-2.674-2.674"/>
		</g>
		<g>
			<path style="fill:#FFFFFF;stroke:#263238;stroke-linecap:round;stroke-linejoin:round;stroke-miterlimit:10;" d="M660.91,326.003
				c0,0-0.874-3.759-1.137-4.458c-0.262-0.699-3.234-3.409-3.584-3.934s-0.35-0.525-0.35-0.525l0.175,3.234
				c0,0,1.049,1.661,1.049,2.273c0,0.612-0.612,1.311-1.224,1.573c-0.612,0.262-2.623-1.923-4.808-3.234
				c-2.185-1.311-4.546-2.972-4.983-2.36c-0.437,0.612-0.437,1.049,0.612,1.836c1.049,0.787,3.584,3.147,3.934,3.584
				c0.35,0.437,0.525,0.962,0.525,0.962s-1.574-0.787-3.672-2.185c-2.098-1.399-2.535-2.448-2.972-2.448
				c-0.437,0-0.962,0.262-0.35,1.486c0.612,1.224,1.224,2.535,1.224,2.535s0.262,1.748,1.049,2.623
				c0.787,0.874,3.847,3.584,6.294,4.546c2.448,0.962,11.627,4.458,15.211,4.896c3.584,0.437,7.081-1.836,7.693-2.623
				c0.612-0.787,1.923-4.371,1.923-4.371s2.535-14.337,2.098-21.505c-0.437-7.168-2.972-8.655-4.721-9.092
				c-1.748-0.437-5.333,0-5.333,0s0.35,6.906,0.262,12.851c-0.087,5.945-0.874,14.512-0.874,14.512s-0.699,1.224-3.235,1.661
				C663.183,328.276,661.785,327.315,660.91,326.003z"/>
			<path style="fill:none;stroke:#263238;stroke-linecap:round;stroke-linejoin:round;stroke-miterlimit:10;" d="M668.953,326.178
				c0,0,3.672-2.185,6.382,0.262"/>
			<path style="fill:none;stroke:#263238;stroke-linecap:round;stroke-linejoin:round;stroke-miterlimit:10;" d="M645.349,324.342
				c0,0,2.011,2.273,4.109,3.584"/>
		</g>
		<path style="fill:#8A8A8A;stroke:#263238;stroke-linecap:round;stroke-linejoin:round;stroke-miterlimit:10;" d="M639.992,345.753
			c-1.312,6.561,0.404,14.534,0.404,14.534s24.325,0,25.233,0s4.542-0.202,7.267-1.413c2.725-1.211,6.763-6.46,6.662-14.131
			c-0.016-1.249-0.176-2.578-0.432-3.931h-38.124C640.68,342.376,640.333,344.049,639.992,345.753z"/>
		<g>
			<path style="fill:#8A8A8A;stroke:#263238;stroke-linecap:round;stroke-linejoin:round;stroke-miterlimit:10;" d="
				M675.156,345.166c0,0-4.486-7.124-10.687-11.346s-18.461-7.021-20.317-6.597c-4.078,0.933-6.597,5.277-8.708,9.103
				c-2.111,3.826-10.027,23.22-11.61,28.629c-1.583,5.409-6.597,10.291-8.312,11.61s-7.52,3.298-11.346,3.826
				c-3.826,0.528-7.916,0.792-9.235,2.111c-1.319,1.319,0.792,5.277,4.882,7.784c4.09,2.507,17.811,3.298,19.526,2.902
				c1.715-0.396,3.43-3.166,3.43-3.166s1.451-4.354,2.771-7.388c1.319-3.034,2.771-5.805,7.124-10.686
				c4.354-4.882,10.555-16.228,12.402-19.262c1.847-3.034,3.298-5.673,3.298-5.673s8.048,13.193,10.686,13.457
				c2.639,0.264,10.784,0.765,13.835-1.596"/>
			<path style="fill:none;stroke:#263238;stroke-linecap:round;stroke-linejoin:round;stroke-miterlimit:10;" d="M648.374,347.013
				c0,0,2.492-3.797,3.719-6.864"/>
			<path style="fill:#FFFFFF;stroke:#263238;stroke-linecap:round;stroke-linejoin:round;stroke-miterlimit:10;" d="
				M621.796,369.379c-2.139,3.476-5.046,6.243-6.273,7.186c-1.715,1.319-7.52,3.298-11.346,3.826
				c-3.826,0.528-7.916,0.792-9.235,2.111c-1.319,1.319,0.792,5.277,4.881,7.784c4.09,2.507,17.811,3.298,19.526,2.902
				c1.715-0.396,3.43-3.166,3.43-3.166s1.451-4.354,2.771-7.388c1.014-2.332,2.112-4.513,4.54-7.612
				C627.535,371.398,623.182,369.809,621.796,369.379z"/>
			<path style="fill:#FFFFFF;stroke:#263238;stroke-linecap:round;stroke-linejoin:round;stroke-miterlimit:10;" d="
				M620.642,383.931c0,0-0.47-3.172-1.762-5.051c-0.846-1.231-2.393-1.955-3.363-2.31c-1.722,1.319-7.518,3.294-11.34,3.822
				c-3.826,0.528-7.916,0.792-9.235,2.111c-1.319,1.319,0.792,5.277,4.881,7.784c4.09,2.507,17.811,3.298,19.526,2.902
				c1.715-0.396,3.43-3.166,3.43-3.166s0.709-2.127,1.587-4.444L620.642,383.931z"/>
		</g>
		<g>
			<path style="fill:#8A8A8A;stroke:#263238;stroke-linecap:round;stroke-linejoin:round;stroke-miterlimit:10;" d="
				M648.374,347.013c0,0,7.154,3.324,8.681,6.026c1.527,2.702,0.94,5.521,0.587,6.461c-0.352,0.94-2.584,3.641-2.937,4.698
				c-0.352,1.057,2.349,12.569,2.702,21.731c0.352,9.162,0.352,17.737,1.057,20.439c0.705,2.702,2.114,6.108,2.467,8.575
				c0.352,2.467,0.94,5.873,0.235,6.93c-0.705,1.057-1.762,1.057-1.879,1.645c-0.117,0.587-0.117,1.762-2.114,2.232
				s-11.042,0.235-11.511-0.47c-0.47-0.705,1.292-3.759,1.997-5.168c0.705-1.409,2.702-7.753,3.172-10.219
				c0.47-2.467-1.057-6.225-1.292-6.578c-0.235-0.352-7.165-19.264-8.81-27.721c-1.645-8.457-3.408-10.663-1.057-13.743
				C642.487,358.158,645.732,350.463,648.374,347.013z"/>
			<path style="fill:#FFFFFF;stroke:#263238;stroke-linecap:round;stroke-linejoin:round;stroke-miterlimit:10;" d="
				M658.465,406.367c-0.171-0.656-0.3-1.665-0.404-2.939l-8.042,1.024c0.499,1.385,1.138,3.723,0.811,5.439
				c-0.47,2.467-2.467,8.81-3.172,10.219c-0.705,1.41-2.467,4.464-1.997,5.168s9.515,0.94,11.511,0.47
				c1.997-0.47,1.997-1.645,2.114-2.232c0.117-0.587,1.175-0.587,1.879-1.645c0.705-1.057,0.117-4.464-0.235-6.93
				C660.579,412.475,659.17,409.069,658.465,406.367z"/>
			<path style="fill:#FFFFFF;stroke:#263238;stroke-linecap:round;stroke-linejoin:round;stroke-miterlimit:10;" d="
				M659.625,410.115l-1.278,0.833c0,0-0.822-1.527-3.406-2.114c-2.367-0.538-4.04,1.58-4.305,1.94
				c-0.677,2.845-2.345,8.072-2.978,9.336c-0.705,1.41-2.467,4.464-1.997,5.168s9.515,0.94,11.511,0.47
				c1.997-0.47,1.997-1.645,2.114-2.232c0.117-0.587,1.175-0.587,1.879-1.645c0.705-1.057,0.117-4.464-0.235-6.93
				C660.731,413.536,660.186,411.826,659.625,410.115z"/>
		</g>
	</g>
	<g>
		<g>
			<path style="fill:#263238;stroke:#263238;stroke-linecap:round;stroke-linejoin:round;stroke-miterlimit:10;" d="
				M537.604,321.819h36.827c0,0,4.752-0.297,6.088-3.564c1.336-3.267,3.712-8.019,2.673-13.068c-1.04-5.049-5.201-9.862-5.201-9.862
				l-40.418-2.062c0,0-4.275,2.569-5.166,10.291C531.516,311.275,532.555,318.403,537.604,321.819z"/>
			<path style="fill:#B5B5B5;stroke:#263238;stroke-linecap:round;stroke-linejoin:round;stroke-miterlimit:10;" d="
				M586.515,253.532c0,0,2.75,4.812,2.475,12.373c-0.275,7.561-0.271,8.965-0.271,8.965s1.508,5.332,0.821,8.769
				c-0.687,3.437-4.674,10.586-4.674,10.586l-6.736-12.235l0.55-8.936C578.678,273.054,580.909,258.673,586.515,253.532z"/>
			<path style="fill:#92E3A9;stroke:#263238;stroke-linecap:round;stroke-linejoin:round;stroke-miterlimit:10;" d="
				M578.678,273.054l-0.217,3.521c2.061-0.714,6.331-2.107,10.24-2.857c0.068-1.825,0.164-4.412,0.287-7.813
				c0.275-7.561-2.475-12.373-2.475-12.373C580.909,258.673,578.678,273.054,578.678,273.054z"/>
			<path style="fill:#92E3A9;stroke:#263238;stroke-linecap:round;stroke-linejoin:round;stroke-miterlimit:10;" d="
				M555.445,244.184c0,0-11.96,3.162-15.672,5.224c-3.712,2.062-0.55,15.672-0.137,18.422c0.412,2.75-2.062,25.433-2.062,25.433
				s8.386,5.499,21.859,5.362c13.473-0.137,18.559-3.299,18.559-3.299s0-5.774,0.138-7.836c0.138-2.062,0.55-14.435,0.55-14.435
				s3.574-15.397,6.874-18.422l0.962-1.1c0,0-2.502-4.642-11.837-6.583C565.343,245.009,561.494,243.496,555.445,244.184z"/>
			
				<ellipse style="fill:#B5B5B5;stroke:#263238;stroke-linecap:round;stroke-linejoin:round;stroke-miterlimit:10;" cx="566.436" cy="250.153" rx="9.213" ry="10.662"/>
			<g>
				<g>
					<path style="fill:#B5B5B5;stroke:#263238;stroke-linecap:round;stroke-linejoin:round;stroke-miterlimit:10;" d="
						M542.659,248.446c0,0,2.337,8.249,0.55,13.335c-1.787,5.087-3.574,10.311-3.574,10.311l-3.437,14.435
						c0,0,10.311,8.249,16.772,10.173c6.461,1.925,6.324,3.849,7.149,4.674c0.825,0.825,6.461,9.348,6.736,10.448
						c0.275,1.1,0.825,8.827,0.62,9.645c-0.204,0.817-0.707,0.509-1.109,0.308c-0.402-0.201-0.804-2.111-0.704-2.614
						c0.101-0.503-0.996,2.039-1.298,2.543c-0.302,0.504-1.31,0.403-1.612,0.202c-0.302-0.202-0.302-1.411-0.202-2.217
						c0.101-0.806,0.302-2.318,0.302-2.318s-0.705,2.217-1.209,2.922c-0.504,0.705-0.907,1.31-1.512,1.512
						c-0.605,0.202-1.713,0.101-1.411-0.705c0.302-0.806-1.209,0.201-1.209-1.008c0-1.209-0.605-5.845-0.806-6.953
						c-0.202-1.108-1.008-2.419-1.008-2.419l-1.512-3.93l-0.605-2.419c0,0-22.976-5.946-25.193-6.953
						c-2.217-1.008-2.217-2.62-2.318-3.326c-0.101-0.705,0-10.48,0.403-15.217c0.403-4.736,3.056-12.012,3.66-14.229
						c0.605-2.217,2.732-8.628,3.84-10.24C535.083,252.794,537.672,248.291,542.659,248.446z"/>
					<path style="fill:none;stroke:#263238;stroke-linecap:round;stroke-linejoin:round;stroke-miterlimit:10;" d="M536.198,286.527
						c0,0-4.603-1.665-5.545-2.23"/>
					<polyline style="fill:#FFFFFF;stroke:#263238;stroke-linecap:round;stroke-linejoin:round;stroke-miterlimit:10;" points="
						558.721,321.1 559.93,317.17 559.93,313.038 					"/>
					<path style="fill:#FFFFFF;stroke:#263238;stroke-linecap:round;stroke-linejoin:round;stroke-miterlimit:10;" d="
						M562.853,317.371c0,0,0.101-2.116,0.101-3.729"/>
					<path style="fill:#FFFFFF;stroke:#263238;stroke-linecap:round;stroke-linejoin:round;stroke-miterlimit:10;" d="
						M565.663,319.161c0,0,0.213-2.294,0.112-2.999c-0.101-0.705-0.806-2.419-0.806-2.419"/>
				</g>
			</g>
			<path style="fill:#B5B5B5;stroke:#263238;stroke-linecap:round;stroke-linejoin:round;stroke-miterlimit:10;" d="M543.395,301.92
				c0,0-10.83-7.573-14.84-8.909c-4.009-1.337-8.003,4.417-9.704,7.352c-1.804,3.112,2.317,12.995,6.47,24.408
				c4.023,11.056,7.314,20.424,7.314,20.424l10.543,1.04c0,0-4.036-10.205-4.036-15.288c0-3.529-2.231-11.474-1.176-11.469
				c0,0,5.578-3.598,6.469-7.905C545.326,307.266,543.395,301.92,543.395,301.92z"/>
			<path style="fill:none;stroke:#263238;stroke-linecap:round;stroke-linejoin:round;stroke-miterlimit:10;" d="M537.752,318.255
				l1.039-12.325c0,0-0.117-2.435-2.041-4.883"/>
			<g>
				<path style="fill:#B5B5B5;stroke:#263238;stroke-linecap:round;stroke-linejoin:round;stroke-miterlimit:10;" d="
					M601.047,274.213c0,0-4.565,4.024-5.462,4.418c-0.896,0.394-4.062,8.536-5.519,9.932c-3.259,3.123-9,2.74-9.775,2.016
					c-2.037-1.901-1.901-5.703-1.765-6.517c0.136-0.815,4.48-4.052,5.566-4.731c1.086-0.679,6.165-4.115,6.165-4.115l1.412-3.336
					l6.267-1.934L601.047,274.213z"/>
				<polygon style="fill:#263238;stroke:#263238;stroke-linecap:round;stroke-linejoin:round;stroke-miterlimit:10;" points="
					598.679,273.723 589.798,272.842 594.852,253.915 603.733,254.796 				"/>
				<path style="fill:#B5B5B5;stroke:#263238;stroke-linecap:round;stroke-linejoin:round;stroke-miterlimit:10;" d="
					M592.357,275.032c0,0-0.502,1.29-0.352,2.006c0.15,0.716,1.237,1.595,1.237,1.595"/>
				<path style="fill:#B5B5B5;stroke:#263238;stroke-linecap:round;stroke-linejoin:round;stroke-miterlimit:10;" d="
					M603.378,262.491c0,0-0.303-3.775-0.61-4.38c-0.307-0.605-3.911-2.064-4.446-2.158c-0.535-0.094-1.879,0.497-1.886,1.323
					c-0.007,0.826,2.51,1.405,2.51,1.405l1.708,1.264l-0.171,1.762l1.811,2.247L603.378,262.491z"/>
				<path style="fill:#B5B5B5;stroke:#263238;stroke-linecap:round;stroke-linejoin:round;stroke-miterlimit:10;" d="
					M603.726,263.655c0,0-2.356-3.859-3.071-3.709c-0.716,0.15-5.079,1.453-5.574,1.917s-0.195,1.896-0.195,1.896l1.88,0.06
					c0,0-2.272,1.387-2.302,2.347c-0.03,0.96-0.03,0.96-0.03,0.96s1.384-0.033,1.896,0.195c0.511,0.228-1.485,1.394-0.934,2.18
					c0.23,0.328,2.444,0.819,3.557,1.727c1.555,1.269,2.095,2.987,2.095,2.987S603.36,267.312,603.726,263.655z"/>
				<path style="fill:#B5B5B5;stroke:#263238;stroke-linecap:round;stroke-linejoin:round;stroke-miterlimit:10;" d="
					M596.766,263.819c0,0,2.052-0.474,2.964-0.176c0.913,0.298,2.788,2.97,2.788,2.97"/>
				<polyline style="fill:#B5B5B5;stroke:#263238;stroke-linecap:round;stroke-linejoin:round;stroke-miterlimit:10;" points="
					596.328,267.32 598.94,267.364 601.593,270.311 				"/>
			</g>
			<path style="fill:#B5B5B5;stroke:#263238;stroke-linecap:round;stroke-linejoin:round;stroke-miterlimit:10;" d="
				M582.711,289.071c0,0-6.417,7.427-7.457,13.664c-1.039,6.237-0.297,8.91,1.188,10.543c1.485,1.634,4.752,2.376,4.752,2.376
				s2.26,2.819,3.151,6.828c0.891,4.009,2.673,8.613,2.673,8.613l-0.297,15.147l0.148,2.376l8.91-2.227l1.188-13.068
				c0,0,3.564-21.383,1.633-27.769c-1.93-6.385-3.712-14.849-5.346-16.483C591.621,287.438,584.79,287.438,582.711,289.071z"/>
			<path style="fill:none;stroke:#263238;stroke-linecap:round;stroke-linejoin:round;stroke-miterlimit:10;" d="M554.89,285.428
				c0.698,0.333,1.431,0.668,2.2,1.002"/>
			<path style="fill:none;stroke:#263238;stroke-linecap:round;stroke-linejoin:round;stroke-miterlimit:10;" d="M543.078,277.489
				c0,0,2.587,3.033,9.074,6.546"/>
			<path style="fill:none;stroke:#263238;stroke-linecap:round;stroke-linejoin:round;stroke-miterlimit:10;" d="M549.083,286.697
				c0,0,1.735,4.004,12.144,4.004"/>
			<path style="fill:none;stroke:#263238;stroke-linecap:round;stroke-linejoin:round;stroke-miterlimit:10;" d="M574.142,281.715
				c0,0-3.44,1.913-6.242,2.58"/>
			<path style="fill:none;stroke:#263238;stroke-linecap:round;stroke-linejoin:round;stroke-miterlimit:10;" d="M572.303,292.569
				c0,0-8.407,2.135-15.613,1.735"/>
			<path style="fill:none;stroke:#263238;stroke-linecap:round;stroke-linejoin:round;stroke-miterlimit:10;" d="M581.194,315.654
				c-1.273-1.497-2.512-14.338-0.031-14.083"/>
			<path style="fill:#92E3A9;stroke:#263238;stroke-linecap:round;stroke-linejoin:round;stroke-miterlimit:10;" d="
				M540.258,270.278c0.676-1.966,1.813-5.256,2.952-8.497c1.787-5.087-0.55-13.335-0.55-13.335
				c-4.987-0.154-7.577,4.349-8.685,5.961c-1.109,1.612-3.235,8.023-3.84,10.24c-0.158,0.58-0.458,1.511-0.819,2.647
				L540.258,270.278z"/>
			<g>
				<path style="fill:#FFFFFF;stroke:#263238;stroke-linecap:round;stroke-linejoin:round;stroke-miterlimit:10;" d="
					M543.178,346.234c0,0-3.861-3.267-5.346-4.009c-1.485-0.742-2.217-0.255-3.702,0.784c-1.485,1.04-4.02,4.859-5.059,6.789
					c-1.039,1.93-1.336,2.524-2.821,4.752c-1.485,2.227-1.336,4.306-0.445,5.643c0.891,1.336,7.87,1.633,10.692,1.336
					s5.643-2.376,6.534-3.415c0.891-1.039,1.039-5.494,1.039-6.385S543.178,346.234,543.178,346.234z"/>
				<path style="fill:#FFFFFF;stroke:#263238;stroke-linecap:round;stroke-linejoin:round;stroke-miterlimit:10;" d="
					M543.029,358.114c0.486-0.567,0.75-2.147,0.89-3.613c-1.087,0.993-3.649,3.083-7.151,4.344
					c-3.732,1.343-9.341,0.443-11.52,0.009c0.112,0.497,0.297,0.952,0.555,1.339c0.891,1.336,7.87,1.633,10.692,1.336
					S542.138,359.154,543.029,358.114z"/>
				<path style="fill:none;stroke:#263238;stroke-linecap:round;stroke-linejoin:round;stroke-miterlimit:10;" d="M541.671,351.304
					c0,0-0.377,6.598-1.697,8.484"/>
			</g>
			<g>
				<path style="fill:#FFFFFF;stroke:#263238;stroke-linecap:round;stroke-linejoin:round;stroke-miterlimit:10;" d="
					M597.709,348.321c0,0-0.297-3.415-2.821-4.009c-2.524-0.594-5.643,0.742-6.237,1.485c-0.594,0.743-1.931,0.446-1.931,0.446
					s-0.742,0.148-1.633,3.118c-0.891,2.97-1.485,6.088-1.039,7.425c0.445,1.337-0.297,1.485,1.039,2.079
					c1.336,0.594,4.306,1.336,4.306,1.336s1.188,1.93,2.97,2.079c1.782,0.148,9.355,0.446,10.395-0.148
					c1.039-0.594,2.376-3.118,1.485-5.346C603.352,354.558,597.709,349.954,597.709,348.321z"/>
				<path style="fill:#FFFFFF;stroke:#263238;stroke-linecap:round;stroke-linejoin:round;stroke-miterlimit:10;" d="
					M599.788,360.378c-5.279,0.377-8.672-0.943-9.803-1.885c-0.784-0.653-4.01-1.306-5.918-1.645
					c0.401,1.277-0.294,1.433,1.021,2.017c1.336,0.594,4.306,1.336,4.306,1.336s1.188,1.93,2.97,2.079
					c1.782,0.148,9.355,0.446,10.395-0.148c0.596-0.34,1.288-1.317,1.603-2.507C603.349,359.93,601.884,360.228,599.788,360.378z"/>
				<path style="fill:none;stroke:#263238;stroke-linecap:round;stroke-linejoin:round;stroke-miterlimit:10;" d="M588.665,352.46
					c0,0,0.892,5.301,0.729,7.741"/>
			</g>
			<path style="fill:none;stroke:#263238;stroke-linecap:round;stroke-linejoin:round;stroke-miterlimit:10;" d="M549.019,261.409
				c-1.908,2.714-4.507,5.868-7.055,7.24"/>
			<path style="fill:none;stroke:#263238;stroke-linecap:round;stroke-linejoin:round;stroke-miterlimit:10;" d="M551.956,256.772
				c0,0-0.503,0.913-1.345,2.246"/>
			<path style="fill:none;stroke:#263238;stroke-linecap:round;stroke-linejoin:round;stroke-miterlimit:10;" d="M546.3,259.411
				c0,0-1.131,3.393-3.205,5.844"/>
		</g>
		<g>
			<g>
				<path style="fill:#BABABA;stroke:#263238;stroke-linecap:round;stroke-linejoin:round;stroke-miterlimit:10;" d="
					M579.29,238.963c0,0,2.107-0.787,2.357,0.967c0.251,1.754-1.49,4.927-2.614,5.671c-1.125,0.744-1.309-0.145-1.309-0.145
					L579.29,238.963z"/>
				<path style="fill:#BABABA;stroke:#263238;stroke-linecap:round;stroke-linejoin:round;stroke-miterlimit:10;" d="
					M557.964,237.289c0,0-0.548-3.267-2.117-1.523c-1.569,1.744-1.117,6.084-0.492,7.182c0.626,1.098,2.305,1.198,2.305,1.198
					s0.499,0.945,1.935,4.029s4.773,7.929,8.714,8.246c3.941,0.317,6.091-1.78,8.246-5.997c1.299-2.542,2.932-4.988,3.042-9.699
					c0.11-4.711,0.762-4.336,1.035-9.256c0.274-4.92,1.264-7.996-0.199-9.75c-1.463-1.755-8.781-3.366-14.149-2.639
					c-5.367,0.728-7.072,1.351-7.687,3.775C557.982,225.277,557.964,237.289,557.964,237.289z"/>
				<path style="fill:none;stroke:#263238;stroke-linecap:round;stroke-linejoin:round;stroke-miterlimit:10;" d="M568.177,237.381
					c-1.143-0.803-3.25-1.457-4.826,0.382"/>
				<path style="fill:none;stroke:#263238;stroke-linecap:round;stroke-linejoin:round;stroke-miterlimit:10;" d="M573.33,237.849
					c0.284-0.342,2.409-1.432,4.029,1.218"/>
				<path style="fill:none;stroke:#263238;stroke-width:0.5;stroke-linecap:round;stroke-linejoin:round;stroke-miterlimit:10;" d="
					M566.477,242.535c0,0-1.105,1.228-2.797,1.567"/>
				<path style="fill:none;stroke:#263238;stroke-width:0.5;stroke-linecap:round;stroke-linejoin:round;stroke-miterlimit:10;" d="
					M572.78,243.477c0,0,0.669,1.333,2.506,1.963"/>
				<path style="fill:#263238;stroke:#263238;stroke-linecap:round;stroke-linejoin:round;stroke-miterlimit:10;" d="
					M579.758,238.057c0.241-2.171,0.666-2.857,0.874-6.591c0.274-4.92,1.264-7.996-0.199-9.75
					c-1.463-1.755-8.781-3.366-14.149-2.639c-5.367,0.728-7.072,1.351-7.687,3.775c-0.526,2.072-0.616,11.148-0.631,13.738
					l0.092,0.231c0,0-0.194,2.145,0.037,2.799c0.231,0.654,1.139,0.96,1.377-0.205c0.237-1.165-0.147-4.642,0.697-5.805
					c0.844-1.163,0.595-3.52,1.931-5.311c1.336-1.791,4.97-0.566,6.902,0.677c1.932,1.243,2.35,1.571,4.661,0.949
					c2.311-0.622,3.412-1.854,5.11-0.659c1.699,1.195,1.226,2.92,1.032,5.065C579.631,236.256,579.612,236.944,579.758,238.057z"/>
				<path style="fill:#BABABA;stroke:#263238;stroke-linecap:round;stroke-linejoin:round;stroke-miterlimit:10;" d="
					M571.371,241.779l-0.192,1.539c0,0,0.978,0.563,0.341,2.497c-0.637,1.934-2.154,2.232-3.55,1.34
					c-1.396-0.891-0.693-1.962-0.693-1.962"/>
				<path style="fill:#263238;" d="M565.845,240.872c-0.037,0.623-0.333,1.112-0.661,1.092c-0.328-0.02-0.563-0.541-0.526-1.163
					c0.037-0.623,0.333-1.112,0.661-1.092C565.647,239.728,565.883,240.249,565.845,240.872z"/>
				<path style="fill:#263238;" d="M574.925,241.52c-0.125,0.611-0.486,1.054-0.808,0.988c-0.322-0.065-0.482-0.614-0.357-1.226
					c0.125-0.611,0.486-1.054,0.808-0.988C574.89,240.359,575.049,240.908,574.925,241.52z"/>
			</g>
			<path style="fill:none;stroke:#263238;stroke-linecap:round;stroke-linejoin:round;stroke-miterlimit:10;" d="M565.14,247.679
				c-0.125,0.922,2.952,5.71,7.427,1.517"/>
		</g>
	</g>
</g>
<g id="Character_1">
	<g>
		<g>
			<path style="fill:#FFFFFF;stroke:#263238;stroke-linecap:round;stroke-linejoin:round;stroke-miterlimit:10;" d="
				M471.099,307.767c-0.505-0.904-5.554-5.193-5.554-5.193l-20.596-12.595l1.236,12.743l14.439,3.672l1.728,0.873l4.554,2.555
				l0.481,3.698c0,0-1.977,0.977-1.729,1.651c0.248,0.674,1.728,0.873,2.303,1.365c0.421,0.36,1.388,0.229,1.878,0.132
				c0.079,0.024,0.172,0.019,0.298-0.066c0.746-0.502,2.051-1.909,2.051-1.909S471.604,308.671,471.099,307.767z"/>
			<polygon style="fill:#92E3A9;stroke:#263238;stroke-linecap:round;stroke-linejoin:round;stroke-miterlimit:10;" points="
				450.017,291.728 445.999,304.344 441.847,301.628 444.949,289.979 			"/>
			<path style="fill:#FFFFFF;stroke:#263238;stroke-linecap:round;stroke-linejoin:round;stroke-miterlimit:10;" d="
				M467.013,306.501c0,0,1.535,1.751,1.783,2.425c0.248,0.674,1.821,5.783,1.821,5.783s-1.381,1.585-1.994,0.259
				c-0.613-1.326-1.258-4.087-1.258-4.087s-2.214-0.901-3.125-2.53c-0.911-1.629-1.264-3.485-1.264-3.485"/>
		</g>
		<path style="fill:#263238;stroke:#263238;stroke-linecap:round;stroke-linejoin:round;stroke-miterlimit:10;" d="M411.078,320.508
			c0,0,0,4.802,0.267,5.869c0.267,1.067,1.201,8.003,1.201,8.003s-8.133,37.613-9.733,41.348c-1.6,3.735-8.668,22.675-10.135,27.343
			c-1.467,4.668-3.601,7.203-2.667,8.403c0.934,1.2,0.934,1.2,0.934,1.2s-4.534,8.937-3.734,9.47c0.8,0.534,9.737,2.934,15.339,3.2
			s13.871,0.933,14.405-0.001c0.534-0.934,0.8-2.801,0-3.335c-0.8-0.533-4.268-1.467-5.602-2.667
			c-1.334-1.2-4.935-5.468-4.935-5.468s1.2-2.001,1.467-3.468c0.267-1.467,0.533-4.268,0.933-5.069
			c0.4-0.8,12.402-28.677,12.935-32.012c0.533-3.335,9.119-26.197,9.119-26.197s5.134,16.878,6.201,20.479
			s9.648,42.805,9.648,43.472c0,0.667,0.134,2.401,0.534,2.801c0.4,0.4,0.934,0.934,0.934,0.934s1.734,8.003,1.734,8.403
			c0,0.4-0.133,1.867,1.734,2.134s13.071-0.668,14.805-0.668c1.734,0,5.068-1.467,6.535-2.401c1.467-0.934,2.134-2.801,0.933-3.201
			c-1.2-0.4-6.002-0.533-7.869-1.2c-1.867-0.667-4.935-4.268-4.935-4.268s0.667-2.001,0.667-2.401c0-0.4-3.335-5.335-3.335-5.735
			c0-0.4-4.744-46.662-4.744-46.662s-9.423-33.241-9.423-33.641c0-0.4-1.334-6.802-1.334-6.802s-8.003-7.335-11.738-7.468
			c-3.735-0.133,0.667-1.734-9.07,1.068C412.411,314.773,411.078,320.508,411.078,320.508z"/>
		<path style="fill:#92E3A9;stroke:#263238;stroke-linecap:round;stroke-linejoin:round;stroke-miterlimit:10;" d="M422.008,236.879
			c0,0-11.603,14.806-12.003,17.207c-0.4,2.401-1.066,14.805-1.066,15.472c0,0.667-0.132,23.341-0.132,23.341l0.535,20.007
			l0.534,9.336c0,0,10.403-4.269,13.071-5.47c2.667-1.201,5.868-2.535,6.535-2.801c0.667-0.267,10.137,3.867,11.204,4.534
			c1.067,0.667,5.335,4.001,5.335,4.001s1.599-22.007,1.065-25.475c-0.534-3.468-1.87-35.612-1.87-35.612l-9.338-15.604
			L422.008,236.879z"/>
		
			<line style="fill:none;stroke:#263238;stroke-linecap:round;stroke-linejoin:round;stroke-miterlimit:10;" x1="427.88" y1="279.96" x2="429.349" y2="299.7"/>
		<g>
			<path style="fill:#FFFFFF;stroke:#263238;stroke-linecap:round;stroke-linejoin:round;stroke-miterlimit:10;" d="
				M451.715,218.714c0,0-0.045,4.387-0.425,5.811c-0.38,1.424-0.38,1.424-0.38,1.424s2.017,4.574,1.583,4.984
				c-0.434,0.409-3.001,1.599-3.001,1.599s-3.6,9.05-4.548,9.697c-0.948,0.647-8.382-1.935-8.382-1.935l-4.052,2.919l-7.908-9.432
				l1.251-3.803c0,0-0.388-18.324,0.309-19.064c0.697-0.739,9.403-5.503,13.344-4.628c3.941,0.876,9.326,2.849,11.43,4.472
				c2.104,1.623,4.864,5.334,3.574,6.14C453.221,217.703,451.715,218.714,451.715,218.714z"/>
			<path style="fill:none;stroke:#263238;stroke-linecap:round;stroke-linejoin:round;stroke-miterlimit:10;" d="M443.318,232.454
				c0,0,2.884,2.622,4.72,2.36"/>
			<path style="fill:#263238;stroke:#263238;stroke-linecap:round;stroke-linejoin:round;stroke-miterlimit:10;" d="
				M454.511,216.898c1.29-0.806-1.47-4.516-3.574-6.14c-2.104-1.623-7.489-3.597-11.43-4.472
				c-3.941-0.876-12.647,3.889-13.344,4.628c-0.697,0.739-0.309,19.064-0.309,19.064l-0.081,0.246l6.525-2.714l1.239-3.381
				l3.318-0.915c0,0,4.754-0.957,4.963-2.301c0.208-1.344,0.754-5.548,0.754-5.548l9.142,3.35
				C451.715,218.714,453.221,217.703,454.511,216.898z"/>
			<path style="fill:#FFFFFF;stroke:#263238;stroke-linecap:round;stroke-linejoin:round;stroke-miterlimit:10;" d="
				M437.073,224.487c0,0-0.167-3.005-2.504-2.838c-2.337,0.167-3.707,3.372-2.271,5.86c1.436,2.487,2.939,1.152,2.939,1.152"/>
			<path style="fill:#263238;" d="M448.174,226.437c-0.215,0.588-0.698,0.952-1.079,0.812s-0.514-0.729-0.299-1.317
				c0.215-0.588,0.698-0.952,1.079-0.812C448.256,225.259,448.39,225.849,448.174,226.437z"/>
			<path style="fill:none;stroke:#263238;stroke-linecap:round;stroke-linejoin:round;stroke-miterlimit:10;" d="M446.393,223.156
				c0,0,2.12-0.359,3.006,1.101"/>
		</g>
		<polygon style="fill:#92E3A9;stroke:#263238;stroke-linecap:round;stroke-linejoin:round;stroke-miterlimit:10;" points="
			423.608,233.678 436.814,241.946 437.025,247.924 419.719,238.747 		"/>
		<path style="fill:#92E3A9;stroke:#263238;stroke-linecap:round;stroke-linejoin:round;stroke-miterlimit:10;" d="M433.365,256.312
			l3.021,7.853c0,0,3.02,2.114,3.927,3.021c0.906,0.906,3.723,7.513,3.723,7.513l5.458-0.364l6.367,7.641
			c0,0-12.574,11.094-18.01,10.188c-5.437-0.906-23.437-30.096-23.739-32.815c-0.302-2.719,1.31-10.149,1.31-10.149
			s2.946-5.238,6.875-5.238"/>
		<polygon style="fill:#263238;stroke:#263238;stroke-linecap:round;stroke-linejoin:round;stroke-miterlimit:10;" points="
			464.809,256.138 475.348,246.407 477.059,247.298 465.899,257.906 		"/>
		<path style="fill:#FFFFFF;stroke:#263238;stroke-linecap:round;stroke-linejoin:round;stroke-miterlimit:10;" d="M451.692,272.46
			l8.991-8.172c0,0,0.113-4.51,0.436-5.69c0.324-1.181,2.366-3.111,2.635-3.916s0.596-4.133,1.347-4.025
			c0.751,0.108,1.287,1.183,1.34,1.881c0.053,0.698-0.433,3.006-0.433,3.006l-0.11,2.362l6.396-5.522l1.072,1.612
			c0,0-0.431,0.858-0.7,1.663c-0.269,0.805-0.65,5.046-0.866,6.012c-0.216,0.966-6.289,6.381-6.289,6.381l-7.492,11.073
			L451.692,272.46z"/>
		<polygon style="fill:#92E3A9;stroke:#263238;stroke-linecap:round;stroke-linejoin:round;stroke-miterlimit:10;" points="
			446.216,274.575 455.373,284.902 459.391,279.749 451.319,270.796 		"/>
	</g>
</g>
</svg>
