<?xml version="1.0" ?>
<!-- Uploaded to: SVG Repo, www.svgrepo.com, Generator: SVG Repo Mixer Tools -->
<svg width="800px" height="800px" viewBox="0 0 24 24" xmlns="http://www.w3.org/2000/svg">
<defs>
<style>.cls-1{fill:#9293a5;fill-rule:evenodd;}.cls-2{fill:#96ccee;}.cls-3{fill:#f94060;}.cls-4{fill:#6f73d5;}</style>
</defs>
<g id="Planning">
<path class="cls-1" d="M15.91,3.4l-.42.39a.49.49,0,0,1-.7,0,.5.5,0,0,1,0-.71l1.26-1.18a.5.5,0,0,1,.68,0L18,3.06a.5.5,0,0,1,0,.71.5.5,0,0,1-.71,0l-.42-.39V7.63a3.84,3.84,0,0,1-3.84,3.84H9.84A2.84,2.84,0,0,0,7,14.31v1.83a.5.5,0,0,1-1,0V14.31a3.84,3.84,0,0,1,3.84-3.84h3.23a2.84,2.84,0,0,0,2.84-2.84Z"/>
<path class="cls-2" d="M9.37,19A2.87,2.87,0,1,1,6.5,16.14,2.87,2.87,0,0,1,9.37,19"/>
<path class="cls-3" d="M20,15.91a1.3,1.3,0,0,0-1.84,0l-.66.66a.67.67,0,0,1-.48.2.63.63,0,0,1-.47-.2l-.67-.66A1.3,1.3,0,1,0,14,17.75l.67.66a.68.68,0,0,1,0,.95L14,20a1.3,1.3,0,1,0,1.84,1.84l.67-.67A.67.67,0,0,1,17,21a.71.71,0,0,1,.48.19l.66.67A1.3,1.3,0,1,0,20,20l-.66-.66a.68.68,0,0,1,0-1l.66-.66A1.3,1.3,0,0,0,20,15.91Z"/>
<path class="cls-3" d="M10,2.63a1.3,1.3,0,0,0-1.84,0l-.67.67A.67.67,0,0,1,7,3.49a.71.71,0,0,1-.48-.19l-.66-.67A1.3,1.3,0,0,0,4,4.47l.66.66a.67.67,0,0,1,0,1L4,6.75A1.3,1.3,0,1,0,5.86,8.59l.66-.66a.69.69,0,0,1,1,0l.66.66A1.3,1.3,0,0,0,10,6.75l-.67-.66a.68.68,0,0,1,0-1L10,4.47A1.3,1.3,0,0,0,10,2.63Z"/>
<path class="cls-4" d="M6.5,16.14a2.83,2.83,0,0,0-1.11.23,2.86,2.86,0,0,1,0,5.27,2.91,2.91,0,0,0,1.12.23,2.87,2.87,0,1,0,0-5.73"/>
</g>
</svg>