<?xml version="1.0" encoding="utf-8"?>
<!-- Generator: Adobe Illustrator 27.5.0, SVG Export Plug-In . SVG Version: 6.00 Build 0)  -->
<svg version="1.1" xmlns="http://www.w3.org/2000/svg" xmlns:xlink="http://www.w3.org/1999/xlink" x="0px" y="0px"
	 viewBox="0 0 500 500" style="enable-background:new 0 0 500 500;" xml:space="preserve">
<g id="BACKGROUND">
	<rect style="fill:#FFFFFF;" width="500" height="500"/>
</g>
<g id="OBJECTS">
	<g>
		<path style="fill:#EBEBEB;" d="M439.233,115.693c-14.121-28.015-44.019-48.388-75.385-47.749
			c-25.704,0.524-49.104,14.036-73.785,21.236c-11.169,3.258-23.008,5.237-34.438,3.07c-11.889-2.254-22.464-8.794-33.793-13.045
			c-37.156-13.94-79.992-1.855-112.444,20.988c-16.496,11.612-31.864,27.274-35.437,47.128c-3.014,16.75,2.814,33.884,1.815,50.874
			c-1.975,33.595-29.856,61.05-33.576,94.496c-3.377,30.364,13.665,58.933,31.028,84.071c20.922,30.291,45.059,60.935,79.307,74.437
			c26.546,10.466,56.374,9.323,84.325,3.579c27.951-5.744,54.802-15.856,82.407-23.078c20.504-5.365,42.32-9.561,58.637-23.087
			c15.312-12.693,23.53-31.785,31.208-50.133c9.616-22.977,19.495-46.559,22.132-71.556c2.134-20.233-1.614-40.035,3.916-59.992
			C445.704,188.86,458.82,154.553,439.233,115.693z"/>
		<path style="fill:#FFFFFF;stroke:#222221;stroke-width:0.75;stroke-miterlimit:10;" d="M185.374,275.108
			c-0.088,7.964-0.035,15.926,0.275,23.879c0.196,5.018,2.039,5.824,5.101,6.065c0.995,0.078,1.99,0.153,2.985,0.23
			c19.962,0,40.087-0.509,60.146-1.298c1.627-0.064,3.307-0.145,4.783-1.128c4.734-3.152,2.282-18.613,2.44-24.817
			c0.251-9.832,0.259-19.677,0.023-29.51c-0.323-13.522-8.853-10.191-15.624-10.556c-9.477-0.512-18.962-0.728-28.446-0.646
			c-5.533,0.048-11.066,0.197-16.597,0.447c-3.247,0.147-11.729-1.734-13.662,3.332c-0.559,1.465-0.626,3.199-0.68,4.868
			C185.8,255.679,185.482,265.395,185.374,275.108z"/>
		<g>
			<g>
				<g>
					
						<ellipse transform="matrix(0.9859 -0.1672 0.1672 0.9859 -14.1888 70.9927)" style="fill:#C46345;" cx="414.604" cy="119.779" rx="58.594" ry="58.595"/>
					
						<ellipse transform="matrix(0.8832 -0.4689 0.4689 0.8832 -7.7563 208.4075)" style="fill:#F2F2F2;" cx="414.604" cy="119.779" rx="44.583" ry="44.583"/>
					<path style="fill:#C46345;" d="M444.31,120.608c-0.458,16.405-14.129,29.334-30.535,28.876
						c-16.406-0.458-29.334-14.129-28.876-30.534c0.458-16.406,14.129-29.335,30.535-28.877
						C431.84,90.531,444.768,104.202,444.31,120.608z"/>
					<path style="fill:#F2F2F2;" d="M431.472,120.249c-0.26,9.315-8.022,16.656-17.338,16.396
						c-9.316-0.26-16.657-8.023-16.397-17.338c0.26-9.316,8.023-16.657,17.338-16.396
						C424.391,103.171,431.732,110.934,431.472,120.249z"/>
					<path style="fill:#C46345;" d="M421.755,119.978c-0.11,3.95-3.401,7.062-7.351,6.951c-3.949-0.11-7.062-3.401-6.952-7.351
						c0.11-3.949,3.401-7.062,7.351-6.951C418.753,112.738,421.866,116.029,421.755,119.978z"/>
				</g>
			</g>
			<g>
				<g>
					<path style="fill:#2C6AA3;" d="M402.872,133.549L299.181,335.772l-94.986,0.331L151.79,387.5l-79.823,1.008l-45.167,45.167
						c5.131,0.371,10.301,0.329,15.478,0.078c12.64-12.64,34.302-34.301,34.302-34.301c23.015-0.291,46.025-0.574,69.042-0.712
						c2.99-0.018,6.031-0.043,8.887-0.929c10.07-3.124,15.769-11.286,22.662-18.704c7.666-8.249,15.511-16.332,23.529-24.24
						c2.505-2.471,5.088-4.968,8.26-6.492c5.279-2.537,14.003-1.451,19.803-1.576c8.577-0.185,17.157-0.206,25.736-0.177
						c17.162,0.057,34.326,0.348,51.488,0.057c35.49-69.405,71.106-138.745,106.674-208.11
						C412.661,138.567,402.872,133.549,402.872,133.549z"/>
				</g>
				<path style="fill:#2C6AA3;" d="M414.515,121.3c-0.789-0.455-1.819-0.533-3.213-0.017c-4.617,1.709-9.2,3.511-13.745,5.405
					c-2.258,0.941-6.553,1.525-8.105,3.533c-2.942,3.808,4.598,5.926,7.719,7.383c7.7,3.596,15.4,7.192,23.099,10.788
					c0.774,0.361,1.786,0.69,2.399,0.094c0.303-0.294,0.401-0.736,0.463-1.154c0.62-4.187-1.763-7.937-2.997-11.814
					c-1.001-3.146-2.084-6.279-3.006-9.454C416.558,124.099,415.915,122.107,414.515,121.3z"/>
			</g>
		</g>
		<g>
			<path style="fill:#F2A888;" d="M137.047,269.802c-3.332,1.256-6.818,2.21-10.443,2.821c-6.558,1.105-14.636,1.959-19.324-3.988
				c-2.224-2.821-2.378-7.47-0.051-10.35c2.228-2.757,6.294-2.855,9.832-3.083c7.103-0.457,14.229-2.3,21.019-4.368
				c7.595-2.314,15.26-5.734,20.979-11.386c2.545-2.515,4.92-5.202,7.104-8.035c1.946-2.525,3.477-5.389,5.55-7.806
				c1.531-1.784,3.448-3.235,5.581-4.224c1.31-0.607,2.967-1.003,4.112-0.123c1.354,1.042,1.104,3.187,0.302,4.695
				c-1.474,2.772-4.202,4.633-6.139,7.103c-1.471,1.876-2.462,4.072-3.559,6.188C164.393,251.917,152.327,264.042,137.047,269.802z"
				/>
			<path style="fill:#F2A888;" d="M162.423,365.995c3.206-2.812,6.923-5.037,10.916-6.535c-2.607-6.818-5.367-13.577-8.278-20.27
				c-1.918-4.411-4.978-7.518-9.875-5.099c-2.972,1.468-4.701,4.087-4.556,7.347C150.981,349.331,158.22,359.755,162.423,365.995z"
				/>
			<path d="M167.328,372.909l26.233-19.044c-0.065-0.584-0.239-1.145-0.539-1.634c-0.743-1.216-2.14-2.021-3.846-1.818
				c-0.715,0.085-1.376,0.412-2.027,0.72c-5.105,2.419-10.373,5.015-16.097,3.09c-2.523,4-6.342,7.167-10.74,8.906
				c-0.053,0.021,2.966,6.672,3.201,7.212C164.346,372.254,165.749,372.917,167.328,372.909z"/>
			<path style="fill:#F2A888;" d="M64.856,448.171c4.246-0.392,8.562-0.009,12.672,1.125c1.896-7.049,3.633-14.14,5.21-21.267
				c1.039-4.696,0.389-9.008-4.996-9.928c-3.267-0.558-6.206,0.546-8.003,3.269C65.388,427.964,65.121,440.652,64.856,448.171z"/>
			<path d="M64.764,456.647h32.417c0.29-0.511,0.479-1.067,0.524-1.639c0.113-1.421-0.545-2.892-2.044-3.73
				c-0.629-0.351-1.355-0.475-2.063-0.608c-5.552-1.042-11.34-2.036-14.842-6.957c-4.391,1.754-9.343,2.074-13.923,0.898
				c-0.055-0.014-1.52,7.141-1.647,7.717C62.736,454.365,63.482,455.727,64.764,456.647z"/>
			<path d="M61.745,328.923c-1.031-7.441-4.002-21.237,3.447-26.453c1.685-1.18,3.762-1.628,5.78-2.028
				c18.786-3.727,37.749-5.667,54.279-15.937c4.263-2.648,8.59-5.542,13.551-6.303c15.002-2.301,18.705,21.492,9.688,29.787
				c-4.18,3.845-9.688,5.849-15.068,7.672c-5.516,1.869-11.062,3.645-16.637,5.327c-3.789,1.143-12.496,1.859-15.349,4.486
				c-2.675,2.463-0.763,9.755-0.552,13.048c0.338,5.269,0.736,10.534,1.109,15.801c0.642,9.059,3.166,17.945,2.831,27.137
				c-0.242,6.698-1.728,13.271-3.635,19.713c-0.503,1.699-1.035,3.388-1.582,5.069c-1.875,5.766-3.926,11.476-6.148,17.117
				c-1.353,3.434-2.892,7.008-5.827,9.247c-3.043,2.321-28.313,2.086-27.516-0.982c0.341-1.331,0.682-2.663,1.023-3.995
				c3.659-14.283,7.319-28.567,10.978-42.85c0.63-2.459,1.265-4.954,1.228-7.492c-0.036-2.536-0.74-5.01-1.456-7.443
				C67.92,356.343,63.684,342.914,61.745,328.923z"/>
			<path d="M166.871,315.529c-2.521-7.408-5.33-14.731-8.517-21.986c-2.133-4.857-4.603-9.855-8.923-12.934
				c-3.743-2.667-11.073-3.838-14.462,0.24c-3.487,4.196-1.201,13.435-0.319,18.332c3.28,18.218,8.517,36.084,15.593,53.189
				c8.287-3.067,16.656-5.912,25.095-8.533C176.094,343.603,167.565,317.566,166.871,315.529z"/>
			<path style="fill:#5CC9BF;" d="M73.902,266.776c1.373-4.189,2.945-8.338,5.564-11.86c5.62-7.56,16.001-8.759,24.726-6.91
				c7.633,1.618,15.342,1.689,23.193,2.527c-1.718,8.109-3.736,16.153-6.05,24.113c-3.468,0.028-6.936,0.057-10.403,0.085
				c-0.673,0.005-1.692,10.691-1.784,11.751c-0.355,4.106-0.044,7.711-1.879,11.476c-5.163,10.589-17.563,17.234-29.195,15.367
				c-4.35-0.698-8.451-2.444-12.502-4.175c-1.688-0.721-3.439-1.488-4.629-2.887c-2.396-2.818-0.289-4.127,0.894-6.495
				c4.572-9.975,7.96-20.09,11.296-30.591C73.384,268.377,73.64,267.576,73.902,266.776z"/>
			<path style="fill:#F2A888;" d="M99.128,242.228c0.291-0.788,0.573-1.581,0.846-2.376c1.166-3.394,1.854-7.443,3.691-10.538
				c1.18-1.987,3.434-3.184,5.641-3.637c4.563-0.937,10.001-0.652,9.303,5.371c-0.301,2.6-0.951,5.159-1.925,7.589
				c-0.89,2.218-2.299,4.533-4.612,5.138c-0.491,0.128-1.028,0.183-1.423,0.501c-0.369,0.296-0.543,0.765-0.697,1.212
				c-1.011,2.937-1.822,5.942-2.427,8.989c-4.279,0.674-8.811-0.438-12.292-3.016C96.671,248.444,97.971,245.362,99.128,242.228z"/>
			<path d="M116.832,221.179c-0.088-0.008-0.177-0.012-0.266-0.013c-1.004-0.004-1.943,0.496-2.938,0.626
				c-2.114,0.276-4.323-1.115-6.312-0.348c-1.115,0.43-1.885,1.454-2.906,2.073c-0.787,0.477-1.713,0.707-2.462,1.242
				c-2.535,1.811-1.739,5.21-2.807,7.737c-0.523,1.238-1.279,2.514-1.009,3.83c0.285,1.389,1.715,2.335,3.131,2.417
				c2.192,0.126,3.848-2.157,4.377-4.086c0.175-0.639,0.314-4.114,1.688-2.133c0.232,0.335,0.467,0.742,0.869,0.808
				c0.421,0.069,0.786-0.277,1.057-0.607c0.893-1.089,1.671-2.384,2.962-2.945c1.131-0.491,2.511-0.751,3.738-0.857
				c0.884-0.076,1.783-0.075,2.641-0.303c0.858-0.229,1.695-0.735,2.064-1.542c0.427-0.935,0.137-2.042-0.31-2.968
				C119.654,222.673,118.394,221.324,116.832,221.179z"/>
			<path style="fill:#F2A888;" d="M107.397,232.678c-0.371-1.178-1.593-1.796-2.772-1.41c-1.338,0.438-2.314,2.077-2.271,3.454
				c0.038,1.218,1.104,2.266,2.294,1.77c0.515-0.051,1.031-0.255,1.433-0.56C107.062,235.187,107.79,233.929,107.397,232.678z"/>
			<path d="M113.786,238.971c-0.515,0.043-0.913,0.328-1.416,0.002c-0.469-0.303-1.03,0.321-0.569,0.687
				c0.614,0.487,1.842,0.784,2.349-0.012C114.338,239.353,114.176,238.939,113.786,238.971z"/>
			<path style="fill:#AD7861;" d="M106.526,234.649c0.001-0.176-0.002-0.352-0.018-0.527c-0.029-0.326-0.098-0.661-0.245-0.956
				c-0.269-0.536-0.773-0.962-1.394-0.962c-0.163,0-0.134,0.251,0.027,0.252c0.53,0.004,0.957,0.433,1.155,0.896
				c-0.025-0.003-0.05-0.01-0.077-0.003l-0.392,0.106c-0.064,0.017-0.13,0.03-0.19,0.058c-0.062,0.029-0.124,0.059-0.186,0.088
				c-0.05,0.024-0.082,0.074-0.068,0.13c0.014,0.055,0.063,0.089,0.12,0.085l0.204-0.015c0.076-0.006,0.152-0.032,0.226-0.051
				c0.134-0.034,0.267-0.068,0.401-0.102c0.02-0.005,0.029-0.027,0.044-0.042c0.057,0.206,0.095,0.417,0.108,0.631
				c0.018,0.305-0.031,0.62,0.009,0.922c0.019,0.14,0.214,0.142,0.244,0.007C106.53,234.999,106.525,234.822,106.526,234.649z"/>
			<path style="fill:#AD7861;" d="M110.869,243.859c-1.025,0.148-1.983-0.214-2.774-0.858c-0.233-0.189-0.49,0.145-0.29,0.351
				c0.776,0.799,2.029,1.088,3.104,0.878C111.14,244.185,111.11,243.824,110.869,243.859z"/>
			<path style="fill:#C46345;" d="M85.906,450.768l0.452-0.881c0.301-0.587,0.603-1.174,0.904-1.762
				c0.079-0.154,0.346-0.046,0.283,0.119c-0.234,0.616-0.469,1.231-0.703,1.846c-0.117,0.308-0.234,0.616-0.352,0.923
				c-0.119,0.313-0.239,0.631-0.444,0.899c-0.189,0.248-0.571,0.11-0.509-0.215C85.599,451.37,85.754,451.064,85.906,450.768z"/>
			<path style="fill:#C46345;" d="M82.307,449.734c0.104-0.371,0.243-0.733,0.414-1.078c0.325-0.655,0.773-1.24,1.309-1.736
				c0.351-0.324,0.805,0.156,0.514,0.515c-0.39,0.481-0.724,1.073-0.934,1.628c-0.114,0.301-0.211,0.609-0.281,0.923
				c-0.075,0.332-0.138,0.779-0.404,1.014c-0.192,0.17-0.431,0.122-0.577-0.074C82.115,450.613,82.21,450.081,82.307,449.734z"/>
			<path style="fill:#C46345;" d="M179.877,352.205c-0.085-0.327,0.101-0.716,0.447-0.797c0.347-0.081,0.692,0.1,0.797,0.447
				c0.25,0.818,0.518,1.632,0.734,2.459c0.09,0.346-0.108,0.759-0.473,0.845c-0.368,0.086-0.733-0.106-0.845-0.473
				C180.288,353.867,180.091,353.032,179.877,352.205z"/>
			<path style="fill:#C46345;" d="M177.029,354.973c-0.128-0.66-0.256-1.359-0.191-2.032c0.021-0.213,0.144-0.396,0.37-0.424
				c0.214-0.027,0.408,0.096,0.473,0.305c0.189,0.601,0.289,1.23,0.462,1.837c0.085,0.3,0.181,0.597,0.286,0.891
				c0.125,0.354,0.378,0.81,0.14,1.164c-0.138,0.206-0.378,0.34-0.631,0.269c-0.463-0.129-0.567-0.622-0.681-1.03
				C177.165,355.63,177.093,355.301,177.029,354.973z"/>
			<g>
				<path d="M112.996,235.294l8.23-1.505c0.533-0.097,0.854-0.646,0.677-1.158l-0.815-2.37c-0.176-0.512-0.767-0.747-1.246-0.496
					l-7.415,3.875c-0.388,0.203-0.569,0.658-0.427,1.072l0,0C112.143,235.125,112.566,235.372,112.996,235.294z"/>
				<g>
					<path style="fill:#467A7C;" d="M214.472,181.812l0.003,0.009c-0.056,0.021-0.113,0.041-0.169,0.063L214.472,181.812z"/>
					<path style="fill:#C46345;" d="M221.174,213.467l-99.277,21.681c-1.714,0.374-3.437-0.594-4.008-2.254l0,0
						c-0.565-1.644,0.177-3.452,1.735-4.224l92.979-46.059c10.017,1.608,10.666,2.52,13.352,10.331
						C228.424,200.121,227.238,208.851,221.174,213.467z"/>
				</g>
				<g>
					<path d="M203.645,202.873c0.651,1.366,1.695,3.308,2.674,4.439c5.955,6.878,17.712,9.236,25.695,1.018
						c8.135-8.375,5.23-27.959-12.411-27.619c-6.998,0.135-13.466,4.979-15.955,11.561c-0.752,1.99-0.892,4.159-0.831,6.286
						C202.86,200.028,203.022,201.566,203.645,202.873z"/>
				</g>
				<g>
					<defs>
						<polygon id="SVGID_1_" points="112.122,232.257 207.619,184.983 217.713,214.332 120.809,235.061 						"/>
					</defs>
					<clipPath id="SVGID_00000011016446240886350230000005158051736881024158_">
						<use xlink:href="#SVGID_1_"  style="overflow:visible;"/>
					</clipPath>
					<g style="clip-path:url(#SVGID_00000011016446240886350230000005158051736881024158_);">
						<g>
							<path d="M203.667,219.162l-0.297-0.863c-7.616,2.619-15.942-1.446-18.561-9.061c-2.619-7.615,1.446-15.942,9.061-18.561
								l-0.297-0.863c-8.092,2.783-12.411,11.63-9.628,19.722C186.729,217.626,195.576,221.945,203.667,219.162z"/>
						</g>
						<g>
							<path d="M180.765,224.143l-0.297-0.863c-6.188,2.128-12.953-1.175-15.081-7.363c-2.128-6.188,1.175-12.953,7.362-15.081
								l-0.297-0.863c-6.664,2.292-10.221,9.577-7.929,16.241C166.815,222.878,174.101,226.435,180.765,224.143z"/>
						</g>
						<g>
							<path d="M139.276,232.62l-0.297-0.863c-3.332,1.146-6.975-0.633-8.121-3.964c-1.146-3.332,0.633-6.975,3.965-8.121
								l-0.297-0.863c-3.808,1.31-5.84,5.473-4.531,9.281C131.305,231.897,135.468,233.93,139.276,232.62z"/>
						</g>
						<g>
							<path d="M158.725,228.827l-0.297-0.863c-4.76,1.637-9.964-0.904-11.601-5.663c-1.637-4.76,0.904-9.964,5.663-11.601
								l-0.297-0.863c-5.236,1.801-8.031,7.525-6.23,12.761C147.765,227.833,153.49,230.628,158.725,228.827z"/>
						</g>
					</g>
				</g>
				<path style="fill:#5CC9BF;" d="M226.874,184.563c-4.396-2.382-10.645-2.629-15.543,1.452c-3.849,3.207-6.183,6.866-6.415,11.161
					c-0.449,8.333,7.798,14.811,15.915,13.997c7.818-0.784,10.887-4.246,12.693-9.507
					C236.01,194.425,232.212,187.455,226.874,184.563z"/>
			</g>
			<path style="fill:#F2A888;" d="M135.206,249.925c-1.385,2.374-2.926,4.654-4.698,6.83c-5.876,7.217-13.525,13.022-22.127,16.598
				c-3.842,1.597-6.903,2.991-11.178,2.394c-4.391-0.613-6.478-5.223-7.039-9.141c-0.715-4.986-0.17-9.409,5.357-10.318
				c16.238-2.673,31.726-12.639,39.11-27.83c1.175-2.417,1.14-4.79,2.142-7.18c1.919-4.575,6.564-7.262,11.277-8.055
				c0.601-0.101,1.397-0.018,1.561,0.569c0.261,0.935-1.487,2.158-1.847,3.033c-0.651,1.586-0.742,3.238-1.626,4.79
				c-0.785,1.378-1.828,2.627-2.354,4.123c-2.008,5.711-2.496,11.66-4.992,17.17C137.697,245.326,136.522,247.668,135.206,249.925z"
				/>
			<path style="fill:#5CC9BF;" d="M83.977,283.346c0.021,0.007,0.041,0.013,0.062,0.02c5.77,1.823,12.206,0.36,17.399-2.746
				c-0.329-5.972-0.685-11.943-0.935-17.919c-0.059-1.415-0.113-2.829-0.158-4.245c-0.025-0.796,0.347-3.597-0.192-4.157
				c-0.543-0.565-3.041-0.521-3.856-0.716c-1.408-0.336-2.788-0.788-4.121-1.352c-1.41-0.597-2.799-1.326-4.319-1.51
				c-3.584-0.434-6.823,2.269-8.814,5.28c-3.25,4.915-4.455,10.939-4.569,16.83C74.384,277.581,79.783,282.003,83.977,283.346z"/>
			<path d="M213.38,205.17c-1.601-0.203-2.735-1.477-3.375-2.869c-0.709-1.544-1.23-3.319-1.409-5.009
				c-0.312-2.944,0.845-6.122,3.182-7.985c0.152-0.121-0.063-0.333-0.214-0.213c-2.712,2.163-4.144,5.345-3.669,8.813
				c0.247,1.801,0.813,3.761,1.702,5.357c0.774,1.39,2.096,2.585,3.783,2.433C213.722,205.665,213.713,205.212,213.38,205.17z"/>
			<path d="M220.819,206.959c-1.632,0.124-3.236,0.107-4.822-0.346c-0.297-0.085-0.405,0.35-0.126,0.455
				c1.585,0.597,3.36,0.867,5.033,0.521C221.256,207.517,221.182,206.931,220.819,206.959z"/>
			<path d="M100.741,254.915c-0.572-0.07-1.145,0.08-1.708,0.17c-0.687,0.11-1.377,0.206-2.068,0.289
				c-1.227,0.148-2.457,0.262-3.69,0.333c-2.509,0.144-5.019,0.078-7.527-0.026c-0.303-0.013-0.291,0.435,0,0.464
				c2.579,0.264,5.18,0.235,7.766,0.06c1.215-0.082,2.428-0.202,3.635-0.366c0.631-0.086,1.261-0.182,1.889-0.29
				c0.593-0.101,1.219-0.164,1.75-0.462C100.876,255.039,100.825,254.926,100.741,254.915z"/>
			<path d="M101.324,275.913c-3.154,0.867-6.397,1.303-9.657,1.501c-3.22,0.195-6.449,0.041-9.666,0.237
				c-0.244,0.015-0.243,0.362,0,0.379c3.276,0.234,6.625,0.104,9.9-0.122c3.222-0.223,6.43-0.68,9.544-1.554
				C101.728,276.274,101.608,275.835,101.324,275.913z"/>
			<path d="M101.801,254.315c-1.425-0.077-2.76-0.619-3.965-1.361c-0.603-0.371-1.176-0.789-1.726-1.234
				c-0.522-0.423-1.066-0.972-1.705-1.209c-0.167-0.062-0.271,0.141-0.21,0.273c0.3,0.646,0.975,1.16,1.514,1.6
				c0.599,0.489,1.221,0.952,1.88,1.356c1.284,0.787,2.699,1.318,4.211,1.404C102.333,255.174,102.332,254.344,101.801,254.315z"/>
			<path d="M133.951,251.933c-0.557,1.085-1.114,2.16-1.806,3.167c-0.738,1.073-1.573,2.074-2.434,3.048
				c-1.678,1.899-3.364,3.858-5.463,5.304c-0.22,0.152-0.03,0.488,0.211,0.361c2.304-1.216,4.046-3.391,5.746-5.312
				c1.653-1.868,3.441-3.956,4.185-6.383C134.469,251.861,134.077,251.689,133.951,251.933z"/>
			<path style="fill:#AD7861;" d="M146.164,262.775c-0.23,0.112-0.466,0.21-0.692,0.33c-0.225,0.119-0.444,0.248-0.669,0.367
				c-0.447,0.236-0.905,0.465-1.39,0.607c-0.239,0.07-0.135,0.447,0.103,0.373c0.502-0.157,1.009-0.285,1.502-0.471
				c0.245-0.093,0.493-0.189,0.725-0.311c0.243-0.128,0.46-0.289,0.679-0.454C146.68,263.021,146.466,262.629,146.164,262.775z"/>
			<path style="fill:#AD7861;" d="M124.983,257.456c-0.039-0.061-0.098-0.115-0.171-0.132c-0.073-0.017-0.156-0.013-0.221,0.029
				l-0.626,0.412c-0.055,0.036-0.099,0.087-0.117,0.153c-0.017,0.061-0.009,0.143,0.026,0.197c0.077,0.119,0.224,0.16,0.349,0.092
				c0.219-0.119,0.438-0.239,0.657-0.358c0.062-0.034,0.113-0.104,0.132-0.171C125.031,257.608,125.022,257.517,124.983,257.456z"/>
		</g>
		<g>
			<g>
				<path style="fill:#FFFFFF;stroke:#222221;stroke-width:0.75;stroke-miterlimit:10;" d="M234.854,242.795
					c0.026,4.164,0.095,8.325,0.246,12.476c0.072,1.998,0.065,4.033,0.269,6.022c0.138,1.351,0.562,2.881,1.961,3.416
					c0.852,0.326,1.862,0.267,2.759,0.316c1.061,0.058,2.122,0.114,3.183,0.171c2.122,0.114,4.245,0.22,6.368,0.317
					c4.246,0.195,8.494,0.358,12.743,0.487c8.498,0.259,16.999,0.383,25.501,0.371c8.046-0.012,16.133,0,24.168-0.508
					c0.089,0.092,0.216,0.143,0.378,0.09c0.104-0.034,0.192-0.084,0.283-0.131c0.224-0.015,0.449-0.026,0.673-0.042
					c0.216-0.015,0.221-0.338,0-0.34c-0.051,0-0.103,0-0.154,0c0.574-0.613,0.746-1.569,0.815-2.415
					c0.152-1.859,0.259-3.724,0.364-5.586c0.378-6.746,0.536-13.505,0.473-20.262c-0.032-3.379-0.132-6.757-0.282-10.132
					c-0.149-3.338-0.396-6.691-0.372-10.008c0.002-0.295-0.001-0.609-0.166-0.854c-0.214-0.317-0.629-0.417-1.006-0.479
					c-2.725-0.451-5.51-0.242-8.268-0.091c-11.208,0.614-22.437,0.25-33.648-0.083c-5.68-0.169-11.36-0.332-17.043-0.356
					c-5.2-0.022-10.53,0.56-15.69,0.112c-1.117-0.097-2.405,0.082-3.046,1.001c-0.446,0.64-0.462,1.475-0.46,2.255
					C234.913,226.614,234.803,234.712,234.854,242.795z"/>
			</g>
			<path style="fill:#D47172;" d="M240.988,227.941c8.437,0.005,16.875-0.047,25.313,0.042c2.414,0.025,4.823,0.049,7.232,0.343
				c0.161,0.02,0.161,0.494,0,0.514c-4.24,0.518-8.504,0.372-12.751,0.375c-4.187,0.002-8.374,0.005-12.561,0.007
				c-2.411,0.001-4.821,0.003-7.232,0.004C240.586,229.227,240.586,227.941,240.988,227.941z"/>
			<path style="fill:#D47172;" d="M240.101,236.474c2.2-0.24,4.429-0.05,6.632-0.057c2.179-0.007,4.358-0.011,6.537-0.012
				c4.39-0.002,8.779,0,13.169,0.025c2.464,0.014,4.932-0.021,7.39,0.381c0.184,0.03,0.184,0.557,0,0.587
				c-2.206,0.36-4.42,0.363-6.632,0.376c-2.179,0.013-4.358,0.035-6.537,0.033c-4.39-0.002-8.779,0.001-13.169-0.014
				c-2.455-0.008-4.939,0.207-7.39-0.06C239.707,237.691,239.706,236.517,240.101,236.474z"/>
			<path style="fill:#D47172;" d="M240.413,245.08c6.474-0.373,12.991-0.189,19.475-0.174c6.481,0.015,13.028-0.242,19.475,0.467
				c0.322,0.035,0.323,0.466,0,0.502c-6.447,0.709-12.993,0.452-19.475,0.467c-6.484,0.015-13,0.199-19.475-0.174
				C239.713,246.128,239.712,245.12,240.413,245.08z"/>
			<path style="fill:#D47172;" d="M293.412,230.715c-0.042-2.048-0.09-4.096-0.144-6.144c-0.009-0.356-0.291-0.645-0.651-0.651
				c-1.527-0.023-3.053-0.047-4.58-0.07c-0.643-0.01-1.434-0.149-2.054,0.06c-0.133-0.092-0.333-0.084-0.373,0.117
				c-0.007,0.033-0.016,0.065-0.023,0.098c-0.324,0.265-0.475,0.681-0.257,1.093c-0.113,0.457-0.222,0.916-0.289,1.389
				c-0.12,0.834-0.195,1.674-0.219,2.516c-0.025,0.883,0.032,1.775,0.121,2.654c0.069,0.676,0.158,1.411,0.918,1.637
				c0.36,0.107,0.772,0.083,1.143,0.098c0.469,0.019,0.938,0.034,1.407,0.046c0.909,0.023,1.818,0.033,2.727,0.029
				c0.714-0.003,1.631,0.093,2.069-0.61C293.598,232.35,293.426,231.415,293.412,230.715z M292.164,232.237
				c-0.089,0.185-0.465,0.115-0.676,0.119c-1.495,0.026-2.991,0.016-4.486-0.03c-0.159-0.005-0.732,0.052-0.825-0.033
				c-0.113-0.105-0.109-0.677-0.129-0.856c-0.081-0.741-0.117-1.482-0.144-2.227c-0.029-0.8-0.029-1.599,0.002-2.399
				c0.015-0.4,0.023-0.815,0.041-1.23c0.24-0.027,0.461-0.189,0.553-0.422c0.099,0.007,0.232-0.003,0.302-0.003
				c0.264,0.003,0.529,0.006,0.793,0.009c0.558,0.006,1.116,0.013,1.674,0.019c0.905,0.01,1.81,0.02,2.714,0.031
				c0.038,1.277,0.075,2.555,0.108,3.832c0.019,0.731,0.038,1.463,0.055,2.194c0.005,0.205,0.01,0.41,0.016,0.614
				C292.166,231.953,292.208,232.147,292.164,232.237z"/>
			<path style="fill:#D47172;" d="M304.528,230.715c-0.042-2.048-0.091-4.096-0.144-6.144c-0.009-0.356-0.291-0.645-0.651-0.651
				c-1.527-0.023-3.053-0.047-4.58-0.07c-0.643-0.01-1.434-0.149-2.054,0.06c-0.133-0.092-0.333-0.084-0.373,0.117
				c-0.007,0.033-0.016,0.065-0.023,0.098c-0.324,0.265-0.475,0.681-0.257,1.093c-0.113,0.457-0.222,0.916-0.289,1.389
				c-0.12,0.834-0.195,1.674-0.219,2.516c-0.025,0.883,0.032,1.775,0.121,2.654c0.069,0.676,0.158,1.411,0.918,1.637
				c0.36,0.107,0.772,0.083,1.143,0.098c0.469,0.019,0.938,0.034,1.407,0.046c0.909,0.023,1.818,0.033,2.727,0.029
				c0.714-0.003,1.631,0.093,2.069-0.61C304.714,232.35,304.542,231.415,304.528,230.715z M303.28,232.237
				c-0.089,0.185-0.466,0.115-0.676,0.119c-1.495,0.026-2.991,0.016-4.486-0.03c-0.16-0.005-0.732,0.052-0.825-0.033
				c-0.113-0.105-0.109-0.677-0.129-0.856c-0.081-0.741-0.117-1.482-0.144-2.227c-0.029-0.8-0.029-1.599,0.002-2.399
				c0.015-0.4,0.023-0.815,0.042-1.23c0.24-0.027,0.461-0.189,0.553-0.422c0.099,0.007,0.232-0.003,0.302-0.003
				c0.264,0.003,0.529,0.006,0.793,0.009c0.558,0.006,1.116,0.013,1.673,0.019c0.905,0.01,1.81,0.02,2.715,0.031
				c0.038,1.277,0.075,2.555,0.108,3.832c0.019,0.731,0.037,1.463,0.055,2.194c0.005,0.205,0.01,0.41,0.016,0.614
				C303.282,231.953,303.323,232.147,303.28,232.237z"/>
			<path style="fill:#D47172;" d="M293.412,242.205c-0.042-2.048-0.09-4.096-0.144-6.144c-0.009-0.356-0.291-0.645-0.651-0.651
				c-1.527-0.023-3.053-0.047-4.58-0.07c-0.643-0.01-1.434-0.149-2.054,0.06c-0.133-0.092-0.333-0.084-0.373,0.117
				c-0.007,0.033-0.016,0.065-0.023,0.098c-0.324,0.265-0.475,0.681-0.257,1.093c-0.113,0.457-0.222,0.915-0.289,1.389
				c-0.12,0.834-0.195,1.674-0.219,2.517c-0.025,0.883,0.032,1.775,0.121,2.654c0.069,0.676,0.158,1.411,0.918,1.637
				c0.36,0.107,0.772,0.083,1.143,0.098c0.469,0.019,0.938,0.034,1.407,0.046c0.909,0.023,1.818,0.033,2.727,0.029
				c0.714-0.003,1.631,0.093,2.069-0.61C293.598,243.84,293.426,242.905,293.412,242.205z M292.164,243.727
				c-0.089,0.185-0.465,0.116-0.676,0.119c-1.495,0.026-2.991,0.016-4.486-0.03c-0.159-0.005-0.732,0.052-0.825-0.033
				c-0.113-0.105-0.109-0.677-0.129-0.856c-0.081-0.741-0.117-1.482-0.144-2.227c-0.029-0.8-0.029-1.599,0.002-2.399
				c0.015-0.4,0.023-0.815,0.041-1.23c0.24-0.027,0.461-0.189,0.553-0.422c0.099,0.007,0.232-0.003,0.302-0.003
				c0.264,0.003,0.529,0.006,0.793,0.009c0.558,0.006,1.116,0.013,1.674,0.019c0.905,0.01,1.81,0.021,2.714,0.031
				c0.038,1.277,0.075,2.555,0.108,3.832c0.019,0.731,0.038,1.463,0.055,2.194c0.005,0.205,0.01,0.41,0.016,0.615
				C292.166,243.443,292.208,243.637,292.164,243.727z"/>
			<path style="fill:#D47172;" d="M304.528,242.205c-0.042-2.048-0.091-4.096-0.144-6.144c-0.009-0.356-0.291-0.645-0.651-0.651
				c-1.527-0.023-3.053-0.047-4.58-0.07c-0.643-0.01-1.434-0.149-2.054,0.06c-0.133-0.092-0.333-0.084-0.373,0.117
				c-0.007,0.033-0.016,0.065-0.023,0.098c-0.324,0.265-0.475,0.681-0.257,1.093c-0.113,0.457-0.222,0.915-0.289,1.389
				c-0.12,0.834-0.195,1.674-0.219,2.517c-0.025,0.883,0.032,1.775,0.121,2.654c0.069,0.676,0.158,1.411,0.918,1.637
				c0.36,0.107,0.772,0.083,1.143,0.098c0.469,0.019,0.938,0.034,1.407,0.046c0.909,0.023,1.818,0.033,2.727,0.029
				c0.714-0.003,1.631,0.093,2.069-0.61C304.714,243.84,304.542,242.905,304.528,242.205z M303.28,243.727
				c-0.089,0.185-0.466,0.116-0.676,0.119c-1.495,0.026-2.991,0.016-4.486-0.03c-0.16-0.005-0.732,0.052-0.825-0.033
				c-0.113-0.105-0.109-0.677-0.129-0.856c-0.081-0.741-0.117-1.482-0.144-2.227c-0.029-0.8-0.029-1.599,0.002-2.399
				c0.015-0.4,0.023-0.815,0.042-1.23c0.24-0.027,0.461-0.189,0.553-0.422c0.099,0.007,0.232-0.003,0.302-0.003
				c0.264,0.003,0.529,0.006,0.793,0.009c0.558,0.006,1.116,0.013,1.673,0.019c0.905,0.01,1.81,0.021,2.715,0.031
				c0.038,1.277,0.075,2.555,0.108,3.832c0.019,0.731,0.037,1.463,0.055,2.194c0.005,0.205,0.01,0.41,0.016,0.615
				C303.282,243.443,303.323,243.637,303.28,243.727z"/>
			<path style="fill:#5CC9BF;" d="M293.412,253.696c-0.042-2.048-0.09-4.096-0.144-6.143c-0.009-0.356-0.291-0.645-0.651-0.651
				c-1.527-0.023-3.053-0.047-4.58-0.07c-0.643-0.01-1.434-0.149-2.054,0.06c-0.133-0.092-0.333-0.084-0.373,0.117
				c-0.007,0.033-0.016,0.065-0.023,0.098c-0.324,0.265-0.475,0.681-0.257,1.093c-0.113,0.457-0.222,0.915-0.289,1.389
				c-0.12,0.835-0.195,1.674-0.219,2.516c-0.025,0.883,0.032,1.775,0.121,2.654c0.069,0.676,0.158,1.411,0.918,1.637
				c0.36,0.107,0.772,0.083,1.143,0.098c0.469,0.019,0.938,0.034,1.407,0.046c0.909,0.023,1.818,0.033,2.727,0.029
				c0.714-0.003,1.631,0.093,2.069-0.61C293.598,255.331,293.426,254.396,293.412,253.696z M292.164,255.218
				c-0.089,0.185-0.465,0.116-0.676,0.119c-1.495,0.026-2.991,0.016-4.486-0.03c-0.159-0.005-0.732,0.052-0.825-0.033
				c-0.113-0.105-0.109-0.677-0.129-0.856c-0.081-0.741-0.117-1.482-0.144-2.227c-0.029-0.8-0.029-1.599,0.002-2.399
				c0.015-0.4,0.023-0.815,0.041-1.23c0.24-0.027,0.461-0.189,0.553-0.423c0.099,0.007,0.232-0.003,0.302-0.003
				c0.264,0.003,0.529,0.006,0.793,0.009c0.558,0.006,1.116,0.013,1.674,0.019c0.905,0.01,1.81,0.02,2.714,0.031
				c0.038,1.277,0.075,2.555,0.108,3.832c0.019,0.731,0.038,1.463,0.055,2.194c0.005,0.205,0.01,0.41,0.016,0.614
				C292.166,254.934,292.208,255.128,292.164,255.218z"/>
			<path style="fill:#5CC9BF;" d="M304.528,253.696c-0.042-2.048-0.091-4.096-0.144-6.143c-0.009-0.356-0.291-0.645-0.651-0.651
				c-1.527-0.023-3.053-0.047-4.58-0.07c-0.643-0.01-1.434-0.149-2.054,0.06c-0.133-0.092-0.333-0.084-0.373,0.117
				c-0.007,0.033-0.016,0.065-0.023,0.098c-0.324,0.265-0.475,0.681-0.257,1.093c-0.113,0.457-0.222,0.915-0.289,1.389
				c-0.12,0.835-0.195,1.674-0.219,2.516c-0.025,0.883,0.032,1.775,0.121,2.654c0.069,0.676,0.158,1.411,0.918,1.637
				c0.36,0.107,0.772,0.083,1.143,0.098c0.469,0.019,0.938,0.034,1.407,0.046c0.909,0.023,1.818,0.033,2.727,0.029
				c0.714-0.003,1.631,0.093,2.069-0.61C304.714,255.331,304.542,254.396,304.528,253.696z M303.28,255.218
				c-0.089,0.185-0.466,0.116-0.676,0.119c-1.495,0.026-2.991,0.016-4.486-0.03c-0.16-0.005-0.732,0.052-0.825-0.033
				c-0.113-0.105-0.109-0.677-0.129-0.856c-0.081-0.741-0.117-1.482-0.144-2.227c-0.029-0.8-0.029-1.599,0.002-2.399
				c0.015-0.4,0.023-0.815,0.042-1.23c0.24-0.027,0.461-0.189,0.553-0.423c0.099,0.007,0.232-0.003,0.302-0.003
				c0.264,0.003,0.529,0.006,0.793,0.009c0.558,0.006,1.116,0.013,1.673,0.019c0.905,0.01,1.81,0.02,2.715,0.031
				c0.038,1.277,0.075,2.555,0.108,3.832c0.019,0.731,0.037,1.463,0.055,2.194c0.005,0.205,0.01,0.41,0.016,0.614
				C303.282,254.934,303.323,255.128,303.28,255.218z"/>
			<path style="fill:#5CC9BF;" d="M294.099,221.613c-0.779,1.447-1.526,2.909-2.34,4.338c-0.693,1.217-1.424,2.412-2.128,3.622
				c-0.251-0.243-0.502-0.485-0.754-0.727c-0.342-0.329-0.753-0.924-1.235-1.018c-0.165-0.032-0.315,0.071-0.321,0.245
				c-0.019,0.521,0.516,1.051,0.815,1.442c0.373,0.486,0.788,0.94,1.216,1.378c0.276,0.282,0.689,0.178,0.898-0.116
				c0.95-1.339,1.785-2.764,2.602-4.187c0.816-1.422,1.633-2.857,2.348-4.333C295.553,221.526,294.52,220.897,294.099,221.613z"/>
			<path style="fill:#5CC9BF;" d="M304.885,222.464c-0.318,0.178-0.604,0.418-0.906,0.622c-0.363,0.246-0.326,0.643-0.103,0.873
				c-0.541,0.868-1.087,1.733-1.602,2.617c-0.368,0.632-0.73,1.268-1.086,1.908c-0.256,0.462-0.532,0.925-0.769,1.403
				c-0.806-0.495-1.429-1.2-1.91-2.033c-0.164-0.283-0.598-0.093-0.521,0.22c0.33,1.352,1.28,2.439,2.406,3.2
				c0.293,0.198,0.658,0.035,0.841-0.221c0.423-0.589,0.732-1.275,1.087-1.906c0.371-0.659,0.749-1.314,1.134-1.965
				c0.758-1.281,1.543-2.545,2.353-3.794C306.189,222.803,305.452,222.147,304.885,222.464z"/>
			<path style="fill:#5CC9BF;" d="M293.316,235.762c-0.408,0.483-0.686,1.042-0.993,1.592c-0.29,0.521-0.581,1.042-0.871,1.563
				c-0.464,0.833-0.977,1.66-1.414,2.514c-0.222-0.219-0.448-0.434-0.67-0.653c-0.2-0.197-0.402-0.392-0.615-0.575
				c-0.107-0.092-0.215-0.182-0.322-0.274c-0.096-0.082-0.225-0.121-0.313-0.197c-0.176-0.152-0.492,0.047-0.344,0.265
				c0.067,0.098,0.085,0.215,0.152,0.322c0.062,0.1,0.131,0.198,0.196,0.296c0.165,0.245,0.343,0.481,0.525,0.714
				c0.356,0.454,0.721,0.901,1.059,1.369c0.265,0.366,0.737,0.375,1.001,0c0.692-0.986,1.239-2.096,1.839-3.141
				c0.297-0.517,0.594-1.034,0.891-1.551c0.313-0.546,0.655-1.075,0.859-1.673C294.48,235.792,293.693,235.316,293.316,235.762z"/>
			<path style="fill:#5CC9BF;" d="M304.913,233.715c-0.403,0.109-0.461,0.555-0.242,0.852c0,0.001-0.001-0.002-0.001,0
				c0.008,0.097-0.067,0.198-0.11,0.278c-0.171,0.32-0.401,0.619-0.599,0.924c-0.442,0.682-0.884,1.364-1.326,2.046
				c-0.428,0.66-0.862,1.316-1.281,1.981c-0.318,0.505-0.651,1.009-0.961,1.524c-0.268-0.233-0.526-0.484-0.773-0.725
				c-0.38-0.371-0.749-0.756-1.112-1.143c-0.192-0.205-0.461,0.055-0.362,0.279c0.238,0.536,0.525,1.032,0.874,1.502
				c0.346,0.466,0.766,0.859,1.136,1.303c0.176,0.212,0.608,0.219,0.782,0c0.613-0.771,1.14-1.633,1.682-2.455
				c0.549-0.832,1.092-1.667,1.639-2.5l0.776-1.184c0.245-0.374,0.542-0.744,0.722-1.154
				C306.035,234.609,305.865,233.458,304.913,233.715z"/>
		</g>
		<g>
			<path style="fill:#B5C7BA;" d="M192.685,119.416c-1.304-0.996-2.936-1.441-4.528-1.84c-20.195-5.067-41.312-6.433-61.991-4.011
				c-7.026,0.823-14.441,2.29-19.582,7.15c-2.228,2.106-3.966,4.961-3.924,8.026c0.053,3.922,3.048,7.327,6.591,9.011
				c3.542,1.684,7.566,1.972,11.483,2.167c17.969,0.892,36.14,0.675,54.101-0.356c5.788-0.332,10.499-2.04,15.207-5.564
				C194.2,130.886,198.042,123.509,192.685,119.416z"/>
			<g>
				<path d="M112.657,120.406c0.819-0.257,2.178-0.125,2.34,0.913c0.049,0.316,0.5,0.208,0.524-0.071
					c0.11-1.319-1.324-2.038-2.475-1.978c-1.515,0.079-2.942,1.1-3.618,2.441c-0.79,1.567-0.612,3.482,0.429,4.888
					c1.048,1.415,2.747,2.217,3.716,3.689c0.467,0.709,0.691,1.585,0.276,2.375c-0.411,0.783-1.061,0.708-1.726,0.506
					c-0.042-0.21-0.213-0.399-0.461-0.409c-0.399-0.016-0.655,0.146-0.859,0.483c-0.128,0.212-0.109,0.574,0.096,0.741
					c1.564,1.274,3.81,0.596,4.326-1.354c0.532-2.009-0.923-3.641-2.36-4.824c-0.812-0.669-1.721-1.318-2.273-2.236
					c-0.589-0.979-0.667-2.244-0.174-3.281C110.853,121.371,111.697,120.707,112.657,120.406z"/>
				<path d="M124.025,119.942c-1.114-0.218-2.297-0.227-3.428-0.269c-0.555-0.021-1.108-0.02-1.663-0.01
					c-0.52,0.01-1.113,0.026-1.591,0.251c-0.159,0.075-0.146,0.325,0,0.404c0.451,0.245,1.024,0.297,1.527,0.353
					c0.555,0.062,1.108,0.13,1.663,0.188c0.095,0.01,0.19,0.024,0.285,0.035c-0.079,0.338-0.164,0.676-0.21,1.013
					c-0.076,0.558-0.14,1.115-0.199,1.675c-0.117,1.117-0.204,2.235-0.292,3.354c-0.088,1.118-0.173,2.236-0.25,3.354
					c-0.041,0.602-0.083,1.204-0.124,1.806c-0.037,0.538-0.17,1.071,0.141,1.545c0.166,0.253,0.569,0.361,0.792,0.102
					c0.365-0.423,0.34-0.853,0.374-1.389c0.038-0.602,0.076-1.204,0.114-1.806c0.073-1.161,0.141-2.322,0.202-3.483
					c0.062-1.161,0.125-2.321,0.157-3.483c0.016-0.602,0.026-1.203,0.021-1.806c-0.002-0.265-0.032-0.532-0.061-0.799
					c0.788,0.108,1.58,0.228,2.367,0.26C124.582,121.268,124.763,120.086,124.025,119.942z"/>
				<path d="M135.756,133.771c-2.028-2.066-4.078-4.1-6.059-6.21c1.151-0.771,2.132-1.828,2.525-3.18
					c0.409-1.405,0.017-3.095-1.102-4.072c-1.13-0.987-3.035-1.085-3.763,0.424c-0.323,0.671-0.338,1.446-0.302,2.174
					c0.053,1.084,0.125,2.167,0.188,3.25c0.073,1.257,0.149,2.514,0.232,3.77c0.082,1.244,0.105,2.518,0.331,3.746
					c0.087,0.469,0.745,0.312,0.782-0.106c0.148-1.718,0.029-3.494-0.067-5.238c2.012,2.202,4.066,4.399,6.255,6.422
					C135.43,135.355,136.384,134.411,135.756,133.771z M128.431,121.451c0.32-0.853,1.256-0.684,1.833-0.171
					c0.504,0.449,0.764,1.147,0.794,1.81c0.075,1.655-1.275,2.889-2.614,3.637l-0.107-2.781
					C128.307,123.163,128.147,122.207,128.431,121.451z"/>
				<path d="M146.221,126.516c-0.172-0.045-0.352-0.055-0.534-0.052c-0.093-0.769-0.194-1.536-0.314-2.3
					c-0.339-2.156-0.923-5.383-3.188-6.371c-0.277-0.121-0.632-0.094-0.792,0.208c-1.342,2.537-2.172,5.273-2.663,8.094
					c-0.238,1.368-0.387,2.751-0.505,4.134c-0.118,1.391-0.237,2.897,0.042,4.275c0.027,0.132,0.207,0.109,0.245,0
					c0.434-1.237,0.533-2.635,0.678-3.931c0.082-0.739,0.176-1.476,0.281-2.211c1.113-0.043,2.227-0.051,3.338-0.146
					c0.555-0.047,1.114-0.118,1.663-0.225c0.158,1.75,0.304,3.503,0.543,5.238c0.107,0.772,1.381,0.583,1.354-0.183
					c-0.055-1.516-0.277-3.041-0.447-4.547c-0.034-0.303-0.071-0.607-0.105-0.911c0.218-0.106,0.424-0.23,0.582-0.4
					C146.599,126.971,146.523,126.594,146.221,126.516z M142.668,127.17c-1.024,0.281-2.054,0.524-3.108,0.636
					c0.072-0.474,0.142-0.948,0.227-1.421c0.45-2.504,1.167-4.97,2.331-7.238c0.692,0.569,1.073,1.45,1.347,2.302
					c0.389,1.208,0.581,2.469,0.727,3.727c0.059,0.507,0.108,1.017,0.157,1.526C143.786,126.846,143.229,127.016,142.668,127.17z"/>
				<path d="M154.039,119.828c-0.056-0.21-0.247-0.432-0.471-0.471c-1.189-0.21-2.453-0.201-3.657-0.224
					c-1.208-0.023-2.426-0.08-3.627,0.058c-0.258,0.029-0.365,0.423-0.066,0.491c1.165,0.267,2.364,0.369,3.547,0.536
					c0.089,0.013,0.177,0.024,0.266,0.037c-0.049,2.211,0.136,4.429,0.246,6.636c0.058,1.165,0.096,2.33,0.136,3.495
					c0.039,1.152-0.074,2.422,0.167,3.549c0.134,0.63,1.194,0.661,1.305,0c0.191-1.136,0.013-2.4-0.044-3.549
					c-0.06-1.209-0.15-2.418-0.246-3.625c-0.171-2.14-0.373-4.31-0.855-6.409c0.259,0.036,0.517,0.072,0.776,0.107
					c0.615,0.084,1.254,0.201,1.874,0.221c0.225,0.007,0.478-0.131,0.582-0.334C154.061,120.171,154.09,120.02,154.039,119.828z"/>
				<path d="M163.341,132.875c-1.746,0.267-3.409,0.582-5.189,0.531c-0.419-0.012-0.763,0.023-0.901-0.426
					c-0.106-0.348-0.074-0.753-0.08-1.111c-0.014-0.877-0.002-1.754,0.037-2.63c0.053-1.188,0.166-2.374,0.309-3.555
					c0.003,0,0.004,0.003,0.006,0.003c0.817,0.066,1.621,0.207,2.43,0.339c0.391,0.064,0.782,0.125,1.174,0.182
					c0.429,0.062,0.857,0.149,1.29,0.121c0.266-0.017,0.495-0.191,0.528-0.466c0.03-0.251-0.12-0.532-0.385-0.59
					c-0.815-0.177-1.71-0.094-2.542-0.084c-0.813,0.009-1.622,0.026-2.433-0.026c0.055-0.408,0.095-0.819,0.161-1.225
					c0.142-0.866,0.307-1.73,0.486-2.589c0.085-0.409,0.17-0.82,0.275-1.223c0.078-0.3,0.223-0.551,0.328-0.833
					c0.088,0.005,0.178,0.009,0.258,0.018c0.512,0.058,1.022,0.136,1.533,0.208c0.513,0.072,1.024,0.16,1.533,0.263
					c0.536,0.109,1.109,0.33,1.657,0.217c0.491-0.101,0.459-0.722,0.126-0.967c-0.433-0.32-1.113-0.321-1.629-0.388
					c-0.533-0.07-1.068-0.124-1.605-0.161c-0.538-0.037-1.076-0.033-1.615-0.016c-0.451,0.014-1.108-0.045-1.502,0.207
					c-0.143,0.092-0.148,0.299,0,0.39c0.045,0.028,0.103,0.04,0.154,0.061c-0.264,0.362-0.378,0.881-0.499,1.303
					c-0.311,1.084-0.571,2.178-0.779,3.287c-0.396,2.113-0.64,4.251-0.713,6.399c-0.051,1.499-0.479,4.235,1.511,4.684
					c0.974,0.22,2.12,0.091,3.105,0.008c1.107-0.093,2.291-0.216,3.349-0.564C164.604,133.952,164.228,132.74,163.341,132.875z"/>
				<path d="M175.78,120.209c-1.368-1.63-3.713-1.79-5.562-0.937c-1.932,0.891-3.299,2.809-3.896,4.808
					c-0.713,2.388-0.578,5.379,0.357,7.697c1.029,2.552,3.723,2.337,6.038,2.372c0.564,0.009,1.398,0.177,1.899-0.168
					c0.515-0.355,0.519-1.041,0.593-1.602c0.211-1.611,0.265-3.232,0.171-4.854c-0.026-0.459-0.405-0.732-0.848-0.646
					c-1.309,0.253-2.591,0.23-3.912,0.106c-0.823-0.077-0.885,1.12-0.179,1.351c-0.002,0.008-0.005,0.016-0.007,0.024
					c0.046,0.006,0.093,0.006,0.139,0.012c0.017,0.002,0.029,0.012,0.047,0.013c0.042,0.005,0.084,0,0.126,0.002
					c1.109,0.121,2.22,0.081,3.32-0.081c0.029,0.82,0.033,1.64-0.018,2.46c-0.035,0.551-0.087,1.102-0.159,1.65
					c-0.017,0.131-0.054,0.275-0.058,0.407c-0.001,0.02-0.005,0.033-0.009,0.048c-0.071-0.017-0.228-0.012-0.224-0.012
					c-0.202-0.03-0.426-0.004-0.629-0.006c-1.705-0.017-4.266,0.426-5.1-1.488c-0.804-1.846-0.971-4.305-0.572-6.262
					c0.348-1.703,1.23-3.357,2.674-4.376c1.612-1.137,3.888-1.382,5.516-0.137C175.719,120.766,175.943,120.404,175.78,120.209z"/>
				<path d="M187.423,120.009c-0.553,1.018-1.051,2.089-1.71,3.051c-0.482,0.703-1.165,1.282-1.689,1.96
					c-0.301-0.232-0.594-0.47-0.861-0.76c-0.397-0.432-0.732-0.918-1.013-1.433c-0.586-1.075-0.775-2.226-0.978-3.416
					c-0.071-0.414-0.703-0.376-0.799,0c-0.348,1.354,0.048,2.854,0.636,4.083c0.297,0.622,0.687,1.192,1.137,1.714
					c0.347,0.402,0.759,0.821,1.21,1.143c-0.219,0.908-0.057,1.882-0.03,2.811c0.041,1.368-0.198,2.682-0.262,4.038
					c-0.042,0.89,1.311,1.053,1.539,0.208c0.338-1.256,0.314-2.702,0.262-3.993c-0.045-1.129-0.417-2.424,0.196-3.451
					c0.566-0.947,1.356-1.711,1.864-2.708c0.515-1.011,0.831-2.035,0.796-3.166C187.716,119.937,187.501,119.865,187.423,120.009z"
					/>
			</g>
			<path d="M110.445,141.261c-1.69,2.683-3.32,5.406-4.944,8.129c-1.62,2.716-3.362,5.394-4.858,8.18
				c-0.314,0.584,0.525,1.069,0.885,0.518c1.73-2.647,3.246-5.458,4.856-8.181c1.613-2.729,3.223-5.463,4.769-8.231
				C111.412,141.212,110.726,140.815,110.445,141.261z"/>
			<path d="M100.737,120.104c-1.42-0.892-2.864-1.747-4.332-2.559c-0.709-0.393-1.425-0.774-2.146-1.146
				c-0.384-0.198-0.77-0.393-1.157-0.585c-0.353-0.175-0.722-0.419-1.129-0.376c-0.264,0.028-0.515,0.315-0.333,0.58
				c0.24,0.349,0.596,0.468,0.971,0.636c0.396,0.177,0.79,0.357,1.184,0.54c0.737,0.342,1.47,0.694,2.199,1.054
				c1.505,0.744,2.987,1.532,4.449,2.359C100.771,120.793,101.054,120.303,100.737,120.104z"/>
			<path d="M112.568,112.178c-4.381-7.93-9.08-15.673-13.974-23.295c-0.689-1.073-1.381-2.145-2.079-3.213
				c-0.675-1.033-1.306-2.266-2.174-3.146c-0.406-0.411-0.937,0.109-0.741,0.571c0.419,0.992,1.184,1.899,1.777,2.797
				c0.633,0.958,1.269,1.914,1.9,2.874c1.238,1.884,2.464,3.776,3.678,5.675c2.429,3.798,4.832,7.614,7.188,11.457
				c1.334,2.176,2.685,4.341,4.014,6.52C112.317,112.679,112.716,112.447,112.568,112.178z"/>
			<path d="M134.858,106.959c-0.06-1.201-0.121-2.402-0.181-3.603c-0.06-1.201-0.121-2.402-0.181-3.603
				c-0.03-0.601-0.058-1.201-0.092-1.802c-0.031-0.547,0.01-1.146-0.201-1.656c-0.15-0.363-0.691-0.436-0.815,0
				c-0.151,0.536-0.052,1.106-0.018,1.656c0.038,0.601,0.081,1.201,0.122,1.802c0.085,1.244,0.17,2.488,0.255,3.732
				c0.082,1.201,0.164,2.402,0.246,3.603c0.08,1.174,0.122,2.392,0.413,3.538c0.071,0.281,0.435,0.185,0.467-0.063
				C135.025,109.374,134.918,108.152,134.858,106.959z"/>
			<path d="M159.97,97.09c-0.01-2.131,0.016-4.262,0.073-6.391c0.028-1.043,0.064-2.086,0.109-3.129
				c0.043-0.999,0.323-2.248-0.002-3.205c-0.075-0.219-0.423-0.316-0.54-0.071c-0.42,0.883-0.297,2.056-0.338,3.015
				c-0.045,1.043-0.082,2.086-0.11,3.129c-0.059,2.173-0.078,4.348-0.059,6.522c0.037,4.342,0.122,8.722,0.681,13.032
				c0.044,0.339,0.556,0.365,0.55,0C160.26,105.689,159.99,101.395,159.97,97.09z"/>
			<path d="M181.922,97.035C181.921,97.035,181.921,97.035,181.922,97.035c-0.111-0.01-0.222-0.014-0.332-0.023
				c-0.527,1.533-1.071,3.059-1.613,4.586c-1.12,3.158-2.3,6.294-3.535,9.409c-0.114,0.287,0.38,0.498,0.502,0.212
				c1.296-3.033,2.542-6.088,3.731-9.164c0.597-1.546,1.165-3.103,1.723-4.664c0.026-0.072,0.051-0.145,0.076-0.217
				C182.291,97.125,182.109,97.069,181.922,97.035z"/>
			<path d="M201.57,111.042c-1.449,0.529-2.83,1.221-4.196,1.937c-1.341,0.703-2.705,1.431-3.883,2.389
				c-0.164,0.133,0.013,0.444,0.211,0.363c1.387-0.566,2.7-1.31,4.048-1.961c1.376-0.664,2.789-1.245,4.17-1.897
				C202.383,111.656,202.056,110.864,201.57,111.042z"/>
			<path d="M211.336,154.033c-7.281-4.487-14.228-9.504-20.998-14.723c-0.206-0.159-0.471,0.188-0.278,0.361
				c6.411,5.748,13.412,10.77,20.721,15.312C211.383,155.357,211.938,154.404,211.336,154.033z"/>
			<path d="M139.805,180.92c-0.541,0.159-0.456-2.676-0.464-2.954c-0.032-1.178-0.065-2.357-0.1-3.535
				c-0.07-2.357-0.14-4.714-0.21-7.07c-0.139-4.67-0.277-9.34-0.442-14.01c-0.094-2.664-0.227-5.325-0.357-7.987
				c-0.015-0.314-0.493-0.319-0.492,0c0.044,10.476,0.321,20.951,0.592,31.424c0.019,0.742,0.038,1.484,0.058,2.226
				c0.015,0.589-0.044,1.234,0.142,1.803c0.234,0.715,0.973,1.464,1.665,0.776C140.477,181.312,140.192,180.807,139.805,180.92z"/>
			<path d="M167.719,156.765c-0.132-1.204-0.25-2.41-0.353-3.618c-0.208-2.432-0.292-4.89-0.638-7.307
				c-0.035-0.244-0.384-0.159-0.403,0.054c-0.217,2.486-0.04,5.025,0.125,7.511c0.08,1.207,0.174,2.412,0.283,3.617
				c0.111,1.233,0.154,2.53,0.476,3.729c0.134,0.499,0.886,0.392,0.894-0.121C168.123,159.348,167.858,158.04,167.719,156.765z"/>
			<path style="fill:#B5C7BA;" d="M96.336,71.903C91.14,70.32,84.429,70.968,78.92,71.04c-5.408,0.071-11.065-0.062-15.972,1.972
				c-2.86,1.186-1.782,4.376,0.829,5.135c5.071,1.475,10.86,0.79,16.16,0.795c5.349,0.005,11.208,0.859,16.4-0.237
				C100.788,77.766,100.14,73.062,96.336,71.903z"/>
			<path style="fill:#C46345;" d="M85.372,108.946c-7.904,0.244-15.882-0.04-23.763,0.639c-1.554,0.134-9.741,0.365-8.091,4.006
				c1.806,3.988,8.508,3.42,12.224,3.667c6.515,0.433,13.103,0.259,19.63,0.252C90.888,117.503,90.884,108.776,85.372,108.946z"/>
			<path style="fill:#C46345;" d="M145.012,86.001c-10.437-0.544-20.888-0.758-31.338-0.775c-4.943-0.008-4.945,7.618,0,7.677
				c0.558,0.007,1.115,0.022,1.673,0.031c9.364,2.357,20.139,1.659,29.665,1.04C150.12,93.641,150.163,86.269,145.012,86.001z"/>
			<path style="fill:#B5C7BA;" d="M172.66,71.674c-9.336,0.163-18.671,0.222-28.008,0.176c-4.608-0.023-4.615,7.193,0,7.161
				c3.179-0.022,6.357-0.074,9.535-0.121c6.24,0.729,12.979,0.166,18.473-0.391C176.936,78.066,177.141,71.596,172.66,71.674z"/>
			<path style="fill:#C46345;" d="M199.288,88.264c-9.349-1.749-19.907-3.128-29.279-0.944c-3.292,0.767-2.43,5.607,0.775,5.728
				c1.562,0.059,3.105,0.086,4.642,0.106c2.416,0.307,4.916,0.259,7.359,0.406c5.22,0.315,10.43,0.613,15.64,1.083
				C202.043,94.969,202.887,88.937,199.288,88.264z"/>
			<path style="fill:#C46345;" d="M110.695,161.744c-6.094-0.16-12.209-0.597-18.318-0.808c-3.233-0.418-6.466-0.907-9.701-0.889
				c-1.096,0.006-1.956,0.473-2.56,1.157c-0.68,0.417-1.025,1.236-0.928,1.981c-0.267,1.665,0.487,3.468,2.525,3.967
				c9.042,2.215,19.743,1.389,28.98,0.989C114.798,167.964,114.827,161.852,110.695,161.744z"/>
			<path style="fill:#B5C7BA;" d="M150.5,177.701c-9.228-0.938-18.982-1.809-28.203-0.558c-5.097,0.692-3.38,8.144,1.148,8.483
				c5.788,0.433,11.595,0.412,17.405,0.559c3.172,0.23,6.374,0.384,9.651,0.504C156.375,186.905,156.142,178.275,150.5,177.701z"/>
			<path style="fill:#B5C7BA;" d="M72.802,146.622c-9.228-0.938-18.982-1.809-28.203-0.558c-5.096,0.692-3.38,8.144,1.148,8.483
				c5.788,0.433,11.595,0.412,17.405,0.559c3.172,0.23,6.374,0.384,9.651,0.504C78.677,155.826,78.445,147.196,72.802,146.622z"/>
			<path style="fill:#C46345;" d="M185.221,163.83c-3.348,0.08-6.547,0.298-9.69,0.662c-4.674,0.079-9.342-0.201-14.008-0.921
				c-5.738-0.885-6.918,7.307-1.07,7.903c8.629,0.879,17.135,0.565,25.695-0.79C190.064,170.064,189.092,163.738,185.221,163.83z"/>
			<path style="fill:#B5C7BA;" d="M232.158,158.368c-5.636,0.424-11.27,0.553-16.917,0.727c-1.944,0.06-3.943-0.011-5.928,0.018
				c-3.314-0.146-6.677-0.141-9.49,0.958c-2.356,0.92-3.45,4.49-0.767,5.869c4.526,2.328,10.412,1.689,15.41,1.57
				c5.916-0.141,11.818-0.641,17.692-1.333C237.033,165.603,237.247,157.986,232.158,158.368z"/>
			<path style="fill:#B5C7BA;" d="M229.086,111.066c-3.046-1.46-6.557-1.312-9.896-1.281c-3.107,0.028-6.438,0.17-9.157,1.813
				c-1.221,0.738-1.267,2.587,0,3.315c2.592,1.489,5.605,1.703,8.527,2.002c3.181,0.325,6.574,1.18,9.706,0.426
				C231.002,116.682,231.772,112.354,229.086,111.066z"/>
			<path style="fill:#B5C7BA;" d="M84.7,84.493c-6.698-0.294-13.813-0.479-20.414,0.844c-4.11,0.824-3.068,7.157,0.971,7.178
				c6.497,0.034,12.923-0.584,19.442-0.276C89.677,92.49,89.677,84.712,84.7,84.493z"/>
			<path style="fill:#B5C7BA;" d="M231.538,99.993c-6.698-0.294-13.813-0.479-20.414,0.844c-4.109,0.824-3.068,7.157,0.971,7.178
				c6.497,0.034,12.923-0.584,19.443-0.276C236.515,107.99,236.516,100.212,231.538,99.993z"/>
			<path d="M99.196,137.154c-6.003,2.522-11.866,5.434-17.694,8.333c-0.384,0.191-0.047,0.733,0.331,0.567
				c5.933-2.604,11.902-5.221,17.658-8.2C99.869,137.658,99.6,136.984,99.196,137.154z"/>
		</g>
		<g>
			<path style="fill:#FFFFFF;stroke:#222221;stroke-width:0.75;stroke-miterlimit:10;" d="M277.831,317.661
				c0.689-0.942,0.619-2.478,0.619-4.642c0-2.371,0-4.742,0-7.114c0-9.898,0-19.797,0-29.695c0-5.049,0-10.099,0-15.148
				c0-5.018,0.333-7.951-3.532-7.954c-2.051-0.001-4.102,0-6.153,0c-6.386,0-12.771,0-19.157,0c-13.145,0-26.289,0-39.434,0
				c-1.848,0-3.696,0-5.544,0c-0.487,0-0.882,0.584-0.882,1.304c0,3.493,0,6.986,0,10.48c0,10.586,0,21.172,0,31.758
				c0,4.722,0,9.444,0,14.166c0,1.612-0.02,3.227,0,4.839c0.043,3.362,0.774,2.993,3.038,2.993c12.664,0,25.328,0,37.992,0
				c7.009,0,14.018,0,21.027,0c2.536,0,5.071,0,7.607,0c0.854,0,1.8,0.172,2.646,0C276.924,318.471,277.478,318.144,277.831,317.661
				z"/>
			<g>
				<g>
					<rect x="209.385" y="256.216" style="fill:#70588A;" width="20.364" height="13.446"/>
					<rect x="231.567" y="256.216" style="fill:#5CC9BF;" width="20.364" height="13.446"/>
					<rect x="253.749" y="256.216" style="fill:#70588A;" width="20.364" height="13.446"/>
				</g>
				<g>
					<rect x="209.385" y="271.503" style="fill:#5CC9BF;" width="20.364" height="13.446"/>
					<rect x="231.567" y="271.503" style="fill:#EBEBEB;" width="20.364" height="13.446"/>
					<rect x="253.749" y="271.503" style="fill:#EBEBEB;" width="20.364" height="13.446"/>
				</g>
				<g>
					<rect x="209.385" y="286.789" style="fill:#EBEBEB;" width="20.364" height="13.446"/>
					<rect x="231.567" y="286.789" style="fill:#70588A;" width="20.364" height="13.446"/>
					<rect x="253.749" y="286.789" style="fill:#5CC9BF;" width="20.364" height="13.446"/>
				</g>
				<g>
					<rect x="209.385" y="302.076" style="fill:#70588A;" width="20.364" height="13.446"/>
					<rect x="231.567" y="302.076" style="fill:#70588A;" width="20.364" height="13.446"/>
					<rect x="253.749" y="302.076" style="fill:#70588A;" width="20.364" height="13.446"/>
				</g>
				<g>
					<path style="fill:#C46345;" d="M259.465,258.659c-0.744-0.845-2.119-0.885-3.101-0.369c-0.04,0.021-0.067,0.048-0.093,0.074
						c-0.476,0.205-0.877,0.511-1.035,1.005c-0.283,0.886,0.372,1.787,1.288,2.104c0.922,0.319,2.102,0.13,2.826-0.476
						C260.099,260.371,260.079,259.357,259.465,258.659z"/>
					<path style="fill:#70588A;" d="M237.928,259.329c-0.332-0.376-0.836-0.633-1.353-0.746c-0.551-0.121-1.185-0.169-1.718,0.031
						c-0.097,0.037-0.167,0.11-0.2,0.191c-0.626,0.282-1.151,0.734-1.421,1.326c-0.482,1.059,0.531,1.931,1.559,2.28
						c1.017,0.346,2.287,0.197,3.006-0.582C238.463,261.113,238.593,260.08,237.928,259.329z M237.353,261.07
						c-0.351,0.611-1.088,0.863-1.83,0.767c-0.64-0.083-1.771-0.543-1.643-1.27c0.069-0.393,0.415-0.763,0.739-1.017
						c0.179-0.14,0.378-0.251,0.591-0.335c0.605,0.091,1.236,0.1,1.757,0.398C237.521,259.93,237.655,260.545,237.353,261.07z"/>
					<path style="fill:#70588A;" d="M215.777,259.158c-0.264-0.41-0.779-0.647-1.305-0.614c-0.359,0.022-0.691,0.147-0.991,0.319
						c-0.764,0.112-1.408,0.552-1.709,1.211c-0.191,0.417-0.217,0.913,0.018,1.322c0.202,0.352,0.601,0.579,1.022,0.667
						c0.882,0.185,1.853-0.124,2.484-0.689C215.924,260.812,216.248,259.888,215.777,259.158z M214.967,260.815
						c-0.402,0.452-1.063,0.74-1.711,0.721c-0.28-0.008-0.583-0.078-0.785-0.261c-0.236-0.214-0.257-0.557-0.191-0.837
						c0.086-0.363,0.344-0.711,0.686-0.952c0.07,0.1,0.211,0.161,0.351,0.086c0.467-0.251,1.353-0.675,1.806-0.183
						C215.504,259.801,215.303,260.437,214.967,260.815z"/>
				</g>
				<g>
					<path style="fill:#70588A;" d="M259.465,289.174c-0.744-0.845-2.119-0.885-3.101-0.369c-0.04,0.021-0.067,0.048-0.093,0.074
						c-0.476,0.206-0.877,0.511-1.035,1.005c-0.283,0.886,0.372,1.787,1.288,2.104c0.922,0.319,2.102,0.13,2.826-0.476
						C260.099,290.885,260.079,289.872,259.465,289.174z M258.944,290.936c-0.442,0.485-1.289,0.658-1.95,0.523
						c-0.68-0.138-1.268-0.652-1.205-1.313c0.032-0.332,0.248-0.587,0.533-0.789c0.107,0.085,0.263,0.119,0.426,0.038
						c0.585-0.292,1.446-0.355,1.975,0.075C259.175,289.838,259.354,290.486,258.944,290.936z"/>
					<path style="fill:#70588A;" d="M237.928,289.101c-0.332-0.376-0.836-0.633-1.353-0.746c-0.551-0.121-1.185-0.169-1.718,0.031
						c-0.097,0.036-0.167,0.11-0.2,0.191c-0.626,0.282-1.151,0.734-1.421,1.326c-0.482,1.059,0.531,1.931,1.559,2.28
						c1.017,0.346,2.287,0.197,3.006-0.582C238.463,290.885,238.593,289.852,237.928,289.101z M237.353,290.843
						c-0.351,0.611-1.088,0.863-1.83,0.767c-0.64-0.082-1.771-0.543-1.643-1.27c0.069-0.393,0.415-0.763,0.739-1.017
						c0.179-0.14,0.378-0.251,0.591-0.335c0.605,0.091,1.236,0.1,1.757,0.398C237.521,289.702,237.655,290.317,237.353,290.843z"/>
					<path style="fill:#C46345;" d="M215.777,289.134c-0.264-0.41-0.779-0.647-1.305-0.614c-0.359,0.022-0.691,0.147-0.991,0.319
						c-0.764,0.112-1.408,0.552-1.709,1.211c-0.191,0.417-0.217,0.913,0.018,1.322c0.202,0.352,0.601,0.579,1.022,0.667
						c0.882,0.185,1.853-0.124,2.484-0.689C215.924,290.788,216.248,289.864,215.777,289.134z"/>
				</g>
				<g>
					<path style="fill:#70588A;" d="M259.465,304.241c-0.744-0.845-2.119-0.885-3.101-0.369c-0.04,0.021-0.067,0.048-0.093,0.074
						c-0.476,0.206-0.877,0.511-1.035,1.005c-0.283,0.886,0.372,1.787,1.288,2.104c0.922,0.319,2.102,0.13,2.826-0.476
						C260.099,305.952,260.079,304.938,259.465,304.241z M258.944,306.002c-0.442,0.485-1.289,0.658-1.95,0.524
						c-0.68-0.138-1.268-0.652-1.205-1.313c0.032-0.331,0.248-0.586,0.533-0.789c0.107,0.085,0.263,0.119,0.426,0.038
						c0.585-0.292,1.446-0.355,1.975,0.075C259.175,304.904,259.354,305.552,258.944,306.002z"/>
					<path style="fill:#70588A;" d="M237.928,304.91c-0.332-0.376-0.836-0.633-1.353-0.746c-0.551-0.121-1.185-0.169-1.718,0.031
						c-0.097,0.036-0.167,0.11-0.2,0.191c-0.626,0.282-1.151,0.734-1.421,1.326c-0.482,1.059,0.531,1.93,1.559,2.28
						c1.017,0.346,2.287,0.197,3.006-0.582C238.463,306.694,238.593,305.661,237.928,304.91z M237.353,306.651
						c-0.351,0.611-1.088,0.863-1.83,0.767c-0.64-0.083-1.771-0.543-1.643-1.27c0.069-0.393,0.415-0.763,0.739-1.017
						c0.179-0.141,0.378-0.251,0.591-0.335c0.605,0.091,1.236,0.1,1.757,0.398C237.521,305.511,237.655,306.126,237.353,306.651z"/>
					<path style="fill:#70588A;" d="M215.777,304.739c-0.264-0.41-0.779-0.647-1.305-0.614c-0.359,0.022-0.691,0.147-0.991,0.319
						c-0.764,0.112-1.408,0.552-1.709,1.211c-0.191,0.417-0.217,0.913,0.018,1.322c0.202,0.351,0.601,0.579,1.022,0.667
						c0.882,0.185,1.853-0.124,2.484-0.689C215.924,306.393,216.248,305.469,215.777,304.739z M214.967,306.396
						c-0.402,0.452-1.063,0.74-1.711,0.721c-0.28-0.008-0.583-0.078-0.785-0.261c-0.236-0.214-0.257-0.557-0.191-0.838
						c0.086-0.363,0.344-0.711,0.686-0.952c0.07,0.1,0.211,0.161,0.351,0.086c0.467-0.251,1.353-0.675,1.806-0.183
						C215.504,305.382,215.303,306.018,214.967,306.396z"/>
				</g>
				<g>
					<path style="fill:#C46345;" d="M259.465,273.884c-0.744-0.845-2.119-0.885-3.101-0.369c-0.04,0.021-0.067,0.048-0.093,0.074
						c-0.476,0.205-0.877,0.511-1.035,1.005c-0.283,0.886,0.372,1.787,1.288,2.104c0.922,0.319,2.102,0.13,2.826-0.476
						C260.099,275.595,260.079,274.581,259.465,273.884z"/>
					<path style="fill:#C46345;" d="M237.928,273.81c-0.332-0.376-0.836-0.633-1.353-0.746c-0.551-0.121-1.185-0.169-1.718,0.031
						c-0.097,0.036-0.167,0.11-0.2,0.191c-0.626,0.282-1.151,0.734-1.421,1.326c-0.482,1.059,0.531,1.931,1.559,2.28
						c1.017,0.346,2.287,0.197,3.006-0.582C238.463,275.594,238.593,274.562,237.928,273.81z"/>
					<path style="fill:#C46345;" d="M215.777,273.843c-0.264-0.41-0.779-0.647-1.305-0.614c-0.359,0.022-0.691,0.147-0.991,0.319
						c-0.764,0.112-1.408,0.553-1.709,1.211c-0.191,0.417-0.217,0.913,0.018,1.322c0.202,0.352,0.601,0.579,1.022,0.667
						c0.882,0.185,1.853-0.124,2.484-0.689C215.924,275.497,216.248,274.573,215.777,273.843z"/>
				</g>
			</g>
		</g>
		<g>
			<g>
				<path style="fill:#C46345;" d="M298.287,142.89c-1.236,2.735-2.473,5.471-3.656,8.229c-1.723,4.015-3.368,8.321-2.719,12.641
					c2.27-2.021,4.715-3.845,7.3-5.444c0.658,4.427,2.047,8.744,4.095,12.723c2.342-4.221,4.141-8.743,5.335-13.42
					c0.581,1.714,1.562,3.291,2.842,4.57c1.117-5.197-0.389-9.947-1.595-15.062c-0.754-3.201-6.421-9.226-10.112-6.456
					C299.062,141.208,298.663,142.057,298.287,142.89z"/>
				<g>
					<g>
						<path style="fill:#77457D;" d="M318.635,146.672c-0.706-2.084-2.219-5.169-2.385-5.452c-2.083-3.533-3.746-7.269-4.846-11.226
							c-3.47,0.182-6.948,0.213-10.42,0.095c-1.653-0.056-3.306-0.146-4.955-0.271c-3.592-0.273-3.64,1.343-4.432,4.463
							c-1.167,4.593-2.418,9.185-4.016,13.626c-0.106,0.294-0.21,0.627-0.072,0.907c0.181,0.367,0.663,0.438,1.071,0.462
							c10.071,0.579,20.188,0.345,30.221-0.7C319.146,148.538,318.995,147.735,318.635,146.672z"/>
						<path style="fill:#5CC9BF;" d="M315.727,137.38c0.085-0.145,0.164-0.308,0.235-0.493c4.528-11.765,7.342-24.188,8.336-36.755
							c0.942-11.907-5.439-24.8-11.869-34.542c-3.328-5.042-7.113-10.044-11.516-14.214c-0.499-0.472-7.86,10.818-8.491,11.793
							c-4.046,6.255-7.893,12.766-9.994,19.965c-2.692,9.225-2.364,19.12-0.494,28.546c1.87,9.426,5.231,18.481,8.578,27.488
							c-0.151-0.407,3.552-0.708,3.869-0.71c3.815-0.018,7.631-0.037,11.446-0.055c1.92-0.009,3.84-0.019,5.759-0.028
							C313.252,138.368,314.849,138.87,315.727,137.38z"/>
					</g>
				</g>
				<g>
					
						<ellipse transform="matrix(0.8444 -0.5356 0.5356 0.8444 -13.3486 179.3262)" style="fill:#FFFFFF;" cx="302.071" cy="112.645" rx="11.67" ry="11.67"/>
				</g>
				<g>
					
						<ellipse transform="matrix(0.8444 -0.5356 0.5356 0.8444 2.1833 174.7312)" style="fill:#FFFFFF;" cx="301.93" cy="83.607" rx="11.67" ry="11.67"/>
				</g>
				<path style="fill:#C46345;" d="M303.666,52.515c-0.29-0.307-0.576-0.62-0.85-0.952c-0.257-0.311-0.517-0.627-0.673-0.999
					c-0.179-0.428-0.209-0.901-0.237-1.364c-0.162-2.706-0.324-5.411-0.486-8.117c-2.099-0.994-1.344,2.274-1.344,3.3
					c0.001,1.264-0.007,2.527-0.023,3.791c-0.01,0.827,0.056,2.422-0.331,3.16c-0.086,0.165-0.237,0.285-0.378,0.407
					c-0.841,0.732-1.43,1.703-2,2.661c-1.227,2.061-2.432,4.136-3.612,6.225c2.068,0.553,4.873-0.225,6.983-0.409
					c2.585-0.225,5.171-0.451,7.756-0.676c-0.088,0.008-2.265-4.078-2.549-4.477C305.242,54.11,304.44,53.334,303.666,52.515z"/>
				<path d="M315.141,137.865c-2.174,0.042-4.351,0.246-6.525,0.325c-2.177,0.079-4.354,0.123-6.533,0.134
					c-2.129,0.01-4.26-0.001-6.389-0.043c-1.064-0.021-2.128-0.035-3.193-0.047c-1.076-0.012-2.224-0.114-3.281,0.114
					c-0.348,0.075-0.298,0.557,0,0.657c0.98,0.329,2.113,0.342,3.136,0.415c1.064,0.076,2.126,0.138,3.193,0.172
					c2.177,0.071,4.355,0.105,6.534,0.095c2.13-0.01,4.259-0.053,6.388-0.129c2.215-0.079,4.468-0.105,6.67-0.358
					C315.971,139.104,316.021,137.848,315.141,137.865z"/>
				<path d="M309.245,59.21c-2.654,0.212-5.31,0.408-7.965,0.608c-1.304,0.098-2.608,0.202-3.911,0.299
					c-1.267,0.095-2.578,0.106-3.825,0.366c-0.254,0.053-0.171,0.405,0.057,0.425c1.337,0.118,2.72-0.045,4.057-0.112
					c1.256-0.063,2.511-0.124,3.766-0.196c2.608-0.151,5.214-0.323,7.82-0.498C309.816,60.064,309.816,59.164,309.245,59.21z"/>
				<path d="M309.879,76.09c-4.396-4.727-12.333-4.65-16.306,0.568c-5.105,6.705-1.446,17.194,7.312,17.821
					c4.494,0.322,8.89-2.019,10.749-6.186C313.413,84.307,312.902,79.34,309.879,76.09z M311.285,86.65
					c-1.406,3.821-4.494,6.796-8.541,7.244c-2.508,0.278-4.927-0.839-6.978-2.319c-2.187-1.578-3.156-3.549-3.466-6.187
					c-0.207-1.757-0.285-3.137,0.15-4.827c0.403-1.566,1.064-3.071,2.207-4.243c1.067-1.094,2.494-1.771,3.95-2.237
					c1.078-0.346,2.196-0.589,3.328-0.622C308.569,73.264,313.726,80.015,311.285,86.65z"/>
				<path d="M310.757,106.461c-2.364-3.744-6.587-4.968-10.759-4.318c-2.178,0.339-4.183,1.498-5.707,3.072
					c-3.185,3.29-4.142,8.122-2.001,12.231c2.17,4.165,6.938,6.28,11.516,5.692c2.232-0.287,4.415-1.199,6.059-2.757
					c1.661-1.574,2.618-3.757,2.876-6.012C313.057,111.604,312.23,108.794,310.757,106.461z M310.099,118.59
					c-1.2,1.664-3.048,2.764-5.006,3.296c-4.03,1.096-8.722-0.2-11.265-3.606c-2.533-3.393-2.404-7.824,0.015-11.241
					c2.604-3.677,7.478-5.232,11.698-3.631c3.783,1.436,6.016,5.386,6.22,9.267C311.871,114.76,311.327,116.887,310.099,118.59z"/>
				<path style="fill:#77457D;" d="M306.364,114.337c-0.791-1.899-2.884-2.463-4.758-2.548c-0.929-0.042-2.048,0.062-2.836-0.534
					c-0.605-0.459-0.71-1.141-0.158-1.682c0.659-0.647,1.647-0.883,2.536-0.975c1.179-0.122,2.411-0.046,3.563,0.233
					c0.429,0.104,0.738-0.527,0.312-0.74c-0.916-0.458-1.928-0.744-2.955-0.827c0.017-0.133,0.021-0.269,0.019-0.397l-0.007-0.591
					c-0.005-0.43,0.028-0.883-0.046-1.307c-0.029-0.165-0.194-0.364-0.339-0.441c-0.149-0.079-0.302-0.11-0.47-0.088
					c-0.268,0.036-0.537,0.254-0.612,0.529c0,0-0.001,0-0.001,0c-0.001,0.007,0,0.013-0.001,0.02
					c-0.014,0.058-0.032,0.115-0.025,0.176c0.003,0.025,0.003,0.05,0.005,0.074c-0.029,0.344-0.023,0.696-0.027,1.037
					c-0.002,0.189-0.005,0.378-0.007,0.567c-0.002,0.146-0.001,0.302,0.021,0.451c-0.465,0.058-0.924,0.159-1.371,0.315
					c-1.587,0.555-3.062,2.086-2.148,3.846c1.022,1.968,3.415,1.628,5.246,1.848c0.879,0.106,1.821,0.382,2.402,1.095
					c0.506,0.621,0.541,1.398,0.072,2.05c-1.369,1.898-4.388,1.065-6.304,0.798c-0.404-0.056-0.801,0.098-0.922,0.524
					c-0.1,0.349,0.123,0.868,0.524,0.922c1.09,0.149,2.252,0.372,3.396,0.416c-0.004,0.136-0.002,0.271,0.011,0.408
					c0.038,0.394,0.094,0.781,0.203,1.162c0.095,0.331,0.419,0.539,0.757,0.494c0.315-0.042,0.627-0.335,0.598-0.677
					c-0.042-0.337-0.081-0.677-0.099-1.016c-0.007-0.14-0.012-0.288-0.025-0.433c0.505-0.074,1-0.206,1.474-0.427
					C305.983,117.875,307.081,116.061,306.364,114.337z"/>
				<path style="fill:#77457D;" d="M306.364,84.648c-0.791-1.898-2.884-2.463-4.758-2.548c-0.929-0.042-2.048,0.062-2.836-0.534
					c-0.605-0.458-0.71-1.14-0.158-1.682c0.659-0.647,1.647-0.883,2.536-0.975c1.179-0.122,2.411-0.046,3.563,0.233
					c0.429,0.104,0.738-0.527,0.312-0.74c-0.916-0.458-1.928-0.744-2.955-0.827c0.017-0.133,0.021-0.269,0.019-0.397l-0.007-0.591
					c-0.005-0.43,0.028-0.883-0.046-1.307c-0.029-0.165-0.194-0.364-0.339-0.441c-0.149-0.079-0.302-0.11-0.47-0.088
					c-0.268,0.036-0.537,0.254-0.612,0.529c0,0-0.001,0-0.001,0c-0.001,0.007,0,0.014-0.001,0.02
					c-0.014,0.058-0.032,0.114-0.025,0.176c0.003,0.025,0.003,0.05,0.005,0.075c-0.029,0.344-0.023,0.696-0.027,1.037
					c-0.002,0.189-0.005,0.378-0.007,0.567c-0.002,0.146-0.001,0.302,0.021,0.451c-0.465,0.058-0.924,0.159-1.371,0.315
					c-1.587,0.555-3.062,2.086-2.148,3.846c1.022,1.968,3.415,1.628,5.246,1.848c0.879,0.106,1.821,0.382,2.402,1.095
					c0.506,0.621,0.541,1.398,0.072,2.05c-1.369,1.898-4.388,1.065-6.304,0.798c-0.404-0.056-0.801,0.098-0.922,0.524
					c-0.1,0.349,0.123,0.868,0.524,0.922c1.09,0.149,2.252,0.372,3.396,0.416c-0.004,0.136-0.002,0.271,0.011,0.408
					c0.038,0.394,0.094,0.781,0.203,1.162c0.095,0.331,0.419,0.539,0.757,0.494c0.315-0.042,0.627-0.335,0.598-0.677
					c-0.042-0.337-0.081-0.677-0.099-1.016c-0.007-0.14-0.012-0.288-0.025-0.433c0.505-0.074,1-0.206,1.474-0.427
					C305.983,88.186,307.081,86.371,306.364,84.648z"/>
			</g>
			<path style="fill:#B5C7BA;" d="M294.189,174.587c0.015-0.439,0.104-0.963,0.014-1.396c-0.034-0.165-0.133-0.299-0.211-0.44
				c-0.114-0.207-0.145-0.368-0.136-0.637c0.006-0.208-0.303-0.203-0.32,0c-0.04,0.473-0.359,0.652-0.485,1.077
				c-0.112,0.379-0.078,0.881-0.103,1.272c-0.056,0.907-0.1,1.814-0.142,2.722c-0.085,1.856-0.15,3.713-0.185,5.57
				c-0.068,3.714-0.077,7.432,0.153,11.141c0.056,0.9,1.427,0.918,1.414,0c-0.053-3.714-0.169-7.426-0.156-11.141
				c0.006-1.816,0.027-3.631,0.072-5.446C294.128,176.402,294.158,175.495,294.189,174.587z"/>
			<path style="fill:#B5C7BA;" d="M302.588,191.19c-0.196-3.239-0.187-6.484-0.361-9.722c-0.019-0.356-0.513-0.347-0.547,0
				c-0.311,3.22-0.236,6.493-0.141,9.722c0.095,3.248,0.334,6.471,0.751,9.693c0.086,0.666,1.136,0.695,1.07,0
				C303.057,197.658,302.783,194.423,302.588,191.19z"/>
			<path style="fill:#B5C7BA;" d="M308.409,172.151c-0.041-0.37-0.625-0.376-0.586,0c0.538,5.169,0.815,10.375,1.485,15.528
				c0.076,0.587,0.997,0.617,0.945,0C309.815,182.488,308.98,177.329,308.409,172.151z"/>
		</g>
		<g>
			<g>
				<g>
					<g>
						<g>
							<g>
								<g>
									<path style="fill:#77457D;" d="M374.322,383.057c-0.718-0.925-1.512-1.767-2.369-2.518
										c-0.043,0.093-0.076,0.189-0.129,0.28c-0.819,1.391-2.604,1.828-3.988,0.977c-1.384-0.851-1.841-2.669-1.022-4.059
										c0.058-0.098,0.131-0.18,0.197-0.269c-1.063-0.441-2.164-0.777-3.287-1.005c0.011,0.109,0.03,0.217,0.029,0.329
										c-0.017,1.63-1.335,2.917-2.943,2.876c-1.608-0.042-2.897-1.397-2.88-3.027c0.001-0.128,0.024-0.249,0.041-0.372
										c-1.126,0.15-2.245,0.414-3.344,0.794c0.072,0.1,0.149,0.195,0.21,0.305c0.789,1.433,0.292,3.225-1.109,4.004
										c-1.401,0.779-3.176,0.249-3.965-1.184c-0.069-0.126-0.116-0.257-0.166-0.387c-0.926,0.725-1.763,1.534-2.507,2.409
										c0.126,0.055,0.254,0.107,0.375,0.182c1.384,0.851,1.841,2.668,1.022,4.059c-0.819,1.391-2.604,1.828-3.988,0.977
										c-0.132-0.081-0.247-0.178-0.362-0.275c-0.432,1.096-0.757,2.235-0.966,3.399c0.145-0.019,0.291-0.038,0.442-0.034
										c1.608,0.042,2.897,1.397,2.879,3.027c-0.017,1.63-1.335,2.917-2.943,2.876c-0.163-0.004-0.319-0.031-0.474-0.061
										c0.169,1.168,0.454,2.33,0.86,3.472c0.119-0.094,0.24-0.187,0.377-0.263c1.401-0.779,3.176-0.249,3.965,1.184
										c0.789,1.433,0.292,3.225-1.109,4.004c-0.143,0.079-0.292,0.136-0.441,0.189c0.741,0.957,1.565,1.823,2.455,2.594
										c0.056-0.143,0.114-0.285,0.193-0.42c0.819-1.391,2.605-1.828,3.988-0.977c1.384,0.851,1.841,2.668,1.022,4.059
										c-0.08,0.136-0.177,0.256-0.274,0.374c1.09,0.447,2.221,0.785,3.373,1.008c-0.019-0.144-0.04-0.288-0.039-0.437
										c0.018-1.63,1.335-2.918,2.943-2.876c1.608,0.042,2.897,1.397,2.879,3.027c-0.002,0.149-0.025,0.291-0.048,0.433
										c1.134-0.16,2.262-0.436,3.367-0.831c-0.079-0.107-0.161-0.21-0.227-0.33c-0.789-1.432-0.292-3.225,1.109-4.004
										c1.401-0.779,3.176-0.249,3.965,1.184c0.064,0.117,0.107,0.239,0.154,0.359c0.91-0.727,1.733-1.535,2.463-2.408
										c-0.107-0.049-0.216-0.091-0.32-0.155c-1.384-0.851-1.841-2.669-1.022-4.059c0.819-1.391,2.605-1.828,3.988-0.977
										c0.102,0.063,0.188,0.14,0.279,0.213c0.413-1.074,0.722-2.189,0.922-3.327c-0.105,0.009-0.207,0.027-0.315,0.024
										c-1.608-0.042-2.897-1.397-2.88-3.027c0.018-1.63,1.335-2.917,2.943-2.876c0.11,0.003,0.214,0.027,0.321,0.041
										c-0.17-1.13-0.45-2.254-0.842-3.359c-0.081,0.056-0.154,0.121-0.243,0.169c-1.401,0.779-3.176,0.249-3.965-1.184
										c-0.789-1.432-0.292-3.225,1.109-4.004C374.125,383.13,374.225,383.098,374.322,383.057z M370.863,388.254
										c3.214,5.837,1.191,13.142-4.518,16.316c-5.71,3.174-12.944,1.014-16.158-4.823c-3.214-5.837-1.191-13.142,4.518-16.316
										C360.415,380.257,367.649,382.416,370.863,388.254z"/>
								</g>
								<path style="fill:#77457D;" d="M347.567,397.568c2.04,7.279,9.517,11.603,16.665,9.642
									c7.148-1.962,11.304-9.479,9.264-16.758c-2.04-7.279-9.516-11.604-16.664-9.643
									C349.683,382.771,345.527,390.289,347.567,397.568z M358.046,385.141c4.802-1.318,9.824,1.588,11.195,6.478
									c1.371,4.89-1.421,9.94-6.224,11.258c-4.802,1.318-9.825-1.587-11.195-6.477
									C350.451,391.51,353.244,386.459,358.046,385.141z"/>
							</g>
						</g>
					</g>
				</g>
				<g>
					<g>
						<g>
							<g>
								<g>
									<path style="fill:#2C6AA3;" d="M422.946,389.69c-0.975-1.256-2.052-2.398-3.216-3.417c-0.058,0.127-0.103,0.257-0.175,0.38
										c-1.112,1.887-3.535,2.481-5.413,1.326c-1.878-1.155-2.499-3.622-1.387-5.509c0.078-0.133,0.177-0.245,0.268-0.365
										c-1.442-0.598-2.937-1.055-4.461-1.363c0.015,0.148,0.041,0.294,0.039,0.447c-0.024,2.212-1.811,3.959-3.993,3.903
										c-2.182-0.057-3.931-1.896-3.908-4.108c0.002-0.173,0.033-0.338,0.056-0.505c-1.528,0.204-3.047,0.561-4.538,1.078
										c0.098,0.135,0.202,0.264,0.284,0.414c1.07,1.944,0.397,4.377-1.505,5.434c-1.902,1.057-4.311,0.338-5.381-1.606
										c-0.094-0.171-0.157-0.349-0.225-0.525c-1.256,0.984-2.392,2.081-3.402,3.269c0.172,0.075,0.344,0.146,0.509,0.247
										c1.878,1.155,2.499,3.621,1.387,5.509c-1.111,1.887-3.535,2.481-5.412,1.326c-0.179-0.11-0.335-0.242-0.491-0.374
										c-0.586,1.488-1.027,3.033-1.311,4.613c0.197-0.026,0.395-0.051,0.6-0.046c2.182,0.057,3.931,1.896,3.908,4.108
										c-0.024,2.212-1.812,3.959-3.994,3.903c-0.221-0.006-0.433-0.042-0.643-0.083c0.23,1.585,0.617,3.162,1.167,4.712
										c0.162-0.128,0.326-0.254,0.512-0.357c1.901-1.057,4.31-0.338,5.381,1.606c1.071,1.944,0.397,4.377-1.504,5.434
										c-0.194,0.108-0.396,0.185-0.599,0.256c1.006,1.299,2.124,2.474,3.332,3.52c0.076-0.193,0.154-0.386,0.262-0.57
										c1.112-1.887,3.535-2.481,5.412-1.326c1.878,1.155,2.499,3.621,1.387,5.509c-0.109,0.185-0.24,0.347-0.372,0.507
										c1.48,0.607,3.014,1.065,4.578,1.367c-0.026-0.195-0.055-0.391-0.052-0.593c0.024-2.212,1.812-3.96,3.993-3.903
										c2.182,0.057,3.931,1.896,3.908,4.108c-0.002,0.202-0.034,0.395-0.065,0.588c1.54-0.218,3.07-0.591,4.57-1.127
										c-0.107-0.145-0.218-0.285-0.307-0.447c-1.07-1.944-0.397-4.377,1.505-5.434c1.901-1.057,4.311-0.338,5.381,1.606
										c0.087,0.158,0.145,0.324,0.209,0.488c1.235-0.987,2.352-2.083,3.343-3.268c-0.146-0.067-0.294-0.124-0.434-0.211
										c-1.878-1.155-2.499-3.621-1.388-5.509c1.111-1.887,3.535-2.481,5.413-1.326c0.138,0.085,0.254,0.19,0.379,0.289
										c0.56-1.458,0.979-2.97,1.251-4.514c-0.142,0.012-0.281,0.036-0.428,0.033c-2.182-0.057-3.931-1.896-3.908-4.108
										c0.024-2.212,1.812-3.959,3.994-3.902c0.149,0.004,0.291,0.036,0.436,0.056c-0.231-1.533-0.611-3.059-1.142-4.558
										c-0.109,0.077-0.21,0.163-0.329,0.23c-1.901,1.057-4.31,0.338-5.381-1.606c-1.07-1.944-0.397-4.376,1.505-5.433
										C422.679,389.788,422.814,389.746,422.946,389.69z M418.252,396.742c4.362,7.922,1.617,17.836-6.132,22.143
										s-17.567,1.377-21.929-6.545c-4.362-7.922-1.617-17.836,6.132-22.143C404.072,385.889,413.89,388.82,418.252,396.742z"/>
								</g>
								<path style="fill:#2C6AA3;" d="M386.636,409.382c2.769,9.878,12.915,15.747,22.616,13.085
									c9.701-2.663,15.341-12.864,12.572-22.742c-2.769-9.878-12.914-15.749-22.615-13.086
									C389.508,389.301,383.867,399.504,386.636,409.382z M400.857,392.518c6.517-1.789,13.333,2.155,15.193,8.792
									c1.86,6.636-1.928,13.49-8.446,15.279c-6.517,1.789-13.333-2.155-15.194-8.79
									C390.55,401.161,394.34,394.307,400.857,392.518z"/>
							</g>
						</g>
					</g>
				</g>
				<g>
					<g>
						<g>
							<g>
								<g>
									<path style="fill:#C46345;" d="M402.742,348.829c-0.865-1.115-1.822-2.129-2.854-3.033
										c-0.051,0.113-0.091,0.228-0.155,0.337c-0.987,1.675-3.138,2.202-4.804,1.177c-1.667-1.025-2.218-3.215-1.232-4.89
										c0.069-0.118,0.157-0.217,0.238-0.324c-1.28-0.531-2.607-0.937-3.96-1.21c0.013,0.132,0.037,0.261,0.035,0.397
										c-0.021,1.964-1.608,3.514-3.545,3.464c-1.937-0.05-3.49-1.683-3.469-3.646c0.002-0.154,0.029-0.3,0.05-0.448
										c-1.356,0.181-2.705,0.498-4.028,0.957c0.087,0.12,0.179,0.234,0.252,0.367c0.95,1.726,0.352,3.885-1.336,4.823
										c-1.688,0.938-3.826,0.3-4.776-1.426c-0.083-0.151-0.14-0.309-0.2-0.466c-1.115,0.874-2.124,1.847-3.02,2.902
										c0.152,0.066,0.306,0.129,0.452,0.219c1.667,1.025,2.218,3.215,1.232,4.89c-0.987,1.675-3.138,2.202-4.804,1.177
										c-0.159-0.098-0.297-0.215-0.436-0.332c-0.52,1.321-0.911,2.692-1.164,4.094c0.175-0.023,0.35-0.046,0.533-0.041
										c1.937,0.05,3.49,1.683,3.469,3.646c-0.021,1.963-1.608,3.514-3.545,3.464c-0.196-0.005-0.384-0.037-0.571-0.073
										c0.204,1.406,0.548,2.807,1.036,4.182c0.144-0.113,0.289-0.225,0.454-0.317c1.688-0.938,3.826-0.3,4.776,1.426
										c0.95,1.726,0.352,3.885-1.335,4.823c-0.172,0.096-0.352,0.164-0.531,0.228c0.893,1.153,1.886,2.196,2.957,3.125
										c0.068-0.172,0.137-0.343,0.233-0.506c0.987-1.675,3.138-2.202,4.804-1.177c1.667,1.025,2.218,3.215,1.232,4.89
										c-0.097,0.165-0.213,0.308-0.33,0.45c1.314,0.539,2.675,0.945,4.064,1.214c-0.023-0.173-0.048-0.347-0.047-0.527
										c0.021-1.964,1.608-3.514,3.545-3.464c1.937,0.05,3.49,1.683,3.469,3.646c-0.002,0.179-0.03,0.35-0.057,0.522
										c1.367-0.193,2.725-0.525,4.057-1.001c-0.095-0.128-0.193-0.253-0.273-0.397c-0.95-1.726-0.352-3.885,1.336-4.823
										c1.688-0.938,3.827-0.3,4.777,1.426c0.077,0.141,0.128,0.288,0.185,0.433c1.096-0.876,2.087-1.849,2.967-2.901
										c-0.129-0.06-0.261-0.11-0.385-0.187c-1.667-1.025-2.218-3.215-1.232-4.89c0.986-1.675,3.138-2.202,4.804-1.177
										c0.122,0.076,0.226,0.169,0.336,0.256c0.497-1.294,0.869-2.637,1.111-4.007c-0.126,0.011-0.25,0.032-0.38,0.029
										c-1.937-0.05-3.49-1.683-3.469-3.646c0.021-1.963,1.608-3.514,3.545-3.464c0.133,0.003,0.258,0.032,0.387,0.05
										c-0.205-1.361-0.542-2.715-1.014-4.046c-0.097,0.068-0.186,0.145-0.292,0.204c-1.688,0.938-3.826,0.3-4.776-1.426
										c-0.95-1.725-0.352-3.885,1.336-4.823C402.505,348.916,402.625,348.878,402.742,348.829z M398.575,355.089
										c3.872,7.032,1.435,15.832-5.443,19.655c-6.878,3.823-15.593,1.222-19.465-5.81c-3.872-7.032-1.435-15.832,5.443-19.655
										C385.988,345.456,394.703,348.057,398.575,355.089z"/>
								</g>
								<path style="fill:#C46345;" d="M370.512,366.309c2.458,8.768,11.464,13.978,20.075,11.615
									c8.611-2.363,13.617-11.419,11.159-20.187c-2.458-8.768-11.463-13.979-20.074-11.616
									C373.061,348.484,368.054,357.54,370.512,366.309z M383.135,351.34c5.785-1.588,11.835,1.913,13.486,7.804
									c1.651,5.891-1.712,11.974-7.497,13.562c-5.785,1.588-11.835-1.913-13.487-7.803
									C373.986,359.012,377.35,352.927,383.135,351.34z"/>
							</g>
						</g>
					</g>
				</g>
			</g>
			<g>
				<g>
					<g>
						<path d="M219.251,425.112c0,2.335,2.114,4.227,4.721,4.227s4.721-1.893,4.721-4.227c0-2.335-2.114-4.227-4.721-4.227
							S219.251,422.777,219.251,425.112z"/>
						<path style="fill:#C46345;" d="M212.076,404.563c-2.177-4.66-4.608-9.023-2.315-14.654c1.924-4.724,6.67-8.166,11.758-8.526
							c2.418-0.171,4.837,0.3,7.172,0.95c1.961,0.546,3.941,1.25,5.469,2.596c2.531,2.229,3.381,5.831,3.43,9.204
							c0.121,8.277-6.113,14.708-5.769,23.085h-8.245h-0.133c0,0-8.245,0-8.245,0c0.464,0-0.826-6.277-0.956-6.842
							C213.771,408.324,212.943,406.42,212.076,404.563z"/>
						<path style="fill:none;stroke:#000000;stroke-width:0.5;stroke-miterlimit:10;" d="M226.634,418.547
							c0.471-6.33,1.34-12.628,2.601-18.843c-0.208,1.3-1.388,2.415-2.669,2.354c-1.281-0.061-2.391-1.451-2.057-2.723
							c0.073-0.277,0.306-0.586,0.57-0.493c0.128,0.045,0.21,0.173,0.268,0.299c0.592,1.262-0.448,2.984-1.812,3
							c-1.363,0.017-2.443-1.68-1.88-2.955c0.07-0.159,0.177-0.322,0.342-0.363c0.282-0.069,0.506,0.256,0.572,0.546
							c0.261,1.146-0.641,2.372-1.768,2.584c-1.128,0.211-2.31-0.483-2.86-1.516c-0.111-0.209-0.202-0.455-0.13-0.681
							c0.129-0.407,0.718-0.466,1.049-0.205c0.33,0.261,0.462,0.703,0.571,1.116c1.584,6.001,2.359,12.226,2.295,18.443"/>
					</g>
					<path d="M232.989,416.607c-0.663-1.21-2.402-1.049-3.576-1.13c-1.509-0.103-3.02-0.159-4.532-0.186
						c-3.024-0.055-6.048,0.022-9.066,0.222c-0.59,0.039-0.919,0.471-0.987,0.932c-0.179,0.184-0.256,0.481-0.215,0.727
						c0.133,0.805,0.998,1.089,1.876,1.21c-0.421,0.109-0.832,0.247-1.225,0.428c-0.741,0.341-0.712,1.569,0,1.92
						c0.761,0.375,1.595,0.585,2.461,0.702c-0.448,0.156-0.871,0.376-1.256,0.688c-0.397,0.322-0.187,0.885,0.146,1.132
						c1.685,1.25,4.361,0.772,6.358,0.753c2.393-0.023,4.866,0.137,7.227-0.282c1.444-0.256,1.203-1.897,0.251-2.537
						c0.32-0.082,0.63-0.181,0.926-0.301c1.19-0.486,1.463-2.141,0.278-2.719c0.158-0.02,0.316-0.034,0.474-0.055
						C232.865,418.014,233.387,417.334,232.989,416.607z"/>
					<path style="fill:#FFFFFF;" d="M234.594,391.362c-0.778-2.919-2.484-5.968-5.822-6.227c-0.46-0.036-0.445,0.659,0,0.708
						c2.974,0.334,4.181,3.259,4.974,5.752C233.917,392.133,234.741,391.912,234.594,391.362z"/>
				</g>
				<path d="M205.742,395.455c-2.143-0.107-4.27,0.039-6.412-0.254c-0.214-0.029-0.209,0.517,0,0.553
					c2.126,0.367,4.322,0.638,6.448,0.145C205.933,395.863,205.888,395.462,205.742,395.455z"/>
				<path d="M209.473,383.808c-1.529-1.333-3.235-2.463-4.876-3.651c-0.281-0.203-0.545,0.261-0.271,0.463
					c1.613,1.19,3.191,2.461,4.905,3.501C209.421,384.236,209.647,383.959,209.473,383.808z"/>
				<path d="M218.436,372.163c-0.126-0.398-0.752-0.23-0.629,0.173c0.661,2.155,1.203,4.406,2.115,6.471
					c0.116,0.263,0.484,0.064,0.437-0.184C219.941,376.43,219.111,374.289,218.436,372.163z"/>
				<path d="M242.977,383.024c-1.721,0.755-3.728,1.618-5.008,3.041c-0.218,0.242,0.053,0.557,0.334,0.432
					c1.754-0.779,3.306-2,5.059-2.817C243.808,383.473,243.418,382.83,242.977,383.024z"/>
				<path d="M235.199,373.567c-0.419,0.352-0.743,0.816-1.082,1.244c-0.349,0.44-0.691,0.885-1.019,1.342
					c-0.654,0.912-1.352,1.82-1.802,2.852c-0.108,0.249,0.202,0.57,0.415,0.32c0.723-0.851,1.269-1.831,1.886-2.76
					c0.306-0.461,0.609-0.923,0.915-1.384c0.312-0.47,0.676-0.926,0.912-1.44C235.492,373.592,235.327,373.46,235.199,373.567z"/>
				<path d="M245.633,394.996c-0.893,0.018-1.779,0.186-2.672,0.233c-0.896,0.048-1.786,0.111-2.681,0.026
					c-0.26-0.025-0.255,0.376,0,0.404c0.907,0.1,1.819,0.237,2.733,0.23c0.897-0.007,1.839-0.019,2.703-0.281
					C246.045,395.509,245.994,394.989,245.633,394.996z"/>
			</g>
			<g>
				<g>
					<path style="fill:#7BC9C2;" d="M165.036,421.749c-0.003-0.003-0.005-0.006-0.008-0.01c0.004,0.009,0.007,0.016,0.01,0.024
						C165.037,421.758,165.037,421.754,165.036,421.749z"/>
					<path style="fill:#5CC9BF;" d="M151.068,422.741c0.024,0.128,0.027,0.259,0.055,0.387c0.258,1.191-0.407,2.377-1.544,2.813
						c-1.551,0.595-3.055,1.418-4.44,2.089c-1.28,0.619-3.06,1.453-4.328,2.096c-3.888,1.971-7.759,3.979-11.611,6.019
						c-2.622,1.389-5.739,2.615-7.926,4.623c-1.009,0.927-0.898,2.802-0.172,3.841c0.855,1.223,2.309,1.508,3.678,1.15
						c1.399-0.367,2.757-1.354,4.034-2.046c1.302-0.705,2.606-1.405,3.913-2.101c2.441-1.3,4.89-2.584,7.348-3.851
						c2.489-1.283,4.968-2.583,7.458-3.864c1.663-0.856,3.594-1.675,5.259-2.77c0.897-0.59,1.988-0.687,2.985-0.376
						C154.333,427.995,152.892,425.226,151.068,422.741z"/>
				</g>
				<path d="M177.597,414.417c-0.515-1.17-1.178-2.277-1.989-3.281c-5.243-6.494-15.527-8.344-21.864-2.355
					c-5.825,5.506-5.501,15.458-0.432,21.339c4.269,4.953,11.772,6.483,17.692,3.758
					C178.25,430.544,180.704,421.482,177.597,414.417z M172.843,428.16c-3.427,4.138-9.972,4.747-14.402,1.899
					c-4.607-2.962-6.666-9.188-4.989-14.354c1.404-4.328,5.452-6.836,9.936-7.004c5.831-0.219,12.018,5.863,12.076,11.367
					C175.488,422.521,174.408,426.27,172.843,428.16z"/>
				<path style="fill:none;stroke:#000000;stroke-width:0.5;stroke-miterlimit:10;" d="M149.228,430.557
					c-7.56,4.261-15.098,7.909-22.232,11.851"/>
				<path style="fill:none;stroke:#000000;stroke-width:0.5;stroke-miterlimit:10;" d="M172.997,419.524
					c0.295,1.204,0.066,2.528-0.618,3.563"/>
				<path style="fill:none;stroke:#000000;stroke-width:0.5;stroke-miterlimit:10;" d="M171.315,424.922
					c-2.227,3.192-6.464,4.837-10.261,3.982"/>
			</g>
			<g>
				<g>
					<path style="fill:#7BC9C2;" d="M358.47,284.138c-0.921-0.009-1.608-0.332-0.705-1.595c1.414-1.978,3.073-3.766,4.726-5.549
						c5.285-5.699,10.571-11.398,15.856-17.096c0.495-0.534,1.054-1.102,1.777-1.187c1.534-0.18,1.343,1.837,1.466,2.791
						c0.509,3.94,1.017,7.88,1.526,11.82c0.262,2.033,0.525,4.067,0.788,6.1c0.221,1.709,0.845,3.299,1.092,4.911
						c0.083,0.541-0.141,1.172-0.648,1.378c-0.502,0.204-1.055-0.059-1.578-0.2c-0.747-0.202-1.535-0.152-2.309-0.152
						c-3.083-0.002-6.002-1.095-9.036-1.512l0.855,4.15c0.104,0.507-0.482,0.868-0.887,0.546l-6.137-4.873
						c-1.632,0.045-3.387-0.093-4.983,0.243C359.866,283.999,359.111,284.145,358.47,284.138z"/>
					<g>
						<defs>
							<path id="SVGID_00000173865364387079543510000016687783691494818728_" d="M358.479,283.855l22.066-27.224l7.076,28.025
								l-16.194-0.811l0.901,4.371c0.089,0.432-0.41,0.739-0.756,0.465l-6.314-5.014L358.479,283.855z"/>
						</defs>
						<clipPath id="SVGID_00000116227075192287518560000011862757794408178330_">
							<use xlink:href="#SVGID_00000173865364387079543510000016687783691494818728_"  style="overflow:visible;"/>
						</clipPath>
						<polygon style="clip-path:url(#SVGID_00000116227075192287518560000011862757794408178330_);" points="378.988,262.798 
							371.427,283.846 376.482,291.855 369.539,292.69 365.258,283.669 						"/>
					</g>
				</g>
				<g>
					<path style="fill:#7BC9C2;" d="M382.811,300.915c-0.695-0.844,0.169-1.964,0.723-2.619
						c6.732-7.969,13.281-16.153,20.252-23.914c0.34-0.378,0.947-0.367,1.259,0.035c0.372,0.478,0.554,1.181,0.664,1.802
						c1.473,8.331,2.947,16.663,4.42,24.994c0.143,0.809,0.073,1.942-0.738,2.071c-0.39,0.062-0.757-0.173-1.101-0.368
						c-1.739-0.987-3.687-0.771-5.588-1.054c-2.286-0.34-4.57-0.7-6.86-1.014l0.353,1.714c0.275,1.334-1.267,2.282-2.333,1.435
						l-4.189-3.326c-0.636-0.505-4.102,0.085-4.88,0.207c-0.82,0.128-1.172,0.95-1.949,0.077
						C382.833,300.941,382.822,300.928,382.811,300.915z"/>
					<g>
						<defs>
							<path id="SVGID_00000006673870900763959350000000527190280093844155_" d="M382.894,300.857l22.066-27.224l7.076,28.025
								l-16.194-0.811l0.645,4.03c0.061,0.384-0.377,0.648-0.687,0.413l-6.127-4.621L382.894,300.857z"/>
						</defs>
						<clipPath id="SVGID_00000180357526851880616740000018167835786064767129_">
							<use xlink:href="#SVGID_00000006673870900763959350000000527190280093844155_"  style="overflow:visible;"/>
						</clipPath>
						<polygon style="clip-path:url(#SVGID_00000180357526851880616740000018167835786064767129_);" points="403.044,278.106 
							395.843,300.848 400.897,308.857 393.954,309.692 389.673,300.671 						"/>
					</g>
				</g>
				<g>
					<path style="fill:#7BC9C2;" d="M385.59,264.143c-0.145-0.155-0.111-0.408,0.176-0.799c3.341-4.537,6.54-9.179,9.592-13.915
						c1.918-2.977,4.088-5.578,6.118-8.455c1.158-1.64,2.264-3.471,4.077-4.333c0.124-0.059,0.264-0.114,0.395-0.073
						c0.15,0.046,0.236,0.201,0.302,0.343c0.385,0.837,0.597,1.741,0.806,2.638c1.749,7.512,2.84,14.994,6.042,22.104
						c0.057,0.16,0.115,0.327,0.097,0.495c-0.058,0.543-0.768,0.694-1.314,0.705c-1.097,0.022-13.63,1-13.81,0.417
						c0.015,0.049,0.33,3.944,0.33,3.944s-6.484-3.52-6.488-3.522C391.3,263.296,386.3,264.903,385.59,264.143z"/>
					<g>
						<defs>
							<path id="SVGID_00000045611342091220618150000016798423655411933844_" d="M385.184,264.535l19.324-29.234l9.759,27.207
								l-16.196,0.763l1.219,3.935c0.165,0.533-0.426,0.981-0.895,0.678l-6.482-4.191L385.184,264.535z"/>
						</defs>
						<clipPath id="SVGID_00000126294362684443331700000017596842094390649263_">
							<use xlink:href="#SVGID_00000045611342091220618150000016798423655411933844_"  style="overflow:visible;"/>
						</clipPath>
						<polygon style="clip-path:url(#SVGID_00000126294362684443331700000017596842094390649263_);" points="403.555,241.589 
							398.071,263.271 403.878,270.752 397.048,272.257 391.913,263.692 						"/>
					</g>
				</g>
			</g>
			<g>
				<g>
					<g>
						<g>
							<polygon style="fill:#7BC9C2;" points="327.617,390.593 328.091,440.389 318.705,440.441 318.23,390.645 							"/>
							<path style="fill:#7BC9C2;" d="M308.89,398.291l0.216,42.217c0,0-9.384,0.054-9.386,0.054
								c-0.721,0.004-0.212-42.218-0.21-42.218C299.776,398.343,308.89,398.291,308.89,398.291z"/>
							<polygon style="fill:#7BC9C2;" points="280.412,409.25 280.733,440.681 290.119,440.631 289.798,409.25 							"/>
							<polygon style="fill:#7BC9C2;" points="270.498,422.431 270.675,440.739 261.289,440.793 261.112,422.485 							"/>
						</g>
					</g>
					<path d="M333.737,440.1c-5.318-0.465-10.708-0.219-16.038-0.238c-5.265-0.018-10.53-0.011-15.795-0.01
						c-10.611,0.001-21.221,0.003-31.832,0.004c-5.994,0.001-11.988,0.002-17.981,0.003c-0.834,0-0.835,1.517,0,1.517
						c21.221,0.003,42.443,0.077,63.664,0.003c5.973-0.021,12.023,0.277,17.982-0.244C334.305,441.086,334.306,440.15,333.737,440.1
						z"/>
				</g>
				<g>
					<defs>
						<polygon id="SVGID_00000137131040569191782660000012351208698957149365_" points="327.617,390.593 328.091,440.389 
							318.705,440.441 318.23,390.645 						"/>
					</defs>
					<clipPath id="SVGID_00000072973596822592622660000015946399172778705301_">
						<use xlink:href="#SVGID_00000137131040569191782660000012351208698957149365_"  style="overflow:visible;"/>
					</clipPath>
					<path style="clip-path:url(#SVGID_00000072973596822592622660000015946399172778705301_);" d="M330.282,392.051
						c-2.738,1.536-5.509,2.991-8.317,4.342c-1.34,0.644-2.688,1.268-4.042,1.871c-1.373,0.612-2.85,1.081-4.159,1.863
						c-0.404,0.242-0.116,0.944,0.299,0.831c1.43-0.389,2.828-1.199,4.184-1.849c1.372-0.657,2.738-1.335,4.095-2.034
						c2.764-1.423,5.498-2.927,8.196-4.513C330.831,392.392,330.574,391.887,330.282,392.051z"/>
					<path style="clip-path:url(#SVGID_00000072973596822592622660000015946399172778705301_);" d="M332.286,396.347
						c-3.202,1.509-6.388,3.063-9.548,4.688c-3.19,1.64-6.463,3.247-9.496,5.259c-0.443,0.294-0.054,0.996,0.388,0.777
						c3.143-1.563,6.184-3.44,9.286-5.116c3.152-1.703,6.329-3.344,9.536-4.901C332.818,396.876,332.662,396.17,332.286,396.347z"/>
					<path style="clip-path:url(#SVGID_00000072973596822592622660000015946399172778705301_);" d="M330.172,404.518
						c-2.55,1.172-5.097,2.35-7.65,3.511c-2.496,1.135-5.066,2.152-7.493,3.479c-0.369,0.201-0.109,0.922,0.278,0.771
						c2.551-0.999,5.025-2.343,7.514-3.537c2.499-1.199,5.003-2.382,7.506-3.57C330.665,405.01,330.521,404.358,330.172,404.518z"/>
					<path style="clip-path:url(#SVGID_00000072973596822592622660000015946399172778705301_);" d="M332.107,409.047
						c-2.839,1.278-5.684,2.536-8.531,3.788c-1.404,0.617-2.807,1.234-4.211,1.851c-1.397,0.614-2.837,1.159-4.176,1.934
						c-0.434,0.251-0.13,1.063,0.327,0.907c1.437-0.49,2.815-1.236,4.202-1.891c1.394-0.659,2.788-1.317,4.182-1.975
						c2.787-1.317,5.576-2.626,8.372-3.917C332.636,409.576,332.48,408.879,332.107,409.047z"/>
					<path style="clip-path:url(#SVGID_00000072973596822592622660000015946399172778705301_);" d="M331.186,415.855
						c-2.906,1.255-5.811,2.513-8.717,3.765c-2.856,1.23-5.785,2.332-8.555,3.809c-0.419,0.224-0.121,1.016,0.311,0.865
						c2.919-1.024,5.749-2.463,8.593-3.741c2.856-1.283,5.713-2.56,8.57-3.839C331.84,416.512,331.649,415.655,331.186,415.855z"/>
					<path style="clip-path:url(#SVGID_00000072973596822592622660000015946399172778705301_);" d="M331.892,423.242
						c-3.291,1.123-6.582,2.251-9.861,3.421c-1.62,0.578-3.237,1.165-4.851,1.762c-0.788,0.291-1.574,0.585-2.361,0.881
						c-0.687,0.259-1.604,0.391-2.059,1.086c-0.146,0.223,0.014,0.553,0.215,0.62c0.676,0.224,1.47-0.32,2.11-0.574
						c0.822-0.327,1.644-0.651,2.467-0.973c1.607-0.629,3.217-1.247,4.829-1.857c3.225-1.218,6.459-2.397,9.712-3.507
						C332.563,423.941,332.364,423.082,331.892,423.242z"/>
					<path style="clip-path:url(#SVGID_00000072973596822592622660000015946399172778705301_);" d="M330.35,429.115
						c-4.547,1.912-9.211,3.472-13.688,5.608c-0.513,0.245-0.324,1.206,0.236,1.002c4.621-1.687,9.072-3.962,13.625-5.877
						C330.913,429.684,330.745,428.949,330.35,429.115z"/>
				</g>
				<g>
					<defs>
						<polygon id="SVGID_00000107572351361533233180000007037448784410145940_" points="280.412,409.25 280.733,440.681 
							290.119,440.631 289.798,409.25 						"/>
					</defs>
					<clipPath id="SVGID_00000062185703495268042280000004939866504032426378_">
						<use xlink:href="#SVGID_00000107572351361533233180000007037448784410145940_"  style="overflow:visible;"/>
					</clipPath>
					<path style="clip-path:url(#SVGID_00000062185703495268042280000004939866504032426378_);" d="M291.637,410.195
						c-2.204,0.703-4.382,1.515-6.54,2.391c-1.08,0.438-2.155,0.89-3.226,1.357c-0.952,0.415-2.138,0.792-2.954,1.516
						c-0.063,0.056-0.055,0.209,0.046,0.199c1.023-0.102,2.087-0.708,3.052-1.106c1.077-0.444,2.158-0.873,3.242-1.288
						c2.171-0.831,4.356-1.609,6.541-2.388C292.166,410.743,292.012,410.075,291.637,410.195z"/>
					<path style="clip-path:url(#SVGID_00000062185703495268042280000004939866504032426378_);" d="M293.205,413.052
						c-1.32,0.3-2.595,0.884-3.863,1.398c-1.315,0.534-2.631,1.068-3.946,1.601c-2.592,1.052-5.155,2.207-7.755,3.232
						c-0.24,0.095-0.137,0.543,0.105,0.447c2.635-1.039,5.307-1.948,7.95-2.961c1.282-0.491,2.564-0.982,3.845-1.473
						c1.302-0.499,2.643-0.949,3.874-1.66C293.709,413.468,293.492,412.987,293.205,413.052z"/>
					<path style="clip-path:url(#SVGID_00000062185703495268042280000004939866504032426378_);" d="M293.838,419.595
						c-0.429-0.478-1.327,0.039-1.782,0.19c-1.726,0.571-3.443,1.182-5.162,1.777c-3.44,1.192-6.866,2.442-10.294,3.681
						c-0.34,0.123-0.198,0.739,0.147,0.626c2.811-0.921,5.625-1.832,8.441-2.732c1.368-0.438,2.732-0.892,4.098-1.337
						c0.723-0.236,1.447-0.471,2.17-0.706c0.322-0.104,0.644-0.205,0.964-0.314c0.2-0.068,0.4-0.14,0.599-0.211
						c0.08-0.028,0.16-0.056,0.24-0.084c0.015-0.002,0.02-0.009,0.033-0.012c0.09,0.079,0.203,0.131,0.308,0.113
						C293.994,420.515,294.123,419.914,293.838,419.595z"/>
					<path style="clip-path:url(#SVGID_00000062185703495268042280000004939866504032426378_);" d="M293.738,425.16
						c-1.433,0.396-2.828,1.01-4.22,1.567c-1.398,0.559-2.796,1.118-4.193,1.678c-2.796,1.121-5.579,2.281-8.384,3.367
						c-0.347,0.134-0.198,0.781,0.152,0.644c2.84-1.113,5.7-2.148,8.548-3.228c2.779-1.053,5.68-1.935,8.36-3.299
						C294.366,425.703,294.098,425.06,293.738,425.16z"/>
					<path style="clip-path:url(#SVGID_00000062185703495268042280000004939866504032426378_);" d="M292.007,431.586
						c-4.854,1.482-9.584,3.551-14.358,5.346c-0.28,0.105-0.163,0.617,0.122,0.519c4.806-1.663,9.707-3.069,14.429-5.042
						C292.637,432.226,292.467,431.445,292.007,431.586z"/>
				</g>
			</g>
			<path style="fill:#D6D6D6;" d="M210.766,428.14c-6.229,3.637-13.413,5.229-20.598,4.877c-2.072-0.101-4.137-0.378-6.179-0.741
				c-0.431-0.077-0.609,0.524-0.183,0.663c7.055,2.293,15.054,1.648,21.952-0.896c1.98-0.73,3.895-1.626,5.721-2.682
				C212.267,428.906,211.554,427.68,210.766,428.14z"/>
			<path style="fill:#D6D6D6;" d="M280.21,394.811c-0.349-0.812-1.212-1.491-1.855-2.077c-0.689-0.628-1.42-1.211-2.179-1.752
				c-1.498-1.068-3.123-1.935-4.824-2.632c-3.424-1.404-7.197-1.988-10.886-1.686c-2.021,0.165-4.147,0.577-5.973,1.483
				c-0.309,0.153-0.086,0.605,0.226,0.535c1.737-0.386,3.426-0.777,5.207-0.915c1.748-0.136,3.52-0.073,5.252,0.199
				c3.463,0.544,6.809,1.818,9.71,3.791c0.798,0.543,1.556,1.14,2.271,1.789c0.733,0.665,1.365,1.589,2.2,2.115
				C279.941,396.026,280.434,395.331,280.21,394.811z"/>
			<path style="fill:#D6D6D6;" d="M371.852,419.271c-0.454,0.356-0.888,0.654-1.309,1.061c-0.445,0.432-0.891,0.864-1.351,1.28
				c-0.852,0.769-1.745,1.489-2.68,2.155c-1.87,1.332-3.875,2.47-5.979,3.391c-4.242,1.857-8.888,2.776-13.512,2.792
				c-1.302,0.005-2.596-0.089-3.891-0.216c-1.282-0.126-2.545-0.43-3.827-0.535c-0.255-0.021-0.362,0.377-0.132,0.488
				c2.077,1.003,4.645,1.276,6.92,1.421c2.412,0.154,4.84,0.017,7.224-0.384c4.759-0.8,9.397-2.623,13.392-5.337
				c1.127-0.766,2.209-1.603,3.232-2.502c0.488-0.429,0.972-0.87,1.422-1.34c0.236-0.247,0.473-0.495,0.687-0.761
				c0.233-0.29,0.362-0.618,0.552-0.936C372.898,419.35,372.253,418.957,371.852,419.271z"/>
			<path style="fill:#D6D6D6;" d="M376.837,333.996c-1.109-2.372-2.854-4.359-3.852-6.825c-1.008-2.488-1.635-5.154-1.815-7.832
				c-0.353-5.268,0.76-10.923,3.642-15.396c0.395-0.614-0.541-1.117-0.958-0.56c-3.556,4.747-5.28,10.377-4.905,16.312
				c0.183,2.894,0.799,5.746,1.905,8.429c1.049,2.544,2.465,5.497,4.86,6.994C376.465,335.587,377.161,334.69,376.837,333.996z"/>
		</g>
		<g>
			<polyline style="fill:none;stroke:#000000;stroke-width:0.5;stroke-miterlimit:10;" points="114.926,380.057 112.766,374.31 
				118.562,373.86 116.91,367.595 123.039,367.325 121.164,361.163 127.381,360.544 125.68,354.349 			"/>
			<path style="fill:none;stroke:#000000;stroke-width:0.5;stroke-miterlimit:10;" d="M166.836,292.289
				c2.912,0,5.273,2.361,5.273,5.273c0,2.912-2.361,5.272-5.273,5.272"/>
			<polyline style="fill:none;stroke:#000000;stroke-width:0.5;stroke-miterlimit:10;" points="338.183,330.818 336.129,324.414 
				342.665,324.85 340.984,317.949 348.08,317.639 345.808,311.525 			"/>
			<path style="fill:none;stroke:#000000;stroke-width:0.5;stroke-miterlimit:10;" d="M416.025,363.006
				c-0.248-4.387,2.274-8.514,2.398-12.907c0.066-2.35-0.557-4.655-0.941-6.974c-0.384-2.319-0.508-4.797,0.489-6.925
				c0.997-2.128,3.417-3.74,5.686-3.127c2.432,0.657,3.634,3.393,4.078,5.873c0.493,2.756,0.465,5.605-0.083,8.35
				c-0.699,3.498-2.237,6.894-2.066,10.456c0.123,2.565,1.134,5.047,1.077,7.615c-0.064,2.915-2.579,6.669-5.835,5.638
				C417.928,370.088,416.179,365.731,416.025,363.006z"/>
			<path style="fill:none;stroke:#000000;stroke-width:0.5;stroke-miterlimit:10;" d="M253.365,177.09
				c1.988-2.436,3.74-4.893,5.723-7.355c0.614-0.762,1.265-1.552,2.167-1.93c0.902-0.378,2.127-0.179,2.579,0.688
				c0.471,0.902-0.072,1.972-0.509,2.891c-0.888,1.868-1.362,3.931-1.378,5.999c-0.012,1.505,0.213,3.029-0.087,4.504
				c-1.109,5.437-12.605,3.402-9.713-2.902C252.463,178.295,252.887,177.675,253.365,177.09z"/>
			<path style="fill:none;stroke:#000000;stroke-width:0.5;stroke-miterlimit:10;" d="M336.452,67.722
				c-0.507,0.4-0.984,0.916-1.072,1.556c-0.081,0.586,0.185,1.172,0.558,1.631c0.88,1.081,2.28,1.562,3.456,2.312
				c1.571,1.001,2.786,2.548,3.387,4.311c0.32,0.94,0.474,1.942,0.92,2.83c0.446,0.887,1.298,1.674,2.291,1.646
				c0.86-0.024,1.611-0.669,1.988-1.443c0.377-0.774,0.443-1.66,0.452-2.521c0.028-2.813-0.757-5.694-1.688-8.34
				c-0.786-2.236-3.283-3.408-5.549-3.506C339.502,66.124,337.784,66.673,336.452,67.722z"/>
			<g>
				<path style="fill:none;stroke:#000000;stroke-width:0.5;stroke-miterlimit:10;" d="M340.484,133.593
					c-2.712,4.42-5.424,8.841-8.136,13.261"/>
				<path style="fill:none;stroke:#000000;stroke-width:0.5;stroke-miterlimit:10;" d="M336.456,145.048
					c1.72-2.63,3.364-5.305,4.93-8.021"/>
			</g>
			<circle style="fill:none;stroke:#000000;stroke-width:0.5;stroke-miterlimit:10;" cx="175.874" cy="283.411" r="3.108"/>
			<circle style="fill:none;stroke:#000000;stroke-width:0.5;stroke-miterlimit:10;" cx="81.25" cy="221.401" r="2.59"/>
			<path style="fill:none;stroke:#000000;stroke-width:0.5;stroke-miterlimit:10;" d="M89.019,205.861
				c2.289,0,4.144,1.855,4.144,4.144c0,2.289-1.855,4.144-4.144,4.144"/>
			<path style="fill:none;stroke:#000000;stroke-width:0.5;stroke-miterlimit:10;" d="M262.377,150.03
				c0,1.001-0.812,1.813-1.813,1.813c-1.001,0-1.813-0.812-1.813-1.813c0-1.001,0.812-1.813,1.813-1.813
				C261.566,148.217,262.377,149.029,262.377,150.03z"/>
			<path style="fill:none;stroke:#000000;stroke-width:0.5;stroke-miterlimit:10;" d="M428.794,228.96
				c-1.354-0.649-3.115-0.308-4.129,0.799c-1.014,1.107-1.2,2.891-0.435,4.183"/>
		</g>
	</g>
</g>
</svg>
